<svg width="11" height="12" viewBox="0 0 11 12" fill="none" xmlns="http://www.w3.org/2000/svg">
<path fill-rule="evenodd" clip-rule="evenodd" d="M9.79603 1.83768C10.0165 1.83768 10.2 2.02071 10.2 2.25361V2.46894C10.2 2.69617 10.0165 2.88487 9.79603 2.88487H0.404517C0.183521 2.88487 0 2.69617 0 2.46894V2.25361C0 2.02071 0.183521 1.83768 0.404517 1.83768H2.05675C2.39238 1.83768 2.68447 1.59912 2.75997 1.26252L2.8465 0.876058C2.98097 0.34963 3.42351 0 3.92999 0H6.27001C6.77098 0 7.21848 0.34963 7.34799 0.848292L7.44058 1.26195C7.51553 1.59912 7.80762 1.83768 8.1438 1.83768H9.79603ZM8.95672 9.70905C9.12922 8.10144 9.43123 4.28214 9.43123 4.24361C9.44225 4.12688 9.40422 4.01638 9.32872 3.92741C9.24771 3.84411 9.1452 3.79481 9.03222 3.79481H1.17225C1.05872 3.79481 0.950699 3.84411 0.875748 3.92741C0.799694 4.01638 0.762219 4.12688 0.76773 4.24361C0.768742 4.25069 0.779579 4.38522 0.797697 4.61015C0.878182 5.60932 1.10235 8.3922 1.2472 9.70905C1.34971 10.6792 1.98624 11.2889 2.90825 11.311C3.61974 11.3274 4.35272 11.3331 5.10223 11.3331C5.80821 11.3331 6.52521 11.3274 7.25874 11.311C8.21272 11.2946 8.8487 10.6956 8.95672 9.70905Z" fill="#666666"/>
</svg>
