<svg width="162" height="158" viewBox="0 0 162 158" fill="none" xmlns="http://www.w3.org/2000/svg">
<g clip-path="url(#clip0_10309_10953)">
<mask id="mask0_10309_10953" style="mask-type:luminance" maskUnits="userSpaceOnUse" x="0" y="0" width="162" height="158">
<path d="M162 0H0V158H162V0Z" fill="white"/>
</mask>
<g mask="url(#mask0_10309_10953)">
<path d="M78.8959 141.673C113.752 141.673 142.013 113.376 142.013 78.4734C142.013 43.5712 113.752 15.2734 78.8959 15.2734C44.0396 15.2734 15.7791 43.5712 15.7791 78.4734C15.7791 113.376 44.0396 141.673 78.8959 141.673Z" fill="white" stroke="#462682" stroke-width="2.5" stroke-linecap="round" stroke-linejoin="round"/>
<path d="M103.901 33.4746H55.2271C50.5793 33.4746 46.8115 37.2474 46.8115 41.9013V106.697C46.8115 111.351 50.5793 115.124 55.2271 115.124H103.901C108.549 115.124 112.316 111.351 112.316 106.697V41.9013C112.316 37.2474 108.549 33.4746 103.901 33.4746Z" fill="url(#paint0_linear_10309_10953)"/>
<path d="M76.3188 44.0078H55.1747C53.7513 44.0078 52.5974 45.1632 52.5974 46.5885C52.5974 48.0137 53.7513 49.1691 55.1747 49.1691H76.3188C77.7422 49.1691 78.8961 48.0137 78.8961 46.5885C78.8961 45.1632 77.7422 44.0078 76.3188 44.0078Z" fill="#C11A85"/>
<path d="M102.618 58.6504H55.1747C53.7513 58.6504 52.5974 59.8058 52.5974 61.2311C52.5974 62.6563 53.7513 63.8117 55.1747 63.8117H102.618C104.041 63.8117 105.195 62.6563 105.195 61.2311C105.195 59.8058 104.041 58.6504 102.618 58.6504Z" fill="#4b14c4"/>
<path d="M102.618 73.291H55.1747C53.7513 73.291 52.5974 74.4464 52.5974 75.8717C52.5974 77.2969 53.7513 78.4524 55.1747 78.4524H102.618C104.041 78.4524 105.195 77.2969 105.195 75.8717C105.195 74.4464 104.041 73.291 102.618 73.291Z" fill="#4b14c4"/>
<path d="M102.618 87.9316H55.1747C53.7513 87.9316 52.5974 89.087 52.5974 90.5123C52.5974 91.9376 53.7513 93.093 55.1747 93.093H102.618C104.041 93.093 105.195 91.9376 105.195 90.5123C105.195 89.087 104.041 87.9316 102.618 87.9316Z" fill="#4b14c4"/>
<path d="M55.1747 102.574H102.618C104.043 102.574 105.195 103.728 105.195 105.155C105.195 106.582 104.043 107.736 102.618 107.736H55.1747C53.7493 107.736 52.5974 106.582 52.5974 105.155C52.5974 103.728 53.7493 102.574 55.1747 102.574Z" fill="#4b14c4"/>
<path d="M151.559 24.4473H119.959C118.486 24.4473 117.292 25.706 117.292 27.2544V42.9069C117.292 44.4606 118.486 45.7193 119.959 45.7193H151.559C153.032 45.7193 154.226 44.4606 154.226 42.9069V27.2544C154.226 25.7007 153.032 24.4473 151.559 24.4473Z" fill="#F3E8F9"/>
<path d="M125.182 38.447C126.923 38.447 128.338 37.0302 128.338 35.287C128.338 33.5437 126.923 32.127 125.182 32.127C123.441 32.127 122.026 33.5437 122.026 35.287C122.026 37.0302 123.441 38.447 125.182 38.447Z" fill="#C11A85"/>
<path d="M135.701 32.127H146.221C147.962 32.127 149.377 33.5437 149.377 35.287C149.377 37.0302 147.962 38.447 146.221 38.447H135.701C133.96 38.447 132.545 37.0302 132.545 35.287C132.545 33.5437 133.96 32.127 135.701 32.127Z" fill="#4b14c4"/>
<path d="M157.594 109.546C157.594 129.218 141.668 145.163 122.026 145.163C102.384 145.163 86.4578 129.218 86.4578 109.546C86.4578 89.8743 102.384 73.9297 122.026 73.9297C141.668 73.9297 157.594 89.8743 157.594 109.546Z" fill="white" stroke="#4b14c4" stroke-width="2.5"/>
<path d="M122.221 137.78C138.052 137.78 150.886 125.046 150.886 109.34C150.886 93.6352 138.052 80.9004 122.221 80.9004C106.389 80.9004 93.5549 93.6352 93.5549 109.34C93.5549 125.046 106.389 137.78 122.221 137.78Z" fill="#C11A85"/>
<path d="M127.036 109.287L133.695 102.504C134.32 101.832 134.662 100.94 134.649 100.019C134.635 99.0944 134.271 98.2155 133.628 97.5621C132.984 96.9087 132.12 96.536 131.211 96.5222C130.303 96.5084 129.425 96.8581 128.764 97.4885L122.091 104.271L115.432 97.4885C115.113 97.1434 114.726 96.8673 114.298 96.6786C113.871 96.49 113.412 96.3887 112.944 96.3795C112.476 96.3703 112.012 96.4624 111.58 96.6372C111.149 96.8167 110.757 97.079 110.424 97.4149C110.096 97.7508 109.835 98.1511 109.659 98.5883C109.484 99.0254 109.398 99.4994 109.403 99.9733C109.407 100.447 109.511 100.917 109.695 101.349C109.884 101.782 110.154 102.173 110.492 102.5L117.16 109.282L110.492 116.065C110.154 116.392 109.88 116.783 109.695 117.215C109.506 117.648 109.407 118.117 109.403 118.591C109.398 119.065 109.484 119.534 109.659 119.976C109.835 120.413 110.096 120.814 110.424 121.15C110.753 121.485 111.149 121.748 111.58 121.927C112.012 122.107 112.476 122.194 112.944 122.185C113.412 122.176 113.871 122.074 114.298 121.886C114.726 121.693 115.108 121.421 115.432 121.076L122.105 114.293L128.777 121.076C129.443 121.674 130.307 121.987 131.198 121.959C132.084 121.932 132.93 121.559 133.556 120.919C134.181 120.28 134.545 119.424 134.572 118.522C134.599 117.62 134.285 116.741 133.695 116.065L127.036 109.282V109.287Z" fill="white"/>
<path fill-rule="evenodd" clip-rule="evenodd" d="M29.6177 48.017C29.6072 47.2638 29.5125 46.5107 29.3284 45.747C28.6657 43.0716 25.7255 41.3546 22.5907 40.9491C19.4559 40.5436 16.2001 41.4653 14.943 43.7931C14.2224 45.1256 14.1277 46.2737 14.417 47.2375C14.7116 48.2013 15.4006 48.9966 16.3421 49.618C18.9667 51.3508 23.5585 51.7036 25.6571 50.9768C26.6249 50.6398 27.5716 50.2395 28.4974 49.776C27.9714 52.8044 26.0042 55.6694 23.3849 58.2501C17.6833 63.8644 8.8417 68.1251 4.02378 69.6946C3.76605 69.7788 3.61878 70.0632 3.70294 70.3371C3.78183 70.6057 4.0606 70.7584 4.31832 70.6742C9.23092 69.0784 18.2461 64.7228 24.0581 58.998C27.0614 56.0381 29.2022 52.7096 29.5651 49.2125C36.3501 45.4205 41.9255 38.537 46.6908 32.7489C46.8696 32.5382 46.8433 32.2117 46.6382 32.0274C46.4331 31.843 46.1227 31.8641 45.9439 32.08C41.3732 37.6364 36.0661 44.2408 29.6177 48.017ZM28.6288 48.5647C28.6657 47.722 28.5868 46.8636 28.3711 45.9998C27.7978 43.6825 25.1785 42.3132 22.4644 41.9656C20.8024 41.7496 19.0929 41.9287 17.7517 42.5555C16.9101 42.9505 16.2159 43.5192 15.7951 44.2987C15.2481 45.3152 15.1271 46.1894 15.3533 46.9268C15.5794 47.6694 16.137 48.2698 16.8681 48.749C19.2612 50.329 23.4427 50.6608 25.352 50.0025C26.4776 49.6128 27.5716 49.1282 28.6341 48.5647H28.6288Z" fill="#C11A85"/>
<path d="M150.954 100.066C152.697 100.066 154.11 98.6513 154.11 96.9061C154.11 95.1609 152.697 93.7461 150.954 93.7461C149.212 93.7461 147.799 95.1609 147.799 96.9061C147.799 98.6513 149.212 100.066 150.954 100.066Z" fill="#C11A85"/>
<path fill-rule="evenodd" clip-rule="evenodd" d="M29.2494 118.6C29.9873 118.314 30.7665 117.934 31.3665 117.375C32.0768 116.716 32.3664 115.871 32.5595 114.982C32.8078 113.836 32.9112 112.618 33.2146 111.471C33.325 111.041 33.5387 110.884 33.6353 110.812C33.8697 110.633 34.1042 110.583 34.3249 110.604C34.5869 110.626 34.9524 110.733 35.1869 111.22C35.2214 111.292 35.2627 111.392 35.2972 111.543C35.3179 111.65 35.3317 111.98 35.3593 112.116C35.4144 112.453 35.4627 112.79 35.511 113.126C35.6627 114.251 35.7454 115.204 36.2213 116.236C36.8626 117.64 37.5039 118.493 38.3797 118.873C39.221 119.238 40.2347 119.174 41.5243 118.88C41.6484 118.844 41.7657 118.823 41.8898 118.794C42.4553 118.686 43 119.095 43.1104 119.711C43.2207 120.327 42.8621 120.929 42.2966 121.065C42.1794 121.094 42.0622 121.123 41.9518 121.144C40.2072 121.617 38.1935 123.301 37.0212 124.77C36.6626 125.221 36.1316 126.496 35.5937 127.306C35.1938 127.901 34.7455 128.295 34.3731 128.438C34.118 128.531 33.9111 128.517 33.7318 128.467C33.4767 128.395 33.2629 128.245 33.1043 128.008C33.0146 127.879 32.9319 127.7 32.8974 127.478C32.8767 127.37 32.8767 127.098 32.8767 126.969C32.7664 126.554 32.6354 126.152 32.5319 125.737C32.2975 124.741 31.8423 124.11 31.2975 123.279C30.7872 122.498 30.2424 122.011 29.4356 121.617C29.3322 121.588 28.4909 121.366 28.1943 121.237C27.7599 121.051 27.553 120.728 27.4772 120.557C27.3461 120.27 27.3392 120.012 27.3599 119.804C27.3944 119.489 27.5254 119.224 27.753 119.009C27.8909 118.873 28.1047 118.744 28.3874 118.679C28.6081 118.629 29.1805 118.6 29.2632 118.6H29.2494ZM34.1939 116.981C34.2352 117.074 34.2766 117.175 34.318 117.268C35.2558 119.324 36.3109 120.471 37.5867 121.022L37.6281 121.044C36.773 121.739 36.0006 122.513 35.4075 123.258C35.1662 123.566 34.8421 124.204 34.4904 124.856C34.1732 123.731 33.656 122.935 33.0077 121.939C32.5112 121.18 31.9871 120.607 31.3458 120.141C31.8423 119.862 32.3181 119.532 32.7319 119.152C33.4215 118.514 33.8766 117.784 34.187 116.981H34.1939Z" fill="#ADC804"/>
</g>
</g>
<defs>
<linearGradient id="paint0_linear_10309_10953" x1="79.5639" y1="33.4746" x2="79.5639" y2="115.124" gradientUnits="userSpaceOnUse">
<stop stop-color="#F2E6F8"/>
<stop offset="0.72" stop-color="#FAF1FF"/>
</linearGradient>
<clipPath id="clip0_10309_10953">
<rect width="162" height="158" fill="white"/>
</clipPath>
</defs>
</svg>
