<svg width="175" height="151" viewBox="0 0 175 151" fill="none" xmlns="http://www.w3.org/2000/svg">
<path d="M61.9411 36.9709C63.2943 34.0745 65.0065 31.2795 67.1606 28.6413C84.071 7.90931 117.298 9.65734 136.786 26.3674C158.396 44.8994 156.398 76.0872 155.956 81.419C154.419 99.9601 144.813 130.133 122.72 136.281C112.456 139.136 102.661 135.926 94.1187 129.967C87.3711 125.263 78.4741 125.701 72.0349 131.217C69.6 133.302 66.8844 135.068 63.865 136.314C57.0392 139.141 50.959 138.385 48.3263 138.02C27.8028 135.202 7.75792 111.79 7.94663 89.8962C8.15836 64.7781 34.9876 45.5082 61.9411 36.9709Z" fill="#F5EDFF"/>
<path d="M62.4526 43.9855L36.4244 52.8104C36.1075 52.9182 35.7566 52.8191 35.5423 52.5621C35.328 52.3051 35.294 51.9421 35.4564 51.6494L41.9247 40.0214C42.1126 39.6837 42.513 39.5258 42.8806 39.644L46.9099 40.941L49.3195 37.4602C49.5396 37.1421 49.9533 37.0246 50.3077 37.1784L62.5143 42.4748C62.8214 42.6079 63.015 42.9167 63.0011 43.2515C62.9879 43.5862 62.7695 43.8778 62.4526 43.9855ZM37.8931 50.6025L59.9445 43.1259L50.2737 38.9301L47.9004 42.3584C47.697 42.6517 47.3259 42.7778 46.9865 42.6684L43.0178 41.3904L37.8931 50.6025Z" fill="#9DBDE4"/>
<path d="M36.4319 52.8101C36.327 52.8458 36.2135 52.8602 36.0988 52.8498C35.7796 52.821 35.5077 52.6067 35.4051 52.303L30.1866 36.9119C30.088 36.6221 30.1618 36.3017 30.3767 36.0833C30.5916 35.8655 30.9108 35.7872 31.2018 35.8805L42.8886 39.6436C43.1197 39.7179 43.3046 39.8919 43.394 40.1172C43.4827 40.3425 43.466 40.5961 43.3484 40.8081L36.8802 52.4361C36.7799 52.6159 36.6186 52.7467 36.4319 52.8101ZM32.2372 37.9162L36.3524 50.053L41.4528 40.8836L32.2372 37.9162Z" fill="#9DBDE4"/>
<path d="M62.4688 43.9881C62.2821 44.0515 62.0741 44.0457 61.8863 43.9639L49.6798 38.6676C49.4573 38.5714 49.2897 38.3801 49.2234 38.1467C49.1571 37.9133 49.1981 37.6627 49.3363 37.4633L56.3244 27.3685C56.4984 27.1173 56.7997 26.9848 57.1028 27.0274C57.4059 27.0701 57.6588 27.2798 57.7573 27.5696L62.9759 42.9608C63.0784 43.2638 62.9932 43.5998 62.7575 43.8164C62.6722 43.8948 62.5737 43.9524 62.4688 43.9881ZM51.2291 37.5746L60.8549 41.7508L56.7398 29.6139L51.2291 37.5746Z" fill="#9DBDE4"/>
<path d="M47.5018 42.6638C47.3411 42.7185 47.1636 42.7225 46.9936 42.6678L30.7054 37.4233C30.3729 37.3161 30.1465 37.0079 30.1436 36.6587C30.1407 36.3096 30.3625 35.9978 30.6933 35.8855L56.7214 27.0606C57.0522 26.9482 57.418 27.0611 57.6283 27.34C57.8386 27.6189 57.8467 28.0015 57.6474 28.2884L47.9075 42.3578C47.8061 42.5042 47.6626 42.609 47.5018 42.6638ZM33.5344 36.6328L46.9182 40.9415L54.9214 29.3809L33.5344 36.6328Z" fill="#9DBDE4"/>
<path d="M59.3064 29.199C59.3064 30.9206 57.881 32.3766 56.0477 32.3766C54.2145 32.3766 52.7891 30.9206 52.7891 29.199C52.7891 27.4774 54.2145 26.0215 56.0477 26.0215C57.881 26.0215 59.3064 27.4774 59.3064 29.199Z" fill="white" stroke="#ACC737" stroke-width="5"/>
<path d="M53.8584 29.3821L55.1358 30.8204L58.4004 27.7383" stroke="#ACC737" stroke-width="7" stroke-linecap="round"/>
<path d="M60.2006 133.868L32.7112 147.506C32.3765 147.672 31.9737 147.615 31.6983 147.362C31.4229 147.109 31.3313 146.713 31.4678 146.365L36.8955 132.536C37.0528 132.134 37.4723 131.9 37.8969 131.976L42.5491 132.812L44.6977 128.603C44.8936 128.218 45.3344 128.026 45.7492 128.143L60.0445 132.188C60.404 132.29 60.6644 132.603 60.699 132.975C60.7336 133.346 60.5354 133.702 60.2006 133.868ZM34.0076 144.844L57.2966 133.29L45.9711 130.085L43.8547 134.231C43.6738 134.586 43.2814 134.781 42.8896 134.71L38.3077 133.887L34.0076 144.844Z" fill="#9DBDE4"/>
<path d="M32.7014 147.505C32.5902 147.56 32.4675 147.592 32.339 147.598C31.9817 147.614 31.6487 147.416 31.4897 147.096L23.4253 130.841C23.2732 130.535 23.3072 130.169 23.5124 129.896C23.7175 129.623 24.0592 129.489 24.3956 129.549L37.8877 131.975C38.1545 132.022 38.3849 132.187 38.5175 132.423C38.6494 132.66 38.6684 132.943 38.5699 133.195L33.1422 147.025C33.0575 147.238 32.8985 147.407 32.7014 147.505ZM25.8442 131.647L32.203 144.465L36.4829 133.56L25.8442 131.647Z" fill="#9DBDE4"/>
<path d="M60.1962 133.875C59.9986 133.973 59.7681 133.997 59.548 133.935L45.2528 129.89C44.9924 129.817 44.7786 129.63 44.6703 129.382C44.5619 129.134 44.5706 128.85 44.6933 128.609L50.9248 116.399C51.0804 116.095 51.3938 115.905 51.7355 115.906C52.0772 115.909 52.3883 116.103 52.5404 116.409L60.6048 132.664C60.7638 132.984 60.7188 133.368 60.4907 133.643C60.4077 133.742 60.3074 133.82 60.1962 133.875ZM46.805 128.45L58.0776 131.64L51.7188 118.822L46.805 128.45Z" fill="#9DBDE4"/>
<path d="M43.4415 134.639C43.2721 134.723 43.0757 134.754 42.8798 134.719L24.0753 131.339C23.6915 131.27 23.3948 130.962 23.3401 130.576C23.2853 130.19 23.4841 129.812 23.8333 129.638L51.3226 116.001C51.6718 115.827 52.0936 115.897 52.3673 116.175C52.6415 116.452 52.7072 116.874 52.5298 117.221L43.8449 134.239C43.7544 134.417 43.6115 134.554 43.4415 134.639ZM27.0882 130.042L42.5392 132.819L49.6753 118.837L27.0882 130.042Z" fill="#9DBDE4"/>
<path d="M26.1699 129.555C26.9703 131.08 26.3852 133.031 24.7621 133.884C23.139 134.736 21.2001 134.109 20.3997 132.585C19.5994 131.061 20.1845 129.109 21.8076 128.257C23.4307 127.405 25.3696 128.031 26.1699 129.555Z" fill="white" stroke="#ACC737" stroke-width="5"/>
<path d="M21.4302 132.25L23.2299 132.93L24.6874 128.683" stroke="#ACC737" stroke-width="7" stroke-linecap="round"/>
<path d="M148.408 113.793L120.367 101.703C120.025 101.556 119.81 101.213 119.824 100.842C119.838 100.47 120.08 100.146 120.432 100.025L134.423 95.2457C134.829 95.1068 135.277 95.2745 135.492 95.6462L137.851 99.7152L142.43 98.6372C142.847 98.5386 143.277 98.7495 143.455 99.1402L149.583 112.594C149.738 112.933 149.668 113.331 149.407 113.597C149.147 113.862 148.75 113.94 148.408 113.793ZM123.222 100.974L146.979 111.217L142.123 100.558L137.614 101.62C137.228 101.711 136.828 101.538 136.629 101.195L134.306 97.1875L123.222 100.974Z" fill="#9DBDE4"/>
<path d="M120.367 101.702C120.254 101.653 120.149 101.581 120.062 101.487C119.821 101.226 119.756 100.847 119.897 100.52L127.046 83.9383C127.181 83.626 127.48 83.4163 127.819 83.3961C128.158 83.376 128.48 83.5488 128.651 83.8432L135.492 95.6453C135.626 95.8787 135.65 96.1598 135.556 96.4122C135.461 96.6646 135.259 96.8611 135.004 96.9481L121.013 101.728C120.798 101.801 120.568 101.789 120.367 101.702ZM127.99 86.2926L122.353 99.3681L133.385 95.5992L127.99 86.2926Z" fill="#9DBDE4"/>
<path d="M148.407 113.794C148.206 113.707 148.039 113.548 147.944 113.341L141.815 99.887C141.704 99.6421 141.708 99.3592 141.826 99.1178C141.945 98.8758 142.166 98.7 142.428 98.6378L155.706 95.5102C156.037 95.4325 156.384 95.5477 156.602 95.8081C156.821 96.0686 156.874 96.4304 156.739 96.7427L149.589 113.324C149.448 113.651 149.128 113.864 148.772 113.868C148.644 113.869 148.521 113.843 148.407 113.794ZM143.908 100.139L148.741 110.748L154.378 97.6727L143.908 100.139Z" fill="#9DBDE4"/>
<path d="M137.053 101.569C136.88 101.494 136.73 101.366 136.631 101.194L127.096 84.7456C126.901 84.4097 126.944 83.9868 127.202 83.697C127.46 83.4066 127.874 83.3144 128.231 83.4682L156.272 95.5584C156.629 95.7122 156.847 96.0769 156.812 96.4636C156.778 96.8502 156.5 97.1717 156.122 97.2604L137.616 101.619C137.423 101.664 137.227 101.643 137.053 101.569ZM130.018 86.1982L137.853 99.7138L153.06 96.1328L130.018 86.1982Z" fill="#9DBDE4"/>
<path d="M156.086 99.2009C155.067 100.588 153.056 100.917 151.579 99.8307C150.102 98.7447 149.816 96.7274 150.836 95.3403C151.855 93.9533 153.866 93.6246 155.343 94.7105C156.82 95.7965 157.106 97.8138 156.086 99.2009Z" fill="white" stroke="#ACC737" stroke-width="5"/>
<path d="M151.588 96.1212L151.765 98.0367L156.221 97.4874" stroke="#ACC737" stroke-width="7" stroke-linecap="round"/>
<path d="M40.7522 112.558H40.7153C40.5574 112.558 40.4301 112.429 40.4306 112.271C40.4312 112.114 40.5591 111.987 40.7164 111.987C40.717 111.987 40.717 111.987 40.7176 111.987H40.7522C41.5041 111.987 42.2635 111.942 43.0102 111.853C43.167 111.835 43.3087 111.946 43.3277 112.103C43.3462 112.26 43.2344 112.402 43.0777 112.421C42.3084 112.512 41.526 112.558 40.7522 112.558ZM37.4662 112.279C37.45 112.279 37.4339 112.278 37.4178 112.275C36.6451 112.143 35.8701 111.963 35.1142 111.739C34.9626 111.694 34.8768 111.536 34.9211 111.384C34.9661 111.233 35.1245 111.147 35.2761 111.191C36.0107 111.408 36.7638 111.583 37.514 111.712C37.6695 111.738 37.7738 111.886 37.7473 112.042C37.7237 112.181 37.6027 112.279 37.4662 112.279ZM46.2392 111.77C46.1153 111.77 46.0018 111.689 45.9649 111.564C45.9206 111.413 46.0076 111.254 46.1585 111.21C46.8909 110.996 47.618 110.735 48.321 110.435C48.4662 110.373 48.6338 110.441 48.6955 110.585C48.7571 110.731 48.6897 110.898 48.5451 110.96C47.8214 111.269 47.0724 111.537 46.3187 111.757C46.2928 111.767 46.2657 111.77 46.2392 111.77ZM32.1531 110.572C32.1111 110.572 32.0684 110.563 32.0287 110.543C31.3211 110.199 30.6274 109.809 29.9671 109.384C29.8345 109.299 29.7959 109.122 29.8818 108.989C29.9676 108.857 30.144 108.818 30.2765 108.904C30.9178 109.317 31.5913 109.696 32.2787 110.03C32.4205 110.099 32.4798 110.27 32.4107 110.412C32.3611 110.513 32.2591 110.572 32.1531 110.572ZM51.3183 109.46C51.2238 109.46 51.1316 109.414 51.0775 109.328C50.9928 109.195 51.0314 109.019 51.1645 108.934C51.8081 108.522 52.4338 108.068 53.0238 107.583C53.146 107.483 53.3257 107.501 53.426 107.622C53.5263 107.744 53.5084 107.924 53.3862 108.024C52.7789 108.523 52.1348 108.991 51.4721 109.415C51.4243 109.445 51.3713 109.46 51.3183 109.46ZM27.5361 107.439C27.4676 107.439 27.3984 107.415 27.3437 107.365C26.7635 106.835 26.2086 106.264 25.6946 105.668C25.5915 105.548 25.6047 105.368 25.7246 105.265C25.8439 105.162 26.0242 105.175 26.1273 105.295C26.6269 105.874 27.1656 106.428 27.7291 106.943C27.8455 107.049 27.8536 107.23 27.7476 107.346C27.6905 107.408 27.6133 107.439 27.5361 107.439ZM55.5447 105.816C55.4784 105.816 55.4115 105.793 55.3574 105.746C55.2387 105.642 55.226 105.462 55.3297 105.343C55.8316 104.767 56.3035 104.154 56.7322 103.523C56.8209 103.392 56.9984 103.358 57.1292 103.447C57.26 103.535 57.2939 103.713 57.2052 103.844C56.7633 104.494 56.2776 105.125 55.7607 105.718C55.7043 105.783 55.6247 105.816 55.5447 105.816ZM23.9926 103.128C23.8958 103.128 23.8018 103.079 23.7483 102.991C23.3403 102.319 22.9681 101.615 22.6425 100.9C22.5774 100.756 22.6408 100.587 22.7843 100.521C22.9278 100.456 23.0972 100.519 23.1628 100.663C23.4792 101.358 23.8404 102.041 24.2369 102.694C24.3187 102.829 24.2755 103.005 24.1406 103.086C24.094 103.115 24.0427 103.128 23.9926 103.128ZM58.5679 101.126C58.5282 101.126 58.4878 101.117 58.4492 101.1C58.3057 101.034 58.2429 100.865 58.308 100.721C58.6244 100.029 58.9038 99.3083 59.1389 98.5789L59.147 98.5541C59.1948 98.4037 59.3556 98.3213 59.5059 98.3691C59.6563 98.417 59.7393 98.5777 59.6909 98.7281L59.6828 98.7535C59.4408 99.5048 59.1533 100.246 58.8278 100.959C58.7799 101.063 58.6762 101.126 58.5679 101.126ZM21.8007 97.9975C21.6746 97.9975 21.5593 97.9134 21.5247 97.7855C21.3214 97.0255 21.1617 96.2465 21.0505 95.4692C21.0281 95.313 21.1364 95.1684 21.2925 95.1459C21.4487 95.1241 21.5933 95.2318 21.6158 95.3879C21.7241 96.1427 21.8791 96.8999 22.0762 97.638C22.1171 97.7901 22.0266 97.9468 21.8739 97.9877C21.8497 97.994 21.8249 97.9975 21.8007 97.9975ZM60.1553 95.7475C60.1415 95.7475 60.1276 95.7463 60.1138 95.7446C59.9577 95.7221 59.8493 95.5769 59.8724 95.4208C59.9824 94.6648 60.0476 93.8945 60.0666 93.1316C60.0706 92.9737 60.2008 92.8493 60.3593 92.8533C60.5171 92.8573 60.6416 92.9881 60.6376 93.146C60.618 93.9313 60.5506 94.7247 60.4376 95.5032C60.4169 95.6455 60.2948 95.7475 60.1553 95.7475ZM21.1433 92.4574C21.141 92.4574 21.1381 92.4574 21.1358 92.4574C20.9779 92.4534 20.8535 92.3226 20.8575 92.1647C20.8777 91.3794 20.9451 90.586 21.0592 89.8076C21.0822 89.6514 21.2269 89.5437 21.383 89.5661C21.5391 89.5892 21.6469 89.7338 21.6244 89.8899C21.5138 90.6459 21.4481 91.4163 21.4285 92.1791C21.4245 92.3341 21.2972 92.4574 21.1433 92.4574ZM60.1588 90.1682C60.0187 90.1682 59.8972 90.0657 59.8764 89.9234C59.7675 89.1686 59.6125 88.412 59.4143 87.6739C59.3734 87.5218 59.4639 87.3651 59.616 87.3242C59.7681 87.2833 59.9248 87.3737 59.9657 87.5259C60.1697 88.2853 60.3293 89.0648 60.4417 89.8421C60.4641 89.9983 60.3558 90.1429 60.1997 90.1654C60.1864 90.1671 60.1726 90.1682 60.1588 90.1682ZM22.0796 86.9566C22.0508 86.9566 22.0214 86.952 21.9926 86.9427C21.8422 86.8943 21.7598 86.7336 21.8077 86.5838L21.8123 86.5694C22.052 85.8244 22.3377 85.0868 22.661 84.3781C22.7267 84.2347 22.8961 84.1713 23.0395 84.237C23.183 84.3027 23.2464 84.4721 23.1807 84.6155C22.8667 85.3041 22.589 86.0208 22.3556 86.7457L22.3516 86.7584C22.313 86.8794 22.2006 86.9566 22.0796 86.9566ZM58.5869 84.8155C58.4786 84.8155 58.3749 84.7532 58.3271 84.6484C58.0101 83.9535 57.6483 83.2707 57.2513 82.6179C57.1695 82.483 57.2121 82.3073 57.347 82.2255C57.4818 82.1437 57.6575 82.1863 57.7393 82.3211C58.1479 82.993 58.5201 83.6959 58.8462 84.411C58.9119 84.5544 58.8485 84.7238 58.705 84.7895C58.667 84.8074 58.6267 84.8155 58.5869 84.8155ZM24.5186 81.938C24.4633 81.938 24.408 81.9218 24.3584 81.889C24.2276 81.8003 24.1937 81.6228 24.2824 81.4926C24.7237 80.8415 25.2089 80.2106 25.7252 79.6165C25.8289 79.4972 26.0092 79.4851 26.1279 79.5883C26.2472 79.692 26.2593 79.8723 26.1562 79.991C25.6549 80.5678 25.1835 81.1809 24.7549 81.8129C24.7001 81.8942 24.6102 81.938 24.5186 81.938ZM55.5758 80.1178C55.4957 80.1178 55.4161 80.0844 55.3597 80.0187C54.8601 79.4402 54.3208 78.8859 53.7567 78.3719C53.6403 78.2659 53.6317 78.085 53.7383 77.9686C53.8443 77.8522 54.0252 77.8436 54.1416 77.9502C54.7224 78.4797 55.2779 79.0501 55.7924 79.6459C55.8955 79.7652 55.8823 79.9455 55.763 80.0487C55.7083 80.0947 55.642 80.1178 55.5758 80.1178ZM28.2794 77.8142C28.197 77.8142 28.1152 77.7785 28.0587 77.7099C27.9585 77.5883 27.9763 77.408 28.0979 77.3077C28.7046 76.8087 29.3482 76.3403 30.0108 75.9162C30.1439 75.831 30.3203 75.8701 30.4055 76.0027C30.4908 76.1358 30.4516 76.3121 30.3191 76.3973C29.6755 76.8093 29.0503 77.2645 28.4609 77.7491C28.4079 77.7929 28.3434 77.8142 28.2794 77.8142ZM51.3621 76.4584C51.3091 76.4584 51.2555 76.4434 51.2077 76.4129C50.5664 76.0003 49.8922 75.6224 49.2048 75.2888C49.0631 75.2196 49.0038 75.0491 49.0723 74.9073C49.1415 74.7656 49.312 74.7062 49.4537 74.7748C50.1619 75.1182 50.8556 75.5077 51.5165 75.9324C51.649 76.0176 51.6876 76.1945 51.6024 76.327C51.5482 76.4123 51.456 76.4584 51.3621 76.4584ZM33.0485 74.9165C32.9373 74.9165 32.8319 74.8514 32.7858 74.7431C32.7235 74.5979 32.791 74.4302 32.9362 74.368C33.6593 74.0592 34.4077 73.7901 35.162 73.5688C35.3135 73.5245 35.472 73.6109 35.5163 73.7624C35.5607 73.914 35.4743 74.0724 35.3227 74.1168C34.5904 74.3317 33.8632 74.5927 33.1609 74.8929C33.1246 74.909 33.086 74.9165 33.0485 74.9165ZM46.287 74.141C46.2605 74.141 46.2329 74.137 46.2058 74.1295C45.4711 73.9128 44.7181 73.7377 43.9673 73.6103C43.8117 73.5838 43.7074 73.4363 43.7339 73.2807C43.7604 73.1252 43.9079 73.0209 44.0635 73.0474C44.8362 73.1788 45.6117 73.3591 46.3677 73.5821C46.5192 73.627 46.6057 73.7855 46.5607 73.937C46.5244 74.0603 46.4103 74.141 46.287 74.141ZM38.437 73.4738C38.2941 73.4738 38.1708 73.3672 38.1535 73.222C38.1351 73.0652 38.2469 72.9229 38.4036 72.9045C39.1769 72.8123 39.9639 72.7656 40.7418 72.7656C40.7424 72.7656 40.7424 72.7656 40.7429 72.7656H40.7648C40.9227 72.7656 41.0506 72.8935 41.0506 73.0514C41.0506 73.2093 40.9227 73.3372 40.7648 73.3372H40.7429C40.7424 73.3372 40.7424 73.3372 40.7418 73.3372C39.9864 73.3372 39.2224 73.3827 38.4716 73.472C38.4601 73.4732 38.4486 73.4738 38.437 73.4738Z" fill="black"/>
<path d="M129.316 138.039C129.108 138.039 128.937 137.871 128.935 137.663C128.933 137.453 129.101 137.28 129.311 137.277C130.102 137.268 130.901 137.237 131.687 137.183C131.898 137.169 132.079 137.328 132.093 137.537C132.107 137.747 131.949 137.929 131.739 137.943C130.939 137.997 130.125 138.029 129.32 138.039C129.319 138.039 129.318 138.039 129.316 138.039ZM125.96 137.947C125.951 137.947 125.942 137.947 125.934 137.946C125.131 137.893 124.32 137.816 123.525 137.716C123.316 137.691 123.168 137.5 123.193 137.292C123.219 137.083 123.409 136.935 123.618 136.961C124.4 137.057 125.196 137.133 125.984 137.186C126.194 137.2 126.353 137.382 126.339 137.592C126.326 137.793 126.158 137.947 125.96 137.947ZM135.051 137.585C134.866 137.585 134.703 137.449 134.675 137.26C134.644 137.052 134.788 136.858 134.996 136.827C135.777 136.711 136.564 136.571 137.336 136.411C137.543 136.369 137.744 136.501 137.786 136.707C137.829 136.913 137.696 137.114 137.491 137.157C136.705 137.32 135.903 137.462 135.108 137.58C135.088 137.583 135.07 137.585 135.051 137.585ZM120.259 137.174C120.233 137.174 120.207 137.171 120.181 137.166C119.394 137.003 118.602 136.816 117.825 136.609C117.622 136.555 117.502 136.346 117.556 136.143C117.61 135.94 117.819 135.819 118.022 135.873C118.784 136.077 119.563 136.26 120.335 136.419C120.541 136.462 120.674 136.663 120.632 136.869C120.595 137.05 120.436 137.174 120.259 137.174ZM140.671 136.353C140.506 136.353 140.354 136.245 140.305 136.078C140.247 135.877 140.362 135.665 140.564 135.606C141.322 135.384 142.082 135.138 142.826 134.874C143.024 134.803 143.242 134.906 143.312 135.105C143.382 135.303 143.279 135.521 143.081 135.591C142.324 135.86 141.549 136.111 140.778 136.337C140.742 136.347 140.706 136.353 140.671 136.353ZM114.717 135.628C114.675 135.628 114.632 135.621 114.59 135.606C113.831 135.337 113.07 135.042 112.328 134.73C112.134 134.648 112.043 134.425 112.125 134.231C112.206 134.038 112.429 133.946 112.624 134.028C113.352 134.334 114.099 134.623 114.844 134.888C115.042 134.958 115.146 135.176 115.076 135.374C115.02 135.53 114.874 135.628 114.717 135.628ZM146.067 134.363C145.922 134.363 145.783 134.28 145.72 134.138C145.633 133.946 145.719 133.721 145.911 133.635C146.63 133.312 147.349 132.964 148.048 132.601C148.234 132.504 148.464 132.577 148.561 132.764C148.658 132.95 148.585 133.18 148.399 133.277C147.686 133.647 146.955 134.001 146.223 134.33C146.172 134.352 146.119 134.363 146.067 134.363ZM109.433 133.333C109.374 133.333 109.314 133.32 109.258 133.291C108.544 132.92 107.831 132.524 107.139 132.114C106.958 132.007 106.899 131.773 107.006 131.592C107.113 131.411 107.347 131.351 107.528 131.459C108.207 131.862 108.907 132.251 109.608 132.614C109.795 132.711 109.868 132.941 109.771 133.128C109.704 133.259 109.57 133.333 109.433 133.333ZM151.138 131.655C151.012 131.655 150.887 131.592 150.815 131.476C150.703 131.298 150.758 131.063 150.936 130.951C151.604 130.533 152.269 130.091 152.914 129.635C153.085 129.513 153.323 129.554 153.444 129.726C153.566 129.898 153.525 130.135 153.353 130.257C152.697 130.72 152.02 131.172 151.339 131.597C151.277 131.637 151.208 131.655 151.138 131.655ZM104.514 130.34C104.438 130.34 104.362 130.317 104.295 130.27C103.639 129.806 102.987 129.317 102.357 128.817C102.192 128.686 102.165 128.446 102.296 128.281C102.427 128.117 102.667 128.09 102.831 128.22C103.45 128.712 104.09 129.192 104.734 129.648C104.906 129.769 104.947 130.006 104.825 130.178C104.751 130.284 104.634 130.34 104.514 130.34ZM155.796 128.281C155.687 128.281 155.579 128.234 155.504 128.144C155.369 127.982 155.391 127.742 155.552 127.607C156.158 127.102 156.758 126.572 157.334 126.034C157.488 125.891 157.729 125.899 157.872 126.053C158.016 126.207 158.008 126.447 157.854 126.591C157.267 127.139 156.657 127.678 156.039 128.192C155.969 128.252 155.882 128.281 155.796 128.281ZM100.05 126.707C99.9567 126.707 99.8639 126.673 99.7902 126.604C99.2031 126.056 98.624 125.484 98.068 124.903C97.9228 124.751 97.928 124.51 98.0801 124.364C98.2322 124.219 98.473 124.224 98.6188 124.377C99.1644 124.947 99.7337 125.509 100.31 126.048C100.464 126.191 100.472 126.432 100.329 126.586C100.253 126.666 100.151 126.707 100.05 126.707ZM159.956 124.306C159.864 124.306 159.772 124.273 159.699 124.206C159.544 124.064 159.533 123.823 159.675 123.668C160.207 123.085 160.73 122.479 161.228 121.867C161.361 121.704 161.601 121.679 161.764 121.813C161.927 121.946 161.952 122.185 161.819 122.348C161.311 122.972 160.779 123.588 160.237 124.182C160.161 124.264 160.059 124.306 159.956 124.306ZM96.1199 122.504C96.0092 122.504 95.8998 122.456 95.8243 122.364C95.3172 121.742 94.8206 121.096 94.3492 120.446C94.2259 120.276 94.264 120.038 94.4339 119.915C94.6039 119.791 94.8425 119.829 94.9658 119.999C95.429 120.638 95.9165 121.271 96.4149 121.883C96.548 122.046 96.5232 122.286 96.3601 122.419C96.2898 122.476 96.2046 122.504 96.1199 122.504ZM163.54 119.802C163.465 119.802 163.39 119.78 163.324 119.735C163.151 119.616 163.107 119.378 163.227 119.205C163.676 118.555 164.111 117.883 164.522 117.209C164.632 117.03 164.866 116.973 165.045 117.083C165.225 117.192 165.282 117.427 165.172 117.606C164.754 118.292 164.31 118.976 163.853 119.638C163.779 119.745 163.66 119.802 163.54 119.802ZM92.797 117.809C92.6685 117.809 92.5435 117.744 92.4714 117.627C92.0531 116.941 91.6492 116.235 91.2712 115.527C91.1721 115.342 91.2419 115.111 91.4274 115.012C91.6129 114.913 91.8434 114.983 91.9425 115.168C92.3141 115.863 92.7106 116.557 93.1214 117.23C93.2309 117.41 93.1744 117.644 92.9946 117.753C92.933 117.791 92.8644 117.809 92.797 117.809ZM166.479 114.852C166.422 114.852 166.363 114.838 166.308 114.811C166.12 114.716 166.045 114.487 166.14 114.299C166.496 113.593 166.837 112.868 167.151 112.144C167.235 111.951 167.459 111.863 167.653 111.946C167.846 112.031 167.934 112.255 167.85 112.448C167.529 113.185 167.183 113.923 166.82 114.642C166.753 114.775 166.618 114.852 166.479 114.852ZM90.1442 112.709C89.9973 112.709 89.8573 112.623 89.795 112.48C89.4747 111.744 89.171 110.991 88.8933 110.239C88.8207 110.042 88.9215 109.822 89.1186 109.749C89.3157 109.677 89.5352 109.778 89.6078 109.975C89.8803 110.713 90.1782 111.454 90.4934 112.176C90.5775 112.369 90.4894 112.593 90.2963 112.677C90.2468 112.698 90.1949 112.709 90.1442 112.709ZM168.716 109.543C168.675 109.543 168.633 109.536 168.592 109.522C168.394 109.454 168.287 109.238 168.355 109.039C168.611 108.292 168.849 107.528 169.061 106.769C169.117 106.566 169.327 106.448 169.53 106.504C169.733 106.561 169.851 106.771 169.795 106.973C169.579 107.747 169.337 108.524 169.077 109.285C169.022 109.444 168.874 109.543 168.716 109.543ZM88.214 107.293C88.0475 107.293 87.8948 107.183 87.8475 107.015C87.6309 106.242 87.4333 105.452 87.261 104.666C87.216 104.461 87.3457 104.258 87.5514 104.213C87.7565 104.168 87.9599 104.298 88.0048 104.503C88.1742 105.274 88.3678 106.05 88.581 106.809C88.6381 107.011 88.5199 107.222 88.3171 107.279C88.2831 107.289 88.248 107.293 88.214 107.293ZM170.201 103.985C170.177 103.985 170.153 103.982 170.128 103.978C169.922 103.937 169.787 103.737 169.827 103.531C169.977 102.757 170.108 101.969 170.215 101.186C170.243 100.978 170.436 100.832 170.644 100.86C170.852 100.888 170.998 101.08 170.97 101.289C170.861 102.086 170.728 102.889 170.575 103.677C170.539 103.858 170.38 103.985 170.201 103.985ZM87.0437 101.66C86.8565 101.66 86.6928 101.521 86.6669 101.331C86.558 100.536 86.4704 99.7261 86.4065 98.9246C86.3898 98.7149 86.5459 98.5316 86.7557 98.5149C86.9654 98.4976 87.1486 98.6544 87.1653 98.8641C87.2281 99.6517 87.314 100.446 87.4212 101.227C87.45 101.436 87.3042 101.627 87.0956 101.656C87.0783 101.659 87.061 101.66 87.0437 101.66ZM170.913 98.2758C170.906 98.2758 170.898 98.2758 170.891 98.2752C170.68 98.2637 170.52 98.0839 170.532 97.8736C170.576 97.0871 170.598 96.288 170.598 95.4974V95.415C170.597 95.2047 170.768 95.0342 170.978 95.0336H170.979C171.189 95.0336 171.359 95.2036 171.36 95.4139V95.4974C171.36 96.3018 171.337 97.1159 171.292 97.9163C171.281 98.1191 171.113 98.2758 170.913 98.2758ZM86.6514 95.9198C86.4411 95.9198 86.2711 95.7498 86.2705 95.5395V95.4974C86.2705 94.7063 86.2924 93.9066 86.3356 93.1206C86.3471 92.9103 86.5269 92.749 86.7366 92.7611C86.9469 92.7726 87.1077 92.9524 87.0962 93.1621C87.0535 93.9348 87.0322 94.7201 87.0322 95.4974V95.5383C87.0328 95.7486 86.8622 95.9192 86.6519 95.9198C86.6514 95.9198 86.6514 95.9198 86.6514 95.9198ZM170.841 92.4396C170.644 92.4396 170.478 92.2886 170.461 92.0893C170.398 91.3016 170.311 90.5065 170.203 89.7263C170.174 89.5177 170.32 89.3259 170.528 89.2971C170.737 89.2682 170.929 89.414 170.958 89.622C171.067 90.4166 171.156 91.2261 171.22 92.0282C171.237 92.2379 171.081 92.4217 170.871 92.4384C170.861 92.4396 170.851 92.4396 170.841 92.4396ZM87.0334 90.1798C87.0167 90.1798 86.9994 90.1786 86.9821 90.1763C86.7735 90.1481 86.6277 89.9562 86.6554 89.7482C86.7631 88.9513 86.8951 88.1481 87.0478 87.3599C87.0875 87.1536 87.2875 87.0188 87.4943 87.0586C87.7006 87.0983 87.836 87.2983 87.7957 87.5051C87.6459 88.2789 87.5162 89.0683 87.4102 89.8508C87.3843 90.0409 87.2212 90.1798 87.0334 90.1798ZM169.988 86.7503C169.814 86.7503 169.656 86.6293 169.617 86.4513C169.447 85.6803 169.252 84.9048 169.038 84.1459C168.981 83.9437 169.099 83.7334 169.302 83.6763C169.504 83.6193 169.715 83.7374 169.771 83.9397C169.989 84.7129 170.187 85.5029 170.361 86.2876C170.406 86.4933 170.276 86.6961 170.071 86.7417C170.043 86.7474 170.015 86.7503 169.988 86.7503ZM88.1921 84.5441C88.1581 84.5441 88.1241 84.5395 88.0895 84.5302C87.8867 84.4738 87.7686 84.2641 87.8251 84.0612C88.0406 83.2874 88.2814 82.509 88.5407 81.7484C88.6087 81.5491 88.8253 81.443 89.0241 81.511C89.2229 81.579 89.3295 81.7957 89.2615 81.9944C89.0068 82.7412 88.77 83.5052 88.5586 84.2652C88.5119 84.434 88.3586 84.5441 88.1921 84.5441ZM168.366 81.2304C168.211 81.2304 168.066 81.1354 168.009 80.9821C167.735 80.244 167.436 79.5036 167.121 78.7816C167.037 78.5892 167.125 78.3645 167.318 78.2803C167.51 78.1962 167.735 78.2844 167.819 78.4768C168.14 79.212 168.444 79.9657 168.723 80.7176C168.796 80.9147 168.695 81.1342 168.498 81.2068C168.454 81.2229 168.41 81.2304 168.366 81.2304ZM90.1137 79.1181C90.063 79.1181 90.0117 79.1077 89.9621 79.0864C89.7691 79.0029 89.6804 78.7787 89.7645 78.5857C90.0843 77.8476 90.43 77.1089 90.7924 76.3904C90.8869 76.2026 91.1157 76.1271 91.3041 76.2216C91.4919 76.3161 91.5674 76.5454 91.4729 76.7333C91.1174 77.4391 90.778 78.1645 90.4634 78.8894C90.4006 79.0323 90.2606 79.1181 90.1137 79.1181ZM166.005 75.9911C165.869 75.9911 165.737 75.918 165.669 75.7901C165.296 75.0957 164.899 74.4026 164.488 73.7296C164.379 73.5504 164.435 73.3159 164.614 73.2058C164.793 73.0958 165.028 73.1528 165.138 73.332C165.557 74.0171 165.961 74.7229 166.341 75.4299C166.44 75.6155 166.37 75.8459 166.185 75.9456C166.127 75.9767 166.065 75.9911 166.005 75.9911ZM92.7613 74.0039C92.6939 74.0039 92.6259 73.986 92.5636 73.9486C92.3839 73.8391 92.3268 73.6051 92.4363 73.4254C92.854 72.7386 93.2971 72.0546 93.7535 71.392C93.8727 71.2186 94.1101 71.1754 94.283 71.2946C94.4564 71.4139 94.4996 71.6513 94.3804 71.8241C93.9321 72.4747 93.4971 73.1465 93.0868 73.8212C93.0154 73.9388 92.8898 74.0039 92.7613 74.0039ZM162.949 71.1195C162.832 71.1195 162.715 71.0653 162.641 70.9627C162.178 70.3249 161.69 69.6917 161.19 69.0809C161.057 68.9179 161.081 68.6782 161.244 68.5451C161.407 68.412 161.647 68.4362 161.78 68.5992C162.288 69.2215 162.785 69.8663 163.257 70.5156C163.381 70.6856 163.343 70.9241 163.173 71.0474C163.105 71.0958 163.026 71.1195 162.949 71.1195ZM96.0807 69.2999C95.996 69.2999 95.9113 69.2722 95.841 69.2146C95.6779 69.0821 95.6532 68.8418 95.7857 68.6787C96.2927 68.0553 96.824 67.4382 97.3656 66.8441C97.5073 66.6886 97.7482 66.6776 97.9037 66.8194C98.0593 66.9611 98.0703 67.202 97.9285 67.3575C97.3967 67.9412 96.8747 68.5474 96.3768 69.1599C96.3014 69.252 96.1913 69.2999 96.0807 69.2999ZM159.259 66.7059C159.158 66.7059 159.059 66.6667 158.984 66.5883C158.438 66.0185 157.868 65.4567 157.291 64.9191C157.137 64.7756 157.128 64.5348 157.272 64.3809C157.415 64.2271 157.656 64.2185 157.81 64.3619C158.398 64.9093 158.977 65.4809 159.534 66.0611C159.68 66.2132 159.675 66.4541 159.522 66.5993C159.448 66.6707 159.354 66.7059 159.259 66.7059ZM100.006 65.0908C99.9037 65.0908 99.8029 65.0505 99.7274 64.9704C99.5839 64.8171 99.5914 64.5757 99.7452 64.4322C100.332 63.8831 100.941 63.3438 101.558 62.8287C101.719 62.6939 101.96 62.7152 102.094 62.8771C102.229 63.0384 102.208 63.2787 102.046 63.4135C101.44 63.9194 100.841 64.4489 100.266 64.9882C100.192 65.0568 100.099 65.0908 100.006 65.0908ZM155.003 62.831C154.92 62.831 154.837 62.8039 154.767 62.7486C154.148 62.2577 153.508 61.7783 152.863 61.3237C152.691 61.2027 152.65 60.9647 152.771 60.793C152.892 60.6213 153.13 60.5798 153.302 60.7014C153.959 61.1647 154.611 61.6527 155.241 62.1522C155.406 62.283 155.433 62.5227 155.302 62.6875C155.227 62.7814 155.116 62.831 155.003 62.831ZM104.463 61.4533C104.344 61.4533 104.226 61.3974 104.152 61.2926C104.03 61.1209 104.071 60.8835 104.242 60.7619C104.898 60.2975 105.575 59.8458 106.254 59.42C106.432 59.3082 106.668 59.3623 106.779 59.5404C106.891 59.7184 106.837 59.9535 106.659 60.0653C105.991 60.4836 105.326 60.9273 104.683 61.3836C104.616 61.4309 104.539 61.4533 104.463 61.4533ZM150.261 59.568C150.195 59.568 150.128 59.5508 150.067 59.515C149.387 59.1123 148.687 58.7245 147.985 58.3615C147.799 58.2647 147.726 58.0348 147.822 57.8481C147.919 57.6614 148.149 57.5883 148.336 57.6851C149.05 58.0544 149.763 58.4497 150.456 58.8593C150.637 58.9665 150.696 59.1999 150.589 59.3808C150.518 59.5012 150.391 59.568 150.261 59.568ZM109.37 58.456C109.233 58.456 109.1 58.3811 109.032 58.2509C108.935 58.0642 109.007 57.8343 109.194 57.7375C109.906 57.3664 110.638 57.0121 111.369 56.6831C111.561 56.5966 111.786 56.6825 111.873 56.8738C111.959 57.0657 111.873 57.2909 111.682 57.3774C110.964 57.7006 110.246 58.0492 109.546 58.4128C109.49 58.4416 109.43 58.456 109.37 58.456ZM145.117 56.981C145.068 56.981 145.018 56.9712 144.97 56.951C144.241 56.645 143.494 56.3564 142.748 56.0931C142.55 56.0228 142.445 55.8055 142.516 55.6073C142.586 55.4091 142.803 55.3048 143.002 55.3751C143.761 55.6436 144.522 55.9375 145.264 56.2486C145.458 56.3299 145.549 56.5534 145.468 56.747C145.406 56.8934 145.265 56.981 145.117 56.981ZM114.638 56.157C114.482 56.157 114.335 56.0596 114.28 55.9041C114.209 55.7058 114.312 55.4881 114.51 55.4172C115.267 55.1469 116.041 54.8952 116.813 54.6693C117.014 54.6099 117.226 54.7258 117.285 54.9274C117.344 55.1291 117.229 55.3411 117.027 55.3999C116.27 55.6223 115.509 55.8695 114.766 56.1345C114.724 56.1495 114.681 56.157 114.638 56.157ZM139.666 55.1233C139.634 55.1233 139.601 55.1193 139.569 55.1107C138.806 54.9084 138.028 54.7252 137.255 54.5667C137.048 54.5247 136.916 54.323 136.958 54.1173C137 53.9116 137.201 53.7785 137.407 53.8206C138.194 53.9819 138.987 54.1686 139.764 54.3749C139.967 54.429 140.088 54.6376 140.034 54.8404C139.989 55.011 139.835 55.1233 139.666 55.1233ZM120.176 54.5996C119.999 54.5996 119.842 54.4763 119.804 54.2965C119.761 54.0908 119.893 53.8891 120.099 53.8459C120.885 53.6823 121.687 53.5394 122.482 53.4207C122.69 53.3896 122.883 53.533 122.914 53.7411C122.945 53.9491 122.802 54.1427 122.594 54.1738C121.813 54.2902 121.026 54.4308 120.254 54.5915C120.228 54.5973 120.202 54.5996 120.176 54.5996ZM134.018 54.032C134.003 54.032 133.987 54.0309 133.971 54.0291C133.19 53.9329 132.393 53.858 131.605 53.8056C131.395 53.7918 131.236 53.6103 131.25 53.4005C131.264 53.1908 131.444 53.0323 131.655 53.0456C132.458 53.0986 133.268 53.1752 134.065 53.2732C134.273 53.2991 134.422 53.4887 134.396 53.6978C134.372 53.8903 134.208 54.032 134.018 54.032ZM125.875 53.8148C125.677 53.8148 125.51 53.661 125.496 53.4599C125.481 53.2501 125.64 53.0681 125.849 53.0537C126.65 52.9983 127.463 52.9655 128.268 52.9551C128.479 52.9517 128.651 53.1211 128.653 53.3314C128.656 53.5417 128.487 53.7145 128.277 53.7168C127.486 53.7266 126.687 53.7595 125.901 53.8137C125.893 53.8148 125.885 53.8148 125.875 53.8148Z" fill="black"/>
<path d="M8.79827 37.5938H10.3626C10.585 37.5938 10.7654 37.7741 10.7654 37.9965C10.7654 38.2189 10.585 38.3993 10.3626 38.3993H8.79827C8.57586 38.3993 8.39551 38.2189 8.39551 37.9965C8.39551 37.8853 8.44045 37.785 8.51363 37.7119C8.58681 37.6393 8.68707 37.5938 8.79827 37.5938Z" fill="black"/>
<path d="M14.6398 37.9882C14.6415 38.1023 14.5966 38.2054 14.5217 38.2798C14.4491 38.3524 14.3482 38.3973 14.237 38.3973H12.6727C12.4503 38.3973 12.2705 38.217 12.2705 37.9946C12.2705 37.7721 12.4509 37.5918 12.6727 37.5918H14.2272C14.4491 37.5924 14.6363 37.767 14.6398 37.9882Z" fill="black"/>
<path d="M11.9198 35.2758V36.8402C11.9198 37.0626 11.7394 37.2429 11.517 37.2429C11.2946 37.2429 11.1143 37.0626 11.1143 36.8402V35.2758C11.1143 35.0534 11.2946 34.873 11.517 34.873C11.6282 34.873 11.729 34.918 11.8016 34.9906C11.8748 35.0643 11.9198 35.1646 11.9198 35.2758Z" fill="black"/>
<path d="M11.517 38.75C11.7394 38.75 11.9198 38.9303 11.9198 39.1528V40.7171C11.9198 40.9395 11.7394 41.1193 11.517 41.1193C11.4058 41.1193 11.3055 41.0743 11.2324 41.0012C11.1592 40.9286 11.1143 40.8277 11.1143 40.7165V39.1522C11.1143 38.9303 11.2946 38.75 11.517 38.75Z" fill="black"/>
<path d="M26.4495 21.7832C25.5137 21.7832 24.7549 22.542 24.7549 23.4778C24.7549 24.4135 25.5137 25.1723 26.4495 25.1723C27.3852 25.1723 28.144 24.4135 28.144 23.4778C28.144 22.542 27.3858 21.7832 26.4495 21.7832ZM26.4495 24.4193C25.9297 24.4193 25.508 23.9975 25.508 23.4778C25.508 22.9581 25.9297 22.5363 26.4495 22.5363C26.9692 22.5363 27.3909 22.9581 27.3909 23.4778C27.3909 23.9981 26.9698 24.4193 26.4495 24.4193Z" fill="black"/>
<path d="M23.968 111.52C23.0323 111.52 22.2734 112.278 22.2734 113.214C22.2734 114.15 23.0323 114.909 23.968 114.909C24.9037 114.909 25.6626 114.15 25.6626 113.214C25.6632 112.278 24.9043 111.52 23.968 111.52ZM23.968 114.156C23.4483 114.156 23.0265 113.734 23.0265 113.214C23.0265 112.694 23.4483 112.273 23.968 112.273C24.4877 112.273 24.9095 112.694 24.9095 113.214C24.9095 113.734 24.4883 114.156 23.968 114.156Z" fill="black"/>
<path d="M31.8636 96.4844H32.8172C32.9526 96.4844 33.0627 96.5944 33.0627 96.7298C33.0627 96.8652 32.9526 96.9753 32.8172 96.9753H31.8636C31.7282 96.9753 31.6182 96.8652 31.6182 96.7298C31.6182 96.6618 31.6458 96.6008 31.6902 96.5564C31.7351 96.512 31.7962 96.4844 31.8636 96.4844Z" fill="black"/>
<path d="M35.424 96.7258C35.4251 96.7949 35.3975 96.8583 35.352 96.9033C35.3076 96.9476 35.2465 96.9753 35.1785 96.9753H34.2249C34.0895 96.9753 33.9795 96.8652 33.9795 96.7298C33.9795 96.5944 34.0895 96.4844 34.2249 96.4844H35.1722C35.3076 96.4844 35.4217 96.591 35.424 96.7258Z" fill="black"/>
<path d="M33.7663 95.0716V96.0246C33.7663 96.16 33.6563 96.2701 33.5208 96.2701C33.3854 96.2701 33.2754 96.16 33.2754 96.0246V95.0716C33.2754 94.9362 33.3854 94.8262 33.5208 94.8262C33.5888 94.8262 33.6499 94.8538 33.6943 94.8982C33.7386 94.9426 33.7663 95.0042 33.7663 95.0716Z" fill="black"/>
<path d="M33.5208 97.1895C33.6563 97.1895 33.7663 97.2995 33.7663 97.4349V98.3885C33.7663 98.5239 33.6563 98.6339 33.5208 98.6339C33.4529 98.6339 33.3918 98.6063 33.3474 98.5619C33.303 98.5176 33.2754 98.4565 33.2754 98.3885V97.4349C33.2754 97.2995 33.3854 97.1895 33.5208 97.1895Z" fill="black"/>
<path d="M143.027 67.1562C142.091 67.1562 141.332 67.9151 141.332 68.8508C141.332 69.7866 142.091 70.5454 143.027 70.5454C143.962 70.5454 144.721 69.7866 144.721 68.8508C144.721 67.9151 143.962 67.1562 143.027 67.1562ZM143.027 69.7923C142.507 69.7923 142.085 69.3705 142.085 68.8508C142.085 68.3311 142.507 67.9093 143.027 67.9093C143.546 67.9093 143.968 68.3311 143.968 68.8508C143.968 69.3705 143.546 69.7923 143.027 69.7923Z" fill="black"/>
<path d="M149.968 80.4375H151.144C151.311 80.4375 151.447 80.5729 151.447 80.74C151.447 80.9071 151.311 81.0425 151.144 81.0425H149.968C149.8 81.0425 149.665 80.9071 149.665 80.74C149.665 80.6565 149.699 80.581 149.754 80.5262C149.808 80.4715 149.884 80.4375 149.968 80.4375Z" fill="black"/>
<path d="M154.362 80.7342C154.363 80.8201 154.329 80.8973 154.273 80.9538C154.218 81.0085 154.143 81.0425 154.059 81.0425H152.883C152.715 81.0425 152.58 80.9071 152.58 80.74C152.58 80.5729 152.715 80.4375 152.883 80.4375H154.052C154.218 80.4369 154.359 80.5677 154.362 80.7342Z" fill="black"/>
<path d="M152.316 78.6931V79.8697C152.316 80.0368 152.181 80.1728 152.013 80.1728C151.846 80.1728 151.71 80.0374 151.71 79.8697V78.6931C151.71 78.526 151.845 78.3906 152.012 78.3906C152.096 78.3906 152.172 78.4246 152.227 78.4794C152.282 78.5341 152.316 78.6096 152.316 78.6931Z" fill="black"/>
<path d="M152.012 81.3066C152.18 81.3066 152.316 81.442 152.316 81.6097V82.7863C152.316 82.9534 152.18 83.0888 152.012 83.0888C151.929 83.0888 151.853 83.0548 151.799 83.0001C151.744 82.9453 151.71 82.8698 151.71 82.7863V81.6097C151.71 81.4426 151.845 81.3066 152.012 81.3066Z" fill="black"/>
<path d="M138.138 148.35H139.315C139.482 148.35 139.618 148.485 139.618 148.652C139.618 148.819 139.482 148.955 139.315 148.955H138.138C137.971 148.955 137.836 148.819 137.836 148.652C137.836 148.569 137.87 148.493 137.925 148.438C137.979 148.384 138.055 148.35 138.138 148.35Z" fill="black"/>
<path d="M142.533 148.648C142.534 148.734 142.5 148.811 142.444 148.868C142.389 148.923 142.314 148.957 142.23 148.957H141.053C140.886 148.957 140.751 148.821 140.751 148.654C140.751 148.487 140.886 148.352 141.053 148.352H142.223C142.389 148.35 142.53 148.482 142.533 148.648Z" fill="black"/>
<path d="M140.488 146.607V147.784C140.488 147.951 140.352 148.086 140.185 148.086C140.018 148.086 139.883 147.951 139.883 147.784V146.607C139.883 146.44 140.018 146.305 140.185 146.305C140.269 146.305 140.345 146.339 140.4 146.393C140.454 146.448 140.488 146.524 140.488 146.607Z" fill="black"/>
<path d="M140.184 149.219C140.351 149.219 140.486 149.354 140.486 149.521V150.698C140.486 150.865 140.351 151 140.183 151C140.1 151 140.024 150.966 139.97 150.912C139.915 150.857 139.881 150.781 139.881 150.698V149.521C139.881 149.355 140.016 149.219 140.184 149.219Z" fill="black"/>
<path d="M120.38 0C119.444 0 118.686 0.758839 118.686 1.69457C118.686 2.6303 119.444 3.38914 120.38 3.38914C121.316 3.38914 122.075 2.6303 122.075 1.69457C122.075 0.758839 121.316 0 120.38 0ZM120.38 2.63606C119.86 2.63606 119.439 2.21429 119.439 1.69457C119.439 1.17485 119.86 0.753079 120.38 0.753079C120.9 0.753079 121.322 1.17485 121.322 1.69457C121.322 2.21429 120.9 2.63606 120.38 2.63606Z" fill="black"/>
<path d="M138.699 18.5625H139.876C140.043 18.5625 140.178 18.6979 140.178 18.865C140.178 19.0321 140.043 19.1675 139.876 19.1675H138.699C138.532 19.1675 138.396 19.0321 138.396 18.865C138.396 18.7815 138.43 18.706 138.485 18.6512C138.539 18.5959 138.615 18.5625 138.699 18.5625Z" fill="black"/>
<path d="M143.092 18.8592C143.093 18.9451 143.059 19.0223 143.003 19.0788C142.949 19.1335 142.873 19.1675 142.79 19.1675H141.613C141.446 19.1675 141.311 19.0321 141.311 18.865C141.311 18.6979 141.446 18.5625 141.613 18.5625H142.783C142.948 18.5619 143.089 18.6927 143.092 18.8592Z" fill="black"/>
<path d="M141.047 16.8181V17.9947C141.047 18.1618 140.911 18.2978 140.744 18.2978C140.576 18.2978 140.44 18.1624 140.44 17.9947V16.8181C140.44 16.651 140.576 16.5156 140.743 16.5156C140.826 16.5156 140.903 16.5496 140.957 16.6044C141.012 16.6591 141.047 16.7346 141.047 16.8181Z" fill="black"/>
<path d="M140.743 19.4316C140.91 19.4316 141.046 19.567 141.046 19.7347V20.9113C141.046 21.0784 140.911 21.2138 140.743 21.2138C140.659 21.2138 140.584 21.1798 140.529 21.1251C140.474 21.0703 140.44 20.9948 140.44 20.9113V19.7347C140.44 19.567 140.576 19.4316 140.743 19.4316Z" fill="black"/>
<path d="M160.294 72.7595C159.499 72.7595 158.699 72.6904 157.916 72.5538C157.76 72.5268 157.656 72.3787 157.683 72.2237C157.71 72.0681 157.858 71.9644 158.014 71.9915C158.765 72.1223 159.532 72.1885 160.292 72.1885H160.332C160.333 72.1885 160.333 72.1885 160.333 72.1885C160.491 72.1885 160.619 72.3159 160.619 72.4732C160.62 72.631 160.492 72.759 160.334 72.7595H160.294ZM163.631 72.3424C163.503 72.3424 163.387 72.2565 163.354 72.1269C163.316 71.9742 163.408 71.8186 163.561 71.78C164.312 71.5899 165.051 71.3317 165.759 71.0137C165.903 70.9491 166.072 71.0131 166.136 71.1572C166.201 71.3012 166.137 71.47 165.993 71.5345C165.255 71.8659 164.484 72.1349 163.701 72.3331C163.678 72.3395 163.654 72.3424 163.631 72.3424ZM154.782 71.5962C154.743 71.5962 154.705 71.5881 154.667 71.572C153.926 71.2459 153.209 70.8529 152.539 70.4041C152.407 70.3165 152.372 70.139 152.46 70.0077C152.548 69.8763 152.725 69.8411 152.857 69.9293C153.5 70.3597 154.187 70.7365 154.898 71.0488C155.042 71.1122 155.107 71.281 155.044 71.4251C154.997 71.5322 154.892 71.5962 154.782 71.5962ZM168.721 69.84C168.636 69.84 168.553 69.8025 168.496 69.7305C168.399 69.6066 168.421 69.4269 168.545 69.3295C169.155 68.8501 169.727 68.3148 170.243 67.738C170.349 67.6205 170.529 67.6107 170.646 67.7161C170.764 67.8216 170.774 68.0019 170.668 68.1195C170.13 68.721 169.533 69.2794 168.897 69.7789C168.845 69.8198 168.783 69.84 168.721 69.84ZM150.182 68.2785C150.104 68.2785 150.026 68.2468 149.97 68.1846C149.428 67.5859 148.935 66.9348 148.504 66.2498C148.42 66.1161 148.46 65.9398 148.594 65.8556C148.728 65.7715 148.904 65.8118 148.988 65.9455C149.401 66.6024 149.874 67.227 150.394 67.8009C150.5 67.9178 150.491 68.0982 150.374 68.2042C150.319 68.2543 150.251 68.2785 150.182 68.2785ZM172.353 65.4851C172.308 65.4851 172.263 65.4748 172.22 65.4523C172.081 65.3786 172.027 65.2063 172.1 65.0663C172.46 64.3835 172.763 63.6609 173.001 62.92L173.007 62.9021C173.055 62.7517 173.216 62.6687 173.366 62.7171C173.516 62.765 173.599 62.9257 173.551 63.0761L173.545 63.0945C173.296 63.8672 172.981 64.6203 172.606 65.3325C172.555 65.4298 172.456 65.4851 172.353 65.4851ZM147.33 63.3757C147.211 63.3757 147.099 63.2997 147.059 63.1792C146.806 62.4106 146.619 61.616 146.503 60.8174C146.481 60.6613 146.589 60.5167 146.744 60.4936C146.901 60.4712 147.045 60.5795 147.068 60.7356C147.179 61.502 147.359 62.2637 147.602 63.0006C147.651 63.1504 147.57 63.3118 147.42 63.3613C147.39 63.3711 147.36 63.3757 147.33 63.3757ZM173.903 60.0096C173.897 60.0096 173.89 60.0096 173.884 60.0091C173.727 59.9987 173.608 59.8627 173.618 59.7054C173.637 59.415 173.647 59.12 173.647 58.8279C173.647 58.3456 173.62 57.8581 173.567 57.3788C173.55 57.222 173.663 57.0809 173.82 57.0636C173.976 57.0457 174.117 57.1592 174.135 57.3165C174.189 57.8167 174.218 58.3254 174.218 58.8284C174.218 59.1327 174.207 59.4404 174.187 59.7434C174.178 59.8938 174.052 60.0096 173.903 60.0096ZM146.717 57.7389C146.707 57.7389 146.697 57.7383 146.687 57.7371C146.531 57.721 146.416 57.581 146.432 57.4237C146.515 56.6222 146.668 55.8202 146.89 55.04C146.933 54.8885 147.091 54.8003 147.242 54.8429C147.394 54.8862 147.482 55.044 147.439 55.1956C147.227 55.944 147.08 56.7133 147.001 57.4819C146.985 57.6294 146.861 57.7389 146.717 57.7389ZM173.088 54.3976C172.971 54.3976 172.863 54.3261 172.82 54.2109C172.551 53.4837 172.217 52.7756 171.827 52.1055C171.748 51.9689 171.794 51.7943 171.93 51.7148C172.067 51.6353 172.241 51.6814 172.321 51.818C172.728 52.5163 173.076 53.255 173.356 54.0127C173.411 54.1607 173.336 54.325 173.187 54.3797C173.154 54.3924 173.121 54.3976 173.088 54.3976ZM148.449 52.3383C148.402 52.3383 148.353 52.3262 148.308 52.3008C148.171 52.2224 148.124 52.0479 148.202 51.9113C148.603 51.2089 149.069 50.5382 149.586 49.9171C149.687 49.7961 149.867 49.7794 149.988 49.8808C150.109 49.9816 150.126 50.162 150.025 50.283C149.529 50.8782 149.083 51.5218 148.698 52.1948C148.645 52.2864 148.549 52.3383 148.449 52.3383ZM170.064 49.5991C169.99 49.5991 169.915 49.5702 169.859 49.5126C169.318 48.956 168.725 48.4444 168.097 47.9921C167.969 47.8999 167.94 47.7213 168.032 47.5933C168.124 47.4654 168.303 47.436 168.43 47.5282C169.086 48.0001 169.704 48.5337 170.269 49.1145C170.379 49.2274 170.376 49.4083 170.263 49.5184C170.207 49.5726 170.136 49.5991 170.064 49.5991ZM152.23 48.1108C152.142 48.1108 152.055 48.0704 151.999 47.9938C151.906 47.8665 151.934 47.6878 152.062 47.5945C152.714 47.118 153.412 46.6951 154.138 46.3378C154.279 46.2681 154.45 46.3263 154.52 46.4681C154.59 46.6098 154.532 46.7809 154.39 46.8506C153.694 47.1935 153.024 47.5991 152.399 48.056C152.348 48.0929 152.289 48.1108 152.23 48.1108ZM165.348 46.449C165.313 46.449 165.278 46.4427 165.243 46.4289C164.961 46.3165 164.67 46.2116 164.379 46.1183C163.93 45.9743 163.471 45.8527 163.014 45.7565C162.859 45.7242 162.76 45.5726 162.793 45.4182C162.825 45.2638 162.977 45.1647 163.131 45.1976C163.608 45.2978 164.087 45.4246 164.554 45.5744C164.857 45.6718 165.16 45.7807 165.454 45.8982C165.601 45.9564 165.672 46.1229 165.614 46.2693C165.57 46.381 165.462 46.449 165.348 46.449ZM157.402 45.7835C157.27 45.7835 157.152 45.6925 157.123 45.5588C157.089 45.4044 157.187 45.2523 157.341 45.2189C158.132 45.0472 158.942 44.944 159.748 44.9123C159.906 44.906 160.039 45.0293 160.045 45.1866C160.052 45.3445 159.929 45.477 159.771 45.4833C158.997 45.5133 158.221 45.6124 157.463 45.7772C157.442 45.7812 157.422 45.7835 157.402 45.7835Z" fill="black"/>
<path d="M18.9808 88.6782C18.5913 88.6782 18.1966 88.6661 17.8077 88.6419C17.6504 88.6321 17.5306 88.4967 17.5404 88.3388C17.5502 88.1815 17.6856 88.0617 17.8434 88.0714C18.2208 88.0951 18.6034 88.1072 18.9808 88.1072C19.3646 88.1072 19.7529 88.0951 20.1355 88.0703C20.2928 88.0611 20.4288 88.1798 20.4386 88.3371C20.4484 88.4944 20.3291 88.6303 20.1718 88.6401C19.7771 88.6655 19.3767 88.6782 18.9808 88.6782ZM14.6047 88.1556C14.5822 88.1556 14.5597 88.1527 14.5373 88.1475C14.078 88.0363 13.6165 87.9067 13.1659 87.7615C12.8686 87.6658 12.5702 87.5615 12.2786 87.452C12.1311 87.3967 12.0562 87.2319 12.1121 87.0839C12.1674 86.9364 12.3322 86.8615 12.4803 86.9173C12.7626 87.0239 13.0524 87.1248 13.3411 87.2175C13.779 87.3581 14.2267 87.4843 14.6721 87.5921C14.8254 87.6289 14.9199 87.7834 14.8824 87.9366C14.8507 88.068 14.7338 88.1556 14.6047 88.1556ZM23.3725 88.1515C23.244 88.1515 23.1271 88.0639 23.0954 87.9332C23.0579 87.7799 23.1524 87.6255 23.3057 87.588C24.0455 87.4082 24.7819 87.1801 25.4952 86.9093C25.6427 86.8534 25.8075 86.9277 25.8634 87.0752C25.9193 87.2227 25.845 87.3875 25.6975 87.4434C24.9622 87.7223 24.2034 87.9579 23.4405 88.1429C23.4175 88.1492 23.395 88.1515 23.3725 88.1515ZM9.44203 86.0634C9.39248 86.0634 9.34235 86.0508 9.29683 86.0237C8.61981 85.6232 7.9618 85.1755 7.34125 84.6938C7.21679 84.597 7.19375 84.4178 7.29054 84.2928C7.38734 84.1683 7.56654 84.1459 7.69157 84.2421C8.29369 84.7094 8.93211 85.1433 9.58781 85.5316C9.72379 85.6123 9.76873 85.7874 9.68806 85.9228C9.63505 86.0133 9.53998 86.0634 9.44203 86.0634ZM28.53 86.0473C28.4326 86.0473 28.3376 85.9972 28.284 85.9073C28.2033 85.7719 28.2482 85.5961 28.3836 85.516C29.0394 85.1265 29.6766 84.6921 30.2782 84.2248C30.4026 84.128 30.5824 84.1505 30.6792 84.2749C30.776 84.3994 30.7535 84.5792 30.6291 84.676C30.0085 85.1577 29.3516 85.6054 28.6758 86.007C28.6297 86.0346 28.5796 86.0473 28.53 86.0473ZM5.12811 82.5383C5.05032 82.5383 4.97254 82.5066 4.91607 82.4444C4.38944 81.8624 3.89334 81.2402 3.44218 80.596C3.35172 80.4669 3.38284 80.2889 3.51248 80.1978C3.64155 80.1074 3.81958 80.1385 3.91004 80.2681C4.34795 80.8933 4.82849 81.4966 5.33957 82.0606C5.44559 82.1776 5.43637 82.3585 5.31941 82.464C5.26467 82.5135 5.1961 82.5383 5.12811 82.5383ZM32.8422 82.5216C32.7736 82.5216 32.7051 82.4974 32.6509 82.4478C32.5339 82.3418 32.5247 82.1615 32.6307 82.0445C33.1424 81.4793 33.6235 80.876 34.0603 80.2514C34.1507 80.1224 34.3288 80.0907 34.4578 80.1811C34.5869 80.2716 34.6186 80.4496 34.5281 80.5787C34.0781 81.2229 33.582 81.8451 33.0542 82.4282C32.9978 82.4899 32.92 82.5216 32.8422 82.5216ZM2.04608 77.8977C1.93891 77.8977 1.83577 77.8366 1.78737 77.7329C1.45433 77.0207 1.16278 76.2815 0.920779 75.5342C0.872379 75.3843 0.954202 75.223 1.10459 75.1746C1.2544 75.1262 1.41573 75.208 1.46413 75.3584C1.69921 76.0833 1.98154 76.8006 2.30478 77.4909C2.37162 77.6338 2.30997 77.8038 2.16707 77.8706C2.12789 77.889 2.08699 77.8977 2.04608 77.8977ZM35.919 77.8764C35.8787 77.8764 35.8378 77.8677 35.7992 77.8499C35.6563 77.7836 35.5941 77.6136 35.6603 77.4707C35.9801 76.7822 36.2607 76.0637 36.4952 75.3354L36.5027 75.3123C36.5511 75.1619 36.7119 75.0795 36.8617 75.1274C37.0121 75.1758 37.0945 75.3365 37.0466 75.4863L37.0392 75.51C36.7977 76.2602 36.5085 77.0006 36.1789 77.7104C36.1299 77.8153 36.0268 77.8764 35.919 77.8764ZM0.462135 72.5581C0.322122 72.5581 0.199392 72.455 0.179802 72.3121C0.070902 71.5337 0.0104025 70.7408 3.10756e-05 69.9555C-0.00227368 69.7976 0.123912 69.668 0.281788 69.6663C0.439664 69.6628 0.569307 69.7901 0.571036 69.948C0.581407 70.7092 0.639603 71.4784 0.745046 72.2332C0.766941 72.3893 0.658043 72.5339 0.501896 72.5558C0.488644 72.5576 0.474811 72.5581 0.462135 72.5581ZM37.4972 72.5086C37.4845 72.5086 37.4713 72.5074 37.458 72.5057C37.3019 72.4844 37.1924 72.3403 37.2137 72.1836C37.3175 71.4282 37.3745 70.659 37.3831 69.8973C37.3849 69.7406 37.5122 69.615 37.6689 69.615C37.6701 69.615 37.6712 69.615 37.6724 69.615C37.8303 69.6167 37.9564 69.7458 37.9547 69.9036C37.9461 70.689 37.8873 71.4824 37.7801 72.2614C37.76 72.4049 37.6372 72.5086 37.4972 72.5086ZM0.528398 66.9893C0.512841 66.9893 0.497281 66.9881 0.481724 66.9853C0.326153 66.9599 0.220712 66.813 0.246065 66.6574C0.372826 65.8842 0.549716 65.1092 0.772125 64.3532C0.816491 64.2017 0.975521 64.1153 1.12648 64.1596C1.27802 64.204 1.36445 64.363 1.32008 64.514C1.10459 65.2475 0.932884 65.9994 0.810155 66.7496C0.786532 66.8896 0.665531 66.9893 0.528398 66.9893ZM37.4183 66.9397C37.2812 66.9397 37.1602 66.8406 37.1371 66.7006C37.0126 65.9498 36.8392 65.1985 36.6214 64.4679C36.5765 64.3169 36.6623 64.1579 36.8139 64.113C36.9654 64.068 37.1239 64.1539 37.1694 64.3054C37.3935 65.0591 37.5721 65.8335 37.7006 66.6079C37.7265 66.7634 37.6211 66.9103 37.4655 66.9363C37.4494 66.9386 37.4338 66.9397 37.4183 66.9397ZM2.22988 61.6855C2.18725 61.6855 2.14403 61.6757 2.1037 61.6561C1.96253 61.5864 1.90433 61.4147 1.97405 61.2735C2.32265 60.5677 2.71907 59.878 3.15236 59.2228C3.23937 59.0915 3.41683 59.0552 3.5482 59.1422C3.67957 59.2292 3.71587 59.4066 3.62886 59.538C3.20882 60.1736 2.82393 60.8425 2.48629 61.527C2.43673 61.6267 2.33533 61.6855 2.22988 61.6855ZM35.6995 61.6428C35.5947 61.6428 35.4938 61.5846 35.4437 61.485C35.1032 60.8028 34.7165 60.1349 34.2948 59.5006C34.2072 59.3692 34.2429 59.1917 34.3743 59.1047C34.5057 59.0171 34.6831 59.0529 34.7701 59.1842C35.2051 59.8382 35.6033 60.5262 35.9542 61.2297C36.0245 61.3709 35.9674 61.5426 35.8263 61.6129C35.7854 61.633 35.7422 61.6428 35.6995 61.6428ZM5.41966 57.1163C5.34879 57.1163 5.27792 57.0904 5.22318 57.0379C5.1091 56.929 5.10449 56.7487 5.21281 56.634C5.75385 56.0647 6.33695 55.5237 6.94541 55.0253C7.06756 54.9256 7.24733 54.9435 7.34759 55.0656C7.44727 55.1878 7.42941 55.3676 7.30726 55.4678C6.71666 55.9512 6.15142 56.4762 5.62651 57.0276C5.57062 57.0869 5.49514 57.1163 5.41966 57.1163ZM32.4999 57.0823C32.4245 57.0823 32.349 57.0523 32.2931 56.9936C31.767 56.441 31.2012 55.9167 30.6106 55.4356C30.4885 55.3359 30.47 55.1561 30.5697 55.0339C30.6694 54.9118 30.8492 54.8934 30.9713 54.993C31.5798 55.4897 32.1634 56.0302 32.7062 56.6C32.8151 56.7141 32.8105 56.895 32.6964 57.0039C32.6417 57.0564 32.5708 57.0823 32.4999 57.0823ZM9.81713 53.696C9.71745 53.696 9.62008 53.6436 9.56764 53.5503C9.49043 53.4126 9.53941 53.2385 9.67654 53.1613C10.3616 52.7764 11.0773 52.4307 11.8044 52.1334C11.9508 52.0735 12.1173 52.1438 12.1766 52.2896C12.2365 52.4353 12.1662 52.6024 12.0205 52.6618C11.3152 52.9499 10.6209 53.2858 9.95599 53.6592C9.91278 53.6845 9.86438 53.696 9.81713 53.696ZM28.0961 53.6695C28.0489 53.6695 28.0011 53.658 27.9573 53.6332C27.2935 53.2627 26.5975 52.9303 25.8893 52.6439C25.743 52.5846 25.6727 52.4181 25.7315 52.2723C25.7908 52.1259 25.9567 52.0551 26.1031 52.1144C26.8331 52.4094 27.5505 52.7528 28.235 53.1343C28.3727 53.2109 28.4223 53.3849 28.3456 53.5226C28.2938 53.6171 28.1964 53.6695 28.0961 53.6695ZM15.023 51.7174C14.8916 51.7174 14.7735 51.6264 14.7441 51.4921C14.7107 51.3377 14.8087 51.1856 14.9625 51.1522C15.7306 50.9851 16.5165 50.8652 17.2978 50.7955C17.4551 50.7811 17.5934 50.8975 17.6078 51.0548C17.6216 51.2121 17.5058 51.3504 17.3485 51.3648C16.5908 51.4322 15.8285 51.5486 15.0835 51.7111C15.0633 51.7151 15.0432 51.7174 15.023 51.7174ZM22.8828 51.7088C22.8626 51.7088 22.8425 51.7065 22.8223 51.7024C22.0761 51.5422 21.3132 51.427 20.5556 51.3613C20.3983 51.3475 20.2819 51.2092 20.2957 51.0519C20.3095 50.8946 20.4478 50.7788 20.6051 50.792C21.3864 50.86 22.1729 50.9782 22.9427 51.1441C23.0971 51.1775 23.1951 51.3291 23.1617 51.4835C23.1328 51.6172 23.0147 51.7088 22.8828 51.7088Z" fill="black"/>
<path d="M131.817 64.8385L129.742 77.7129L129.344 80.1841C129.344 82.0971 125.256 107.301 123.139 107.301L89.6609 84.1685L52.5054 109.948C50.3891 109.948 48.1633 82.8265 48.1633 80.9136L48.0158 77.7134L47.4229 64.8765L53.3962 59.715L87.2732 30.4401C88.671 29.434 90.652 29.434 92.0498 30.4401L125.895 59.715L131.817 64.8385Z" fill="#462682"/>
<path d="M115.71 64.7588V104.133H63.2617V53.3906H104.226L115.71 64.7588Z" fill="white"/>
<path d="M71 60.95V58.225H71.813C72.005 58.225 72.176 58.2514 72.326 58.3042C72.476 58.3569 72.5943 58.4444 72.6812 58.5667C72.768 58.6889 72.8114 58.8556 72.8114 59.0667C72.8114 59.2667 72.768 59.4319 72.6812 59.5625C72.597 59.6931 72.4799 59.7903 72.3299 59.8542C72.1826 59.9181 72.0155 59.95 71.8287 59.95H71.4578V60.95H71ZM71.4578 59.5625H71.7932C71.9853 59.5625 72.1274 59.5208 72.2194 59.4375C72.3142 59.3542 72.3615 59.2306 72.3615 59.0667C72.3615 58.8944 72.3115 58.7764 72.2115 58.7125C72.1142 58.6458 71.9695 58.6125 71.7774 58.6125H71.4578V59.5625Z" fill="#212121"/>
<path d="M73.6995 60.9917C73.5916 60.9917 73.5048 60.9694 73.439 60.925C73.3759 60.8778 73.3298 60.8111 73.3009 60.725C73.2719 60.6389 73.2575 60.5361 73.2575 60.4167V58.0083H73.7113V60.4417C73.7113 60.5028 73.7218 60.5444 73.7429 60.5667C73.7639 60.5889 73.7876 60.6 73.8139 60.6C73.8244 60.6 73.8336 60.6 73.8415 60.6C73.8521 60.5972 73.8652 60.5944 73.881 60.5917L73.9402 60.95C73.9139 60.9611 73.8797 60.9708 73.8376 60.9792C73.7981 60.9875 73.7521 60.9917 73.6995 60.9917Z" fill="#212121"/>
<path d="M74.7985 61C74.6853 61 74.5854 60.975 74.4986 60.925C74.4117 60.875 74.3433 60.8056 74.2933 60.7167C74.246 60.625 74.2223 60.5194 74.2223 60.4C74.2223 60.1694 74.3131 59.9958 74.4946 59.8792C74.6788 59.7597 74.9695 59.6778 75.3668 59.6333C75.3641 59.5639 75.351 59.5 75.3273 59.4417C75.3063 59.3833 75.2694 59.3375 75.2168 59.3042C75.1668 59.2681 75.0984 59.25 75.0116 59.25C74.9169 59.25 74.8235 59.2681 74.7314 59.3042C74.6419 59.3403 74.5538 59.3861 74.467 59.4417L74.3012 59.1167C74.3723 59.0694 74.4499 59.0264 74.5341 58.9875C74.6183 58.9458 74.7077 58.9139 74.8024 58.8917C74.8971 58.8667 74.9958 58.8542 75.0984 58.8542C75.2589 58.8542 75.3918 58.8889 75.497 58.9583C75.6049 59.025 75.6851 59.125 75.7377 59.2583C75.793 59.3889 75.8206 59.55 75.8206 59.7417V60.95H75.4457L75.4141 60.725H75.3983C75.3089 60.8028 75.2155 60.8681 75.1181 60.9208C75.0208 60.9736 74.9142 61 74.7985 61ZM74.9406 60.6083C75.0195 60.6083 75.0918 60.5917 75.1576 60.5583C75.226 60.5222 75.2957 60.4694 75.3668 60.4V59.9667C75.1905 59.9889 75.0511 60.0181 74.9484 60.0542C74.8458 60.0903 74.7722 60.1347 74.7274 60.1875C74.6853 60.2375 74.6643 60.2972 74.6643 60.3667C74.6643 60.4528 74.6906 60.5153 74.7432 60.5542C74.7958 60.5903 74.8616 60.6083 74.9406 60.6083Z" fill="#212121"/>
<path d="M76.3637 60.95V58.9042H76.7386L76.7702 59.1792H76.786C76.8728 59.0903 76.9675 59.0139 77.0701 58.95C77.1727 58.8861 77.2898 58.8542 77.4214 58.8542C77.6292 58.8542 77.7805 58.925 77.8752 59.0667C77.9699 59.2083 78.0173 59.4083 78.0173 59.6667V60.95H77.5634V59.7292C77.5634 59.5597 77.5398 59.4403 77.4924 59.3708C77.445 59.3014 77.3674 59.2667 77.2596 59.2667C77.1754 59.2667 77.1004 59.2889 77.0346 59.3333C76.9715 59.375 76.8991 59.4375 76.8176 59.5208V60.95H76.3637Z" fill="#212121"/>
<path d="M80.4394 61C80.2211 61 80.0224 60.9458 79.8435 60.8375C79.6673 60.7292 79.5265 60.5708 79.4213 60.3625C79.3187 60.1514 79.2674 59.8958 79.2674 59.5958C79.2674 59.3736 79.2976 59.175 79.3581 59C79.4186 58.8222 79.5028 58.6722 79.6107 58.55C79.7212 58.4278 79.8475 58.3347 79.9895 58.2708C80.1316 58.2069 80.2842 58.175 80.4473 58.175C80.6105 58.175 80.7552 58.2097 80.8814 58.2792C81.0077 58.3458 81.1116 58.4264 81.1932 58.5208L80.9485 58.8167C80.8828 58.7444 80.8091 58.6903 80.7275 58.6542C80.6486 58.6153 80.5591 58.5958 80.4592 58.5958C80.3224 58.5958 80.1987 58.6361 80.0882 58.7167C79.9803 58.7972 79.8948 58.9111 79.8317 59.0583C79.7685 59.2056 79.737 59.3806 79.737 59.5833C79.737 59.7917 79.7672 59.9708 79.8277 60.1208C79.8883 60.2681 79.9738 60.3819 80.0843 60.4625C80.1948 60.5403 80.3237 60.5792 80.471 60.5792C80.5815 60.5792 80.6802 60.5556 80.767 60.5083C80.8538 60.4611 80.9327 60.3986 81.0038 60.3208L81.2366 60.6083C81.1314 60.7361 81.013 60.8333 80.8814 60.9C80.7499 60.9667 80.6026 61 80.4394 61Z" fill="#212121"/>
<path d="M82.1055 61C81.9924 61 81.8924 60.975 81.8056 60.925C81.7188 60.875 81.6504 60.8056 81.6004 60.7167C81.553 60.625 81.5293 60.5194 81.5293 60.4C81.5293 60.1694 81.6201 59.9958 81.8016 59.8792C81.9858 59.7597 82.2765 59.6778 82.6738 59.6333C82.6712 59.5639 82.658 59.5 82.6343 59.4417C82.6133 59.3833 82.5764 59.3375 82.5238 59.3042C82.4738 59.2681 82.4054 59.25 82.3186 59.25C82.2239 59.25 82.1305 59.2681 82.0384 59.3042C81.949 59.3403 81.8608 59.3861 81.774 59.4417L81.6083 59.1167C81.6793 59.0694 81.7569 59.0264 81.8411 58.9875C81.9253 58.9458 82.0147 58.9139 82.1094 58.8917C82.2042 58.8667 82.3028 58.8542 82.4054 58.8542C82.5659 58.8542 82.6988 58.8889 82.804 58.9583C82.9119 59.025 82.9921 59.125 83.0447 59.2583C83.1 59.3889 83.1276 59.55 83.1276 59.7417V60.95H82.7527L82.7211 60.725H82.7054C82.6159 60.8028 82.5225 60.8681 82.4252 60.9208C82.3278 60.9736 82.2213 61 82.1055 61ZM82.2476 60.6083C82.3265 60.6083 82.3989 60.5917 82.4646 60.5583C82.533 60.5222 82.6027 60.4694 82.6738 60.4V59.9667C82.4975 59.9889 82.3581 60.0181 82.2555 60.0542C82.1529 60.0903 82.0792 60.1347 82.0345 60.1875C81.9924 60.2375 81.9713 60.2972 81.9713 60.3667C81.9713 60.4528 81.9976 60.5153 82.0503 60.5542C82.1029 60.5903 82.1686 60.6083 82.2476 60.6083Z" fill="#212121"/>
<path d="M83.6707 60.95V58.9042H84.0457L84.0772 59.1792H84.093C84.1798 59.0903 84.2745 59.0139 84.3772 58.95C84.4798 58.8861 84.5968 58.8542 84.7284 58.8542C84.9362 58.8542 85.0875 58.925 85.1822 59.0667C85.2769 59.2083 85.3243 59.4083 85.3243 59.6667V60.95H84.8705V59.7292C84.8705 59.5597 84.8468 59.4403 84.7994 59.3708C84.7521 59.3014 84.6745 59.2667 84.5666 59.2667C84.4824 59.2667 84.4074 59.2889 84.3416 59.3333C84.2785 59.375 84.2061 59.4375 84.1246 59.5208V60.95H83.6707Z" fill="#212121"/>
<path d="M86.6959 61C86.517 61 86.3566 60.9583 86.2145 60.875C86.0724 60.7889 85.9593 60.6667 85.8751 60.5083C85.7935 60.3472 85.7528 60.1542 85.7528 59.9292C85.7528 59.7014 85.7975 59.5083 85.8869 59.35C85.9764 59.1889 86.0948 59.0667 86.2421 58.9833C86.3921 58.8972 86.5526 58.8542 86.7236 58.8542C86.8472 58.8542 86.9551 58.8764 87.0472 58.9208C87.1419 58.9625 87.2234 59.0167 87.2919 59.0833L87.0748 59.3833C87.0327 59.3417 86.984 59.3083 86.9288 59.2833C86.8762 59.2583 86.8157 59.2458 86.7473 59.2458C86.6446 59.2458 86.5539 59.275 86.4749 59.3333C86.396 59.3889 86.3329 59.4681 86.2855 59.5708C86.2408 59.6708 86.2184 59.7903 86.2184 59.9292C86.2184 60.0653 86.2408 60.1847 86.2855 60.2875C86.3302 60.3875 86.3908 60.4667 86.4671 60.525C86.546 60.5806 86.6368 60.6083 86.7394 60.6083C86.8157 60.6083 86.8867 60.5931 86.9525 60.5625C87.0209 60.5319 87.0814 60.4931 87.134 60.4458L87.3195 60.7417C87.2379 60.8194 87.1432 60.8819 87.0353 60.9292C86.9301 60.9764 86.817 61 86.6959 61Z" fill="#212121"/>
<path d="M88.4383 61C88.2568 61 88.0923 60.9583 87.945 60.875C87.8003 60.7889 87.6858 60.6667 87.6016 60.5083C87.5175 60.3472 87.4754 60.1528 87.4754 59.925C87.4754 59.7028 87.5188 59.5125 87.6056 59.3542C87.6924 59.1931 87.8042 59.0694 87.941 58.9833C88.0778 58.8972 88.2225 58.8542 88.3751 58.8542C88.5514 58.8542 88.6987 58.8958 88.8171 58.9792C88.9355 59.0625 89.0237 59.1778 89.0816 59.325C89.1421 59.4694 89.1723 59.6361 89.1723 59.825C89.1723 59.8694 89.1697 59.9125 89.1644 59.9542C89.1618 59.9958 89.1565 60.0361 89.1486 60.075H87.8148V59.7083H88.7698C88.7698 59.5611 88.7382 59.4458 88.6751 59.3625C88.6119 59.2764 88.5146 59.2333 88.383 59.2333C88.3094 59.2333 88.237 59.2542 88.166 59.2958C88.0976 59.3375 88.0397 59.4083 87.9923 59.5083C87.9476 59.6083 87.9253 59.7472 87.9253 59.925C87.9253 60.0861 87.9516 60.2181 88.0042 60.3208C88.0568 60.4208 88.1265 60.4958 88.2133 60.5458C88.3002 60.5931 88.3936 60.6167 88.4935 60.6167C88.5777 60.6167 88.6567 60.6042 88.7303 60.5792C88.8066 60.5542 88.8777 60.5194 88.9434 60.475L89.1013 60.7833C89.0118 60.85 88.9092 60.9028 88.7935 60.9417C88.6803 60.9806 88.5619 61 88.4383 61Z" fill="#212121"/>
<path d="M90.0478 60.9917C89.9399 60.9917 89.8531 60.9694 89.7873 60.925C89.7242 60.8778 89.6781 60.8111 89.6492 60.725C89.6202 60.6389 89.6058 60.5361 89.6058 60.4167V58.0083H90.0596V60.4417C90.0596 60.5028 90.0701 60.5444 90.0912 60.5667C90.1122 60.5889 90.1359 60.6 90.1622 60.6C90.1727 60.6 90.182 60.6 90.1898 60.6C90.2004 60.5972 90.2135 60.5944 90.2293 60.5917L90.2885 60.95C90.2622 60.9611 90.228 60.9708 90.1859 60.9792C90.1464 60.9875 90.1004 60.9917 90.0478 60.9917Z" fill="#212121"/>
<path d="M91.1192 60.9917C91.0113 60.9917 90.9245 60.9694 90.8587 60.925C90.7956 60.8778 90.7495 60.8111 90.7206 60.725C90.6916 60.6389 90.6772 60.5361 90.6772 60.4167V58.0083H91.131V60.4417C91.131 60.5028 91.1415 60.5444 91.1626 60.5667C91.1836 60.5889 91.2073 60.6 91.2336 60.6C91.2441 60.6 91.2533 60.6 91.2612 60.6C91.2718 60.5972 91.2849 60.5944 91.3007 60.5917L91.3599 60.95C91.3336 60.9611 91.2994 60.9708 91.2573 60.9792C91.2178 60.9875 91.1718 60.9917 91.1192 60.9917Z" fill="#212121"/>
<path d="M92.2182 61C92.105 61 92.0051 60.975 91.9182 60.925C91.8314 60.875 91.763 60.8056 91.713 60.7167C91.6657 60.625 91.642 60.5194 91.642 60.4C91.642 60.1694 91.7328 59.9958 91.9143 59.8792C92.0985 59.7597 92.3892 59.6778 92.7865 59.6333C92.7838 59.5639 92.7707 59.5 92.747 59.4417C92.7259 59.3833 92.6891 59.3375 92.6365 59.3042C92.5865 59.2681 92.5181 59.25 92.4313 59.25C92.3366 59.25 92.2432 59.2681 92.1511 59.3042C92.0616 59.3403 91.9735 59.3861 91.8867 59.4417L91.7209 59.1167C91.792 59.0694 91.8696 59.0264 91.9538 58.9875C92.038 58.9458 92.1274 58.9139 92.2221 58.8917C92.3168 58.8667 92.4155 58.8542 92.5181 58.8542C92.6786 58.8542 92.8115 58.8889 92.9167 58.9583C93.0246 59.025 93.1048 59.125 93.1574 59.2583C93.2127 59.3889 93.2403 59.55 93.2403 59.7417V60.95H92.8654L92.8338 60.725H92.818C92.7286 60.8028 92.6352 60.8681 92.5378 60.9208C92.4405 60.9736 92.3339 61 92.2182 61ZM92.3602 60.6083C92.4392 60.6083 92.5115 60.5917 92.5773 60.5583C92.6457 60.5222 92.7154 60.4694 92.7865 60.4V59.9667C92.6102 59.9889 92.4707 60.0181 92.3681 60.0542C92.2655 60.0903 92.1919 60.1347 92.1471 60.1875C92.105 60.2375 92.084 60.2972 92.084 60.3667C92.084 60.4528 92.1103 60.5153 92.1629 60.5542C92.2155 60.5903 92.2813 60.6083 92.3602 60.6083Z" fill="#212121"/>
<path d="M94.4045 60.9917C94.1809 60.9917 94.0217 60.9236 93.927 60.7875C93.8349 60.6486 93.7888 60.4694 93.7888 60.25V59.2833H93.5126V58.925L93.8125 58.9042L93.8678 58.2625H94.2466V58.9042H94.7399V59.2833H94.2466V60.25C94.2466 60.3694 94.269 60.4597 94.3137 60.5208C94.3584 60.5792 94.4268 60.6083 94.5189 60.6083C94.5531 60.6083 94.5873 60.6056 94.6215 60.6C94.6557 60.5944 94.6886 60.5833 94.7202 60.5667L94.8031 60.9042C94.7531 60.9292 94.6939 60.95 94.6255 60.9667C94.5571 60.9833 94.4834 60.9917 94.4045 60.9917Z" fill="#212121"/>
<path d="M95.1477 60.95V58.9042H95.6015V60.95H95.1477ZM95.3727 58.5458C95.2937 58.5458 95.2279 58.5208 95.1753 58.4708C95.1253 58.4208 95.1003 58.3542 95.1003 58.2708C95.1003 58.1875 95.1253 58.1222 95.1753 58.075C95.2279 58.025 95.2937 58 95.3727 58C95.4542 58 95.52 58.025 95.57 58.075C95.62 58.1222 95.645 58.1875 95.645 58.2708C95.645 58.3542 95.62 58.4208 95.57 58.4708C95.52 58.5208 95.4542 58.5458 95.3727 58.5458Z" fill="#212121"/>
<path d="M96.9738 61C96.8133 61 96.6633 60.9583 96.5239 60.875C96.3845 60.7889 96.2713 60.6667 96.1845 60.5083C96.0977 60.3472 96.0543 60.1542 96.0543 59.9292C96.0543 59.7014 96.0977 59.5083 96.1845 59.35C96.2713 59.1889 96.3845 59.0667 96.5239 58.9833C96.6633 58.8972 96.8133 58.8542 96.9738 58.8542C97.1369 58.8542 97.2882 58.8972 97.4276 58.9833C97.5671 59.0667 97.6802 59.1889 97.767 59.35C97.8538 59.5083 97.8972 59.7014 97.8972 59.9292C97.8972 60.1542 97.8538 60.3472 97.767 60.5083C97.6802 60.6667 97.5671 60.7889 97.4276 60.875C97.2882 60.9583 97.1369 61 96.9738 61ZM96.9738 60.6083C97.0685 60.6083 97.1501 60.5806 97.2185 60.525C97.2869 60.4694 97.3395 60.3903 97.3763 60.2875C97.4131 60.1847 97.4316 60.0653 97.4316 59.9292C97.4316 59.7931 97.4131 59.6736 97.3763 59.5708C97.3395 59.4681 97.2869 59.3889 97.2185 59.3333C97.1501 59.275 97.0685 59.2458 96.9738 59.2458C96.8791 59.2458 96.7975 59.275 96.7291 59.3333C96.6633 59.3889 96.612 59.4681 96.5752 59.5708C96.5384 59.6736 96.5199 59.7931 96.5199 59.9292C96.5199 60.0653 96.5384 60.1847 96.5752 60.2875C96.612 60.3903 96.6633 60.4694 96.7291 60.525C96.7975 60.5806 96.8791 60.6083 96.9738 60.6083Z" fill="#212121"/>
<path d="M98.3465 60.95V58.9042H98.7214L98.7529 59.1792H98.7687C98.8555 59.0903 98.9503 59.0139 99.0529 58.95C99.1555 58.8861 99.2725 58.8542 99.4041 58.8542C99.6119 58.8542 99.7632 58.925 99.8579 59.0667C99.9526 59.2083 100 59.4083 100 59.6667V60.95H99.5462V59.7292C99.5462 59.5597 99.5225 59.4403 99.4751 59.3708C99.4278 59.3014 99.3502 59.2667 99.2423 59.2667C99.1581 59.2667 99.0831 59.2889 99.0173 59.3333C98.9542 59.375 98.8819 59.4375 98.8003 59.5208V60.95H98.3465Z" fill="#212121"/>
<path d="M115.75 64.7576V66.0857H102.938V53.3398L104.267 53.3894L115.75 64.7576Z" fill="#2C447D"/>
<path d="M115.752 64.7588H104.269V53.3906L115.752 64.7588Z" fill="white"/>
<path d="M90.4764 91.6801L109.677 72.0931C114.72 66.9489 121.917 64.0098 129.472 64.0098C131.246 64.0098 132.684 65.1783 132.684 66.6199V93.3061V118.972C132.684 120.413 130.286 122.602 128.512 122.602H117.602L90.477 94.9326C89.569 94.0067 89.569 92.6054 90.4764 91.6801Z" fill="#28164A"/>
<path d="M88.8456 91.643L69.6447 72.056C64.6019 66.9118 57.4048 63.9727 49.8509 63.9727C48.0768 63.9727 46.6387 65.1412 46.6387 66.5828V93.269V119.249C46.6387 120.69 48.698 122.601 50.4721 122.601L61.7216 122.565L88.8462 94.8955C89.7525 93.9702 89.7525 92.5689 88.8456 91.643Z" fill="#28164A"/>
<path d="M89.3296 82.4086C94.5882 82.465 98.9057 78.2479 98.973 72.9894C99.0403 67.731 94.8319 63.4223 89.5733 63.3659C84.3147 63.3094 79.9972 67.5265 79.9299 72.785C79.8626 78.0435 84.071 82.3521 89.3296 82.4086Z" fill="#ECF3FE"/>
<path d="M94.4551 78.7554C93.9652 79.1879 93.4228 79.5561 92.8279 79.8483C92.5305 80.0003 92.2155 80.1288 91.8948 80.234C91.5565 80.3509 91.2007 80.4444 90.8391 80.5087C90.5475 80.5613 90.2442 80.6022 89.941 80.6198C89.6377 80.6373 89.3344 80.6373 89.0311 80.6256C87.6372 80.5496 86.3308 80.0879 85.2285 79.3399C85.7184 78.282 86.6166 77.4405 87.7364 77.0431C87.9288 76.9729 88.1271 76.9203 88.3313 76.8794C88.3371 76.8794 88.3488 76.8736 88.3546 76.8736C88.5354 76.8385 88.7162 76.8151 88.9028 76.8034L90.4834 76.7041C90.67 76.6924 90.8566 76.6924 91.0374 76.7041C91.0433 76.7041 91.0549 76.7041 91.0608 76.7041C91.2707 76.7158 91.469 76.745 91.6731 76.7917C92.8338 77.043 93.8369 77.7677 94.4551 78.7554Z" fill="#727272"/>
<path d="M93.6645 69.3412L93.9853 74.4374C94.0553 75.5595 93.2096 76.5296 92.084 76.5998L87.3015 76.9037C86.1817 76.9738 85.2136 76.1205 85.1436 74.9984L84.8228 69.9022C84.537 65.3729 88.9695 65.2969 88.9695 65.2969C88.9695 65.2969 90.1185 65.1684 91.2791 65.6476C92.3173 66.0742 93.3729 66.9859 93.6237 68.9087C93.6412 69.049 93.6528 69.1951 93.6645 69.3412Z" fill="#302F2F"/>
<path d="M91.0149 75.9216L91.1082 77.4236C91.149 78.0606 90.5658 78.6158 89.8134 78.6684C89.0611 78.7152 88.4137 78.236 88.3729 77.5989L88.2795 76.097C88.262 75.834 88.3495 75.5827 88.5187 75.3781C88.5537 75.3313 88.6003 75.2846 88.647 75.2437C88.7345 75.1619 88.8336 75.0917 88.9444 75.0333C89.1311 74.9339 89.3468 74.8696 89.5743 74.858C89.8076 74.8404 90.0234 74.8755 90.2217 74.9515C90.3383 74.9982 90.4491 75.0567 90.5425 75.1268C90.5483 75.1326 90.5541 75.1326 90.56 75.1385C90.6066 75.1735 90.6474 75.2086 90.6883 75.2495C90.8749 75.419 90.9974 75.6586 91.0149 75.9216Z" fill="#F4B698"/>
<path opacity="0.28" d="M93.0212 70.5396L93.1612 72.7253C93.2603 74.2624 92.3621 75.6358 91.0324 76.2261L91.0674 76.8047C90.6941 76.9683 90.2917 77.0735 89.8601 77.0969L89.5685 77.1144C89.1428 77.1436 88.7228 77.091 88.3379 76.9742L88.3029 76.3956C86.909 75.9806 85.8475 74.7241 85.7484 73.1929L85.6084 71.0071C85.5501 69.9844 85.9292 69.0259 86.5882 68.3363C87.189 67.7051 88.0113 67.2902 88.9445 67.2317L89.2361 67.2142C90.0701 67.1616 90.8574 67.4012 91.499 67.8512C92.3563 68.4532 92.9454 69.4233 93.0212 70.5396Z" fill="black"/>
<path d="M92.9861 69.9832L93.1611 72.7242C93.2077 73.4722 93.0211 74.1852 92.6595 74.7872C92.5778 74.9274 92.4845 75.0619 92.3795 75.1846C92.1812 75.4301 91.9538 75.6521 91.6972 75.8392C91.493 75.9911 91.2714 76.1197 91.0323 76.2249C90.659 76.3885 90.2508 76.4937 89.825 76.5171L89.5334 76.5346C89.1077 76.5639 88.6877 76.5113 88.3028 76.3944C86.9089 75.9794 85.8474 74.7287 85.7483 73.1917L85.5733 70.4624C85.5733 70.4273 85.5675 70.3864 85.5675 70.3455C85.5325 69.3052 85.9466 68.3409 86.6464 67.6572C86.7573 67.552 86.8739 67.4468 86.9964 67.3533C87.5329 66.95 88.1862 66.6929 88.9035 66.6461L89.1951 66.6286C90 66.576 90.764 66.8039 91.3939 67.2247C91.7263 67.4468 92.0238 67.7273 92.2687 68.0487C92.3679 68.1773 92.4612 68.3176 92.5428 68.4637C92.7936 68.9195 92.9511 69.4338 92.9861 69.9832Z" fill="#F4B698"/>
<path d="M94.5027 71.3331C94.5552 72.1221 93.9545 72.8058 93.1671 72.8526L92.9863 69.9947C93.1846 69.983 93.3771 70.0123 93.5521 70.0707C94.077 70.2636 94.4677 70.7428 94.5027 71.3331Z" fill="#F4B698"/>
<path d="M93.9595 71.3686C93.9887 71.8595 93.6212 72.2803 93.1313 72.3095L93.0205 70.5387C93.5104 70.5095 93.9303 70.8835 93.9595 71.3686Z" fill="#E29586"/>
<path d="M91.674 76.793L90.84 80.5099C90.5484 80.5625 90.2451 80.6034 89.9419 80.621C89.6386 80.6385 89.3353 80.6385 89.032 80.6268L87.7314 77.0443L88.4838 76.9975L88.513 77.0209L89.7786 78.1781L90.8925 76.8689L90.9158 76.8397L91.674 76.793Z" fill="#565656"/>
<path d="M85.5726 70.4688L85.7534 73.3266C84.9661 73.3792 84.2895 72.7772 84.237 71.9883C84.1962 71.3103 84.6278 70.7084 85.2519 70.5272C85.2752 70.5213 85.2927 70.5155 85.316 70.5097C85.3277 70.5097 85.3393 70.5038 85.351 70.5038C85.4268 70.4863 85.4968 70.4746 85.5726 70.4688Z" fill="#F4B698"/>
<path d="M84.779 71.9546C84.8081 72.4455 85.2281 72.8137 85.718 72.7845L85.6071 71.0137C85.1172 71.0487 84.7498 71.4695 84.779 71.9546Z" fill="#E29586"/>
<path d="M92.8276 79.8496C92.5301 80.0016 92.2152 80.1301 91.8944 80.2353L91.8711 79.9081L92.8276 79.8496Z" fill="#565656"/>
<path opacity="0.2" d="M89.7832 78.1839L90.8913 78.8677L91.6728 76.793L89.7832 78.1839Z" fill="#363636"/>
<path d="M91.6728 76.7927L90.868 78.7973L89.7832 78.1836L90.9205 76.8453L91.0721 76.6699L91.6728 76.7927Z" fill="#EEEEEE"/>
<path opacity="0.2" d="M87.7383 77.0449L88.7648 79.0028L89.7854 78.1846L87.7383 77.0449Z" fill="#363636"/>
<path d="M89.7854 78.1841L88.7881 78.9321L87.7383 77.0444L88.3215 76.8457L88.4906 76.9977L89.7854 78.1841Z" fill="#EEEEEE"/>
<path d="M93.6561 69.2474C91.0083 69.6098 91.1133 67.1844 91.3116 65.9863C92.3497 66.413 93.4053 67.3247 93.6561 69.2474Z" fill="#302F2F"/>
<path d="M92.1652 67.2365C92.0836 67.3884 91.2729 69.1008 89.6224 69.206C87.9718 69.3112 85.4173 70.4684 85.4406 72.1223C85.464 73.7704 83.0553 67.2306 88.0301 66.389C93.0109 65.5533 92.1652 67.2365 92.1652 67.2365Z" fill="#302F2F"/>
<path d="M132.68 108.255V119.546C132.68 121.234 130.964 122.601 128.848 122.601H50.4676C48.3512 122.601 46.6348 121.234 46.6348 119.546V108.255L87.2693 82.4567C87.9302 82.0372 88.7224 81.8154 89.5222 81.7929C90.4113 81.7681 91.309 81.9899 92.0453 82.4567L132.68 108.255Z" fill="#462682"/>
<path d="M46.6348 103.548L81.996 84.6602L82.6875 85.3654L46.6348 108.256V103.548Z" fill="#1F0F3F"/>
<path d="M132.686 103.548L97.3242 84.6602L96.6328 85.3654L132.686 108.256V103.548Z" fill="#1F0F3F"/>
</svg>
