<svg width="537" height="207" viewBox="0 0 537 207" fill="none" xmlns="http://www.w3.org/2000/svg">
<g opacity="0.5">
<path d="M382.649 145.866C382.649 163.554 378.318 172.77 372.96 172.77C367.602 172.77 363.271 163.554 363.271 145.866C363.271 128.177 367.602 108.705 372.96 108.705C378.318 108.705 382.649 128.166 382.649 145.866Z" fill="#F7F3FF" stroke="#462682" stroke-width="0.75" stroke-linecap="round" stroke-linejoin="round"/>
<path d="M372.96 108.705V172.77" stroke="#462682" stroke-width="0.5" stroke-linecap="round" stroke-linejoin="round"/>
<path d="M364.427 159.832L372.96 168.387L381.504 159.832" stroke="#462682" stroke-width="0.5" stroke-linecap="round" stroke-linejoin="round"/>
<path d="M363.294 143.75L372.96 153.439L382.626 143.75" stroke="#462682" stroke-width="0.5" stroke-linecap="round" stroke-linejoin="round"/>
<path d="M364.368 129.891L372.96 138.481L381.552 129.891" stroke="#462682" stroke-width="0.5" stroke-linecap="round" stroke-linejoin="round"/>
<path d="M366.965 117.531L372.96 123.534L378.956 117.543" stroke="#462682" stroke-width="0.5" stroke-linecap="round" stroke-linejoin="round"/>
<path d="M363.235 149.506C368.687 163.224 368.168 171.708 364.026 173.362C359.883 175.016 353.675 169.214 348.223 155.496C342.77 141.778 340.126 125.354 344.281 123.7C348.423 122.046 357.794 135.799 363.247 149.506H363.235Z" fill="white" stroke="#462682" stroke-width="0.75" stroke-linecap="round" stroke-linejoin="round"/>
<path d="M344.269 123.699L364.025 173.361" stroke="#462682" stroke-width="0.5" stroke-linecap="round" stroke-linejoin="round"/>
<path d="M353.416 165.965L362.681 169.959L366.658 160.695" stroke="#462682" stroke-width="0.5" stroke-linecap="round" stroke-linejoin="round"/>
<path d="M347.585 153.854L358.065 158.367L362.574 147.875" stroke="#462682" stroke-width="0.5" stroke-linecap="round" stroke-linejoin="round"/>
<path d="M344.151 142.77L353.451 146.787L357.464 137.465" stroke="#462682" stroke-width="0.5" stroke-linecap="round" stroke-linejoin="round"/>
<path d="M342.346 132.396L348.849 135.196L351.646 128.686" stroke="#462682" stroke-width="0.5" stroke-linecap="round" stroke-linejoin="round"/>
<path d="M380.49 153.18C375.84 164.866 376.276 172.109 379.817 173.515C383.357 174.921 388.645 169.971 393.295 158.285C397.945 146.587 400.199 132.586 396.658 131.18C393.118 129.773 385.14 141.495 380.49 153.18Z" fill="white" stroke="#462682" stroke-width="0.75" stroke-linecap="round" stroke-linejoin="round"/>
<path d="M396.658 131.18L379.816 173.516" stroke="#462682" stroke-width="0.5" stroke-linecap="round" stroke-linejoin="round"/>
<path d="M388.857 167.217L380.973 170.62L377.574 162.715" stroke="#462682" stroke-width="0.5" stroke-linecap="round" stroke-linejoin="round"/>
<path d="M393.825 156.891L384.903 160.732L381.056 151.799" stroke="#462682" stroke-width="0.5" stroke-linecap="round" stroke-linejoin="round"/>
<path d="M396.765 147.438L388.834 150.852L385.411 142.912" stroke="#462682" stroke-width="0.5" stroke-linecap="round" stroke-linejoin="round"/>
<path d="M398.299 138.588L392.752 140.975L390.38 135.434" stroke="#462682" stroke-width="0.5" stroke-linecap="round" stroke-linejoin="round"/>
<path d="M355.044 168.988H390.875L399.608 204.353H346.322L355.044 168.988Z" fill="white"/>
<path d="M355.044 168.988H362.574L381.056 204.353H346.322L355.044 168.988Z" fill="#F7F3FF"/>
<path d="M355.044 168.988H390.875L399.608 204.353H346.322L355.044 168.988Z" stroke="#462682" stroke-width="0.75" stroke-linecap="round" stroke-linejoin="round"/>
<path d="M171.016 83.8086H352.802C354.938 83.8086 356.673 85.5455 356.673 87.6842V194.794C356.673 196.933 354.938 198.669 352.802 198.669H171.016C168.879 198.669 167.156 196.933 167.156 194.806V87.696C167.156 85.5573 168.891 83.8204 171.027 83.8204L171.016 83.8086Z" fill="white" stroke="#462682" stroke-width="0.75" stroke-linejoin="round"/>
<path d="M172.266 89.4453H351.539C352.247 89.4453 352.825 90.0243 352.825 90.7332V185.484C352.825 186.193 352.247 186.772 351.539 186.772H172.266C171.558 186.772 170.979 186.193 170.979 185.484V90.7332C170.979 90.0243 171.558 89.4453 172.266 89.4453Z" fill="#F7F3FF" stroke="#462682" stroke-width="0.75" stroke-linejoin="round"/>
<path fill-rule="evenodd" clip-rule="evenodd" d="M382.991 193.719H140.837C139.657 193.719 138.689 194.688 138.689 195.869V201.458C138.689 201.458 144.26 206.562 155.153 206.562H368.687C379.581 206.562 385.151 201.458 385.151 201.458V195.869C385.151 194.688 384.183 193.719 383.003 193.719H382.991Z" fill="white" stroke="#462682" stroke-width="0.75" stroke-linejoin="round"/>
<path fill-rule="evenodd" clip-rule="evenodd" d="M218.684 193.719C219.097 195.302 220.525 196.484 222.248 196.484H301.581C303.292 196.484 304.72 195.314 305.145 193.719H218.684Z" fill="#F7F3FF" stroke="#462682" stroke-width="0.75" stroke-linejoin="round"/>
<path d="M278.98 186.784H244.849L253.311 131.947H270.518L278.98 186.784Z" fill="white" stroke="#462682" stroke-width="0.75" stroke-linejoin="round"/>
<path d="M255.506 149.447L253.394 173.599" stroke="#462682" stroke-width="0.75" stroke-linecap="round" stroke-linejoin="round"/>
<path d="M260.77 153.086L260.463 173.598" stroke="#462682" stroke-width="0.75" stroke-linecap="round" stroke-linejoin="round"/>
<path d="M265.727 142.521L266.399 154.101" stroke="#462682" stroke-width="0.75" stroke-linecap="round" stroke-linejoin="round"/>
<path d="M269.81 147.166L272.748 173.598" stroke="#462682" stroke-width="0.75" stroke-linecap="round" stroke-linejoin="round"/>
<path d="M242.854 101.025L225.646 114.779C225.646 114.779 226.107 132.703 238.7 153.05H241.237C241.237 153.05 240.541 135.539 248.861 124.066L242.854 101.025Z" fill="white" stroke="#462682" stroke-width="0.75" stroke-linejoin="round"/>
<path d="M280.962 101.025L298.17 114.779C298.17 114.779 297.709 132.703 285.117 153.05H282.579C282.579 153.05 283.276 135.539 274.955 124.066L280.962 101.025Z" fill="white" stroke="#462682" stroke-width="0.75" stroke-linejoin="round"/>
<path d="M272.925 132.704C272.925 138.801 261.914 155.674 261.914 155.674C261.914 155.674 250.891 138.801 250.891 132.704C250.891 126.607 255.824 121.68 261.914 121.68C268.004 121.68 272.925 126.619 272.925 132.704Z" fill="#FFC96B" stroke="#462682" stroke-width="0.75" stroke-linejoin="round"/>
<path d="M261.915 0.449219C226.06 17.6884 233.165 61.4066 238.582 90.2016C243.999 118.997 247.374 129.713 247.374 129.713H276.466C276.466 129.713 279.854 118.997 285.259 90.2016C290.676 61.4066 297.769 17.6766 261.926 0.449219H261.915Z" fill="white" stroke="#462682" stroke-width="0.75" stroke-linejoin="round"/>
<path d="M261.914 34.4313C270.884 34.4313 279.44 33.4151 287.277 31.5837C283.878 18.7045 276.407 7.40869 261.914 0.449219C247.433 7.40869 239.963 18.7045 236.552 31.5837C244.377 33.4151 252.933 34.4313 261.914 34.4313Z" fill="#F7F3FF" stroke="#462682" stroke-width="0.75" stroke-linejoin="round"/>
<path d="M278.673 56.3859C278.673 65.6612 271.167 73.176 261.903 73.176C252.638 73.176 245.132 65.6612 245.132 56.3859C245.132 47.1105 252.638 39.5957 261.903 39.5957C271.167 39.5957 278.673 47.1105 278.673 56.3859Z" fill="white" stroke="#462682" stroke-width="0.75" stroke-linejoin="round"/>
<path d="M262.03 69.4479C269.239 69.3874 275.034 63.4878 274.973 56.2707C274.913 49.0536 269.02 43.2519 261.811 43.3124C254.603 43.3729 248.808 49.2725 248.868 56.4896C248.929 63.7067 254.821 69.5084 262.03 69.4479Z" fill="#F7F3FF" stroke="#462682" stroke-width="0.75" stroke-linejoin="round"/>
<path d="M251.883 56.3851C251.883 50.8435 256.368 46.3535 261.903 46.3535" stroke="#462682" stroke-width="0.75" stroke-linecap="round" stroke-linejoin="round"/>
<path d="M273.15 91.5259C273.15 97.741 268.122 102.775 261.914 102.775C255.706 102.775 250.679 97.741 250.679 91.5259C250.679 85.3108 255.706 80.2773 261.914 80.2773C268.122 80.2773 273.15 85.3108 273.15 91.5259Z" fill="white" stroke="#462682" stroke-width="0.75" stroke-linejoin="round"/>
<path d="M270.648 91.525C270.648 96.3576 266.73 100.28 261.903 100.28C257.076 100.28 253.157 96.3576 253.157 91.525C253.157 86.6924 257.064 82.7695 261.903 82.7695C266.741 82.7695 270.648 86.6924 270.648 91.525Z" fill="#F7F3FF" stroke="#462682" stroke-width="0.75" stroke-linejoin="round"/>
<path d="M255.188 91.5259C255.188 87.8158 258.197 84.8027 261.903 84.8027" stroke="#462682" stroke-width="0.75" stroke-linecap="round" stroke-linejoin="round"/>
<path d="M280.927 111.575C280.773 111.481 280.679 111.434 280.679 111.434H242.854C245.71 124.455 247.362 129.724 247.362 129.724H276.454C276.454 129.724 278.094 124.502 280.927 111.575Z" fill="#FF9EB1" stroke="#462682" stroke-width="0.75" stroke-linejoin="round"/>
<path d="M337.365 144.188C337.365 147.886 337.919 151.443 338.934 154.775C334.556 157.539 330.85 161.474 328.194 166.177C323.84 163.542 318.824 162.041 313.489 162.041C301.121 162.041 290.475 170.111 285.695 181.703C285.235 181.679 284.763 181.667 284.291 181.667C278.343 181.667 272.808 183.558 268.11 186.783H351.657C352.306 186.783 352.837 186.204 352.837 185.495V115.145C343.596 120.887 337.365 131.734 337.365 144.199V144.188Z" fill="white" stroke="#462682" stroke-width="0.75" stroke-linejoin="round"/>
<path d="M186.464 144.188C186.464 147.886 185.909 151.443 184.894 154.775C189.284 157.539 192.978 161.474 195.634 166.177C199.989 163.542 205.005 162.041 210.339 162.041C222.708 162.041 233.353 170.111 238.133 181.703C238.593 181.679 239.065 181.667 239.537 181.667C245.486 181.667 251.021 183.558 255.718 186.783H172.16C171.511 186.783 170.979 186.204 170.979 185.495V115.145C180.22 120.887 186.464 131.734 186.464 144.199V144.188Z" fill="white" stroke="#462682" stroke-width="0.75" stroke-linejoin="round"/>
<path d="M351.645 166.661C350.725 166.661 349.828 166.779 348.966 166.968C346.346 160.871 340.303 156.605 333.246 156.605C324.831 156.605 317.844 162.691 316.416 170.713C315.909 170.654 315.401 170.607 314.87 170.607C308.745 170.607 303.705 175.227 303.033 181.182C301.793 180.745 300.483 180.497 299.091 180.497C294.559 180.497 290.617 183.037 288.599 186.771H351.527C352.235 186.771 352.813 186.192 352.813 185.483V166.72C352.424 166.684 352.023 166.661 351.621 166.661H351.645Z" fill="white" stroke="#462682" stroke-width="0.75" stroke-linejoin="round"/>
<path d="M172.183 166.661C173.104 166.661 174.001 166.779 174.862 166.968C177.482 160.871 183.525 156.605 190.582 156.605C198.997 156.605 205.984 162.691 207.412 170.713C207.92 170.654 208.427 170.607 208.958 170.607C215.084 170.607 220.111 175.227 220.784 181.182C222.023 180.745 223.345 180.497 224.726 180.497C229.258 180.497 233.2 183.037 235.218 186.771H172.289C171.581 186.771 171.003 186.192 171.003 185.483V166.72C171.392 166.684 171.794 166.661 172.195 166.661H172.183Z" fill="white" stroke="#462682" stroke-width="0.75" stroke-linejoin="round"/>
<path d="M334.037 116.137C331.44 123.557 323.32 127.468 315.909 124.869C308.497 122.269 304.591 114.14 307.187 106.72C309.783 99.2993 317.903 95.3883 325.315 97.9877C332.727 100.587 336.633 108.716 334.037 116.137Z" fill="white" stroke="#462682" stroke-width="0.75" stroke-linejoin="round"/>
<path d="M334.828 111.387C334.828 112.025 334.792 112.652 334.71 113.29C336.716 114.625 337.778 115.795 337.507 116.574C336.858 118.418 328.879 117.295 319.686 114.07C310.492 110.844 303.564 106.732 304.201 104.889C304.473 104.121 306.031 103.861 308.427 104.073C308.757 103.518 309.123 102.998 309.512 102.514C303.777 101.628 299.705 102.029 299.056 103.873C297.982 106.933 306.762 112.793 318.659 116.964C330.555 121.135 341.071 122.045 342.145 118.985C342.794 117.142 339.855 114.282 334.816 111.387H334.828Z" fill="#FFC96B" stroke="#462682" stroke-width="0.75" stroke-linejoin="round"/>
<path d="M201.523 144.482C203.589 138.645 198.856 134.675 193.64 137.865C198.844 134.675 197.782 128.59 191.857 127.727C197.782 128.59 200.862 123.237 197.003 118.806C200.874 123.237 206.669 121.122 206.669 115.285C206.669 121.122 212.464 123.237 216.335 118.806C212.464 123.237 215.556 128.59 221.481 127.727C215.556 128.59 214.482 134.675 219.698 137.865C214.494 134.675 209.761 138.645 211.826 144.482C209.773 138.645 203.6 138.645 201.535 144.482H201.523Z" fill="#FFC96B"/>
<path d="M201.523 144.482C203.589 138.645 198.856 134.675 193.64 137.865C198.844 134.675 197.782 128.59 191.857 127.727C197.782 128.59 200.862 123.237 197.003 118.806C200.874 123.237 206.669 121.122 206.669 115.285C206.669 121.122 212.464 123.237 216.335 118.806C212.464 123.237 215.556 128.59 221.481 127.727C215.556 128.59 214.482 134.675 219.698 137.865C214.494 134.675 209.761 138.645 211.826 144.482C209.773 138.645 203.6 138.645 201.535 144.482H201.523Z" stroke="#462682" stroke-width="0.75" stroke-linejoin="round"/>
<path d="M213.443 130.243C213.443 133.989 210.41 137.037 206.669 137.037C202.928 137.037 199.883 134.001 199.883 130.243C199.883 126.486 202.916 123.449 206.669 123.449C210.422 123.449 213.443 126.486 213.443 130.243Z" fill="white" stroke="#462682" stroke-width="0.75" stroke-linejoin="round"/>
<path d="M308.355 142.119L308.792 144.671L311.01 145.995L308.721 147.2L308.142 149.717L306.29 147.921L303.729 148.145L304.862 145.829L303.847 143.454L306.408 143.821L308.355 142.119Z" fill="white" stroke="#462682" stroke-width="0.75" stroke-linejoin="round"/>
<path d="M227.075 153.428L225.222 155.283" stroke="#462682" stroke-width="0.75" stroke-linecap="round" stroke-linejoin="round"/>
<path d="M227.075 155.283L225.222 153.428" stroke="#462682" stroke-width="0.75" stroke-linecap="round" stroke-linejoin="round"/>
<path d="M189.946 101.852L188.104 103.707" stroke="#462682" stroke-width="0.75" stroke-linecap="round" stroke-linejoin="round"/>
<path d="M189.946 103.707L188.104 101.852" stroke="#462682" stroke-width="0.75" stroke-linecap="round" stroke-linejoin="round"/>
<path d="M347.915 99.3574L346.074 101.213" stroke="#462682" stroke-width="0.75" stroke-linecap="round" stroke-linejoin="round"/>
<path d="M347.915 101.213L346.074 99.3574" stroke="#462682" stroke-width="0.75" stroke-linecap="round" stroke-linejoin="round"/>
<path d="M289.543 163.188L287.69 165.031" stroke="#462682" stroke-width="0.75" stroke-linecap="round" stroke-linejoin="round"/>
<path d="M289.543 165.031L287.69 163.188" stroke="#462682" stroke-width="0.75" stroke-linecap="round" stroke-linejoin="round"/>
<path d="M311.011 43.0685L317.172 49.2363L319.792 46.6132L311.011 37.8223L302.23 46.6132L304.851 49.2363L311.011 43.0685Z" fill="#F7F3FF" stroke="#462682" stroke-width="0.75" stroke-linejoin="round"/>
<path d="M311.011 53.6309L317.172 59.7987L319.792 57.1756L311.011 48.3965L302.23 57.1756L304.851 59.7987L311.011 53.6309Z" fill="white" stroke="#462682" stroke-width="0.75" stroke-linejoin="round"/>
<path d="M311.011 64.2071L317.172 70.3631L319.792 67.74L311.011 58.9609L302.23 67.7518L304.851 70.3631L311.011 64.2071Z" fill="#F7F3FF" stroke="#462682" stroke-width="0.75" stroke-linejoin="round"/>
<path d="M456.295 130.781L450.127 136.941L452.75 139.561L461.541 130.781L452.75 122L450.127 124.62L456.295 130.781Z" fill="#F7F3FF" stroke="#462682" stroke-width="0.75" stroke-linejoin="round"/>
<path d="M445.732 130.781L439.565 136.941L442.188 139.561L450.967 130.781L442.188 122L439.565 124.62L445.732 130.781Z" fill="white" stroke="#462682" stroke-width="0.75" stroke-linejoin="round"/>
<path d="M435.156 130.781L429 136.941L431.623 139.561L440.402 130.781L431.611 122L429 124.62L435.156 130.781Z" fill="#F7F3FF" stroke="#462682" stroke-width="0.75" stroke-linejoin="round"/>
<path d="M81.2948 47.7807L75.127 53.9414L77.7501 56.5614L86.541 47.7807L77.7501 39L75.127 41.6201L81.2948 47.7807Z" fill="#F7F3FF" stroke="#462682" stroke-width="0.75" stroke-linejoin="round"/>
<path d="M70.7324 47.7807L64.5646 53.9414L67.1877 56.5614L75.9668 47.7807L67.1877 39L64.5646 41.6201L70.7324 47.7807Z" fill="white" stroke="#462682" stroke-width="0.75" stroke-linejoin="round"/>
<path d="M60.1562 47.7807L54.0002 53.9414L56.6232 56.5614L65.4023 47.7807L56.6114 39L54.0002 41.6201L60.1562 47.7807Z" fill="#F7F3FF" stroke="#462682" stroke-width="0.75" stroke-linejoin="round"/>
<path d="M309.748 11.9102L312.274 14.4387" stroke="#462682" stroke-width="0.5" stroke-linecap="round" stroke-linejoin="round"/>
<path d="M312.274 11.9102L309.748 14.4387" stroke="#462682" stroke-width="0.5" stroke-linecap="round" stroke-linejoin="round"/>
<path d="M405.18 171.506L407.705 174.034" stroke="#462682" stroke-width="0.5" stroke-linecap="round" stroke-linejoin="round"/>
<path d="M407.705 171.506L405.18 174.034" stroke="#462682" stroke-width="0.5" stroke-linecap="round" stroke-linejoin="round"/>
<path d="M352.105 56.2539L347.821 56.9274L350.548 60.3067L352.105 56.2539Z" stroke="#EA698C" stroke-width="0.5" stroke-linecap="round" stroke-linejoin="round"/>
<path d="M208.806 16.4707L204.521 17.1442L207.248 20.5235L208.806 16.4707Z" stroke="#EA698C" stroke-width="0.5" stroke-linecap="round" stroke-linejoin="round"/>
<path d="M166.813 39.0625C168.242 39.0625 168.242 40.1259 169.658 40.1259C171.074 40.1259 171.086 39.0625 172.502 39.0625C173.918 39.0625 173.93 40.1259 175.346 40.1259C176.763 40.1259 176.774 39.0625 178.191 39.0625C179.607 39.0625 179.619 40.1259 181.047 40.1259C182.475 40.1259 182.475 39.0625 183.903 39.0625" stroke="#462682" stroke-width="0.5" stroke-linecap="round" stroke-linejoin="round"/>
<path d="M34 103C35.428 103 35.428 104.063 36.8443 104.063C38.2605 104.063 38.2723 103 39.6886 103C41.1048 103 41.1166 104.063 42.5329 104.063C43.9491 104.063 43.9609 103 45.3772 103C46.7934 103 46.8052 104.063 48.2332 104.063C49.6613 104.063 49.6613 103 51.0893 103" stroke="#462682" stroke-width="0.5" stroke-linecap="round" stroke-linejoin="round"/>
<path d="M381.835 96.1211C383.263 96.1211 383.263 97.1845 384.679 97.1845C386.095 97.1845 386.107 96.1211 387.524 96.1211C388.94 96.1211 388.952 97.1845 390.368 97.1845C391.784 97.1845 391.796 96.1211 393.212 96.1211C394.628 96.1211 394.64 97.1845 396.068 97.1845C397.496 97.1845 397.496 96.1211 398.924 96.1211" stroke="#EA698C" stroke-width="0.5" stroke-linecap="round" stroke-linejoin="round"/>
<path d="M464 73C465.428 73 465.428 74.0634 466.844 74.0634C468.261 74.0634 468.272 73 469.689 73C471.105 73 471.117 74.0634 472.533 74.0634C473.949 74.0634 473.961 73 475.377 73C476.793 73 476.805 74.0634 478.233 74.0634C479.661 74.0634 479.661 73 481.089 73" stroke="#EA698C" stroke-width="0.5" stroke-linecap="round" stroke-linejoin="round"/>
<path d="M130.133 147C131.561 147 131.561 148.063 132.977 148.063C134.393 148.063 134.405 147 135.821 147C137.238 147 137.249 148.063 138.666 148.063C140.082 148.063 140.094 147 141.51 147C142.926 147 142.938 148.063 144.366 148.063C145.794 148.063 145.794 147 147.222 147" stroke="#462682" stroke-width="0.5" stroke-linecap="round" stroke-linejoin="round"/>
<path d="M131.561 88.4759L130.888 88.0387C129.295 87.0107 129.295 86.2545 129.295 85.9827C129.295 85.2974 129.838 84.7539 130.522 84.7539C130.947 84.7539 131.325 84.9784 131.549 85.3092C131.762 84.9784 132.139 84.7539 132.576 84.7539C133.26 84.7539 133.803 85.3092 133.815 85.9827C133.815 86.2663 133.815 87.0225 132.234 88.0387L131.573 88.4759H131.561Z" stroke="#EA698C" stroke-width="0.5" stroke-linecap="round" stroke-linejoin="round"/>
<path d="M43.266 165.722L42.5933 165.285C41 164.257 41 163.501 41 163.229C41 162.544 41.5429 162 42.2274 162C42.6523 162 43.0299 162.224 43.2542 162.555C43.4666 162.224 43.8443 162 44.281 162C44.9655 162 45.5084 162.555 45.5202 163.229C45.5202 163.512 45.5202 164.269 43.9387 165.285L43.2778 165.722H43.266Z" stroke="#EA698C" stroke-width="0.5" stroke-linecap="round" stroke-linejoin="round"/>
<path d="M218.471 60.8265C218.141 60.8265 217.822 60.8738 217.503 60.9447C217.315 57.8017 214.718 55.3086 211.532 55.3086C208.581 55.3086 206.126 57.4472 205.642 60.2712C205.442 60.2476 205.229 60.2239 205.029 60.2239C202.479 60.2239 200.414 62.2917 200.414 64.8439C200.414 67.3961 202.479 69.4639 205.029 69.4639H218.471C220.843 69.4639 222.779 67.5379 222.779 65.1511C222.779 62.7643 220.855 60.8384 218.471 60.8384V60.8265Z" fill="#F7F3FF" stroke="#462682" stroke-width="0.75" stroke-linejoin="round"/>
<path d="M212.877 62.7759C212.547 62.7759 212.228 62.8231 211.91 62.8822C211.721 59.7392 209.124 57.2461 205.938 57.2461C202.987 57.2461 200.532 59.3847 200.049 62.2087C199.848 62.1851 199.636 62.1614 199.435 62.1614C196.886 62.1614 194.82 64.2292 194.82 66.7814C194.82 69.3336 196.886 71.4014 199.435 71.4014H212.877C215.261 71.4014 217.185 69.4754 217.185 67.0886C217.185 64.7018 215.261 62.7759 212.877 62.7759Z" fill="white" stroke="#462682" stroke-width="0.75" stroke-linejoin="round"/>
<path d="M120.651 120.518C120.32 120.518 120.002 120.565 119.683 120.636C119.494 117.493 116.898 115 113.711 115C110.761 115 108.306 117.139 107.822 119.963C107.621 119.939 107.409 119.915 107.208 119.915C104.659 119.915 102.594 121.983 102.594 124.535C102.594 127.088 104.659 129.155 107.208 129.155H120.651C123.023 129.155 124.959 127.229 124.959 124.843C124.959 122.456 123.035 120.53 120.651 120.53V120.518Z" fill="#F7F3FF" stroke="#462682" stroke-width="0.75" stroke-linejoin="round"/>
<path d="M115.057 122.467C114.727 122.467 114.408 122.515 114.089 122.574C113.901 119.431 111.304 116.938 108.118 116.938C105.167 116.938 102.712 119.076 102.228 121.9C102.028 121.876 101.815 121.853 101.615 121.853C99.0654 121.853 97 123.921 97 126.473C97 129.025 99.0654 131.093 101.615 131.093H115.057C117.441 131.093 119.365 129.167 119.365 126.78C119.365 124.393 117.441 122.467 115.057 122.467Z" fill="white" stroke="#462682" stroke-width="0.75" stroke-linejoin="round"/>
<path d="M482.057 177.53C481.727 177.53 481.408 177.577 481.089 177.636C480.901 174.493 478.304 172 475.118 172C472.167 172 469.712 174.139 469.228 176.963C469.028 176.939 468.815 176.915 468.615 176.915C466.065 176.915 464 178.983 464 181.535C464 184.088 466.065 186.155 468.615 186.155H482.057C484.441 186.155 486.365 184.229 486.365 181.843C486.365 179.456 484.441 177.53 482.057 177.53Z" fill="white" stroke="#462682" stroke-width="0.75" stroke-linejoin="round"/>
<path d="M411.651 29.5179C411.32 29.5179 411.002 29.5652 410.683 29.6361C410.494 26.4931 407.898 24 404.711 24C401.761 24 399.306 26.1386 398.822 28.9626C398.621 28.939 398.409 28.9153 398.208 28.9153C395.659 28.9153 393.594 30.9831 393.594 33.5353C393.594 36.0875 395.659 38.1553 398.208 38.1553H411.651C414.023 38.1553 415.959 36.2293 415.959 33.8425C415.959 31.4557 414.035 29.5298 411.651 29.5298V29.5179Z" fill="#F7F3FF" stroke="#462682" stroke-width="0.75" stroke-linejoin="round"/>
<path d="M406.057 31.4673C405.727 31.4673 405.408 31.5145 405.089 31.5736C404.901 28.4306 402.304 25.9375 399.118 25.9375C396.167 25.9375 393.712 28.0762 393.228 30.9001C393.028 30.8765 392.815 30.8528 392.615 30.8528C390.065 30.8528 388 32.9206 388 35.4728C388 38.025 390.065 40.0928 392.615 40.0928H406.057C408.441 40.0928 410.365 38.1668 410.365 35.78C410.365 33.3932 408.441 31.4673 406.057 31.4673Z" fill="white" stroke="#462682" stroke-width="0.75" stroke-linejoin="round"/>
</g>
</svg>
