<svg width="162" height="158" viewBox="0 0 162 158" fill="none" xmlns="http://www.w3.org/2000/svg">
<g clip-path="url(#clip0_10325_11026)">
<mask id="mask0_10325_11026" style="mask-type:luminance" maskUnits="userSpaceOnUse" x="0" y="0" width="162" height="158">
<path d="M162 0H0V158H162V0Z" fill="white"/>
</mask>
<g mask="url(#mask0_10325_11026)">
<path d="M78.8959 141.673C113.752 141.673 142.013 113.376 142.013 78.4734C142.013 43.5712 113.752 15.2734 78.8959 15.2734C44.0396 15.2734 15.7791 43.5712 15.7791 78.4734C15.7791 113.376 44.0396 141.673 78.8959 141.673Z" fill="white" stroke="#E6E6E6" stroke-width="2.5" stroke-linecap="round" stroke-linejoin="round"/>
<path d="M151.559 24.4473H119.959C118.486 24.4473 117.292 25.706 117.292 27.2544V42.9069C117.292 44.4606 118.486 45.7193 119.959 45.7193H151.559C153.032 45.7193 154.226 44.4606 154.226 42.9069V27.2544C154.226 25.7007 153.032 24.4473 151.559 24.4473Z" fill="#F3E8F9"/>
<path d="M125.182 38.447C126.923 38.447 128.338 37.0302 128.338 35.287C128.338 33.5437 126.923 32.127 125.182 32.127C123.441 32.127 122.026 33.5437 122.026 35.287C122.026 37.0302 123.441 38.447 125.182 38.447Z" fill="#C11A85"/>
<path d="M135.701 32.127H146.221C147.962 32.127 149.377 33.5437 149.377 35.287C149.377 37.0302 147.962 38.447 146.221 38.447H135.701C133.96 38.447 132.545 37.0302 132.545 35.287C132.545 33.5437 133.96 32.127 135.701 32.127Z" fill="#5F22E2"/>
<g clip-path="url(#clip1_10325_11026)">
<path d="M100.258 35.0349C94.8335 34.6198 89.8632 37.9385 88.2225 43.1624C87.9663 43.9774 87.6037 44.148 86.8353 44.1455C78.6266 44.12 70.4179 44.1251 62.2067 44.1328C58.6438 44.1378 56.4756 46.3282 56.4705 49.9042C56.4654 54.5423 56.4705 59.1829 56.4705 63.8209C56.4705 64.1622 56.4705 64.5035 56.4705 64.9467H55.3598C51.1451 64.9467 46.9279 64.9416 42.7133 64.9467C40.7403 64.9492 39.5764 66.1055 39.5738 68.0795C39.5662 74.2126 39.5662 80.3432 39.5738 86.4763C39.5738 88.5062 40.7277 89.6753 42.7614 89.6778C54.0462 89.6855 65.3284 89.6855 76.6131 89.6778C78.6951 89.6778 79.8388 88.5164 79.8413 86.4152C79.8489 80.3457 79.8489 74.2788 79.8413 68.2093C79.8388 66.0546 78.7052 64.9467 76.5345 64.9441C71.0823 64.9441 65.6302 64.9441 60.1805 64.9441H59.052V63.9253C59.052 59.3178 59.047 54.7104 59.052 50.1054C59.0546 47.6985 60.0588 46.7077 62.4831 46.7077C70.5016 46.7052 78.5201 46.7077 86.5412 46.7077C86.881 46.7077 87.2183 46.7358 87.5454 46.751C88.1312 53.2993 91.6535 57.1122 97.9502 58.4442V102.65H59.052V101.588C59.052 99.3003 59.052 97.0131 59.052 94.7259C59.052 94.7259 59.0673 94.0255 59.0343 93.6791C58.9582 92.8284 58.4561 92.3369 57.6979 92.3878C56.9041 92.4413 56.5136 92.91 56.473 93.6919C56.4629 93.8829 56.468 94.0739 56.468 94.2624C56.468 99.8861 56.4654 105.51 56.468 111.134C56.468 114.817 58.6412 116.999 62.3132 116.999C73.1212 117.004 83.9292 117.002 94.7372 116.997C95.2418 116.997 95.7566 116.989 96.2486 116.89C98.9544 116.34 100.6 114.193 100.6 111.23C100.603 94.0102 100.6 76.7901 100.6 59.57C100.6 59.1701 100.6 58.7677 100.6 58.3678C100.887 58.3194 101.041 58.2914 101.196 58.2659C107.541 57.2115 111.898 51.1344 110.835 44.8153C109.947 39.5431 105.51 35.4399 100.253 35.0375L100.258 35.0349ZM77.1761 86.9882H42.2644V79.2963H77.1761V86.9882ZM77.1761 76.5634H42.1909C42.1909 75.97 42.1883 75.4377 42.1909 74.9028C42.1909 74.6558 42.2137 74.4112 42.2289 74.1132H77.171V76.5634H77.1761ZM77.1583 67.6363V71.3727H42.2264V67.6363H77.1533H77.1583ZM97.9121 112.198C97.8639 113.309 96.7887 114.19 95.6653 114.34C95.29 114.389 94.9071 114.386 94.5267 114.386C83.881 114.386 73.2353 114.386 62.5922 114.386C59.9827 114.386 59.0571 113.456 59.0546 110.828C59.0546 109.114 59.0622 107.397 59.0698 105.683C59.0698 105.591 59.1154 105.502 59.1636 105.326H97.94C97.94 107.649 98.011 109.926 97.9096 112.198H97.9121ZM99.1953 55.8106C94.2249 55.7699 90.1295 51.5878 90.2106 46.6313C90.2918 41.596 94.3695 37.5896 99.3703 37.6303C104.386 37.6711 108.421 41.7513 108.401 46.7587C108.38 51.7915 104.252 55.8514 99.1978 55.8106H99.1953Z" fill="#462682"/>
<path d="M44.6787 59.7335C45.5662 59.7182 46.1013 59.1375 46.0379 58.3632C45.9694 57.5176 45.4369 57.1458 44.6356 57.1356C43.6237 57.1229 42.6119 57.133 41.6001 57.133C40.5553 57.133 39.5131 57.1178 38.4708 57.1356C37.568 57.1534 37.0177 57.6475 37.0025 58.4065C36.9873 59.1706 37.5198 59.7259 38.4201 59.7386C40.5071 59.7692 42.5942 59.7717 44.6812 59.7361L44.6787 59.7335Z" fill="#ADC804"/>
<path d="M45.1199 53.9132C45.7843 54.5678 46.4968 54.5907 47.0497 54.0533C47.6 53.521 47.5619 52.7034 46.9051 52.0361C45.4876 50.5919 44.0599 49.158 42.6119 47.7444C42.3354 47.4744 41.95 47.314 41.5011 47.0312C41.0929 47.3573 40.5273 47.5865 40.4487 47.9252C40.3397 48.399 40.4234 49.1198 40.7277 49.4534C42.1326 50.9943 43.6313 52.4487 45.1199 53.9132Z" fill="#ADC804"/>
<path d="M51.2441 53.2075C52.0049 53.2202 52.5197 52.6803 52.54 51.7786C52.5653 50.7344 52.545 49.6876 52.545 48.6433C52.545 47.6627 52.5577 46.6796 52.545 45.699C52.5298 44.6777 52.0937 44.1555 51.2872 44.1428C50.4707 44.1301 49.999 44.6573 49.9914 45.6557C49.9762 47.6831 49.9762 49.7105 49.9914 51.7353C49.999 52.6497 50.4884 53.1948 51.2441 53.205V53.2075Z" fill="#ADC804"/>
<path d="M68.1433 52.5917C68.156 53.6538 69.0359 54.507 70.1086 54.4994C71.1762 54.4917 72.0511 53.6105 72.0384 52.556C72.0258 51.5016 71.1331 50.6305 70.0706 50.6407C69.0131 50.6509 68.1281 51.5449 68.1408 52.5917H68.1433Z" fill="#C11A85"/>
<path d="M62.9599 52.602C62.9751 53.6819 63.8323 54.5097 64.9252 54.497C66.0157 54.4842 66.8322 53.6412 66.817 52.5434C66.8018 51.4559 65.9497 50.6256 64.8669 50.6408C63.7993 50.6561 62.9447 51.5348 62.9599 52.602Z" fill="#C11A85"/>
<path d="M73.3673 52.5504C73.3571 53.6533 74.1712 54.4887 75.2641 54.4988C76.3546 54.509 77.2066 53.6787 77.2193 52.5988C77.232 51.5291 76.3799 50.6555 75.3098 50.6427C74.227 50.63 73.38 51.4629 73.3673 52.5504Z" fill="#C11A85"/>
<path d="M77.9649 106.592C76.1822 106.539 74.6809 107.978 74.6378 109.779C74.5972 111.564 76.0478 113.062 77.8457 113.085C79.636 113.11 81.1145 111.651 81.1221 109.85C81.1297 108.09 79.7299 106.643 77.9649 106.59V106.592Z" fill="#C11A85"/>
<path d="M46.2433 84.4445C47.4782 84.47 48.7132 84.4496 49.9482 84.4496C51.2136 84.447 52.4816 84.47 53.747 84.4394C54.6396 84.4165 55.2127 83.8638 55.1417 83.1099C55.0656 82.2821 54.5635 81.8822 53.7394 81.8822C51.239 81.8822 48.736 81.872 46.2356 81.8873C45.343 81.8924 44.7775 82.4146 44.78 83.1659C44.78 83.9122 45.3379 84.4292 46.2433 84.447V84.4445Z" fill="#C11A85"/>
<path d="M57.8273 84.4393C59.0623 84.4622 60.2973 84.4698 61.5323 84.4393C62.4275 84.4164 63.0031 83.8662 62.9346 83.1149C62.8586 82.2922 62.3641 81.8796 61.5348 81.8796C60.9338 81.8796 60.3328 81.8796 59.7293 81.8796C59.2551 81.8796 58.7783 81.8694 58.3041 81.8745C58.1469 81.8745 57.9871 81.8796 57.8299 81.8847C56.9727 81.9178 56.458 82.3992 56.4833 83.1556C56.5112 84.0038 57.0108 84.424 57.8273 84.4367V84.4393Z" fill="#C11A85"/>
<path d="M103.894 41.7411C103.235 41.303 102.626 41.4813 102.142 42.0824C101.985 42.2785 101.855 42.5001 101.713 42.7089C100.433 44.6294 99.1522 46.5523 97.7194 48.702C97.2199 48.1213 96.8598 47.6348 96.4312 47.2171C95.7769 46.5803 95.0415 46.5676 94.4988 47.1152C93.9688 47.6501 93.9942 48.404 94.6155 49.056C95.3585 49.8354 96.1218 50.5944 96.8953 51.3432C97.7777 52.199 98.5512 52.1226 99.2486 51.0961C100.367 49.4457 101.46 47.7774 102.563 46.1142C103.141 45.2432 103.747 44.3899 104.277 43.4909C104.663 42.8363 104.551 42.1766 103.897 41.7411H103.894Z" fill="#ADC804"/>
</g>
<path d="M157.594 109.546C157.594 129.218 141.668 145.163 122.026 145.163C102.384 145.163 86.4578 129.218 86.4578 109.546C86.4578 89.8743 102.384 73.9297 122.026 73.9297C141.668 73.9297 157.594 89.8743 157.594 109.546Z" fill="white" stroke="#5F22E2" stroke-width="2.5"/>
<path d="M122.221 137.78C138.052 137.78 150.886 125.046 150.886 109.34C150.886 93.6352 138.052 80.9004 122.221 80.9004C106.389 80.9004 93.5549 93.6352 93.5549 109.34C93.5549 125.046 106.389 137.78 122.221 137.78Z" fill="#ADC804"/>
<path d="M105 109.5C107.833 113.5 113.5 121.4 113.5 121C113.5 120.812 117.04 117.372 121.621 113C126.781 108.077 133.263 101.972 137.5 98" stroke="white" stroke-width="6" stroke-linecap="round"/>
<path fill-rule="evenodd" clip-rule="evenodd" d="M29.6177 48.017C29.6072 47.2638 29.5125 46.5107 29.3284 45.747C28.6657 43.0716 25.7255 41.3546 22.5907 40.9491C19.4559 40.5436 16.2001 41.4653 14.943 43.7931C14.2224 45.1256 14.1277 46.2737 14.417 47.2375C14.7116 48.2013 15.4006 48.9966 16.3421 49.618C18.9667 51.3508 23.5585 51.7036 25.6571 50.9768C26.6249 50.6398 27.5716 50.2395 28.4974 49.776C27.9714 52.8044 26.0042 55.6694 23.3849 58.2501C17.6833 63.8644 8.8417 68.1251 4.02378 69.6946C3.76605 69.7788 3.61878 70.0632 3.70294 70.3371C3.78183 70.6057 4.0606 70.7584 4.31832 70.6742C9.23092 69.0784 18.2461 64.7228 24.0581 58.998C27.0614 56.0381 29.2022 52.7096 29.5651 49.2125C36.3501 45.4205 41.9255 38.537 46.6908 32.7489C46.8696 32.5382 46.8433 32.2117 46.6382 32.0274C46.4331 31.843 46.1227 31.8641 45.9439 32.08C41.3732 37.6364 36.0661 44.2408 29.6177 48.017ZM28.6288 48.5647C28.6657 47.722 28.5868 46.8636 28.3711 45.9998C27.7978 43.6825 25.1785 42.3132 22.4644 41.9656C20.8024 41.7496 19.0929 41.9287 17.7517 42.5555C16.9101 42.9505 16.2159 43.5192 15.7951 44.2987C15.2481 45.3152 15.1271 46.1894 15.3533 46.9268C15.5794 47.6694 16.137 48.2698 16.8681 48.749C19.2612 50.329 23.4427 50.6608 25.352 50.0025C26.4776 49.6128 27.5716 49.1282 28.6341 48.5647H28.6288Z" fill="#C11A85"/>
<path fill-rule="evenodd" clip-rule="evenodd" d="M29.2494 118.6C29.9873 118.314 30.7665 117.934 31.3665 117.375C32.0768 116.716 32.3664 115.871 32.5595 114.982C32.8078 113.836 32.9112 112.618 33.2146 111.471C33.325 111.041 33.5387 110.884 33.6353 110.812C33.8697 110.633 34.1042 110.583 34.3249 110.604C34.5869 110.626 34.9524 110.733 35.1869 111.22C35.2214 111.292 35.2627 111.392 35.2972 111.543C35.3179 111.65 35.3317 111.98 35.3593 112.116C35.4144 112.453 35.4627 112.79 35.511 113.126C35.6627 114.251 35.7454 115.204 36.2213 116.236C36.8626 117.64 37.5039 118.493 38.3797 118.873C39.221 119.238 40.2347 119.174 41.5243 118.88C41.6484 118.844 41.7657 118.823 41.8898 118.794C42.4553 118.686 43 119.095 43.1104 119.711C43.2207 120.327 42.8621 120.929 42.2966 121.065C42.1794 121.094 42.0622 121.123 41.9518 121.144C40.2072 121.617 38.1935 123.301 37.0212 124.77C36.6626 125.221 36.1316 126.496 35.5937 127.306C35.1938 127.901 34.7455 128.295 34.3731 128.438C34.118 128.531 33.9111 128.517 33.7318 128.467C33.4767 128.395 33.2629 128.245 33.1043 128.008C33.0146 127.879 32.9319 127.7 32.8974 127.478C32.8767 127.37 32.8767 127.098 32.8767 126.969C32.7664 126.554 32.6354 126.152 32.5319 125.737C32.2975 124.741 31.8423 124.11 31.2975 123.279C30.7872 122.498 30.2424 122.011 29.4356 121.617C29.3322 121.588 28.4909 121.366 28.1943 121.237C27.7599 121.051 27.553 120.728 27.4772 120.557C27.3461 120.27 27.3392 120.012 27.3599 119.804C27.3944 119.489 27.5254 119.224 27.753 119.009C27.8909 118.873 28.1047 118.744 28.3874 118.679C28.6081 118.629 29.1805 118.6 29.2632 118.6H29.2494ZM34.1939 116.981C34.2352 117.074 34.2766 117.175 34.318 117.268C35.2558 119.324 36.3109 120.471 37.5867 121.022L37.6281 121.044C36.773 121.739 36.0006 122.513 35.4075 123.258C35.1662 123.566 34.8421 124.204 34.4904 124.856C34.1732 123.731 33.656 122.935 33.0077 121.939C32.5112 121.18 31.9871 120.607 31.3458 120.141C31.8423 119.862 32.3181 119.532 32.7319 119.152C33.4215 118.514 33.8766 117.784 34.187 116.981H34.1939Z" fill="#ADC804"/>
</g>
</g>
<defs>
<clipPath id="clip0_10325_11026">
<rect width="162" height="158" fill="white"/>
</clipPath>
<clipPath id="clip1_10325_11026">
<rect width="74" height="82" fill="white" transform="translate(37 35)"/>
</clipPath>
</defs>
</svg>
