<svg width="20" height="20" viewBox="0 0 20 20" fill="none" xmlns="http://www.w3.org/2000/svg">
<path fill-rule="evenodd" clip-rule="evenodd" d="M10 6.875C9.1712 6.875 8.37634 7.20424 7.79029 7.79029C7.20424 8.37634 6.875 9.1712 6.875 10C6.875 10.8288 7.20424 11.6237 7.79029 12.2097C8.37634 12.7958 9.1712 13.125 10 13.125C10.8288 13.125 11.6237 12.7958 12.2097 12.2097C12.7958 11.6237 13.125 10.8288 13.125 10C13.125 9.1712 12.7958 8.37634 12.2097 7.79029C11.6237 7.20424 10.8288 6.875 10 6.875ZM8.125 10C8.125 9.50272 8.32254 9.02581 8.67417 8.67417C9.02581 8.32254 9.50272 8.125 10 8.125C10.4973 8.125 10.9742 8.32254 11.3258 8.67417C11.6775 9.02581 11.875 9.50272 11.875 10C11.875 10.4973 11.6775 10.9742 11.3258 11.3258C10.9742 11.6775 10.4973 11.875 10 11.875C9.50272 11.875 9.02581 11.6775 8.67417 11.3258C8.32254 10.9742 8.125 10.4973 8.125 10Z" fill="#666666"/>
<path fill-rule="evenodd" clip-rule="evenodd" d="M9.97906 1.0415C9.60823 1.0415 9.29906 1.0415 9.04573 1.05817C8.78678 1.06895 8.5314 1.12245 8.28989 1.2165C8.01177 1.33158 7.75904 1.50031 7.54613 1.71308C7.33323 1.92584 7.16432 2.17846 7.04906 2.4565C6.92823 2.74817 6.89573 3.0565 6.88239 3.3915C6.88106 3.51402 6.84863 3.63419 6.78814 3.74074C6.72765 3.84729 6.64108 3.93673 6.53656 4.00067C6.42896 4.05942 6.3082 4.08986 6.18561 4.08914C6.06301 4.08841 5.94262 4.05653 5.83573 3.9965C5.53906 3.83984 5.25573 3.714 4.94239 3.67234C4.64401 3.63309 4.34083 3.653 4.05014 3.73092C3.75945 3.80885 3.48696 3.94327 3.24823 4.1265C3.04637 4.2889 2.87266 4.48345 2.73406 4.70234C2.59239 4.914 2.43739 5.1815 2.25239 5.50234L2.23156 5.539C2.04573 5.85984 1.89156 6.12734 1.77989 6.35567C1.66323 6.594 1.57156 6.829 1.53823 7.089C1.45873 7.6915 1.62179 8.3009 1.99156 8.78317C2.18406 9.034 2.43489 9.2165 2.71823 9.39484C2.82386 9.45729 2.91187 9.54559 2.97397 9.65142C3.03608 9.75726 3.07023 9.87716 3.07323 9.99984C3.07023 10.1225 3.03608 10.2424 2.97397 10.3482C2.91187 10.4541 2.82386 10.5424 2.71823 10.6048C2.43489 10.7832 2.18489 10.9657 1.99156 11.2165C1.80832 11.4552 1.67391 11.7277 1.59598 12.0184C1.51805 12.3091 1.49815 12.6123 1.53739 12.9107C1.57156 13.1707 1.66239 13.4057 1.77906 13.644C1.89156 13.8723 2.04573 14.1398 2.23156 14.4607L2.25239 14.4973C2.43739 14.8182 2.59239 15.0857 2.73406 15.2973C2.88156 15.5165 3.03989 15.714 3.24823 15.8723C3.4869 16.0557 3.75936 16.1903 4.05005 16.2684C4.34074 16.3464 4.64396 16.3665 4.94239 16.3273C5.25573 16.2857 5.53906 16.1607 5.83573 16.0032C5.94249 15.9432 6.06274 15.9114 6.18519 15.9106C6.30763 15.9099 6.42826 15.9403 6.53573 15.999C6.64083 16.0624 6.72794 16.1517 6.78876 16.2584C6.84959 16.365 6.88211 16.4854 6.88323 16.6082C6.89573 16.9432 6.92823 17.2515 7.04989 17.5432C7.16497 17.8213 7.33371 18.074 7.54647 18.2869C7.75923 18.4998 8.01185 18.6687 8.28989 18.784C8.53156 18.884 8.78156 18.9232 9.04573 18.9407C9.29906 18.9582 9.60823 18.9582 9.97906 18.9582H10.0207C10.3916 18.9582 10.7007 18.9582 10.9541 18.9415C11.2191 18.9232 11.4682 18.884 11.7099 18.7832C11.988 18.6681 12.2408 18.4994 12.4537 18.2866C12.6666 18.0738 12.8355 17.8212 12.9507 17.5432C13.0716 17.2515 13.1041 16.9432 13.1174 16.6082C13.1186 16.4855 13.151 16.3652 13.2115 16.2585C13.2719 16.1518 13.3586 16.0622 13.4632 15.9982C13.5709 15.9395 13.6917 15.9092 13.8143 15.9101C13.9369 15.911 14.0572 15.943 14.1641 16.0032C14.4607 16.1598 14.7441 16.2857 15.0574 16.3265C15.6599 16.406 16.2693 16.2429 16.7516 15.8732C16.9599 15.7132 17.1182 15.5165 17.2657 15.2973C17.4074 15.0857 17.5624 14.8182 17.7474 14.4973L17.7682 14.4607C17.9541 14.1398 18.1082 13.8723 18.2199 13.644C18.3366 13.4057 18.4282 13.1698 18.4616 12.9107C18.5411 12.3082 18.378 11.6988 18.0082 11.2165C17.8157 10.9657 17.5649 10.7832 17.2816 10.6048C17.1759 10.5424 17.0879 10.4541 17.0258 10.3482C16.9637 10.2424 16.9296 10.1225 16.9266 9.99984C16.9266 9.76817 17.0532 9.53817 17.2816 9.39484C17.5649 9.2165 17.8149 9.034 18.0082 8.78317C18.1915 8.54443 18.3259 8.27194 18.4038 7.98126C18.4817 7.69057 18.5016 7.38738 18.4624 7.089C18.4227 6.83293 18.3411 6.58515 18.2207 6.35567C18.0785 6.07879 17.9275 5.80644 17.7682 5.539L17.7474 5.50234C17.5952 5.23074 17.4345 4.96395 17.2657 4.70234C17.1271 4.48369 16.9534 4.28941 16.7516 4.12734C16.5129 3.94396 16.2404 3.80939 15.9497 3.73132C15.659 3.65325 15.3558 3.63321 15.0574 3.67234C14.7441 3.714 14.4607 3.839 14.1641 3.9965C14.0573 4.05638 13.937 4.08818 13.8146 4.0889C13.6922 4.08963 13.5716 4.05927 13.4641 4.00067C13.3592 3.93693 13.2723 3.84758 13.2115 3.74102C13.1508 3.63445 13.1181 3.51418 13.1166 3.3915C13.1041 3.0565 13.0716 2.74817 12.9499 2.4565C12.8348 2.17838 12.6661 1.92565 12.4533 1.71274C12.2406 1.49984 11.9879 1.33093 11.7099 1.21567C11.4682 1.11567 11.2182 1.0765 10.9541 1.059C10.7007 1.0415 10.3916 1.0415 10.0207 1.0415H9.97906ZM8.76823 2.37067C8.83239 2.344 8.92989 2.31984 9.13073 2.30567C9.33656 2.2915 9.60323 2.2915 9.99989 2.2915C10.3966 2.2915 10.6632 2.2915 10.8691 2.30567C11.0699 2.31984 11.1674 2.344 11.2316 2.37067C11.4874 2.4765 11.6899 2.679 11.7957 2.93484C11.8291 3.01484 11.8566 3.14067 11.8674 3.43817C11.8924 4.09817 12.2332 4.734 12.8382 5.08317C13.4432 5.43317 14.1641 5.40984 14.7482 5.1015C15.0116 4.96234 15.1341 4.92317 15.2207 4.91234C15.4945 4.87616 15.7715 4.95019 15.9907 5.11817C16.0457 5.16067 16.1157 5.23317 16.2282 5.39984C16.3441 5.5715 16.4774 5.80234 16.6757 6.14567C16.8741 6.489 17.0066 6.72067 17.0974 6.90567C17.1866 7.0865 17.2141 7.18317 17.2224 7.25234C17.2586 7.52614 17.1845 7.80311 17.0166 8.02234C16.9632 8.0915 16.8682 8.17817 16.6166 8.3365C16.0566 8.68817 15.6766 9.3015 15.6766 9.99984C15.6766 10.6982 16.0566 11.3115 16.6166 11.6632C16.8682 11.8215 16.9632 11.9082 17.0166 11.9773C17.1849 12.1965 17.2582 12.4732 17.2224 12.7473C17.2141 12.8165 17.1857 12.914 17.0974 13.094C17.0066 13.2798 16.8741 13.5107 16.6757 13.854C16.4774 14.1973 16.3432 14.4282 16.2282 14.5998C16.1157 14.7665 16.0457 14.839 15.9907 14.8815C15.7715 15.0495 15.4945 15.1235 15.2207 15.0873C15.1341 15.0765 15.0124 15.0373 14.7482 14.8982C14.1649 14.5898 13.4432 14.5665 12.8382 14.9157C12.2332 15.2657 11.8924 15.9015 11.8674 16.5615C11.8566 16.859 11.8291 16.9848 11.7957 17.0648C11.7434 17.1913 11.6666 17.3063 11.5698 17.4031C11.473 17.4999 11.3581 17.5767 11.2316 17.629C11.1674 17.6557 11.0699 17.6798 10.8691 17.694C10.6632 17.7082 10.3966 17.7082 9.99989 17.7082C9.60323 17.7082 9.33656 17.7082 9.13073 17.694C8.92989 17.6798 8.83239 17.6557 8.76823 17.629C8.64173 17.5767 8.52679 17.4999 8.42999 17.4031C8.33318 17.3063 8.25641 17.1913 8.20406 17.0648C8.17073 16.9848 8.14323 16.859 8.13239 16.5615C8.10739 15.9015 7.76656 15.2657 7.16156 14.9165C6.55656 14.5665 5.83573 14.5898 5.25156 14.8982C4.98823 15.0373 4.86573 15.0765 4.77906 15.0873C4.50526 15.1235 4.22829 15.0495 4.00906 14.8815C3.95406 14.839 3.88406 14.7665 3.77156 14.5998C3.61482 14.3558 3.46558 14.1071 3.32406 13.854C3.12573 13.5107 2.99323 13.279 2.90239 13.094C2.81323 12.9132 2.78573 12.8165 2.77739 12.7473C2.74121 12.4735 2.81525 12.1966 2.98323 11.9773C3.03656 11.9082 3.13156 11.8215 3.38323 11.6632C3.94323 11.3115 4.32323 10.6982 4.32323 9.99984C4.32323 9.3015 3.94323 8.68817 3.38323 8.3365C3.13156 8.17817 3.03656 8.0915 2.98323 8.02234C2.81525 7.80311 2.74121 7.52614 2.77739 7.25234C2.78573 7.18317 2.81406 7.08567 2.90239 6.90567C2.99323 6.71984 3.12573 6.489 3.32406 6.14567C3.52239 5.80234 3.65656 5.5715 3.77156 5.39984C3.88406 5.23317 3.95406 5.16067 4.00906 5.11817C4.22829 4.95019 4.50526 4.87616 4.77906 4.91234C4.86573 4.92317 4.98739 4.96234 5.25156 5.1015C5.83489 5.40984 6.55656 5.43317 7.16156 5.08317C7.76656 4.734 8.10739 4.09817 8.13239 3.43817C8.14323 3.14067 8.17073 3.01484 8.20406 2.93484C8.30989 2.679 8.51239 2.4765 8.76823 2.37067Z" fill="#666666"/>
</svg>
