<svg width="335" height="216" viewBox="0 0 335 216" fill="none" xmlns="http://www.w3.org/2000/svg">
<path d="M328.927 177.268C314.766 198.781 290.476 211.417 264.715 211.417H51.1111C8.19429 211.417 -15.9328 161.202 11.9522 132.936C39.7828 104.669 15.22 80.5422 58.1368 57.8311C99.7465 35.8826 113.961 82.6662 152.303 52.0581C190.645 21.4499 246.47 24.3364 258.724 55.5437C270.978 86.751 268.091 97.7525 294.125 104.669C320.158 111.586 345.538 150.908 329.961 175.743C329.58 176.288 329.253 176.778 328.927 177.268Z" fill="#E7DAFF"/>
<path d="M319.45 185.984C296.957 187.89 281.761 230.099 225.501 204.719C225.501 204.719 231.656 186.311 259.377 174.819C286.99 163.382 319.45 185.984 319.45 185.984Z" fill="#ADC804"/>
<path d="M233.181 201.56C239.063 198.51 245.163 195.896 251.372 193.609C252.896 193.01 254.476 192.465 256.055 191.975C257.635 191.43 259.214 190.94 260.794 190.45C262.373 189.96 264.007 189.524 265.586 189.088C266.403 188.87 267.166 188.652 267.983 188.435L270.379 187.836L272.83 187.291L275.281 186.801L277.732 186.311C278.549 186.147 279.366 186.038 280.182 185.929C281.816 185.711 283.45 185.385 285.139 185.276C286.772 185.112 288.461 184.84 290.095 184.786C296.739 184.295 303.438 184.404 309.974 185.494C303.329 185.33 296.794 185.711 290.258 186.528L289.06 186.692L287.862 186.855L285.411 187.236C283.777 187.454 282.198 187.781 280.564 188.053C279.747 188.217 278.93 188.326 278.167 188.489L275.771 188.979L273.375 189.469L270.978 190.069L268.582 190.613C267.765 190.831 267.002 190.994 266.185 191.212L263.789 191.811C262.972 192.029 262.21 192.247 261.393 192.465C259.813 192.901 258.234 193.336 256.654 193.826C255.075 194.317 253.496 194.752 251.916 195.242C245.653 197.203 239.39 199.382 233.181 201.56Z" fill="#98B130"/>
<path d="M322.173 114.201C294.724 133.808 307.414 199.599 215.753 209.947C215.753 209.947 209.653 181.572 236.448 145.68C263.244 109.844 322.173 114.201 322.173 114.201Z" fill="#ADC804"/>
<path d="M221.852 202.049C225.828 193.39 230.784 185.166 236.339 177.378C241.895 169.589 248.103 162.237 254.857 155.429C261.61 148.621 268.963 142.358 276.914 136.966C284.811 131.574 293.362 126.89 302.457 124.004C294.016 128.415 286.173 133.698 278.766 139.471C271.359 145.299 264.333 151.562 257.743 158.261C251.099 164.906 244.836 171.986 238.899 179.284C232.908 186.582 227.299 194.207 221.852 202.049Z" fill="#98B130"/>
<path d="M25.9492 180.156C48.279 183.641 60.4243 226.776 118.318 205.481C118.318 205.481 113.471 186.691 86.6754 173.293C59.8796 159.841 25.9492 180.156 25.9492 180.156Z" fill="#ADC804"/>
<path d="M110.912 201.723C104.812 199.109 98.7664 196.495 92.6666 194.099C91.1416 193.5 89.6166 192.955 88.0372 192.356C86.5123 191.757 84.9328 191.212 83.4079 190.667C82.6454 190.395 81.8829 190.123 81.066 189.85L78.7241 189.088C77.9616 188.816 77.1446 188.543 76.3821 188.326L74.0402 187.618L71.6983 186.855L69.3564 186.201L67.0145 185.548C66.252 185.33 65.4351 185.167 64.6181 184.949C63.0387 184.568 61.4593 184.132 59.8254 183.805L57.429 183.26L56.2309 182.988L55.0327 182.77C48.606 181.518 42.0705 180.646 35.4805 180.374C42.0705 179.72 48.7694 180.102 55.3594 181.027C56.9933 181.191 58.6272 181.572 60.2611 181.844C61.895 182.117 63.5289 182.498 65.1628 182.879C65.9797 183.043 66.7967 183.26 67.6136 183.478L70.01 184.132L72.4064 184.785L74.8027 185.493L77.1991 186.256C77.9616 186.528 78.7785 186.801 79.541 187.073C81.1204 187.618 82.6998 188.162 84.2248 188.761C85.7498 189.36 87.3292 189.959 88.8542 190.613C90.3791 191.267 91.9041 191.866 93.4291 192.574C99.3655 195.242 105.248 198.292 110.912 201.723Z" fill="#98B130"/>
<path d="M40.7632 111.205C65.4894 131.683 49.0416 193.172 135.256 209.13C135.256 209.13 142.936 182.606 119.952 146.824C96.9689 110.987 40.7632 111.205 40.7632 111.205Z" fill="#ADC804"/>
<path d="M130.028 201.177C125.344 193.389 120.551 185.819 115.432 178.466C110.258 171.114 104.811 164.034 98.9295 157.28C93.1019 150.527 86.8932 144.1 80.2487 138.055C73.6042 132.064 66.524 126.563 58.8447 121.716C67.2865 125.038 75.0747 129.994 82.2638 135.658C89.4529 141.322 95.9885 147.749 101.925 154.666C107.861 161.583 113.253 168.99 117.991 176.778C122.73 184.566 126.869 192.681 130.028 201.177Z" fill="#98B130"/>
<path d="M186.233 168.446C183.129 172.095 180.351 178.195 178.609 179.175C176.866 180.156 173.925 180.483 171.147 189.415C168.37 198.346 182.367 197.148 182.367 197.148C182.367 197.148 188.358 193.717 190.754 185.384L196.745 180.047L186.233 168.446Z" fill="#F6A397"/>
<path d="M175.395 196.169C175.395 196.169 179.916 194.698 183.783 190.613C187.649 186.529 188.14 179.285 188.14 179.285L189.991 182.716L193.695 178.741L195.492 178.577L196.799 180.048L190.808 185.385C188.412 193.718 182.421 197.149 182.421 197.149C182.421 197.149 178.554 197.476 175.286 196.495C175.286 196.278 175.395 196.169 175.395 196.169Z" fill="#D65863"/>
<path d="M207.202 136.477C202.899 139.635 200.339 141.868 198.215 146.171C196.091 150.419 182.693 165.778 181.876 167.139C181.005 168.501 189.392 182.988 196.091 186.582C196.091 186.582 206.221 174.927 212.049 170.516C217.876 166.104 215.916 150.474 213.193 145.191C210.469 139.908 207.202 136.477 207.202 136.477Z" fill="#BB0070"/>
<path d="M207.038 164.689V155.975C207.038 155.975 208.182 155.539 209.053 158.48C209.435 159.678 209.38 160.877 209.217 161.966L215.752 157.064C216.025 162.565 215.153 168.12 212.049 170.462C206.221 174.874 196.091 186.529 196.091 186.529C194.348 185.603 192.551 183.969 190.754 182.008C194.839 177.923 202.681 170.026 207.038 164.689Z" fill="#92095B"/>
<path d="M165.483 193.718C164.394 194.045 163.522 194.589 163.522 196.005C163.522 197.421 163.74 199.654 164.285 200.526C164.83 201.397 167.553 201.942 167.553 201.942C167.553 201.942 167.389 196.169 166.79 195.079C166.246 193.936 165.483 193.718 165.483 193.718Z" fill="#F6A397"/>
<path d="M164.285 200.47C164.122 200.252 164.013 199.871 163.904 199.436C164.503 200.035 164.721 200.035 165.429 200.089L167.498 200.743C167.553 201.396 167.553 201.832 167.553 201.832C167.553 201.832 164.83 201.342 164.285 200.47Z" fill="#D65863"/>
<path d="M168.097 191.594C166.736 191.757 165.374 192.737 165.374 194.154C165.374 195.57 164.884 199.491 165.374 200.09C165.865 200.744 168.206 202.486 169.023 202.65C169.84 202.813 171.256 202.541 171.038 202.105C170.93 201.669 168.097 191.594 168.097 191.594Z" fill="#F6A397"/>
<path d="M165.211 199.055C166.246 200.198 168.86 200.089 168.86 200.089C168.86 200.089 170.004 201.342 170.167 201.723C170.276 201.941 170.712 202.268 170.766 202.54C170.33 202.704 169.568 202.758 169.078 202.649C168.261 202.486 165.973 200.798 165.429 200.144L165.211 199.055Z" fill="#D65863"/>
<path d="M173.217 189.251C169.078 189.469 168.261 189.85 168.152 191.538C167.989 193.227 168.097 198.183 168.642 199.436C169.187 200.688 169.459 201.832 170.167 202.485C170.821 203.139 171.855 203.139 171.855 203.139C171.855 203.139 174.143 199.817 174.252 196.985C174.252 194.262 173.217 189.251 173.217 189.251Z" fill="#F6A397"/>
<path d="M170.821 200.415C171.038 199.272 171.474 198.019 171.583 194.207C171.583 192.736 172.945 200.306 172.346 202.376C172.073 202.866 171.855 203.193 171.855 203.193C171.855 203.193 170.821 203.193 170.167 202.539C169.514 201.886 169.187 200.742 168.642 199.49C168.588 199.381 168.588 199.326 168.533 199.217C168.751 199.871 169.622 200.361 170.821 200.415Z" fill="#D65863"/>
<path d="M182.312 197.802C182.04 200.089 179.044 200.961 178.663 202.104C178.336 203.248 178.554 204.337 178.01 204.61C177.411 204.882 175.014 203.52 175.123 201.995C175.123 201.995 174.47 203.302 173.108 203.52C171.692 203.738 171.365 202.758 171.583 201.178C171.801 199.653 171.801 198.836 171.746 196.985C171.692 195.133 171.256 193.445 172.073 191.43C172.89 189.414 174.034 187.617 176.212 187.944C178.445 188.271 179.807 191.103 181.005 192.029C182.203 193.009 182.585 195.187 182.312 197.802Z" fill="#F6A397"/>
<path d="M175.069 201.995C175.178 199.054 175.341 196.658 175.341 196.168C175.341 195.677 175.178 192.573 176.321 192.41C176.485 192.355 178.935 193.935 178.99 194.969C179.044 196.004 178.99 197.91 178.227 198.4C177.465 198.945 175.069 201.995 175.069 201.995Z" fill="#D65863"/>
<path d="M275.879 142.741C271.468 137.132 269.943 136.587 265.422 133.918C260.848 131.25 243.637 124.551 240.043 123.679C236.503 122.808 222.124 129.507 217.441 131.631C212.757 133.755 206.766 135.879 205.731 137.949C202.3 144.92 209.053 154.778 209.108 175.419C209.108 186.257 211.613 210.602 211.613 210.602C211.613 210.602 265.804 210.711 266.566 209.567C267.329 208.424 269.235 169.537 270.161 161.586C271.087 153.634 275.879 142.741 275.879 142.741Z" fill="#BB0070"/>
<path d="M205.894 148.841C205.513 147.534 205.241 146.227 205.023 144.865C204.86 143.504 204.696 142.197 204.696 140.835C205.078 142.142 205.35 143.449 205.568 144.811C205.786 146.118 205.949 147.479 205.894 148.841Z" fill="#92095B"/>
<path d="M226.209 140.725C224.14 139.962 219.129 141.324 218.258 141.596C217.332 141.923 218.802 138.056 219.347 137.566C219.892 137.076 220.709 135.986 222.342 136.476C223.976 136.967 225.338 138.873 225.61 139.472C225.774 140.071 226.209 140.725 226.209 140.725Z" fill="#92095B"/>
<path d="M243.637 143.939C242.875 143.884 238.518 141.924 237.483 141.379C236.448 140.834 231.71 140.671 228.551 141.542C228.551 141.542 234.651 137.403 238.191 137.458C241.731 137.512 243.093 138.765 243.365 139.908C243.692 141.052 243.637 143.939 243.637 143.939Z" fill="#92095B"/>
<path d="M220.327 201.887C220.926 201.342 256.273 202.432 257.035 198.783C257.743 195.079 258.233 188.38 258.233 188.38C253.985 190.668 247.777 189.687 247.777 189.687C251.916 188.326 257.852 181.572 258.179 179.557C259.05 173.403 255.783 156.519 255.783 156.519L258.179 151.672L261.011 150.093C261.011 150.093 266.348 152.761 270.869 157.609C270.542 158.97 270.324 160.277 270.161 161.53C269.289 169.046 267.547 204.011 266.675 208.967C255.728 209.348 235.849 210.111 222.56 210.547C216.134 210.547 211.613 210.547 211.613 210.547C211.613 210.547 211.504 207.333 211.341 202.758C215.044 202.595 220 202.268 220.327 201.887Z" fill="#92095B"/>
<path d="M227.516 141.761C231.329 141.326 237.483 138.003 239.879 139.147C242.276 140.291 242.875 143.177 243.365 143.722C243.855 144.267 245.979 141.707 245.979 135.607C245.979 129.507 246.143 123.244 241.677 122.372C237.156 121.501 225.501 125.913 223.159 127.71C220.817 129.507 219.837 131.304 219.183 132.993C218.53 134.736 216.842 141.707 217.604 141.761C218.367 141.816 220.599 137.295 222.233 137.132C223.867 136.969 226.481 141.87 227.516 141.761Z" fill="#BB0070"/>
<path d="M225.338 136.26C224.357 133.972 223.323 131.903 223.323 130.323C223.377 128.744 223.704 127.6 225.501 127.11C227.298 126.62 228.006 127.546 228.115 129.997C228.224 132.447 225.338 136.26 225.338 136.26Z" fill="#92095B"/>
<path d="M239.28 131.957C242.984 128.58 243.419 124.822 243.093 124.06C242.766 123.297 241.186 122.698 241.186 122.698C241.186 122.698 240.587 125.149 240.914 125.748C241.295 126.347 239.28 131.957 239.28 131.957Z" fill="#92095B"/>
<path d="M233.398 140.127C234.324 139.745 235.25 139.419 236.23 139.146C237.21 138.928 238.191 138.71 239.225 138.765C239.716 138.819 240.26 138.928 240.75 139.255C241.132 139.636 241.458 139.963 241.785 140.344C242.439 141.107 242.929 142.033 243.365 142.904C243.474 143.122 243.583 143.34 243.691 143.34C243.691 143.34 243.691 143.34 243.746 143.285C243.8 143.231 243.909 143.176 243.964 143.068C244.236 142.686 244.454 142.251 244.672 141.815C245.107 140.943 245.38 140.018 245.543 139.037C245.707 138.057 245.816 137.077 245.924 136.096C246.033 135.116 246.033 134.136 246.033 133.155C246.251 135.116 246.251 137.131 245.979 139.092C245.87 140.072 245.598 141.107 245.162 142.033C244.944 142.468 244.726 142.959 244.399 143.34C244.291 143.449 244.236 143.558 244.073 143.667C244.018 143.721 243.909 143.776 243.8 143.776C243.691 143.776 243.528 143.776 243.474 143.721C243.256 143.612 243.201 143.503 243.092 143.34C243.038 143.231 242.929 143.122 242.875 143.013C242.439 142.087 242.003 141.27 241.404 140.508C241.077 140.127 240.75 139.745 240.424 139.419C240.097 139.146 239.661 139.037 239.171 138.983C238.245 138.874 237.21 138.983 236.284 139.201C235.25 139.582 234.324 139.8 233.398 140.127Z" fill="#92095B"/>
<path d="M224.63 138.82C224.194 138.439 223.813 138.112 223.377 137.785C223.159 137.622 222.941 137.513 222.724 137.404C222.615 137.349 222.506 137.349 222.397 137.295C222.342 137.295 222.288 137.295 222.288 137.295C222.233 137.295 222.233 137.295 222.179 137.349C221.253 137.894 220.545 138.711 219.946 139.582C219.619 140.018 219.347 140.508 219.02 140.944C218.857 141.162 218.639 141.38 218.421 141.543C218.312 141.652 218.149 141.761 217.931 141.761C217.822 141.761 217.659 141.706 217.55 141.652C217.441 141.543 217.386 141.488 217.386 141.38C217.277 141.053 217.332 140.78 217.332 140.454C217.386 140.181 217.441 139.909 217.495 139.637C217.604 139.092 217.767 138.548 217.985 138.057C217.931 138.602 217.822 139.147 217.767 139.691C217.713 139.964 217.713 140.236 217.713 140.508C217.713 140.78 217.713 141.053 217.822 141.216C217.822 141.271 217.876 141.271 217.876 141.271C217.931 141.271 218.04 141.216 218.094 141.107C218.258 140.944 218.421 140.726 218.584 140.563C218.911 140.127 219.183 139.691 219.51 139.201C219.837 138.765 220.164 138.275 220.6 137.894C221.035 137.513 221.471 137.186 221.961 136.914C222.016 136.859 222.124 136.859 222.233 136.805C222.342 136.805 222.397 136.805 222.506 136.805C222.669 136.859 222.832 136.914 222.941 136.968C223.214 137.131 223.432 137.295 223.649 137.458C223.922 138.003 224.303 138.384 224.63 138.82Z" fill="#92095B"/>
<path d="M224.848 122.372C224.848 123.897 224.902 125.367 225.065 126.892C225.447 130.541 225.065 135.388 225.338 136.314C225.664 137.294 227.571 140.889 227.571 140.889C227.571 140.889 231.002 139.31 232.418 137.621C233.834 135.933 235.686 135.824 238.191 133.319C240.696 130.813 242.385 126.783 241.84 123.461C241.785 123.025 241.35 118.777 241.241 114.366C241.132 109.954 236.503 106.632 232.091 106.632C227.68 106.632 225.065 113.167 224.902 117.579C224.848 119.322 224.793 121.01 224.848 122.372Z" fill="#F6A397"/>
<path d="M241.186 114.311C241.295 118.722 241.731 122.97 241.785 123.406C241.949 124.441 241.894 125.53 241.676 126.619C240.696 126.783 228.17 127.11 224.902 125.585C224.847 124.495 224.793 123.46 224.793 122.371C224.793 121.01 224.793 119.321 224.847 117.47C224.902 115.618 225.392 113.33 226.318 111.37L236.666 107.721C239.226 109.082 241.132 111.479 241.186 114.311Z" fill="#D65863"/>
<path d="M217.114 95.958C210.415 95.958 207.964 101.078 207.964 104.944C207.964 108.376 209.054 113.931 217.114 113.931C221.144 113.931 223.868 109.901 223.868 104.944C223.868 99.9883 221.144 95.958 217.114 95.958Z" fill="#504984"/>
<path d="M216.787 98.1367C211.722 98.1367 209.871 102.004 209.871 104.89C209.871 107.504 210.688 111.644 216.787 111.644C219.837 111.644 221.907 108.594 221.907 104.89C221.907 101.187 219.837 98.1367 216.787 98.1367Z" fill="#372D5B"/>
<path d="M208.672 98.9526C209.054 101.295 210.197 102.166 210.742 105.325C211.232 108.484 209.871 113.059 211.94 117.034C214.01 121.01 217.332 126.293 219.238 126.511C221.144 126.729 236.557 124.115 241.731 113.821C243.202 110.88 246.415 99.2249 243.692 92.1447C240.969 85.0646 236.557 78.529 226.318 78.3656C216.025 78.2022 206.603 86.5895 208.672 98.9526Z" fill="#F6A397"/>
<path d="M217.223 111.752C217.768 111.752 218.367 111.534 218.639 111.207C218.857 110.881 218.966 110.499 218.911 110.118C218.094 110.772 217.114 110.881 216.134 110.717C216.025 111.425 216.624 111.752 217.223 111.752Z" fill="#D65863"/>
<path d="M235.359 98.9533C234.978 96.5025 233.344 95.1409 233.344 95.1409C233.344 95.1409 229.423 93.507 226.427 93.2347C223.377 92.9624 220.273 92.0365 220.273 92.0365C220.273 92.0365 221.253 94.4873 222.833 95.5221C222.833 95.5221 215.589 95.1409 213.302 93.0168C213.302 93.0168 213.737 94.7596 214.173 95.9578C214.173 95.9578 210.633 95.5766 209.544 94.215C209.544 94.215 208.672 97.3194 208.672 99.0077C208.672 99.0077 204.424 93.1802 205.513 88.5509C206.603 83.9215 208.073 82.1242 208.073 82.1242C208.073 82.1242 205.023 82.3965 203.335 82.1242C203.335 82.1242 207.256 78.6931 210.252 76.4056C213.193 74.1182 222.07 74.0637 222.07 74.0637C222.07 74.0637 221.362 71.7218 222.179 67.9639C222.179 67.9639 225.992 73.5191 229.967 75.2074C233.943 76.8958 233.453 76.7869 237.701 77.8217C241.949 78.9109 245.979 81.6341 247.722 83.9215C249.411 86.209 251.262 88.5509 252.352 88.9321C252.352 88.9321 249.683 88.5509 248.376 87.4616C248.376 87.4616 250.609 92.4722 247.668 98.9533C244.727 105.434 237.374 103.528 235.958 102.112C234.488 100.696 235.359 98.9533 235.359 98.9533Z" fill="#BA6454"/>
<path d="M235.904 102.111C234.488 100.695 235.359 98.9525 235.359 98.9525C235.141 97.482 234.433 96.3927 233.943 95.7392C235.032 89.2581 234.597 82.5591 232.69 76.2959C233.78 76.7316 234.433 76.9495 236.067 77.3852C238.028 80.3262 239.498 83.6484 240.533 87.0251C241.84 91.3277 242.439 95.957 241.241 100.26C240.914 101.349 240.479 102.438 239.934 103.473C238.028 103.364 236.503 102.71 235.904 102.111Z" fill="#874438"/>
<path d="M237.919 96.5571C237.919 96.5571 238.409 80.3816 229.913 75.2076C229.913 75.2076 236.503 74.4451 240.261 81.0351C244.019 87.6251 243.746 93.2348 243.692 96.3937C243.583 99.5525 237.919 96.5571 237.919 96.5571Z" fill="#504984"/>
<path d="M240.533 95.958C247.232 95.958 249.683 101.078 249.683 104.944C249.683 108.376 248.594 113.931 240.533 113.931C236.503 113.931 233.78 109.901 233.78 104.944C233.78 99.9883 236.503 95.958 240.533 95.958Z" fill="#504984"/>
<path d="M236.939 104.889C236.939 100.478 239.825 96.9375 243.42 96.9375C247.014 96.9375 249.683 100.478 249.683 104.889C249.683 109.301 246.96 112.841 243.42 112.841C239.825 112.895 236.939 109.301 236.939 104.889Z" fill="#372D5B"/>
<path d="M244.237 110.282C246.673 110.282 248.648 107.868 248.648 104.89C248.648 101.912 246.673 99.498 244.237 99.498C241.801 99.498 239.825 101.912 239.825 104.89C239.825 107.868 241.801 110.282 244.237 110.282Z" fill="#504984"/>
<path d="M223.595 113.877C221.798 114.857 215.916 115.184 215.48 115.13C215.099 115.075 215.916 119.541 217.332 119.704C218.748 119.868 221.635 119.487 222.887 118.343C224.14 117.199 223.595 113.877 223.595 113.877Z" fill="#D65863"/>
<path d="M223.214 115.184C223.105 114.803 222.996 114.476 222.942 114.149C220.981 114.803 217.06 115.13 215.862 115.13C215.97 115.729 216.134 116.328 216.352 116.927C216.406 116.927 216.352 116.981 216.406 116.981C219.02 117.417 221.635 116.546 223.214 115.184Z" fill="white"/>
<path d="M222.833 103.201C222.833 102.384 223.214 101.73 223.759 101.73C224.249 101.73 224.685 102.384 224.685 103.201C224.685 104.018 224.303 104.671 223.759 104.671C223.214 104.671 222.833 104.018 222.833 103.201Z" fill="#3F1751"/>
<path d="M212.539 103.855C212.539 103.038 212.866 102.385 213.302 102.385C213.737 102.385 214.064 103.038 214.064 103.855C214.064 104.672 213.737 105.326 213.302 105.326C212.866 105.38 212.539 104.672 212.539 103.855Z" fill="#3F1751"/>
<path d="M227.843 97.4283C227.244 97.1015 226.591 96.8836 225.883 96.6658C225.175 96.5024 224.521 96.3935 223.759 96.339C223.051 96.2845 222.288 96.2845 221.58 96.5569C220.872 96.7747 220.273 97.2104 219.783 97.8095L219.837 97.9184C220.6 97.864 221.199 97.6461 221.853 97.5916C222.506 97.4827 223.105 97.2649 223.759 97.2104C225.066 97.1015 226.427 97.2104 227.735 97.5916L227.843 97.4283Z" fill="#3F1751"/>
<path d="M209.925 99.3335C210.252 99.2246 210.579 99.1157 210.905 99.1157C211.232 99.0612 211.559 99.0612 211.886 99.0612C212.213 99.0612 212.539 99.1701 212.866 99.1157C213.029 99.0612 213.193 99.0612 213.356 98.9523C213.52 98.8978 213.683 98.8434 213.901 98.68V98.5711C213.574 98.2443 213.193 98.1354 212.866 98.0809C212.485 98.0264 212.104 98.1354 211.777 98.2443C211.396 98.3532 211.069 98.4621 210.742 98.6255C210.415 98.7889 210.088 99.0068 209.816 99.2791L209.925 99.3335Z" fill="#3F1751"/>
<path d="M220.328 205.427C220.328 205.645 220.001 205.972 219.238 205.972C218.476 205.972 197.399 205.972 194.567 205.972C191.734 205.972 191.081 204.828 191.898 203.412C192.769 201.996 196.364 198.837 205.241 196.659C214.173 194.48 218.857 199.6 220.273 201.887C221.417 203.576 220.328 205.427 220.328 205.427Z" fill="#504984"/>
<path d="M191.68 203.848C192.17 205.482 211.014 204.611 211.014 204.611C211.014 204.611 209.108 202.051 206.984 201.942C204.86 201.888 203.825 202.596 200.993 203.086C198.161 203.576 200.285 201.942 200.285 201.942C200.285 201.942 198.27 201.506 197.453 200.853C197.453 200.853 202.137 199.491 204.097 199.164C206.058 198.838 211.014 199.055 211.668 199.164C212.104 199.219 214.391 197.912 217.169 198.565C218.694 199.709 219.728 200.962 220.273 201.833C221.362 203.521 220.273 205.319 220.273 205.319C220.273 205.537 219.946 205.863 219.184 205.863C218.421 205.863 197.344 205.863 194.512 205.863C192.007 205.972 191.244 205.046 191.68 203.848Z" fill="#372D5B"/>
<path d="M272.231 190.015C272.231 190.015 254.694 192.738 245.163 194.426C236.176 196.06 228.388 196.714 226.155 196.333C223.977 195.897 216.406 193.119 214.01 192.139C211.614 191.159 206.766 190.56 204.261 191.377C201.756 192.139 199.741 193.01 198.76 193.01C197.78 193.01 197.943 194.644 199.305 194.971C200.612 195.298 201.81 195.243 201.81 195.243C201.81 195.243 197.29 197.694 196.527 197.967C195.765 198.239 196.691 199.655 197.78 199.6C197.78 199.6 196.8 200.145 197.181 200.744C197.508 201.289 199.904 201.289 199.904 201.289C199.904 201.289 197.017 202.705 199.414 203.304C201.81 203.849 204.697 201.18 205.895 200.908C207.093 200.69 209.816 200.799 211.178 201.833C212.485 202.814 218.204 207.443 225.992 204.666C225.992 204.666 278.766 206.79 284.049 206.79C289.332 206.79 292.491 202.16 290.803 193.174C289.114 184.187 285.847 177.543 285.847 177.543L267.656 178.85L272.231 190.015Z" fill="#F6A397"/>
<path d="M205.949 193.772C206.439 193.663 206.766 193.608 207.038 193.608C206.984 193.554 206.548 193.663 205.949 193.772Z" fill="#D65863"/>
<path d="M201.756 195.188C201.756 195.188 200.557 195.242 199.25 194.915C198.869 194.806 198.597 194.643 198.379 194.371C199.849 195.024 201.647 194.588 202.681 194.371C203.335 194.207 204.86 193.935 205.895 193.771C204.86 193.989 203.335 194.48 201.756 195.188Z" fill="#D65863"/>
<path d="M202.028 197.313C202.137 197.259 202.246 197.204 202.3 197.204C202.3 197.204 202.191 197.259 202.028 197.313Z" fill="#D65863"/>
<path d="M196.473 198.947C196.473 198.947 197.017 199.438 198.107 198.947C199.032 198.566 201.211 197.64 202.028 197.313C201.048 197.749 198.433 199.22 197.725 199.492C197.235 199.546 196.745 199.274 196.473 198.947Z" fill="#D65863"/>
<path d="M199.196 200.69C200.013 200.472 201.701 199.437 202.736 198.947C203.771 198.457 205.078 198.402 205.078 198.402C205.078 198.402 204.697 198.457 203.662 198.947C202.627 199.437 199.795 201.234 199.795 201.234C199.795 201.234 198.27 201.234 197.508 200.962C197.508 200.908 198.379 200.908 199.196 200.69Z" fill="#D65863"/>
<path d="M214.228 201.833C215.698 202.759 220.11 203.957 222.778 203.467C225.393 202.977 225.992 200.744 225.992 200.744L226.7 203.14C226.7 203.14 263.299 204.175 270.76 203.848C278.113 203.521 289.604 203.358 291.075 198.946C290.639 204.066 287.862 206.734 283.94 206.734C278.657 206.734 225.883 204.61 225.883 204.61C218.094 207.334 212.43 202.759 211.069 201.778C209.979 200.961 207.855 200.689 206.548 200.798C208.563 200.036 212.703 200.907 214.228 201.833Z" fill="#D65863"/>
<path d="M272.231 190.014C272.231 190.014 279.093 189.088 280.455 188.925L279.42 184.677L270.76 186.42L272.231 190.014Z" fill="#D65863"/>
<path d="M290.53 178.033C290.803 178.686 290.639 179.449 290.095 179.939C286.881 183.043 282.742 187.291 278.44 187.945C273.756 188.653 265.913 188.925 265.477 187.945C265.042 186.965 263.462 174.275 260.63 167.903C257.798 161.476 255.946 158.208 255.238 154.559C254.53 150.856 260.902 142.196 263.789 141.488C266.621 140.78 273.157 140.344 275.88 142.795C278.603 145.192 280.564 154.45 283.722 161.422C286.228 166.977 289.387 175.146 290.53 178.033Z" fill="#BB0070"/>
<path d="M272.939 141.324C272.067 141.216 271.196 141.161 270.325 141.107C269.453 141.052 268.582 141.052 267.71 141.107C266.839 141.161 265.968 141.27 265.151 141.379C264.715 141.433 264.279 141.542 263.898 141.651C263.517 141.815 263.081 141.924 262.754 142.141C262.373 142.305 262.046 142.577 261.665 142.795C261.338 143.067 261.011 143.34 260.739 143.666C260.14 144.265 259.595 144.919 259.051 145.627C258.506 146.335 258.07 147.043 257.635 147.806C257.199 148.568 256.763 149.331 256.382 150.093C256.981 148.459 257.798 146.88 258.778 145.409C259.269 144.701 259.813 143.993 260.467 143.34C260.739 143.013 261.12 142.74 261.447 142.414C261.828 142.141 262.155 141.869 262.591 141.651C262.972 141.433 263.408 141.27 263.844 141.161C264.279 141.052 264.715 140.943 265.151 140.889C266.022 140.78 266.893 140.671 267.819 140.671C269.453 140.725 271.196 140.943 272.939 141.324Z" fill="#92095B"/>
<path d="M286.99 180.648C286.99 178.361 282.143 157.556 277.949 145.955C279.747 149.931 281.435 156.249 283.723 161.368C286.228 166.978 289.441 175.093 290.53 178.034C290.803 178.687 290.639 179.45 290.095 179.94C288.897 181.138 287.48 182.5 286.064 183.752C286.173 183.643 286.99 182.772 286.99 180.648Z" fill="#92095B"/>
<path d="M58.1916 157.229C58.0826 157.937 58.246 158.645 58.5728 159.244C59.8255 161.477 60.4245 164.091 60.3701 166.651C60.3156 168.339 59.9888 170.082 60.4245 171.716C61.2415 174.548 64.1825 176.291 65.1628 179.068C66.0342 181.519 65.2173 184.624 66.9601 186.53C67.3958 187.02 68.0494 187.347 68.6485 187.129C68.9752 187.02 69.1931 186.748 69.4109 186.53C71.4261 184.242 73.6046 181.465 72.951 178.469C72.3519 175.637 69.4654 173.731 68.9208 170.953C68.4851 168.666 69.6288 165.997 68.3217 164.037C67.9404 163.492 67.4503 163.111 67.0146 162.566C65.4351 160.551 66.0342 157.338 64.2369 155.54C63.6379 154.941 62.9298 154.614 62.1129 154.451C60.2612 153.961 58.4639 155.268 58.1916 157.229Z" fill="#A9377B"/>
<path d="M69.6834 192.955C69.7923 191.43 69.8468 189.96 69.9012 188.435C69.8468 186.91 69.7378 185.44 69.6289 183.915C69.52 182.39 69.3566 180.919 69.0843 179.449C68.812 177.978 68.4852 176.453 67.8316 175.037C66.7424 172.26 65.871 169.427 64.9996 166.541L63.6924 162.238C63.1478 160.822 62.6576 159.406 62.1675 157.99C62.3853 159.461 62.7121 160.931 63.0389 162.402L64.346 166.704C65.2174 169.591 66.0888 172.423 67.2325 175.255C67.8316 176.617 68.1584 178.033 68.4307 179.503C68.703 180.974 68.8664 182.444 68.9753 183.915C69.0843 185.385 69.1932 186.91 69.2477 188.381L69.6834 192.955Z" fill="#521439"/>
<path d="M61.7861 162.511C62.0584 162.892 62.3308 163.165 62.712 163.437C62.8754 163.546 63.0932 163.655 63.3111 163.709C63.5289 163.818 63.6923 163.927 63.8557 164.091L63.9102 164.145L63.9647 164.036C64.128 163.818 64.2914 163.6 64.4004 163.383C64.5093 163.165 64.6727 162.947 64.7816 162.729C64.9994 162.239 65.1628 161.749 65.2718 161.204H65.2173C64.8361 161.585 64.5637 162.021 64.2914 162.511C64.1825 162.729 64.0736 163.001 63.9647 163.219C63.8557 163.437 63.8013 163.709 63.7468 163.982L63.8557 163.927C63.6923 163.818 63.529 163.709 63.3656 163.546C63.2022 163.383 63.0932 163.219 62.9299 163.11C62.6031 162.838 62.2218 162.62 61.7861 162.511Z" fill="#521439"/>
<path d="M62.1675 167.684C62.4398 167.902 62.7121 168.12 62.9844 168.337C63.2567 168.555 63.5291 168.719 63.8558 168.882C64.1826 169.045 64.5094 169.154 64.7817 169.318C65.054 169.481 65.3263 169.699 65.5986 169.917L65.7076 169.971L65.8165 169.862C66.2522 169.318 66.579 168.773 66.9058 168.174C67.2325 167.575 67.5049 166.976 67.7227 166.322H67.6682C67.2325 166.812 66.8513 167.412 66.4701 167.956C66.1433 168.555 65.8165 169.154 65.5986 169.753L65.762 169.699C65.4353 169.536 65.1629 169.427 64.8362 169.209C64.5639 168.991 64.2915 168.773 64.0192 168.555C63.7469 168.337 63.4201 168.174 63.1478 168.011C62.821 167.847 62.4943 167.684 62.1675 167.684Z" fill="#521439"/>
<path d="M63.9646 174.438C64.2369 174.71 64.5637 174.928 64.8905 175.146C65.2172 175.364 65.544 175.473 65.9253 175.582C66.3065 175.691 66.6333 175.854 66.9601 176.072C67.2868 176.29 67.5592 176.562 67.8315 176.725L68.0493 176.889L68.2127 176.616C68.485 176.235 68.7029 175.854 68.8663 175.418C69.0297 174.983 69.193 174.601 69.302 174.111L69.2475 174.057C68.9207 174.383 68.6484 174.765 68.3761 175.091C68.1038 175.473 67.9404 175.854 67.7225 176.29L68.1038 176.181C67.777 176.017 67.3958 175.908 67.0145 175.745C66.6333 175.636 66.3065 175.418 66.0342 175.2C65.7619 174.928 65.4351 174.765 65.0539 174.601C64.7815 174.547 64.4003 174.438 63.9646 174.438Z" fill="#521439"/>
<path d="M72.0796 193.23C73.2777 193.012 77.6348 191.65 77.3625 190.507C76.0554 185.551 74.7482 179.995 79.2687 177.599C81.4472 176.455 84.2248 175.856 85.4774 173.678C86.7846 171.445 85.8042 168.667 84.6605 166.38C83.5168 164.092 82.1007 161.641 82.5909 159.136C83.1355 156.522 85.5864 154.561 85.9676 151.892C86.5122 148.298 82.9721 145.357 79.5954 143.941C78.4517 143.451 77.1991 143.069 76.0009 143.342C75.1295 143.56 74.367 144.104 73.7679 144.758C71.3715 147.427 71.4805 151.402 72.0251 154.942C72.5697 158.482 73.3867 162.186 72.0796 165.454C71.1537 167.796 69.1386 170.029 69.6832 172.479C69.901 173.46 70.5001 174.331 70.7724 175.312C71.426 177.98 69.193 180.377 68.2127 182.882C66.9056 186.15 67.777 190.125 70.2823 192.631C70.7724 193.121 71.426 193.339 72.0796 193.23Z" fill="#BB0070"/>
<path d="M71.6982 193.284C71.9705 191.323 72.2428 189.363 72.5696 187.456C72.6785 186.966 72.733 186.476 72.8419 185.986C72.8964 185.496 72.9508 185.006 73.0598 184.515C73.2231 183.535 73.3865 182.609 73.5499 181.629C73.9312 179.723 74.3669 177.817 75.0204 176.019C75.3472 175.093 75.7284 174.222 76.2731 173.459C76.5454 173.078 76.8177 172.751 77.1445 172.534C77.5802 172.261 78.0159 171.88 78.3427 171.444C78.9962 170.573 79.2141 169.429 79.2141 168.394C79.2141 167.36 78.9962 166.379 78.7784 165.399C78.3427 163.438 77.7436 161.587 77.4168 159.68C77.09 157.774 77.0356 155.868 77.5257 154.016C77.6891 153.581 77.798 153.145 77.9614 152.655C78.1248 152.219 78.2882 151.783 78.506 151.348C78.9418 150.476 79.5408 149.714 80.1399 148.951C79.3775 149.55 78.6694 150.258 78.0704 151.075C77.7436 151.456 77.4713 151.892 77.2534 152.382C76.9811 152.818 76.8177 153.308 76.7088 153.798C76.1641 155.814 76.2186 157.883 76.5998 159.844C76.9266 161.804 77.5257 163.711 77.9614 165.617C78.1793 166.543 78.3427 167.523 78.3971 168.449C78.3971 169.375 78.2337 170.301 77.7436 170.954C77.4713 171.281 77.1445 171.608 76.7632 171.826C76.2731 172.152 75.9463 172.588 75.6195 173.024C75.0204 173.895 74.6392 174.821 74.3124 175.747C73.6588 177.653 73.1687 179.559 72.7874 181.52C72.624 182.5 72.4607 183.481 72.2973 184.461C72.2428 184.951 72.1339 185.441 72.0794 185.932C72.025 186.422 72.025 186.912 71.9705 187.402C71.6982 189.363 71.6437 191.323 71.6982 193.284Z" fill="#521439"/>
<path d="M79.4862 154.834C79.1594 154.943 78.8871 155.161 78.6148 155.379C78.3425 155.596 78.1247 155.814 77.9068 156.087C77.7434 156.359 77.58 156.686 77.3077 156.904C77.0899 157.121 76.8175 157.339 76.5452 157.557H76.872C76.7631 157.285 76.5997 157.067 76.4908 156.849C76.3274 156.631 76.2184 156.359 76.0551 156.141C75.8917 155.923 75.7283 155.705 75.5649 155.488C75.4015 155.27 75.1837 155.052 75.0747 154.834H75.0203C75.0203 155.161 75.0747 155.433 75.1837 155.705C75.2926 155.978 75.4015 156.25 75.5649 156.468C75.6738 156.74 75.8372 156.958 76.0006 157.176C76.164 157.394 76.3274 157.612 76.5452 157.829L76.7631 158.047L76.872 157.829C77.0354 157.557 77.1988 157.23 77.4166 157.013C77.6345 156.74 77.9068 156.577 78.1791 156.359C78.4514 156.141 78.6693 155.923 78.8871 155.651C79.1595 155.433 79.3228 155.161 79.4862 154.834Z" fill="#521439"/>
<path d="M75.1836 162.295C75.347 162.621 75.5104 162.948 75.7282 163.22C75.9461 163.493 76.1639 163.765 76.3818 164.037C76.6541 164.255 76.9264 164.473 77.1987 164.691C77.471 164.909 77.6889 165.181 77.9067 165.453L77.9612 165.562L78.0701 165.508C78.4514 165.236 78.7237 164.963 78.996 164.691C79.2683 164.364 79.5406 164.092 79.8129 163.765C80.0853 163.438 80.3031 163.112 80.521 162.785C80.7388 162.458 80.9567 162.077 81.1745 161.804L81.1201 161.75C80.7388 161.913 80.412 162.24 80.1397 162.512C79.8674 162.785 79.5951 163.112 79.3228 163.384C79.0505 163.711 78.8326 164.037 78.6148 164.364C78.3969 164.691 78.1791 165.072 77.9612 165.345H78.1246C77.8523 165.127 77.6344 164.854 77.4166 164.582C77.1987 164.31 77.0353 163.983 76.8175 163.711C76.5996 163.438 76.3273 163.22 76.1095 162.948C75.8371 162.676 75.5648 162.458 75.1836 162.295Z" fill="#521439"/>
<path d="M83.0264 168.067C82.6451 168.503 82.2639 168.884 81.8827 169.265C81.5014 169.646 81.0657 169.973 80.63 170.354C80.1943 170.735 79.7586 171.008 79.214 171.171C78.6693 171.335 78.1247 171.335 77.5801 171.335L77.7979 171.498C77.689 171.062 77.5801 170.627 77.4167 170.191C77.2533 169.755 77.0899 169.319 76.8721 168.938C76.6542 168.557 76.3819 168.121 76.0551 167.794C75.7283 167.468 75.3471 167.141 74.9114 166.978L74.8569 167.032C75.1837 167.359 75.456 167.686 75.6739 168.067C75.8917 168.448 76.1096 168.829 76.273 169.211L76.8176 170.409C76.981 170.79 77.1444 171.226 77.3078 171.661L77.3622 171.879H77.5256C78.1247 171.77 78.6693 171.607 79.214 171.389C79.7586 171.171 80.3032 171.008 80.7934 170.735C81.338 170.463 81.7737 170.082 82.155 169.646C82.6451 169.156 82.9174 168.666 83.0264 168.067Z" fill="#521439"/>
<path d="M72.4608 172.479C72.2974 172.915 72.2429 173.405 72.2429 173.841C72.2429 174.331 72.3518 174.766 72.5152 175.202C72.6786 175.638 72.9509 176.019 73.2233 176.4L74.0402 177.49L74.0947 177.544L74.2036 177.49C74.6393 177.163 75.1295 176.945 75.6196 176.673C76.1098 176.4 76.6 176.183 77.0901 175.965C77.5803 175.747 78.0705 175.529 78.6151 175.366C79.1053 175.148 79.6499 174.984 80.1945 174.766V174.712C79.0508 174.712 77.9071 174.93 76.8723 175.366C76.3276 175.583 75.8375 175.91 75.4018 176.183C74.9116 176.509 74.5304 176.891 74.0947 177.272H74.2581C73.9313 176.945 73.659 176.618 73.4956 176.183C73.2777 175.801 73.2233 175.366 73.0599 174.93C72.7875 174.113 72.6242 173.296 72.5697 172.37L72.4608 172.479Z" fill="#521439"/>
<path d="M64.1277 205.974H76.7087C77.8524 205.974 78.8872 204.993 79.0506 203.577L81.0113 188.11C81.2291 186.421 80.1399 184.896 78.6694 184.896H62.1126C60.6421 184.896 59.5529 186.421 59.7707 188.11L61.7314 203.577C61.9492 204.993 62.9296 205.974 64.1277 205.974Z" fill="#504984"/>
<path d="M62.1128 184.95H70.5545C69.084 184.95 67.9948 186.475 68.2126 188.164L70.1733 203.631C70.3367 204.993 71.317 206.027 72.5152 206.027H64.0734C62.9297 206.027 61.8949 205.047 61.7315 203.631L59.7709 188.164C59.553 186.475 60.6967 184.95 62.1128 184.95Z" fill="#372D5B"/>
<path d="M176.594 201.723H124.091C123.547 201.723 123.111 202.158 123.111 202.703V205.045C123.111 205.59 123.547 206.025 124.091 206.025H176.594V201.723Z" fill="black"/>
<path d="M190.101 204.664V205.59C190.101 205.808 189.937 205.971 189.719 205.971H176.485C176.049 205.971 175.722 205.644 175.722 205.209V202.485C175.722 202.05 176.104 201.669 176.539 201.723L189.719 204.283C189.992 204.337 190.101 204.446 190.101 204.664Z" fill="#462682"/>
<path d="M84.8236 112.458H182.966C184.927 112.458 186.724 113.711 187.377 115.562L208.836 175.199C209.707 178.249 207.474 180.591 203.88 180.972C203.335 181.027 200.666 179.829 196.527 177.922H108.842C106.881 177.922 105.084 176.67 104.43 174.818L85.0414 120.954C81.7737 119.266 79.8675 118.286 79.8675 118.286C79.8675 118.286 78.6148 112.458 84.8236 112.458Z" fill="#462682"/>
<path d="M179.916 115.562H81.7195C80.3034 115.562 79.3776 116.924 79.8133 118.231L101.272 177.868C101.925 179.72 103.723 180.973 105.683 180.973H203.825C205.241 180.973 206.167 179.611 205.732 178.304L184.273 118.667C183.674 116.761 181.877 115.562 179.916 115.562Z" fill="#5F22E2"/>
<path d="M157.75 180.971L153.393 164.796L136.89 180.971H157.75Z" fill="black"/>
<path d="M133.84 136.477C134.276 139.145 136.019 140.235 138.088 140.235C140.158 140.235 141.683 138.546 141.356 136.477C140.975 134.462 139.178 132.719 137.108 132.719C135.039 132.719 133.514 134.462 133.84 136.477Z" fill="#462682"/>
<path d="M179.97 171.059L178.718 167.519H180.297L181.55 171.059H179.97Z" fill="black"/>
<path d="M176.648 171.059L175.396 167.519H176.975L178.228 171.059H176.648Z" fill="black"/>
<path d="M173.272 171.059L172.019 167.519H173.598L174.906 171.059H173.272Z" fill="black"/>
<path d="M169.949 171.059L168.697 167.519H170.276L171.529 171.059H169.949Z" fill="black"/>
<path d="M122.512 171.059L121.259 167.519H122.839L124.091 171.059H122.512Z" fill="black"/>
<path d="M119.136 171.059L117.883 167.519H119.462L120.715 171.059H119.136Z" fill="black"/>
<path d="M115.813 171.059L114.561 167.519H116.14L117.393 171.059H115.813Z" fill="black"/>
<path d="M112.491 171.059L111.184 167.519H112.818L114.07 171.059H112.491Z" fill="black"/>
<path d="M124.581 200.198C125.562 197.421 137.271 159.515 137.271 159.515H152.357L153.338 164.798C153.338 164.798 143.208 197.421 142.282 200.198C142.227 200.416 142.118 200.634 142.064 200.852C141.193 203.575 143.534 203.575 146.149 203.575C148.763 203.575 172.727 203.575 172.727 203.575V205.972H146.149H128.448C123.165 205.972 123.601 202.976 124.581 200.198Z" fill="#5F22E2"/>
<path d="M152.412 159.515C152.412 159.515 140.648 197.421 139.722 200.198C138.742 202.976 138.252 205.972 143.589 205.972H125.889C120.551 205.972 121.041 202.976 122.022 200.198C123.002 197.421 134.712 159.515 134.712 159.515H152.412Z" fill="#462682"/>
<path d="M148.709 159.515C147.565 159.46 146.367 159.46 145.223 159.406C144.079 159.351 142.881 159.351 141.737 159.351C140.594 159.351 139.396 159.297 138.252 159.297H134.766H134.548L134.494 159.46C134.004 160.985 133.514 162.51 133.078 164.035L131.662 168.61C130.736 171.66 129.865 174.764 129.048 177.869C130.137 174.873 131.117 171.823 132.152 168.773L133.622 164.199C134.113 162.674 134.603 161.149 135.039 159.624L134.766 159.787H138.252C139.396 159.787 140.594 159.733 141.737 159.733C142.881 159.733 144.079 159.678 145.223 159.678C146.367 159.624 147.511 159.569 148.709 159.515Z" fill="#7B4BD6"/>
<path d="M45.9917 215.284H305.943C308.503 215.284 310.573 213.215 310.573 210.655C310.573 208.095 308.503 206.025 305.943 206.025H45.9917C43.4319 206.025 41.3624 208.095 41.3624 210.655C41.3079 213.215 43.4319 215.284 45.9917 215.284Z" fill="#8E5058"/>
<path d="M45.9917 215.285H305.943C308.503 215.285 310.573 213.215 310.573 210.655H41.3079C41.3079 213.215 43.4319 215.285 45.9917 215.285Z" fill="#64364A"/>
<path d="M99.8947 67.6278C104.823 46.5698 91.7481 25.5033 70.69 20.5745C49.6319 15.6458 28.5655 28.7212 23.6367 49.7792C18.7079 70.8373 31.7833 91.9038 52.8414 96.8325C73.8995 101.761 94.9659 88.6859 99.8947 67.6278Z" fill="#5F22E2"/>
<mask id="mask0_5414_2788" style="mask-type:alpha" maskUnits="userSpaceOnUse" x="22" y="19" width="79" height="79">
<path d="M99.8947 67.6278C104.823 46.5698 91.7481 25.5033 70.69 20.5745C49.6319 15.6458 28.5655 28.7212 23.6367 49.7792C18.7079 70.8373 31.7833 91.9038 52.8414 96.8325C73.8995 101.761 94.9659 88.6859 99.8947 67.6278Z" fill="#5F22E2"/>
</mask>
<g mask="url(#mask0_5414_2788)">
<path d="M105.357 97.9497C103.45 109.169 98.93 117.883 97.514 117.992C96.098 118.156 82.5367 113.472 78.7787 111.783C75.0208 110.095 79.9225 83.7894 82.2644 84.2251C84.6063 84.6608 89.6713 89.7258 93.9194 92.1767C98.1131 94.6275 105.357 97.9497 105.357 97.9497Z" fill="white"/>
<path d="M116.794 99.4198C116.903 103.886 112.873 104.485 108.08 103.341C103.287 102.197 95.4444 91.4137 91.9588 86.5665C88.4731 81.7193 81.9921 73.0053 80.6305 72.2428C79.2689 71.4803 76.219 71.0446 73.5503 66.6876C70.9361 62.3305 74.3672 53.1263 75.6199 52.037C76.8725 50.9478 87.5473 54.5968 88.7999 56.4485C90.0526 58.3003 87.9285 68.1581 88.3098 69.4107C88.691 70.6634 97.7863 80.7935 101.762 83.2988C105.792 85.7496 116.739 96.2065 116.794 99.4198Z" fill="#FFC5C7"/>
<path d="M81.1754 59.3356C79.9228 58.7365 79.596 55.9044 80.413 56.3946C81.2299 56.8848 82.5915 56.8848 84.4432 56.8303C86.295 56.8303 87.0574 56.6669 87.0574 56.6669C87.0574 56.6669 87.2753 57.8651 87.2208 58.8999C87.2753 58.8999 82.4281 59.9892 81.1754 59.3356Z" fill="#FE8A8B"/>
<path d="M72.8967 59.9887C73.6592 58.5727 74.2583 57.4834 74.2583 57.4834L81.6108 64.5636C83.6259 62.8208 86.0768 61.2413 86.0768 61.2413L86.7303 62.3851C85.5321 64.4002 84.4973 68.6483 84.4973 69.6831C84.4973 69.6831 83.3536 70.9358 82.7545 71.0447C82.7545 71.0447 90.5972 83.5167 95.6622 89.6165C100.673 95.7164 104.104 100.945 106.5 102.633C101.708 99.8556 95.2265 90.9237 92.1221 86.5666C88.6365 81.665 82.1554 73.0053 80.7938 72.2429C79.4323 71.4804 76.3823 71.0447 73.7137 66.6876C72.6244 64.9448 72.5155 62.4395 72.8967 59.9887Z" fill="#FE8A8B"/>
<path d="M88.1465 60.6964C88.0375 61.4044 80.7395 67.7222 79.977 68.4846C79.9226 68.5391 79.3235 68.648 79.2145 68.4846C77.2539 66.7963 68.8121 51.3833 68.6487 50.8386C68.4853 50.294 74.1495 45.0111 75.8378 43.5951C76.0557 43.3772 77.036 43.5406 77.1994 43.7584C78.9422 46.3182 88.3099 59.7706 88.1465 60.6964Z" fill="#0C0835"/>
<path d="M87.3839 60.6966C87.275 61.4046 79.977 67.7223 79.2145 68.4848C78.452 69.1928 68.0496 51.4379 67.8862 50.8388C67.7228 50.2941 73.9861 45.1202 75.7289 43.7041C75.9467 43.4863 76.2735 43.5407 76.4369 43.7586C78.1797 46.3183 87.4929 59.7707 87.3839 60.6966Z" fill="#252384"/>
<path d="M86.1314 59.6622C86.0224 60.3158 79.2146 66.2522 78.5065 66.9603C77.7985 67.6138 68.0497 51.0026 67.8863 50.458C67.7773 49.9678 73.6049 45.1206 75.2388 43.759C75.4566 43.5957 75.7834 43.5957 75.8923 43.8135C77.5262 46.2099 86.2403 58.7908 86.1314 59.6622Z" fill="#57AFF7"/>
<path d="M81.7741 51.0031C80.6304 50.2951 79.2688 48.0077 79.1054 47.2452C78.9965 46.4827 79.051 45.7747 79.6501 45.6113C80.2492 45.4479 82.1554 47.8988 83.0812 48.6068C84.0071 49.3148 85.1508 50.8398 84.6607 51.8746C84.225 52.9093 82.1009 52.4736 81.8831 52.3647C81.7197 52.1469 81.7741 51.0031 81.7741 51.0031Z" fill="#FFC5C7"/>
<path d="M79.3235 45.7734C78.9422 46.6448 81.2841 50.1849 83.3537 51.2197L82.5912 52.0911C82.5912 52.0911 82.2645 52.0367 81.8288 51.9277C81.7743 51.5465 81.7743 51.0019 81.7743 51.0019C80.6306 50.2939 79.269 48.0064 79.1056 47.2439C79.0511 46.6448 79.0511 46.1002 79.3235 45.7734Z" fill="#FE8A8B"/>
<path d="M84.3883 54.5422C82.4277 53.5074 80.9027 53.6164 79.8679 53.1807C78.8331 52.745 78.6152 51.1111 79.3233 50.8388C80.0313 50.5664 84.4428 51.2745 85.532 51.7646C86.6758 52.2548 87.2204 54.5967 87.2204 54.5967L84.3883 54.5422Z" fill="#FFC5C7"/>
<path d="M83.5715 53.3444C84.6607 53.5623 85.042 53.3444 85.042 53.3444C84.9875 53.7802 85.4232 53.998 85.8589 54.5971L84.3884 54.5426C82.4277 53.5078 80.9028 53.6168 79.868 53.1811C79.3778 52.9632 79.1055 52.5275 78.9966 52.0918C79.4323 53.0177 82.4822 53.1266 83.5715 53.3444Z" fill="#FE8A8B"/>
<path d="M88.9087 56.394C87.874 57.8101 82.8089 57.211 81.7741 57.0476C80.7393 56.8842 80.0857 56.2307 80.1947 55.5771C80.4125 54.27 87.1115 54.4878 87.7106 54.7057C88.2007 54.9235 88.9087 56.394 88.9087 56.394Z" fill="#FFC5C7"/>
<path d="M80.1951 55.9033C80.9031 56.6113 82.537 56.9926 84.3887 57.156C85.9681 57.2649 86.894 57.2104 87.1119 57.2104C85.2057 57.5372 82.4825 57.156 81.7745 57.047C80.9031 56.9381 80.304 56.4479 80.1951 55.9033Z" fill="#FE8A8B"/>
<path d="M65.0542 76.49C75.8379 81.9908 77.6352 81.7729 82.2645 84.2782C86.8939 86.7835 85.5323 112.98 85.2055 117.065C84.9332 121.095 83.7895 137.162 84.3886 141.519C84.9877 145.876 87.3841 162.051 88.4733 164.557C89.5626 167.062 91.5777 171.256 88.4189 173.761C85.26 176.266 78.67 177.954 64.2373 177.029C49.8046 176.103 34.2827 167.225 33.6291 165.973C32.9211 164.72 40.4915 141.846 40.8182 137.489C41.145 133.131 42.0164 129.864 42.4521 127.849C42.8878 125.833 38.3129 116.357 37.6049 110.257C36.8969 104.212 30.3069 87.4371 31.5051 84.3871C32.7577 81.3372 44.2494 77.9061 52.0376 73.9847C59.9347 70.1179 65.0542 76.49 65.0542 76.49Z" fill="white"/>
<path d="M75.7836 83.2979C73.9863 89.1254 70.3918 94.4083 65.5445 98.1662C59.717 96.7502 53.7261 94.136 48.9333 90.487C54.2707 94.4083 60.0983 97.7305 66.3615 100.018C71.6989 95.7154 74.8577 90.0513 75.7836 83.2979Z" fill="#DCEDFF"/>
<path d="M73.6052 80.5203C71.5356 79.6489 68.8669 78.3962 65.1089 76.49C65.1089 76.49 59.9894 70.1179 52.1468 73.9847C49.4236 75.3463 46.2647 76.6534 43.2693 77.8516C47.9531 85.7487 55.469 91.9575 64.1831 94.8985C68.758 91.3584 72.0802 86.1844 73.6052 80.5203Z" fill="#FFC5C7"/>
<path d="M53.3447 62.9834C53.2358 69.4645 52.8001 73.9304 51.384 75.1831C51.384 75.1831 53.8349 85.9668 63.7471 85.0409C67.0694 84.7141 66.797 79.1044 65.1087 76.5447L66.089 68.5931L53.3447 62.9834Z" fill="#FFC5C7"/>
<path d="M52.1465 74.0394C53.0179 72.0243 53.2902 68.1574 53.3991 62.9834L66.089 68.5386L65.4354 73.6581C63.2025 74.6385 52.1465 74.0394 52.1465 74.0394Z" fill="#FE8A8B"/>
<path d="M39.0754 110.912C42.0708 105.084 43.2146 95.553 40.5459 90.5969C37.8772 85.5863 32.8121 83.789 31.5595 84.3881C30.3068 84.9872 26.9301 92.7754 23.7713 96.37C20.6124 99.9645 12.0073 110.04 11.735 110.912C11.4627 111.783 17.9982 118.645 30.1979 123.656C31.6684 124.255 39.0754 110.912 39.0754 110.912Z" fill="white"/>
<path d="M66.7971 63.528C66.1435 60.8594 66.1435 58.1362 65.9802 55.3586C65.8712 53.289 65.7623 51.4373 63.9106 50.2391C62.549 49.3677 60.8606 49.1498 59.2812 49.3677C54.9786 49.9123 54.0528 54.106 54.3795 58.0273C54.6519 61.0772 55.7956 63.9637 56.9938 66.7414C55.4143 66.6869 53.2358 65.87 52.31 64.5084C52.7457 66.2512 53.5081 67.8306 54.8152 69.0288C50.2404 68.9743 45.9923 65.9789 43.5959 61.9486C41.1995 57.9184 40.3826 53.0167 40.6549 48.2784C40.9817 42.6687 42.7245 37.0591 46.2101 32.702C53.1814 23.9879 66.6337 23.0076 74.8576 30.469C77.6897 33.0288 79.7048 36.46 80.7396 40.2179C82.1012 45.1196 82.0467 50.4025 81.0119 55.3586C80.5762 57.4282 80.3584 59.171 80.195 61.2406C80.1405 61.8942 79.378 69.3011 79.8137 69.2467C76.9272 69.41 73.605 68.8654 71.6443 66.6324C72.5157 68.1574 73.2782 69.6279 74.1496 71.1529C70.3917 70.6627 67.723 67.2315 66.7971 63.528Z" fill="#BA6454"/>
<path d="M51.8198 53.4518C50.5127 52.6893 48.9877 52.2536 47.7895 53.5063C46.0467 55.3036 48.552 63.6364 52.3099 61.6213C52.3099 61.6213 57.8107 69.3005 61.841 71.4791C65.8712 73.6576 68.7578 72.5683 70.2827 70.9889C71.8077 69.4095 76.9817 63.0373 77.9075 56.2839C78.2343 53.8875 77.9075 49.1492 77.962 48.1144C78.1798 45.0101 79.378 42.4503 76.9272 39.9995C74.4219 37.5486 70.9907 36.0237 67.5051 35.9147C63.0936 35.7514 58.6821 37.712 55.7956 41.0343C52.5823 44.6833 51.9832 48.8225 51.8198 53.4518Z" fill="#FFC5C7"/>
<path d="M48.3884 55.7398C48.7152 54.2149 50.0223 53.8881 51.0026 54.9773C51.983 56.0666 52.1464 59.4978 51.9285 60.0424C51.6562 60.5326 49.9678 60.5326 49.6411 59.4433C49.3143 58.4085 50.2946 57.7549 51.275 58.0273C51.275 58.0273 51.5473 56.5023 50.7848 55.522C50.0223 54.5416 49.2054 54.9229 48.9875 55.1407C48.7152 55.413 48.3884 55.7398 48.3884 55.7398Z" fill="#FE8A8B"/>
<path d="M58.8999 49.0417C59.2811 48.7149 59.6624 48.3881 60.0436 48.0614C60.4793 47.789 60.915 47.5167 61.3507 47.2989C61.8409 47.081 62.2766 46.8632 62.8212 46.8087C63.3114 46.7542 63.856 46.8087 64.2917 47.0266V47.081C64.0194 47.1899 63.8016 47.2444 63.5837 47.2989L62.8757 47.4623C62.44 47.5712 61.9498 47.6256 61.5141 47.789C61.0784 47.9524 60.6427 48.1158 60.207 48.3337C59.7713 48.5515 59.3356 48.8238 58.8999 49.0417Z" fill="#3F1751"/>
<path d="M76.1102 47.2436C75.6745 47.0257 75.2388 46.8623 74.8031 46.7534C74.3674 46.6445 73.8772 46.59 73.387 46.59C72.8969 46.59 72.4612 46.699 71.971 46.699C71.4808 46.699 71.0451 46.699 70.5005 46.6445V46.59C70.9362 46.2633 71.4264 46.0999 71.971 45.9909C72.4612 45.882 73.0058 45.9909 73.496 46.0454C73.9861 46.0999 74.4763 46.2633 74.912 46.4266C75.3477 46.6445 75.7834 46.8623 76.1646 47.1891L76.1102 47.2436Z" fill="#3F1751"/>
<path d="M63.5294 51.7648C63.5294 51.1113 63.2026 50.6211 62.7669 50.6211C62.3857 50.6756 62.0589 51.2202 62.1134 51.8737C62.1134 52.5273 62.4402 53.0175 62.8759 53.0175C63.2571 52.963 63.5839 52.4184 63.5294 51.7648Z" fill="#3F1751"/>
<path d="M73.9316 50.8927C73.9316 50.2392 73.6592 49.749 73.3325 49.749C73.0057 49.8035 72.7878 50.3481 72.7878 51.0017C72.7878 51.6552 73.0602 52.1454 73.3869 52.1454C73.7137 52.1454 73.9316 51.6008 73.9316 50.8927Z" fill="#3F1751"/>
<path d="M66.7971 58.1365C67.723 58.7356 69.0301 58.7356 70.0104 58.082C69.9015 58.5722 69.6837 59.0624 69.1935 59.2802C68.7033 59.4436 68.1587 59.3891 67.723 59.2258C67.2328 59.0079 67.0694 58.5722 66.7971 58.1365Z" fill="#FE8A8B"/>
<path d="M63.2026 62.0044C65.3812 62.0588 70.6096 61.6231 72.2979 61.4053C71.6444 63.5838 69.8471 65.7623 67.3963 65.7623C65.1633 65.7623 63.7473 63.965 63.2026 62.0044Z" fill="#C31F2A"/>
<path d="M65.1633 65.0543C66.0347 64.7819 66.9061 64.9453 67.2329 65.0543C67.2329 65.0543 68.3766 64.2373 70.065 64.7819C69.3025 65.381 68.3766 65.8167 67.3418 65.8167C66.5249 65.7623 65.8169 65.49 65.1633 65.0543Z" fill="#FB8384"/>
<path d="M70.8276 63.2575C68.6491 63.9655 66.2527 63.7476 64.1831 62.9851C64.1831 62.6584 64.1287 62.3316 64.1287 62.0048C66.2527 61.9503 69.7383 61.678 71.5901 61.5146C71.3722 62.1137 71.1544 62.7128 70.8276 63.2575Z" fill="white"/>
<path d="M53.9984 46.2629C57.5385 46.0995 61.0241 45.3371 64.3464 43.9755C64.9455 42.5594 64.9999 41.2523 65.1089 39.6729C65.9803 41.3068 66.5249 43.1041 66.6338 45.0103C68.7034 44.9014 70.773 44.7924 72.8426 44.629C73.4417 42.9952 73.4962 41.3068 73.3872 39.564C74.0953 41.1979 74.422 43.213 74.6943 45.0103C75.947 44.5746 77.5264 45.2281 78.8335 45.446C80.4674 41.8514 80.3585 35.3703 76.9273 32.6472C73.6051 29.9785 67.832 29.2705 63.8018 29.8696C55.1966 31.1222 48.3887 38.2569 48.9334 47.1888C49.2602 52.2539 51.7655 57.1011 55.4689 60.6411C53.127 56.3386 52.6913 51.0012 53.9984 46.2629Z" fill="#BA6454"/>
</g>
<path d="M161.757 67.067C164.919 54.8988 157.618 42.4712 145.45 39.309C133.282 36.1469 120.854 43.4478 117.692 55.616C114.53 67.7842 121.831 80.2118 133.999 83.374C146.167 86.5361 158.595 79.2352 161.757 67.067Z" fill="#462682"/>
<path d="M128.503 70.2498H150.941C151.976 70.2498 152.793 69.4329 152.793 68.3981V54.2922C152.793 53.2574 151.976 52.4404 150.941 52.4404H128.503C127.468 52.4404 126.651 53.2574 126.651 54.2922V68.3981C126.651 69.3784 127.468 70.2498 128.503 70.2498Z" fill="#DBE9FF"/>
<path d="M128.503 70.2495H150.941C151.976 70.2495 152.793 69.4325 152.793 68.3977L139.722 60.1738L126.651 68.3977C126.651 69.3781 127.468 70.2495 128.503 70.2495Z" fill="#CDDCF4"/>
<path d="M128.503 52.3857H150.941C151.976 52.3857 152.793 53.2027 152.793 54.2375L139.722 62.4614L126.651 54.2375C126.651 53.2572 127.468 52.3857 128.503 52.3857Z" fill="#ADC804"/>
<path d="M306.231 116.227C318.48 113.389 326.109 101.159 323.271 88.9106C320.433 76.6619 308.203 69.0329 295.955 71.8706C283.706 74.7084 276.077 86.9383 278.915 99.1869C281.752 111.436 293.982 119.065 306.231 116.227Z" fill="#462682"/>
<path d="M307.468 89.6368H305.181C304.963 88.7109 304.636 87.894 304.146 87.1315L305.78 85.4976C305.998 85.2797 305.998 84.8985 305.78 84.6806L303.982 82.8834C303.765 82.6655 303.383 82.6655 303.165 82.8834L301.532 84.5173C300.769 84.0271 299.952 83.7003 299.026 83.4825V81.195C299.026 80.8682 298.754 80.6504 298.482 80.6504H295.922C295.595 80.6504 295.377 80.9227 295.377 81.195V83.4825C294.451 83.7003 293.634 84.0271 292.872 84.5173L291.238 82.8834C291.02 82.6655 290.639 82.6655 290.421 82.8834L288.624 84.6806C288.406 84.8985 288.406 85.2797 288.624 85.4976L290.258 87.1315C289.768 87.894 289.441 88.7109 289.223 89.6368H286.935C286.609 89.6368 286.391 89.9091 286.391 90.1814V92.7412C286.391 93.0679 286.663 93.2858 286.935 93.2858H289.223C289.441 94.2117 289.768 95.0286 290.258 95.7911L288.624 97.425C288.406 97.6428 288.406 98.0241 288.624 98.2419L290.421 100.039C290.639 100.257 291.02 100.257 291.238 100.039L292.872 98.4053C293.634 98.8955 294.451 99.2223 295.377 99.4401V101.728C295.377 102.054 295.65 102.272 295.922 102.272H298.482C298.808 102.272 299.026 102 299.026 101.728V99.4401C299.952 99.2223 300.769 98.8955 301.532 98.4053L303.165 100.039C303.383 100.257 303.765 100.257 303.982 100.039L305.78 98.2419C305.998 98.0241 305.998 97.6428 305.78 97.425L304.146 95.7911C304.636 95.0286 304.963 94.2117 305.181 93.2858H307.468C307.795 93.2858 308.013 93.0135 308.013 92.7412V90.1814C308.013 89.8546 307.795 89.6368 307.468 89.6368ZM297.175 94.9741C295.214 94.9741 293.689 93.3947 293.689 91.4885C293.689 89.5278 295.268 88.0029 297.175 88.0029C299.135 88.0029 300.66 89.5823 300.66 91.4885C300.715 93.3947 299.135 94.9741 297.175 94.9741Z" fill="#DBE9FF"/>
<path d="M297.175 86.5869C294.451 86.5869 292.273 88.7654 292.273 91.4886C292.273 94.2117 294.451 96.3902 297.175 96.3902C299.898 96.3902 302.076 94.2117 302.076 91.4886C302.076 88.7654 299.898 86.5869 297.175 86.5869ZM297.175 94.4296C295.541 94.4296 294.179 93.068 294.179 91.4341C294.179 89.8002 295.541 88.4387 297.175 88.4387C298.809 88.4387 300.17 89.8002 300.17 91.4341C300.17 93.068 298.809 94.4296 297.175 94.4296Z" fill="#ADC804"/>
<path d="M317.217 99.6586H316.073C315.964 99.2229 315.801 98.7872 315.529 98.3515L316.346 97.5346C316.455 97.4257 316.455 97.2623 316.346 97.0989L315.42 96.173C315.311 96.0641 315.147 96.0641 314.984 96.173L314.167 96.99C313.786 96.7721 313.35 96.5543 312.86 96.4453V95.3016C312.86 95.1382 312.751 95.0293 312.588 95.0293H311.281C311.117 95.0293 311.008 95.1382 311.008 95.3016V96.4453C310.573 96.5543 310.137 96.7177 309.701 96.99L308.884 96.173C308.775 96.0641 308.612 96.0641 308.448 96.173L307.523 97.0989C307.414 97.2078 307.414 97.3712 307.523 97.5346L308.34 98.3515C308.122 98.7328 307.904 99.1685 307.795 99.6586H306.76C306.597 99.6586 306.488 99.7676 306.488 99.931V101.238C306.488 101.401 306.597 101.51 306.76 101.51H307.904C308.013 101.946 308.176 102.382 308.448 102.818L307.632 103.634C307.523 103.743 307.523 103.907 307.632 104.07L308.557 104.996C308.666 105.105 308.83 105.105 308.993 104.996L309.81 104.179C310.191 104.397 310.627 104.615 311.117 104.724V105.867C311.117 106.031 311.226 106.14 311.389 106.14H312.697C312.86 106.14 312.969 106.031 312.969 105.867V104.724C313.405 104.615 313.84 104.451 314.276 104.179L315.093 104.996C315.202 105.105 315.365 105.105 315.529 104.996L316.455 104.07C316.563 103.961 316.563 103.798 316.455 103.634L315.638 102.818C315.855 102.436 316.073 102.001 316.182 101.51H317.326C317.489 101.51 317.598 101.401 317.598 101.238V99.931C317.544 99.7676 317.38 99.6586 317.217 99.6586ZM311.989 102.382C311.008 102.382 310.191 101.565 310.191 100.585C310.191 99.6042 311.008 98.7872 311.989 98.7872C312.969 98.7872 313.786 99.6042 313.786 100.585C313.786 101.565 312.969 102.382 311.989 102.382Z" fill="#DBE9FF"/>
<path d="M311.989 98.0801C310.627 98.0801 309.483 99.2238 309.483 100.585C309.483 101.947 310.627 103.091 311.989 103.091C313.35 103.091 314.494 101.947 314.494 100.585C314.494 99.2238 313.35 98.0801 311.989 98.0801ZM311.989 102.11C311.172 102.11 310.464 101.402 310.464 100.585C310.464 99.7684 311.172 99.0604 311.989 99.0604C312.806 99.0604 313.514 99.7684 313.514 100.585C313.514 101.402 312.806 102.11 311.989 102.11Z" fill="#ADC804"/>
<path d="M206.932 50.7372C218.598 46.0462 224.252 32.7868 219.561 21.1215C214.87 9.45625 201.61 3.80248 189.945 8.49349C178.28 13.1845 172.626 26.4439 177.317 38.1092C182.008 49.7744 195.267 55.4282 206.932 50.7372Z" fill="#462682"/>
<path d="M187.105 41.3284H209.707C210.688 41.3284 211.505 40.5114 211.505 39.5311V20.6869C211.505 19.7066 210.688 18.8896 209.707 18.8896H187.105C186.125 18.8896 185.308 19.7066 185.308 20.6869V39.4766C185.308 40.5114 186.125 41.3284 187.105 41.3284Z" fill="white"/>
<path d="M185.308 23.5735H211.505V20.6869C211.505 19.7066 210.688 18.8896 209.707 18.8896H187.105C186.125 18.8896 185.308 19.7066 185.308 20.6869V23.5735Z" fill="#ADC804"/>
<path d="M205.241 19.9272C205.514 19.9272 205.786 19.7094 205.786 19.3826V18.4567C205.786 18.1844 205.568 17.9121 205.241 17.9121C204.969 17.9121 204.697 18.13 204.697 18.4567V19.3826C204.697 19.6549 204.969 19.9272 205.241 19.9272Z" fill="white"/>
<path d="M206.767 19.9272C207.039 19.9272 207.311 19.7094 207.311 19.3826V18.4567C207.311 18.1844 207.093 17.9121 206.767 17.9121C206.494 17.9121 206.222 18.13 206.222 18.4567V19.3826C206.222 19.6549 206.494 19.9272 206.767 19.9272Z" fill="white"/>
<path d="M190.047 19.9272C190.319 19.9272 190.591 19.7094 190.591 19.3826V18.4567C190.591 18.1844 190.373 17.9121 190.047 17.9121C189.774 17.9121 189.502 18.13 189.502 18.4567V19.3826C189.502 19.6549 189.774 19.9272 190.047 19.9272Z" fill="white"/>
<path d="M191.571 19.9272C191.844 19.9272 192.116 19.7094 192.116 19.3826V18.4567C192.116 18.1844 191.898 17.9121 191.571 17.9121C191.299 17.9121 191.027 18.13 191.027 18.4567V19.3826C191.027 19.6549 191.299 19.9272 191.571 19.9272Z" fill="white"/>
<path d="M200.067 28.638H201.483C201.701 28.638 201.919 28.4202 201.919 28.2023V26.7863C201.919 26.5684 201.701 26.3506 201.483 26.3506H200.067C199.849 26.3506 199.632 26.5684 199.632 26.7863V28.2023C199.632 28.4746 199.849 28.638 200.067 28.638Z" fill="#DEE8A1"/>
<path d="M194.675 28.638H196.091C196.309 28.638 196.527 28.4202 196.527 28.2023V26.7863C196.527 26.5684 196.309 26.3506 196.091 26.3506H194.675C194.457 26.3506 194.24 26.5684 194.24 26.7863V28.2023C194.24 28.4746 194.403 28.638 194.675 28.638Z" fill="#DEE8A1"/>
<path d="M189.283 28.638H190.699C190.917 28.638 191.135 28.4202 191.135 28.2023V26.7863C191.135 26.5684 190.917 26.3506 190.699 26.3506H189.283C189.066 26.3506 188.848 26.5684 188.848 26.7863V28.2023C188.848 28.4746 189.011 28.638 189.283 28.638Z" fill="#DEE8A1"/>
<path d="M205.459 33.3216H206.875C207.093 33.3216 207.311 33.1038 207.311 32.8859V31.4699C207.311 31.252 207.093 31.0342 206.875 31.0342H205.459C205.241 31.0342 205.023 31.252 205.023 31.4699V32.8859C205.023 33.1038 205.241 33.3216 205.459 33.3216Z" fill="#DEE8A1"/>
<path d="M200.067 33.3216H201.483C201.701 33.3216 201.919 33.1038 201.919 32.8859V31.4699C201.919 31.252 201.701 31.0342 201.483 31.0342H200.067C199.849 31.0342 199.632 31.252 199.632 31.4699V32.8859C199.632 33.1038 199.849 33.3216 200.067 33.3216Z" fill="#DEE8A1"/>
<path d="M194.675 33.3216H196.091C196.309 33.3216 196.527 33.1038 196.527 32.8859V31.4699C196.527 31.252 196.309 31.0342 196.091 31.0342H194.675C194.457 31.0342 194.24 31.252 194.24 31.4699V32.8859C194.24 33.1038 194.403 33.3216 194.675 33.3216Z" fill="#DEE8A1"/>
<path d="M189.283 33.3216H190.699C190.917 33.3216 191.135 33.1038 191.135 32.8859V31.4699C191.135 31.252 190.917 31.0342 190.699 31.0342H189.283C189.066 31.0342 188.848 31.252 188.848 31.4699V32.8859C188.848 33.1038 189.011 33.3216 189.283 33.3216Z" fill="#DEE8A1"/>
<path d="M205.459 37.9525H206.875C207.093 37.9525 207.311 37.7346 207.311 37.5168V36.1007C207.311 35.8829 207.093 35.665 206.875 35.665H205.459C205.241 35.665 205.023 35.8829 205.023 36.1007V37.5168C205.023 37.7346 205.241 37.9525 205.459 37.9525Z" fill="#DEE8A1"/>
<path d="M200.067 37.9525H201.483C201.701 37.9525 201.919 37.7346 201.919 37.5168V36.1007C201.919 35.8829 201.701 35.665 201.483 35.665H200.067C199.849 35.665 199.632 35.8829 199.632 36.1007V37.5168C199.632 37.7346 199.849 37.9525 200.067 37.9525Z" fill="#DEE8A1"/>
<path d="M194.675 37.9525H196.091C196.309 37.9525 196.527 37.7346 196.527 37.5168V36.1007C196.527 35.8829 196.309 35.665 196.091 35.665H194.675C194.457 35.665 194.24 35.8829 194.24 36.1007V37.5168C194.24 37.7346 194.403 37.9525 194.675 37.9525Z" fill="#DEE8A1"/>
<path d="M279.68 57.411C288.57 48.5206 288.57 34.1064 279.68 25.216C270.79 16.3256 256.375 16.3256 247.485 25.216C238.595 34.1064 238.595 48.5206 247.485 57.411C256.375 66.3014 270.79 66.3014 279.68 57.411Z" fill="#462682"/>
<path d="M274.597 52.3275C280.68 46.2446 280.68 36.3823 274.597 30.2994C268.514 24.2165 258.651 24.2165 252.569 30.2994C246.486 36.3823 246.486 46.2446 252.569 52.3276C258.651 58.4105 268.514 58.4104 274.597 52.3275Z" fill="white"/>
<path d="M263.571 25.6982C254.966 25.6982 247.995 32.6695 247.995 41.2746C247.995 49.8798 254.966 56.8511 263.571 56.8511C272.176 56.8511 279.147 49.8798 279.147 41.2746C279.147 32.6695 272.176 25.6982 263.571 25.6982ZM264.878 54.5636V52.4396C264.878 52.0583 264.551 51.7315 264.17 51.7315H262.972C262.591 51.7315 262.264 52.0583 262.264 52.4396V54.5636C255.946 53.9645 250.881 48.8995 250.282 42.5818H252.406C252.787 42.5818 253.114 42.255 253.114 41.8737V40.73C253.114 40.3488 252.787 40.022 252.406 40.022H250.282C250.881 33.7043 255.946 28.6392 262.264 28.0401V30.1642C262.264 30.5454 262.591 30.8722 262.972 30.8722H264.17C264.551 30.8722 264.878 30.5454 264.878 30.1642V28.0401C271.196 28.6392 276.261 33.7043 276.86 40.022H274.736C274.355 40.022 274.028 40.3488 274.028 40.73V41.9282C274.028 42.3094 274.355 42.6362 274.736 42.6362H276.86C276.206 48.9539 271.196 53.9645 264.878 54.5636Z" fill="#ADC804"/>
<path d="M256.256 37.48C255.032 37.48 254.3 38.2 254.3 39.436V40.012L255.524 40.072V39.652C255.524 38.944 255.764 38.656 256.232 38.656C256.7 38.656 256.94 38.944 256.94 39.496V39.664C256.94 40.348 256.772 40.936 256.184 41.884L254.3 44.92V46H258.212V44.8H255.752L257.168 42.532C257.972 41.236 258.212 40.528 258.212 39.712V39.4C258.212 38.188 257.48 37.48 256.256 37.48ZM262.37 43.048V37.6H261.11L258.434 43.168V44.224H261.098V46H262.37V44.224H262.958V43.048H262.37ZM261.074 40.048H261.098V43.048H259.682L261.074 40.048ZM264.459 46.6L267.483 37H266.451L263.427 46.6H264.459ZM271.803 38.728V37.6H267.867V38.848H270.507L268.143 46H269.451L271.803 38.728Z" fill="#5F22E2"/>
</svg>
