<svg width="223" height="145" viewBox="0 0 223 145" fill="none" xmlns="http://www.w3.org/2000/svg">
<g clip-path="url(#clip0_10873_13449)">
<path d="M102.933 28.1491C104.614 24.5576 106.74 21.0918 109.416 17.8206C130.42 -7.88622 171.691 -5.71873 195.897 15.0011C222.738 37.98 220.257 76.6517 219.708 83.2629C217.799 106.253 205.867 143.667 178.426 151.29C165.677 154.83 153.511 150.85 142.9 143.461C134.519 137.628 123.468 138.171 115.47 145.011C112.446 147.596 109.073 149.786 105.323 151.33C96.8443 154.836 89.2921 153.898 86.022 153.446C60.53 149.952 35.6325 120.922 35.8669 93.7744C36.1299 62.6288 69.4542 38.7349 102.933 28.1491Z" fill="#F5EDFF"/>
<path fill-rule="evenodd" clip-rule="evenodd" d="M103.735 43.2922C103.735 42.4952 103.428 41.7415 102.866 41.1762C102.304 40.6178 101.544 40.3066 100.752 40.3066H48.7761C47.9846 40.3066 47.2241 40.6178 46.6624 41.1762C46.1007 41.7415 45.7861 42.4952 45.7861 43.2922V76.1207C45.7861 76.9107 46.1007 77.6713 46.6624 78.228C47.2241 78.7933 47.9846 79.1045 48.7761 79.1045H100.754C101.546 79.1045 102.306 78.7933 102.868 78.228C103.429 77.6713 103.737 76.9107 103.737 76.1207V43.2922H103.735Z" fill="#28164A"/>
<path fill-rule="evenodd" clip-rule="evenodd" d="M96.9876 19.0454C96.9876 17.6762 95.8797 16.5664 94.5074 16.5664H55.2656C53.8933 16.5664 52.7803 17.6762 52.7803 19.0454V45.2373C52.7803 45.2373 66.505 55.5907 72.3277 59.9817C73.84 61.1261 75.9278 61.1261 77.4401 59.9817C83.2629 55.5907 96.9876 45.2373 96.9876 45.2373V19.0454Z" fill="white"/>
<path fill-rule="evenodd" clip-rule="evenodd" d="M97.3508 19.0456C97.3508 17.4759 96.0719 16.207 94.5077 16.207H55.266C53.6949 16.207 52.4229 17.4759 52.4229 19.0456V45.2376C52.4229 45.3551 52.4764 45.4554 52.5698 45.5211C52.5698 45.5211 66.2893 55.8831 72.112 60.2654C73.7539 61.5101 76.0163 61.5101 77.6582 60.2654C83.481 55.8813 97.2057 45.5211 97.2057 45.5211C97.299 45.4536 97.3526 45.3534 97.3526 45.2376V19.0456H97.3508ZM96.6301 19.0456V45.0612C95.1645 46.1641 82.6998 55.5736 77.2296 59.6966C75.84 60.7408 73.9285 60.7408 72.5389 59.6966L53.1367 45.0612V19.0456C53.1367 17.877 54.0924 16.9158 55.266 16.9158H94.5077C95.6796 16.9158 96.6301 17.8753 96.6301 19.0456Z" fill="#28164A"/>
<path fill-rule="evenodd" clip-rule="evenodd" d="M46.6316 41.0532C46.6316 41.0532 65.1541 55.0282 72.0934 60.2524C73.7422 61.5006 76.027 61.5006 77.6759 60.2524C84.6065 55.0282 103.138 41.0532 103.138 41.0532C103.288 40.9322 103.323 40.7074 103.205 40.5501C103.088 40.3945 102.861 40.36 102.702 40.481C102.702 40.481 84.1796 54.456 77.249 59.6802C75.8507 60.7365 73.9185 60.7365 72.5203 59.6802C65.5896 54.456 47.0671 40.481 47.0671 40.481C46.9081 40.36 46.6817 40.3945 46.5642 40.5501C46.4466 40.7057 46.4726 40.9322 46.6316 41.0532Z" fill="white"/>
<path fill-rule="evenodd" clip-rule="evenodd" d="M59.6678 32.1423H89.8134C90.0208 32.1423 90.1832 31.9798 90.1832 31.7724C90.1832 31.5805 90.0208 31.418 89.8134 31.418H59.6678C59.4759 31.418 59.3135 31.5805 59.3135 31.7724C59.3135 31.9798 59.4759 32.1423 59.6678 32.1423Z" fill="#462682"/>
<path fill-rule="evenodd" clip-rule="evenodd" d="M59.6678 38.4489H89.8134C90.0208 38.4489 90.1832 38.2864 90.1832 38.079C90.1832 37.8871 90.0208 37.7246 89.8134 37.7246H59.6678C59.4759 37.7246 59.3135 37.8871 59.3135 38.079C59.3135 38.2864 59.4759 38.4489 59.6678 38.4489Z" fill="#462682"/>
<path fill-rule="evenodd" clip-rule="evenodd" d="M59.6678 44.7439H89.8134C90.0208 44.7439 90.1832 44.5814 90.1832 44.3739C90.1832 44.182 90.0208 44.0195 89.8134 44.0195H59.6678C59.4759 44.0195 59.3135 44.182 59.3135 44.3739C59.3135 44.5814 59.4759 44.7439 59.6678 44.7439Z" fill="#462682"/>
<path fill-rule="evenodd" clip-rule="evenodd" d="M99.0429 64.405L100.612 67.2297C100.709 67.4078 100.927 67.4666 101.098 67.3715C101.269 67.2764 101.335 67.0551 101.238 66.8857L99.6686 64.0523C99.5718 63.8829 99.354 63.8155 99.1829 63.9106C99.0118 64.0126 98.9461 64.2269 99.0429 64.405Z" fill="#28164A"/>
<path fill-rule="evenodd" clip-rule="evenodd" d="M51.0294 14.4579L41.2315 4.65775C41.0915 4.51773 40.8651 4.51773 40.7251 4.65775C40.5851 4.79778 40.5851 5.02425 40.7251 5.16427L50.523 14.9644C50.663 15.1045 50.8894 15.1045 51.0294 14.9644C51.1694 14.8244 51.1694 14.5979 51.0294 14.4579Z" fill="#462682"/>
<path fill-rule="evenodd" clip-rule="evenodd" d="M55.2585 10.1268L53.321 2.89382C53.2692 2.70366 53.0739 2.58957 52.882 2.64143C52.6919 2.69329 52.5779 2.88864 52.6297 3.0788L54.5672 10.3118C54.619 10.5037 54.8143 10.616 55.0062 10.5642C55.1963 10.5123 55.3103 10.317 55.2585 10.1268Z" fill="#462682"/>
<path fill-rule="evenodd" clip-rule="evenodd" d="M46.3766 18.5064L38.5611 16.4129C38.371 16.3611 38.174 16.4752 38.1238 16.6653C38.072 16.8555 38.1861 17.0525 38.3762 17.1044L46.1917 19.1979C46.3818 19.2498 46.5789 19.1357 46.6307 18.9455C46.6826 18.7553 46.5685 18.5583 46.3766 18.5064Z" fill="#462682"/>
<path fill-rule="evenodd" clip-rule="evenodd" d="M154.047 34.2507C154.769 34.3424 155.492 34.4046 156.207 34.4426C156.406 34.4582 156.575 34.3043 156.584 34.1038C156.591 33.9033 156.446 33.7425 156.245 33.7269C155.545 33.6958 154.847 33.6267 154.132 33.542C153.94 33.5108 153.755 33.6492 153.732 33.8497C153.71 34.0416 153.848 34.2265 154.047 34.249V34.2507ZM160.549 34.3424C161.28 34.2646 162.002 34.166 162.701 34.0347C162.901 33.9966 163.033 33.8116 162.993 33.6198C162.955 33.4279 162.77 33.2965 162.578 33.3276C161.887 33.459 161.187 33.5575 160.48 33.6267C160.281 33.6422 160.143 33.8186 160.157 34.0191C160.181 34.211 160.357 34.3579 160.549 34.3424ZM147.714 32.7433C148.406 32.9888 149.099 33.2049 149.79 33.3968C149.975 33.4434 150.174 33.3345 150.227 33.1426C150.281 32.9507 150.167 32.7589 149.973 32.7053C149.306 32.5203 148.629 32.3059 147.953 32.0674C147.768 32.0051 147.56 32.1054 147.5 32.2904C147.431 32.4753 147.529 32.6828 147.714 32.7433ZM166.906 32.9283C167.597 32.6897 168.273 32.42 168.935 32.1365C169.111 32.0518 169.196 31.8444 169.12 31.6594C169.035 31.4831 168.828 31.3983 168.643 31.4744C168.005 31.7579 167.343 32.0207 166.674 32.2506C166.482 32.3198 166.391 32.5203 166.453 32.7122C166.522 32.8972 166.721 32.9974 166.906 32.9283ZM141.812 30.0309C142.45 30.3991 143.088 30.738 143.725 31.0526C143.902 31.1442 144.111 31.0751 144.202 30.8987C144.287 30.7224 144.218 30.5063 144.042 30.4147C143.418 30.107 142.795 29.7682 142.166 29.4155C141.997 29.3152 141.774 29.3775 141.681 29.5469C141.582 29.7163 141.643 29.9393 141.812 30.0309ZM172.761 30.0776C173.377 29.6783 173.968 29.2547 174.538 28.8174C174.69 28.7015 174.721 28.4785 174.605 28.3178C174.483 28.1639 174.26 28.1328 174.099 28.2555C173.546 28.6791 172.969 29.0853 172.371 29.4708C172.208 29.578 172.155 29.801 172.262 29.9704C172.369 30.1312 172.592 30.1865 172.761 30.0776ZM136.432 26.4576C136.931 26.7878 137.431 27.1422 137.93 27.5104C138.015 27.564 138.093 27.6263 138.177 27.6799C138.338 27.7957 138.561 27.7646 138.677 27.6021C138.791 27.4413 138.753 27.2183 138.592 27.1025C138.514 27.0402 138.438 26.9866 138.361 26.9261C137.846 26.5493 137.332 26.1949 136.824 25.8647C136.655 25.7489 136.432 25.7955 136.325 25.965C136.217 26.1257 136.262 26.3487 136.432 26.4576ZM177.749 25.8889C178.249 25.3513 178.719 24.7981 179.163 24.2276C179.279 24.0737 179.248 23.8438 179.096 23.728C178.942 23.6052 178.71 23.6364 178.594 23.7902C178.164 24.3434 177.711 24.881 177.227 25.4049C177.096 25.5518 177.105 25.7748 177.25 25.9131C177.388 26.0445 177.62 26.0358 177.749 25.8906V25.8889ZM106.397 25.6037C106.397 25.6037 107.043 25.1576 108.218 24.5578C108.388 24.4731 108.464 24.2587 108.372 24.0806C108.281 23.9043 108.065 23.8352 107.888 23.9199C106.666 24.5509 105.989 25.0193 105.989 25.0193C105.828 25.1265 105.781 25.3495 105.897 25.512C106.013 25.6814 106.236 25.7195 106.397 25.6037ZM130.799 23.4981C131.444 23.7522 132.09 24.0443 132.743 24.359C132.92 24.4437 133.134 24.3659 133.219 24.1896C133.303 24.0132 133.234 23.7971 133.058 23.7124C132.389 23.3892 131.72 23.097 131.067 22.836C130.884 22.7599 130.676 22.8515 130.606 23.0365C130.529 23.2128 130.621 23.4289 130.799 23.4981ZM112.13 22.9449C112.767 22.7374 113.443 22.5369 114.166 22.3606C114.357 22.3139 114.473 22.1151 114.427 21.9232C114.38 21.7313 114.181 21.6155 113.996 21.6622C113.251 21.8471 112.558 22.0546 111.905 22.262C111.713 22.3225 111.613 22.5317 111.675 22.715C111.737 22.9068 111.936 23.0071 112.128 22.9466L112.13 22.9449ZM124.681 21.8298C125.365 21.9301 126.057 22.0598 126.763 22.2292C126.955 22.2759 127.149 22.1531 127.194 21.9595C127.232 21.7676 127.118 21.5757 126.926 21.529C126.203 21.3596 125.488 21.23 124.788 21.1211C124.587 21.0899 124.411 21.2282 124.38 21.4201C124.349 21.6207 124.487 21.797 124.679 21.8281L124.681 21.8298ZM118.34 21.6535C119.024 21.5913 119.731 21.5532 120.46 21.5463C120.652 21.5377 120.815 21.3769 120.815 21.185C120.808 20.9845 120.645 20.8237 120.453 20.8324C119.708 20.8393 118.977 20.879 118.277 20.9395C118.077 20.9551 117.932 21.1314 117.954 21.332C117.97 21.5239 118.146 21.6708 118.338 21.6552L118.34 21.6535Z" fill="black"/>
<path fill-rule="evenodd" clip-rule="evenodd" d="M104.283 120.061C103.168 120.061 102.263 120.968 102.263 122.083C102.263 123.198 103.17 124.111 104.283 124.111C105.396 124.111 106.312 123.205 106.312 122.083C106.312 120.961 105.405 120.061 104.283 120.061ZM104.283 120.776C105.012 120.776 105.597 121.361 105.597 122.083C105.597 122.806 105.012 123.397 104.283 123.397C103.554 123.397 102.976 122.813 102.976 122.083C102.976 121.354 103.561 120.776 104.283 120.776Z" fill="#462682"/>
<path fill-rule="evenodd" clip-rule="evenodd" d="M194.48 64.8379C193.603 64.8379 192.903 65.5467 192.903 66.4145C192.903 67.2823 193.603 67.9911 194.48 67.9911C195.356 67.9911 196.054 67.2823 196.054 66.4145C196.054 65.5467 195.345 64.8379 194.48 64.8379ZM194.48 65.5553C194.951 65.5553 195.337 65.9408 195.337 66.4128C195.337 66.8847 194.951 67.2702 194.48 67.2702C194.008 67.2702 193.612 66.8847 193.612 66.4128C193.612 65.9408 193.997 65.5553 194.48 65.5553Z" fill="#28164A"/>
<path fill-rule="evenodd" clip-rule="evenodd" d="M183.193 49.25L192.663 44.8676C192.839 44.7829 192.915 44.5686 192.839 44.3905C192.755 44.2055 192.539 44.1295 192.362 44.2142L182.894 48.6034C182.716 48.6881 182.64 48.8956 182.725 49.0805C182.801 49.2569 183.017 49.3347 183.193 49.25Z" fill="#462682"/>
<path fill-rule="evenodd" clip-rule="evenodd" d="M188.695 6.66828C188.729 6.52825 188.678 6.38823 188.565 6.29833C188.453 6.21362 188.303 6.20325 188.178 6.27067L170.862 15.7476C170.744 15.815 170.672 15.9498 170.677 16.0898C170.689 16.2247 170.779 16.3474 170.914 16.3993L177.507 18.8541L184.336 22.7973C184.433 22.8543 184.55 22.8647 184.657 22.8198C184.758 22.7748 184.837 22.6849 184.86 22.5726L188.695 6.66828ZM187.813 7.28543L184.276 21.9364L177.839 18.2179C177.822 18.2075 177.805 18.1954 177.782 18.1902L171.895 16L187.813 7.28716V7.28543Z" fill="#ACC737"/>
<path fill-rule="evenodd" clip-rule="evenodd" d="M178.08 18.7256L188.353 7.11378C188.488 6.96857 188.471 6.74383 188.325 6.60899C188.178 6.47934 187.949 6.49663 187.819 6.64184L177.541 18.2537C177.413 18.4006 177.423 18.6306 177.575 18.7602C177.72 18.8899 177.945 18.8778 178.08 18.7274V18.7256Z" fill="#ACC737"/>
<path fill-rule="evenodd" clip-rule="evenodd" d="M68.8529 144.31C69.8262 144.366 70.8307 144.397 71.8544 144.406C72.1332 144.406 72.3567 144.192 72.3567 143.916C72.3567 143.64 72.1332 143.414 71.864 143.414C70.8475 143.402 69.8646 143.37 68.9034 143.318C68.6246 143.306 68.3891 143.519 68.3795 143.786C68.3579 144.065 68.5717 144.301 68.8505 144.31H68.8529ZM77.8622 144.204C78.8451 144.13 79.84 144.034 80.8541 143.916C81.1329 143.882 81.3252 143.637 81.2915 143.361C81.2603 143.092 81.0152 142.89 80.7364 142.921C79.7415 143.039 78.7586 143.135 77.7877 143.209C77.509 143.231 77.3071 143.467 77.3288 143.745C77.3504 144.012 77.5955 144.226 77.8622 144.204ZM59.8988 143.156C60.8601 143.358 61.855 143.541 62.8691 143.702C63.1359 143.745 63.393 143.553 63.4362 143.284C63.4795 143.007 63.2873 142.76 63.0181 142.719C62.0136 142.558 61.0523 142.387 60.1007 142.183C59.834 142.13 59.5672 142.301 59.5119 142.568C59.4591 142.846 59.6297 143.104 59.8964 143.156H59.8988ZM86.7947 143.017C87.7559 142.837 88.7388 142.632 89.7337 142.409C90.0005 142.354 90.1711 142.087 90.1086 141.82C90.0557 141.553 89.789 141.383 89.5198 141.435C88.5369 141.659 87.5637 141.851 86.6024 142.034C86.3357 142.087 86.153 142.344 86.2059 142.611C86.2588 142.89 86.5159 143.06 86.7923 143.017H86.7947ZM51.2428 140.58C52.1608 140.945 53.1028 141.286 54.0857 141.606C54.3428 141.693 54.6192 141.553 54.7057 141.286C54.7922 141.029 54.6528 140.753 54.3957 140.666C53.4344 140.347 52.5044 140.015 51.6177 139.652C51.3605 139.553 51.0721 139.683 50.9664 139.94C50.8703 140.195 50.988 140.484 51.2452 140.58H51.2428ZM95.5469 140.976C96.4985 140.719 97.4598 140.462 98.433 140.195C98.6998 140.121 98.8584 139.854 98.7839 139.587C98.7094 139.32 98.433 139.159 98.1759 139.234C97.2026 139.5 96.2414 139.758 95.2897 140.003C95.023 140.077 94.862 140.356 94.9365 140.613C95.0134 140.88 95.2801 141.041 95.5469 140.976ZM104.191 138.582C105.133 138.315 106.094 138.037 107.055 137.758C107.322 137.674 107.474 137.407 107.399 137.14C107.322 136.871 107.046 136.722 106.779 136.796C105.815 137.075 104.866 137.352 103.915 137.63C103.648 137.705 103.496 137.972 103.573 138.239C103.648 138.508 103.924 138.657 104.191 138.582ZM43.1851 136.508C44.0069 137.032 44.8745 137.534 45.7828 138.037C46.028 138.164 46.3284 138.068 46.4557 137.835C46.5951 137.587 46.499 137.289 46.2635 137.159C45.3647 136.669 44.5212 136.176 43.7089 135.664C43.4734 135.525 43.1634 135.59 43.0241 135.825C42.8751 136.058 42.9496 136.368 43.1851 136.508ZM112.794 136.07C113.734 135.792 114.697 135.503 115.647 135.215C115.916 135.14 116.065 134.861 115.99 134.595C115.904 134.337 115.627 134.188 115.37 134.263C114.409 134.551 113.457 134.83 112.506 135.119C112.239 135.193 112.09 135.472 112.174 135.727C112.249 135.996 112.527 136.145 112.794 136.07ZM121.376 133.515C122.327 133.227 123.279 132.948 124.24 132.66C124.495 132.585 124.646 132.306 124.572 132.039C124.495 131.785 124.219 131.633 123.952 131.708C123 131.999 122.039 132.275 121.087 132.563C120.83 132.638 120.681 132.917 120.756 133.174C120.83 133.441 121.109 133.59 121.376 133.515ZM36.0141 130.994C36.7086 131.645 37.456 132.318 38.2803 132.991C38.4942 133.162 38.8138 133.131 38.9868 132.917C39.1574 132.703 39.1262 132.393 38.9219 132.222C38.1096 131.559 37.3719 130.907 36.699 130.278C36.4947 130.085 36.1871 130.095 35.9949 130.299C35.8026 130.491 35.8123 130.811 36.0165 130.994H36.0141ZM129.967 130.982C130.919 130.705 131.87 130.427 132.831 130.148C133.089 130.073 133.247 129.797 133.173 129.54C133.098 129.273 132.819 129.121 132.553 129.196C131.591 129.475 130.64 129.742 129.691 130.02C129.421 130.107 129.272 130.383 129.347 130.641C129.421 130.907 129.7 131.056 129.967 130.982ZM138.57 128.523C139.531 128.256 140.483 127.999 141.444 127.732C141.711 127.658 141.872 127.391 141.798 127.124C141.723 126.857 141.444 126.706 141.187 126.771C140.226 127.037 139.265 127.304 138.303 127.573C138.034 127.636 137.885 127.915 137.96 128.182C138.037 128.448 138.303 128.6 138.57 128.523ZM30.1481 124.076C30.1481 124.076 30.7152 125.05 31.912 126.569C32.0826 126.783 32.4046 126.814 32.6161 126.643C32.83 126.473 32.8612 126.162 32.6906 125.949C31.5467 124.494 31.0036 123.574 31.0036 123.574C30.8642 123.341 30.5662 123.254 30.3307 123.393C30.0856 123.533 30.0111 123.843 30.1481 124.076ZM147.214 126.203C148.178 125.958 149.139 125.713 150.1 125.468C150.367 125.403 150.528 125.136 150.463 124.869C150.398 124.6 150.122 124.441 149.855 124.504C148.894 124.739 147.93 124.985 146.959 125.242C146.69 125.307 146.532 125.586 146.606 125.852C146.669 126.107 146.947 126.268 147.214 126.203ZM155.892 124.076C156.865 123.853 157.836 123.629 158.8 123.415C159.076 123.362 159.237 123.093 159.184 122.826C159.119 122.559 158.862 122.389 158.586 122.442C157.625 122.655 156.651 122.879 155.668 123.105C155.402 123.167 155.241 123.437 155.306 123.704C155.358 123.97 155.625 124.131 155.892 124.076ZM208.703 121.865C209.645 122.175 210.563 122.528 211.462 122.901C211.717 123.009 212.005 122.891 212.113 122.646C212.219 122.389 212.101 122.1 211.846 121.992C210.938 121.598 209.986 121.245 209.025 120.925C208.756 120.829 208.48 120.978 208.393 121.235C208.309 121.49 208.448 121.778 208.703 121.865ZM164.634 122.206C165.617 122.014 166.588 121.833 167.561 121.66C167.84 121.607 168.011 121.353 167.968 121.083C167.915 120.807 167.658 120.636 167.391 120.677C166.408 120.86 165.435 121.043 164.452 121.235C164.173 121.288 164.002 121.545 164.055 121.812C164.111 122.079 164.368 122.259 164.634 122.206ZM173.44 120.699C174.432 120.55 175.417 120.422 176.388 120.293C176.667 120.261 176.859 120.004 176.816 119.737C176.785 119.459 176.537 119.266 176.261 119.31C175.278 119.427 174.293 119.567 173.3 119.716C173.021 119.749 172.841 120.004 172.872 120.271C172.916 120.55 173.173 120.742 173.44 120.699ZM200.069 119.908C201.064 120.048 202.037 120.209 202.998 120.389C203.265 120.444 203.522 120.261 203.575 119.995C203.628 119.728 203.445 119.459 203.178 119.406C202.207 119.225 201.213 119.064 200.208 118.925C199.941 118.882 199.684 119.074 199.653 119.353C199.61 119.62 199.802 119.877 200.069 119.908ZM182.31 119.673C183.302 119.588 184.297 119.524 185.268 119.471C185.547 119.449 185.76 119.213 185.739 118.947C185.729 118.668 185.494 118.456 185.215 118.475C184.232 118.531 183.228 118.593 182.223 118.68C181.944 118.701 181.742 118.947 181.764 119.213C181.795 119.492 182.031 119.694 182.31 119.673ZM191.211 119.322C192.203 119.322 193.198 119.353 194.171 119.396C194.448 119.406 194.683 119.192 194.693 118.915C194.705 118.649 194.491 118.413 194.212 118.401C193.229 118.358 192.225 118.326 191.211 118.326C190.944 118.317 190.718 118.54 190.718 118.819C190.708 119.086 190.932 119.31 191.211 119.322Z" fill="black"/>
<path fill-rule="evenodd" clip-rule="evenodd" d="M13.7293 95.11C13.5634 95.0162 13.3496 95.0259 13.191 95.146C13.0324 95.2662 12.9675 95.4705 13.0155 95.6556L19.3454 121.952C19.3838 122.101 19.4944 122.231 19.6338 122.286C19.7827 122.351 19.9486 122.341 20.0807 122.26L31.3779 115.741L42.2857 111.674C42.4611 111.609 42.5933 111.441 42.6005 111.246C42.6197 111.051 42.5164 110.866 42.3506 110.772L13.7317 95.11H13.7293ZM14.2387 96.5209C14.2387 96.5209 36.0447 108.46 40.9087 111.126L30.9837 114.82C30.9549 114.83 30.9381 114.839 30.9092 114.859L20.16 121.07L14.2363 96.5209H14.2387Z" fill="#ACC737"/>
<path fill-rule="evenodd" clip-rule="evenodd" d="M31.2824 114.896L14.2947 95.7047C14.1193 95.5004 13.8021 95.4715 13.5978 95.6566C13.3935 95.8441 13.3647 96.159 13.5521 96.3633L30.5399 115.554C30.7153 115.759 31.0325 115.778 31.2368 115.593C31.4507 115.417 31.4699 115.1 31.2824 114.896Z" fill="#ACC737"/>
<path fill-rule="evenodd" clip-rule="evenodd" d="M30.2805 115.333L27.3751 121.275L25.2219 118.667C25.0465 118.453 24.7293 118.424 24.5154 118.592C24.3015 118.768 24.2751 119.083 24.4505 119.297L27.0964 122.501C27.2069 122.63 27.3751 122.695 27.5409 122.676C27.7068 122.659 27.8558 122.556 27.9302 122.407L31.1697 115.768C31.2898 115.528 31.1889 115.229 30.9462 115.109C30.6962 114.989 30.3983 115.09 30.2781 115.333H30.2805Z" fill="#ACC737"/>
<path fill-rule="evenodd" clip-rule="evenodd" d="M177.598 18.8496L179.563 22.8603C179.62 22.9674 179.727 23.0452 179.845 23.0573C179.967 23.0746 180.087 23.0228 180.164 22.9277L181.765 20.9898C181.889 20.8376 181.867 20.6129 181.715 20.4902C181.563 20.3605 181.338 20.383 181.215 20.5351L179.962 22.046L178.244 18.535C178.154 18.3552 177.94 18.2826 177.765 18.3673C177.586 18.4572 177.513 18.6698 177.598 18.8496Z" fill="#ACC737"/>
<path fill-rule="evenodd" clip-rule="evenodd" d="M212.833 80.423C212.532 79.301 211.383 78.6389 210.259 78.9397C206.052 80.0668 196.42 82.6478 192.21 83.7767C191.09 84.0775 190.425 85.2271 190.726 86.349C191.483 89.1755 192.846 94.2666 193.603 97.0931C193.902 98.2116 195.055 98.8771 196.175 98.5781C200.385 97.4492 210.017 94.8682 214.224 93.7393C215.347 93.4385 216.009 92.2872 215.71 91.1687C214.953 88.3405 213.59 83.2512 212.833 80.423Z" fill="#28164A"/>
<path fill-rule="evenodd" clip-rule="evenodd" d="M190.687 84.9025C190.687 84.9025 198.513 88.0695 201.856 89.4196C202.881 89.8363 204.059 89.5199 204.739 88.6469C206.951 85.8152 212.119 79.1942 212.119 79.1942C212.241 79.0403 212.212 78.8156 212.056 78.6946C211.901 78.5736 211.674 78.6013 211.552 78.7551L204.177 88.2061C203.693 88.8284 202.853 89.0531 202.124 88.7558L190.955 84.2404C190.774 84.1678 190.565 84.2559 190.49 84.4374C190.416 84.6207 190.504 84.8316 190.687 84.9025Z" fill="white"/>
<path fill-rule="evenodd" clip-rule="evenodd" d="M127.361 39.927C127.361 39.927 128.305 45.3621 129.375 47.7754C129.375 47.7754 127.631 53.1171 131.311 52.0108C131.311 52.0108 134.299 60.5282 142.268 56.5383L143.679 60.7512L158.862 58.0371L155.469 49.7116L147.794 36.1895L127.361 39.9252V39.927Z" fill="white"/>
<path fill-rule="evenodd" clip-rule="evenodd" d="M127.29 39.5743C127.1 39.6123 126.972 39.7973 127.005 39.9891C127.005 39.9891 127.94 45.3015 128.994 47.7995C128.884 48.1764 128.59 49.2914 128.606 50.3131C128.621 51.174 128.884 51.9502 129.525 52.3115C129.891 52.512 130.398 52.5968 131.096 52.4429C131.525 53.449 133.118 56.6714 136.281 57.6619C137.819 58.146 139.731 58.1149 142.054 57.0396L143.338 60.8687C143.393 61.0381 143.568 61.1384 143.742 61.1073L158.926 58.3863C159.036 58.3707 159.124 58.3016 159.18 58.2099C159.226 58.1183 159.235 58.0025 159.195 57.9022L155.801 49.5767C155.801 49.5767 155.785 49.5542 155.778 49.5386L148.103 36.0165C148.032 35.8852 147.88 35.8177 147.73 35.8402L127.29 39.576V39.5743ZM127.774 40.2122L147.61 36.5905C147.61 36.5905 154.817 49.2983 155.144 49.8671L158.362 57.7622L143.917 60.3449L142.609 56.4242C142.577 56.3239 142.498 56.2478 142.403 56.2098C142.306 56.1718 142.195 56.1718 142.109 56.2184C139.826 57.3629 137.97 57.4476 136.495 56.9791C133.039 55.8952 131.651 51.8984 131.651 51.8984C131.587 51.7134 131.39 51.6148 131.207 51.6753C130.597 51.8517 130.168 51.8517 129.874 51.684C129.439 51.4454 129.335 50.8853 129.319 50.3079C129.304 49.1618 129.717 47.886 129.717 47.886C129.748 47.8099 129.739 47.7166 129.708 47.6319C128.804 45.6092 128.004 41.443 127.774 40.2139V40.2122Z" fill="#28164A"/>
<path fill-rule="evenodd" clip-rule="evenodd" d="M147.169 40.6454C147.169 40.6454 145.296 41.6238 143.561 43.7726C143.438 43.9265 143.457 44.1512 143.611 44.2757C143.77 44.4019 143.995 44.376 144.116 44.2221C145.742 42.2047 147.507 41.2798 147.507 41.2798C147.679 41.1882 147.752 40.9721 147.657 40.7958C147.562 40.6194 147.351 40.5537 147.169 40.6436V40.6454Z" fill="#28164A"/>
<path fill-rule="evenodd" clip-rule="evenodd" d="M147.13 43.3837C147.13 43.3837 145.983 42.6749 145.124 42.4001C144.93 42.3396 144.73 42.4433 144.671 42.6317C144.611 42.8201 144.719 43.0224 144.904 43.0829C145.699 43.337 146.752 43.994 146.752 43.994C146.923 44.0977 147.143 44.0458 147.25 43.8781C147.348 43.7087 147.302 43.4892 147.13 43.3854V43.3837Z" fill="#28164A"/>
<path fill-rule="evenodd" clip-rule="evenodd" d="M142.085 40.8033C142.085 40.8033 142.415 42.3108 142.346 44.916C142.346 44.9782 142.299 45.0387 142.239 45.0698C142.177 45.1009 142.108 45.0854 142.054 45.0387C141.546 44.5547 140.402 43.348 139.265 41.296C139.265 41.296 131.548 42.4024 127.458 40.3124L127.721 41.6037C127.721 41.6037 124.392 39.8594 125.161 35.854L123.616 37.4842C123.616 37.4842 124.845 22.5099 139.265 19.6039C150.853 17.2753 155.658 24.4081 155.658 24.4081C155.658 24.4081 164.733 28.7818 161.897 37.9769C159.469 45.8564 158.325 47.0561 156.318 51.5595L154.396 51.9277L148.034 45.5245C148.034 45.5245 150.67 43.4569 148.717 40.3124C147.649 38.5975 144.42 37.906 142.085 40.805V40.8033Z" fill="#28164A"/>
<path fill-rule="evenodd" clip-rule="evenodd" d="M130.632 43.1041C130.632 43.1041 131.28 42.3123 132.673 41.8542C132.856 41.7937 132.96 41.5897 132.898 41.3996C132.836 41.2163 132.637 41.1091 132.445 41.1765C130.824 41.7107 130.079 42.6529 130.079 42.6529C129.954 42.8119 129.98 43.0332 130.134 43.1594C130.286 43.2856 130.508 43.2545 130.632 43.1041Z" fill="#28164A"/>
<path fill-rule="evenodd" clip-rule="evenodd" d="M138.179 49.9702C138.179 49.9702 137.88 52.6514 134.961 52.807C134.77 52.826 134.618 52.9972 134.625 53.1839C134.634 53.3827 134.805 53.5417 135.007 53.521C138.547 53.3291 138.892 50.0514 138.892 50.0514C138.906 49.8492 138.768 49.6711 138.571 49.6504C138.376 49.6296 138.194 49.78 138.179 49.9702Z" fill="#28164A"/>
<path d="M132.576 46.1368C133.13 46.0607 133.519 45.5508 133.445 44.9958C133.369 44.4409 132.859 44.052 132.304 44.1263C131.749 44.2006 131.361 44.7123 131.435 45.2673C131.511 45.8222 132.021 46.2111 132.576 46.1368Z" fill="#28164A"/>
<path fill-rule="evenodd" clip-rule="evenodd" d="M138.158 143.909L134.368 94.8944V72.1409L159.616 68.7578L175.663 75.5465C178.562 75.8387 187.953 112.268 191.249 143.909H138.158Z" fill="white"/>
<path fill-rule="evenodd" clip-rule="evenodd" d="M137.797 143.934C137.813 144.117 137.973 144.264 138.158 144.264H191.249C191.349 144.264 191.45 144.226 191.519 144.148C191.588 144.072 191.619 143.972 191.61 143.871C188.968 118.52 182.411 90.1064 178.415 79.6061C177.692 77.7148 177.048 76.3993 176.524 75.7545C176.256 75.4156 175.986 75.2479 175.763 75.2013C174.887 74.8313 159.754 68.4281 159.754 68.4281C159.7 68.4056 159.631 68.397 159.571 68.4056L134.323 71.7888C134.147 71.8112 134.007 71.9651 134.007 72.1432V94.8984C134.007 94.8984 134.009 94.9122 134.015 94.9209L137.797 143.935V143.934ZM138.488 143.548C138.158 139.313 134.791 95.7645 134.729 94.8811V72.456C137.505 72.0792 157.987 69.3357 159.571 69.1282C160.853 69.6745 175.518 75.8703 175.518 75.8703C175.556 75.8858 175.587 75.8928 175.625 75.8997C175.679 75.9083 175.732 75.955 175.794 76.0155C175.917 76.1227 176.04 76.2852 176.178 76.484C176.631 77.1686 177.155 78.3147 177.746 79.8602C181.712 90.2758 188.19 118.373 190.857 143.548H138.488Z" fill="#28164A"/>
<path fill-rule="evenodd" clip-rule="evenodd" d="M136.152 66.3974C136.152 66.3974 135.884 62.6772 139.066 60.5094C142.254 58.3502 161.907 52.7923 170.791 56.1426C174.118 57.3959 174.871 60.6165 176.118 65.2979C176.771 67.7648 176.347 68.5428 178.269 72.0555C180.183 75.5683 177.132 78.6593 173.134 78.6437C169.139 78.6195 158.864 78.0369 148.694 74.2078C138.526 70.3717 136.352 72.2474 134.084 73.416C134.084 73.416 132.432 68.5272 136.152 66.3974Z" fill="#462682"/>
<path fill-rule="evenodd" clip-rule="evenodd" d="M137.688 66.541C137.688 66.541 140.607 65.8875 142.892 66.4113C143.081 66.4545 143.271 66.3335 143.314 66.1451C143.364 65.948 143.245 65.7578 143.046 65.7164C140.633 65.158 137.533 65.8374 137.533 65.8374C137.344 65.8806 137.223 66.0777 137.267 66.2661C137.31 66.4632 137.498 66.5842 137.688 66.541Z" fill="#28164A"/>
<path fill-rule="evenodd" clip-rule="evenodd" d="M175.537 68.9629C175.537 68.9629 171.75 71.0166 162.688 68.9369C162.5 68.8851 162.303 69.0061 162.26 69.2032C162.217 69.3916 162.336 69.5904 162.526 69.6319C171.947 71.7876 175.881 69.5887 175.881 69.5887C176.052 69.4936 176.112 69.2792 176.017 69.1081C175.924 68.9369 175.71 68.8678 175.537 68.9629Z" fill="#28164A"/>
<path fill-rule="evenodd" clip-rule="evenodd" d="M35.5365 144.263H222.15C222.347 144.263 222.507 144.102 222.507 143.91C222.507 143.718 222.347 143.549 222.15 143.549H35.5365C35.3394 143.549 35.1787 143.71 35.1787 143.91C35.1787 144.111 35.3412 144.263 35.5365 144.263Z" fill="#C11A85"/>
<path fill-rule="evenodd" clip-rule="evenodd" d="M105.178 73.3421C105.178 73.3421 103.834 70.4448 103.552 68.7057C103.27 66.9579 102.183 65.0511 101.379 64.2455C100.576 63.4399 99.3191 64.2455 99.3191 64.2455C99.3191 64.2455 95.3993 58.9332 93.7574 56.7031C93.3633 56.1724 92.6063 56.06 92.0757 56.4455C91.5278 56.8483 91.3826 57.6055 91.73 58.1846C93.0263 60.3507 95.9385 65.1877 95.9385 65.1877C95.9385 65.1877 94.2171 65.791 93.7003 67.257C93.7003 67.257 91.9547 68.1749 91.8648 69.8172C91.8648 69.8172 90.7069 70.953 91.1078 72.7059C91.5105 74.4606 93.6986 75.9663 94.9309 76.6993C96.1615 77.4392 97.3212 78.8809 97.3212 78.8809L101.079 77.7538L105.175 73.3421H105.178Z" fill="white"/>
<path fill-rule="evenodd" clip-rule="evenodd" d="M105.436 73.585C105.542 73.4796 105.564 73.3188 105.5 73.1909C105.5 73.1909 104.18 70.3575 103.907 68.6495C103.616 66.8309 102.474 64.8342 101.629 63.9888C101.235 63.5947 100.735 63.5048 100.286 63.5532C99.947 63.5861 99.6411 63.6984 99.4319 63.7866L94.0395 56.4931C93.5331 55.8016 92.5584 55.6477 91.867 56.1629C91.167 56.6694 90.9821 57.6289 91.4246 58.3687L95.4239 65.0261C94.8605 65.3079 93.846 65.944 93.4122 67.0055C93.0008 67.2631 91.6734 68.1897 91.5127 69.6625C91.2224 70.0014 90.3945 71.151 90.7643 72.7863C90.9406 73.5504 91.4159 74.2679 92.0208 74.9023C92.8746 75.8133 93.9929 76.5532 94.7482 77.0113C95.939 77.7201 97.0503 79.1048 97.0503 79.1048C97.1384 79.2172 97.2923 79.2656 97.4288 79.2258L101.186 78.0987C101.243 78.0832 101.299 78.0417 101.347 78.0019L105.434 73.5833L105.436 73.585ZM104.752 73.2704L100.889 77.4401L97.453 78.4704C97.0831 78.052 96.1256 76.9975 95.1197 76.3942C94.4042 75.9672 93.3499 75.2671 92.5359 74.4131C92.0295 73.8737 91.6112 73.2704 91.466 72.6273C91.1117 71.0818 92.1176 70.0671 92.1176 70.0671C92.1816 70.0031 92.2144 69.9218 92.2231 69.8337C92.3043 68.3764 93.8736 67.5708 93.8736 67.5708C93.9531 67.531 94.0188 67.4584 94.043 67.3702C94.5096 66.0581 96.0548 65.5274 96.0548 65.5274C96.1602 65.4877 96.2397 65.4064 96.2725 65.3096C96.3123 65.2059 96.3054 65.0918 96.2483 65.0036L92.0399 58.0005C91.7823 57.5822 91.8947 57.0342 92.2887 56.7368C92.6672 56.4637 93.1978 56.5432 93.4709 56.9132L99.0327 64.4556C99.145 64.6077 99.3472 64.6492 99.508 64.5524C99.508 64.5524 99.902 64.3104 100.362 64.262C100.619 64.2378 100.901 64.2706 101.126 64.4954C101.898 65.2681 102.937 67.0954 103.201 68.7619C103.443 70.2434 104.432 72.553 104.755 73.2687L104.752 73.2704Z" fill="#28164A"/>
<path fill-rule="evenodd" clip-rule="evenodd" d="M109.198 76.4231C110.266 76.4455 110.958 76.7688 111.749 77.5225C113.955 79.6368 118.383 84.3631 125.567 94.0734C125.567 94.0734 130.44 77.4759 133.983 73.5776C137.526 69.6879 151.437 75.308 147.979 90.4828C144.527 105.664 138.839 119.664 129.287 119.887C119.726 120.11 113.032 111.209 106.046 101.36C99.0513 91.5131 97.9452 85.6389 98.6451 83.618C98.6451 83.618 98.6693 83.5333 98.7367 83.3881C98.5449 82.9957 97.8829 81.9429 97.3385 80.9126C96.839 79.9583 97.0084 78.7897 97.7533 78.0135C99.0288 76.6997 101.381 74.6546 104.801 73.2163C105.524 72.9172 106.362 73.1177 106.869 73.7159C107.805 74.7998 109.197 76.4231 109.197 76.4231H109.198Z" fill="white"/>
<path fill-rule="evenodd" clip-rule="evenodd" d="M109.368 76.0691C109.029 75.6767 107.93 74.3854 107.138 73.4795C106.532 72.7725 105.533 72.5339 104.663 72.8866C101.189 74.3473 98.7923 76.4304 97.4926 77.7685C96.6388 78.6519 96.4469 79.983 97.0242 81.0738C97.5081 82.0039 98.0923 82.9426 98.3464 83.4024C98.3239 83.4646 98.3084 83.4957 98.3084 83.5027C98.0163 84.3567 98.0094 85.8485 98.5935 88.0008C99.4387 91.0987 101.53 95.6107 105.756 101.568C109.261 106.519 112.704 111.223 116.461 114.668C120.274 118.157 124.423 120.356 129.296 120.248C133.224 120.157 136.529 117.82 139.287 114.022C143.345 108.457 146.251 99.7233 148.333 90.568C150.808 79.6753 144.522 73.6022 139.311 72.3022C136.982 71.7179 134.852 72.0948 133.715 73.3412C132.64 74.5237 131.425 76.8765 130.272 79.5819C128.082 84.7335 126.06 91.199 125.431 93.289C118.476 83.9418 114.173 79.3451 111.997 77.2689C111.174 76.484 110.445 76.1227 109.368 76.0691ZM108.931 76.6534C109 76.7312 109.093 76.7762 109.192 76.7762C110.16 76.8004 110.782 77.0995 111.504 77.784C113.703 79.8896 118.113 84.6108 125.277 94.2882C125.362 94.3954 125.492 94.4507 125.632 94.4265C125.763 94.404 125.87 94.3038 125.908 94.1724C125.908 94.1724 128.291 86.0629 130.936 79.8672C132.049 77.2464 133.202 74.9697 134.247 73.8252C135.239 72.7327 137.106 72.4872 139.135 72.9955C144.101 74.2315 149.996 80.0435 147.637 90.4072C145.577 99.4623 142.725 108.096 138.713 113.607C136.1 117.197 132.994 119.441 129.275 119.533C124.595 119.642 120.614 117.496 116.947 114.137C113.219 110.723 109.814 106.057 106.34 101.153C102.182 95.296 100.114 90.8601 99.2849 87.8089C98.7474 85.8641 98.7163 84.5019 98.9859 83.7343C98.9859 83.7343 99.0083 83.6565 99.0706 83.5269C99.1086 83.4335 99.1017 83.3263 99.0636 83.2347C98.8718 82.8336 98.2098 81.7809 97.6568 80.7436C97.2333 79.9294 97.3716 78.9285 98.0111 78.2681C99.2641 76.9681 101.585 74.9628 104.943 73.5487C105.528 73.3101 106.188 73.4709 106.603 73.948C107.541 75.0319 108.931 76.6534 108.931 76.6534Z" fill="#28164A"/>
<path fill-rule="evenodd" clip-rule="evenodd" d="M125.26 94.2531C125.26 94.2531 128.025 98.9518 129.15 104.553C129.185 104.741 129.373 104.871 129.572 104.836C129.76 104.793 129.888 104.605 129.847 104.415C128.704 98.6855 125.878 93.8918 125.878 93.8918C125.775 93.7206 125.56 93.6601 125.389 93.7639C125.218 93.8658 125.158 94.0802 125.26 94.2531Z" fill="#28164A"/>
<path fill-rule="evenodd" clip-rule="evenodd" d="M100.491 82.8364C100.491 82.8364 104.853 78.6356 107.748 77.7505C107.937 77.69 108.049 77.493 107.988 77.3045C107.928 77.1144 107.731 77.0124 107.543 77.0642C104.537 77.9822 99.9932 82.3213 99.9932 82.3213C99.8549 82.4579 99.848 82.6895 99.9846 82.8278C100.123 82.973 100.346 82.973 100.491 82.8364Z" fill="#28164A"/>
<path fill-rule="evenodd" clip-rule="evenodd" d="M28.8385 27.2425C29.2784 26.1675 28.7645 24.9446 27.6883 24.5039C23.6577 22.8541 14.429 19.0768 10.3947 17.4262C9.32121 16.9876 8.09561 17.4997 7.6557 18.5747C6.54697 21.2826 4.54999 26.1602 3.44126 28.8681C3.00207 29.9393 3.51663 31.167 4.58907 31.607C8.62342 33.2576 17.8521 37.0349 21.8837 38.6833C22.96 39.1241 24.1839 38.6085 24.623 37.5372C25.7328 34.828 27.7288 29.9517 28.8385 27.2425Z" fill="#28164A"/>
<path fill-rule="evenodd" clip-rule="evenodd" d="M8.50064 17.3998C8.50064 17.3998 12.8118 24.6585 14.6548 27.7568C15.2183 28.7089 16.3479 29.1707 17.4171 28.8871C20.8922 27.9728 29.0137 25.8318 29.0137 25.8318C29.2046 25.7836 29.3172 25.587 29.2667 25.3965C29.2162 25.206 29.0192 25.0909 28.8284 25.1391L17.2369 28.1962C16.475 28.3985 15.6704 28.0688 15.2699 27.3906L9.11471 17.035C9.01423 16.8674 8.79441 16.8109 8.62536 16.9104C8.45527 17.0113 8.39774 17.2325 8.50064 17.3998Z" fill="white"/>
<path d="M60.4537 25.9889C60.2309 25.9889 60.0297 25.9593 59.8499 25.9C59.6741 25.8407 59.5217 25.7463 59.3927 25.6167C59.2677 25.487 59.17 25.3185 59.0996 25.1111C59.0332 24.9037 59 24.6537 59 24.3611V22.2889H59.6799V24.4111C59.6799 24.6667 59.7112 24.8685 59.7737 25.0167C59.8402 25.1648 59.932 25.2704 60.0492 25.3333C60.1665 25.3963 60.3013 25.4278 60.4537 25.4278C60.61 25.4278 60.7468 25.3963 60.864 25.3333C60.9851 25.2704 61.0789 25.1648 61.1453 25.0167C61.2157 24.8685 61.2509 24.6667 61.2509 24.4111V22.2889H61.9015V24.3611C61.9015 24.6537 61.8683 24.9037 61.8018 25.1111C61.7354 25.3185 61.6377 25.487 61.5088 25.6167C61.3837 25.7463 61.2313 25.8407 61.0516 25.9C60.8757 25.9593 60.6764 25.9889 60.4537 25.9889Z" fill="#212121"/>
<path d="M62.7999 27V23.1944H63.3568L63.4037 23.4833H63.4271C63.5483 23.3833 63.6831 23.3 63.8316 23.2333C63.9801 23.163 64.1344 23.1278 64.2946 23.1278C64.533 23.1278 64.7362 23.1852 64.9042 23.3C65.0723 23.4148 65.2012 23.5759 65.2911 23.7833C65.381 23.9907 65.4259 24.2352 65.4259 24.5167C65.4259 24.8278 65.3673 25.0926 65.2501 25.3111C65.1328 25.5296 64.9804 25.6981 64.7929 25.8167C64.6092 25.9315 64.4099 25.9889 64.195 25.9889C64.0699 25.9889 63.9449 25.963 63.8198 25.9111C63.6948 25.8593 63.5737 25.7852 63.4564 25.6889L63.474 26.1444V27H62.7999ZM64.0543 25.4611C64.1833 25.4611 64.2985 25.4259 64.4001 25.3556C64.5017 25.2852 64.5818 25.1815 64.6405 25.0444C64.6991 24.9037 64.7284 24.7296 64.7284 24.5222C64.7284 24.3407 64.7069 24.1852 64.6639 24.0556C64.6209 23.9259 64.5525 23.8278 64.4588 23.7611C64.3689 23.6907 64.2516 23.6556 64.1071 23.6556C64.0015 23.6556 63.898 23.6815 63.7964 23.7333C63.6948 23.7815 63.5873 23.8574 63.474 23.9611V25.2333C63.5795 25.3148 63.6811 25.3741 63.7788 25.4111C63.8804 25.4444 63.9722 25.4611 64.0543 25.4611Z" fill="#212121"/>
<path d="M67.1167 25.9889C66.7572 25.9889 66.47 25.863 66.2551 25.6111C66.0401 25.3593 65.9327 25.0093 65.9327 24.5611C65.9327 24.2648 65.9893 24.0093 66.1027 23.7944C66.2199 23.5796 66.3703 23.4148 66.554 23.3C66.7416 23.1852 66.9409 23.1278 67.1519 23.1278C67.316 23.1278 67.4547 23.1537 67.5681 23.2056C67.6853 23.2574 67.7986 23.3315 67.908 23.4278L67.8846 22.9889V22H68.5587V25.9222H68.0018L67.9549 25.6278H67.9315C67.826 25.7278 67.7029 25.813 67.5622 25.8833C67.4215 25.9537 67.273 25.9889 67.1167 25.9889ZM67.2808 25.4611C67.3942 25.4611 67.4997 25.437 67.5974 25.3889C67.6951 25.337 67.7908 25.2593 67.8846 25.1556V23.8833C67.7869 23.7981 67.6892 23.7389 67.5915 23.7056C67.4938 23.6722 67.3961 23.6556 67.2984 23.6556C67.1734 23.6556 67.0601 23.6907 66.9585 23.7611C66.8608 23.8315 66.7807 23.9333 66.7181 24.0667C66.6595 24.2 66.6302 24.363 66.6302 24.5556C66.6302 24.8481 66.6869 25.0722 66.8002 25.2278C66.9135 25.3833 67.0737 25.4611 67.2808 25.4611Z" fill="#212121"/>
<path d="M70.1147 25.9889C69.9466 25.9889 69.7981 25.9556 69.6692 25.8889C69.5402 25.8222 69.4386 25.7296 69.3644 25.6111C69.294 25.4889 69.2589 25.3481 69.2589 25.1889C69.2589 24.8815 69.3937 24.65 69.6633 24.4944C69.9368 24.3352 70.3687 24.2259 70.9587 24.1667C70.9548 24.0741 70.9353 23.9889 70.9001 23.9111C70.8688 23.8333 70.8141 23.7722 70.736 23.7278C70.6617 23.6796 70.5601 23.6556 70.4312 23.6556C70.2905 23.6556 70.1518 23.6796 70.015 23.7278C69.8821 23.7759 69.7512 23.837 69.6223 23.9111L69.3761 23.4778C69.4816 23.4148 69.5969 23.3574 69.7219 23.3056C69.847 23.25 69.9798 23.2074 70.1205 23.1778C70.2612 23.1444 70.4077 23.1278 70.5601 23.1278C70.7985 23.1278 70.9958 23.1741 71.1522 23.2667C71.3124 23.3556 71.4316 23.4889 71.5097 23.6667C71.5918 23.8407 71.6328 24.0556 71.6328 24.3111V25.9222H71.076L71.0291 25.6222H71.0056C70.8728 25.7259 70.734 25.813 70.5894 25.8833C70.4449 25.9537 70.2866 25.9889 70.1147 25.9889ZM70.3257 25.4667C70.4429 25.4667 70.5504 25.4444 70.6481 25.4C70.7497 25.3519 70.8532 25.2815 70.9587 25.1889V24.6111C70.6969 24.6407 70.4898 24.6796 70.3374 24.7278C70.185 24.7759 70.0756 24.8352 70.0091 24.9056C69.9466 24.9722 69.9154 25.0519 69.9154 25.1444C69.9154 25.2593 69.9544 25.3426 70.0326 25.3944C70.1107 25.4426 70.2084 25.4667 70.3257 25.4667Z" fill="#212121"/>
<path d="M73.362 25.9778C73.0298 25.9778 72.7934 25.887 72.6527 25.7056C72.516 25.5204 72.4476 25.2815 72.4476 24.9889V23.7H72.0373V23.2222L72.4827 23.1944L72.5648 22.3389H73.1275V23.1944H73.8602V23.7H73.1275V24.9889C73.1275 25.1481 73.1607 25.2685 73.2272 25.35C73.2936 25.4278 73.3952 25.4667 73.532 25.4667C73.5828 25.4667 73.6336 25.463 73.6844 25.4556C73.7352 25.4481 73.784 25.4333 73.8309 25.4111L73.954 25.8611C73.8798 25.8944 73.7918 25.9222 73.6902 25.9444C73.5886 25.9667 73.4792 25.9778 73.362 25.9778Z" fill="#212121"/>
<path d="M75.6111 25.9889C75.3415 25.9889 75.0972 25.9333 74.8784 25.8222C74.6635 25.7074 74.4935 25.5444 74.3684 25.3333C74.2434 25.1185 74.1809 24.8593 74.1809 24.5556C74.1809 24.2593 74.2453 24.0056 74.3743 23.7944C74.5033 23.5796 74.6693 23.4148 74.8725 23.3C75.0757 23.1852 75.2907 23.1278 75.5173 23.1278C75.7791 23.1278 75.998 23.1833 76.1738 23.2944C76.3497 23.4056 76.4806 23.5593 76.5665 23.7556C76.6564 23.9481 76.7014 24.1704 76.7014 24.4222C76.7014 24.4815 76.6974 24.5389 76.6896 24.5944C76.6857 24.65 76.6779 24.7037 76.6662 24.7556H74.685V24.2667H76.1035C76.1035 24.0704 76.0566 23.9167 75.9628 23.8056C75.869 23.6907 75.7244 23.6333 75.529 23.6333C75.4196 23.6333 75.3122 23.6611 75.2066 23.7167C75.105 23.7722 75.0191 23.8667 74.9487 24C74.8823 24.1333 74.8491 24.3185 74.8491 24.5556C74.8491 24.7704 74.8882 24.9463 74.9663 25.0833C75.0445 25.2167 75.148 25.3167 75.277 25.3833C75.4059 25.4463 75.5447 25.4778 75.6932 25.4778C75.8182 25.4778 75.9354 25.4611 76.0449 25.4278C76.1582 25.3944 76.2637 25.3481 76.3614 25.2889L76.5958 25.7C76.463 25.7889 76.3106 25.8593 76.1386 25.9111C75.9706 25.963 75.7948 25.9889 75.6111 25.9889Z" fill="#212121"/>
<path d="M78.5772 25.9222V22.2889H79.7847C80.07 22.2889 80.324 22.3241 80.5467 22.3944C80.7695 22.4648 80.9453 22.5815 81.0743 22.7444C81.2032 22.9074 81.2677 23.1296 81.2677 23.4111C81.2677 23.6778 81.2032 23.8981 81.0743 24.0722C80.9492 24.2463 80.7754 24.3759 80.5526 24.4611C80.3338 24.5463 80.0856 24.5889 79.8082 24.5889H79.2572V25.9222H78.5772ZM79.2572 24.0722H79.7554C80.0407 24.0722 80.2517 24.0167 80.3885 23.9056C80.5292 23.7944 80.5995 23.6296 80.5995 23.4111C80.5995 23.1815 80.5253 23.0241 80.3768 22.9389C80.2322 22.85 80.0172 22.8056 79.732 22.8056H79.2572V24.0722Z" fill="#212121"/>
<path d="M82.5868 25.9778C82.4265 25.9778 82.2976 25.9481 82.1999 25.8889C82.1061 25.8259 82.0377 25.737 81.9947 25.6222C81.9518 25.5074 81.9303 25.3704 81.9303 25.2111V22H82.6044V25.2444C82.6044 25.3259 82.62 25.3815 82.6512 25.4111C82.6825 25.4407 82.7177 25.4556 82.7568 25.4556C82.7724 25.4556 82.7861 25.4556 82.7978 25.4556C82.8134 25.4519 82.833 25.4481 82.8564 25.4444L82.9443 25.9222C82.9052 25.937 82.8544 25.95 82.7919 25.9611C82.7333 25.9722 82.6649 25.9778 82.5868 25.9778Z" fill="#212121"/>
<path d="M84.2191 25.9889C84.0511 25.9889 83.9026 25.9556 83.7737 25.8889C83.6447 25.8222 83.5431 25.7296 83.4688 25.6111C83.3985 25.4889 83.3633 25.3481 83.3633 25.1889C83.3633 24.8815 83.4982 24.65 83.7678 24.4944C84.0413 24.3352 84.4731 24.2259 85.0632 24.1667C85.0593 24.0741 85.0398 23.9889 85.0046 23.9111C84.9733 23.8333 84.9186 23.7722 84.8405 23.7278C84.7662 23.6796 84.6646 23.6556 84.5357 23.6556C84.395 23.6556 84.2563 23.6796 84.1195 23.7278C83.9866 23.7759 83.8557 23.837 83.7268 23.9111L83.4806 23.4778C83.5861 23.4148 83.7014 23.3574 83.8264 23.3056C83.9515 23.25 84.0843 23.2074 84.225 23.1778C84.3657 23.1444 84.5122 23.1278 84.6646 23.1278C84.903 23.1278 85.1003 23.1741 85.2566 23.2667C85.4169 23.3556 85.536 23.4889 85.6142 23.6667C85.6963 23.8407 85.7373 24.0556 85.7373 24.3111V25.9222H85.1804L85.1335 25.6222H85.1101C84.9772 25.7259 84.8385 25.813 84.6939 25.8833C84.5493 25.9537 84.3911 25.9889 84.2191 25.9889ZM84.4302 25.4667C84.5474 25.4667 84.6548 25.4444 84.7525 25.4C84.8541 25.3519 84.9577 25.2815 85.0632 25.1889V24.6111C84.8014 24.6407 84.5943 24.6796 84.4419 24.7278C84.2895 24.7759 84.1801 24.8352 84.1136 24.9056C84.0511 24.9722 84.0198 25.0519 84.0198 25.1444C84.0198 25.2593 84.0589 25.3426 84.1371 25.3944C84.2152 25.4426 84.3129 25.4667 84.4302 25.4667Z" fill="#212121"/>
<path d="M86.544 25.9222V23.1944H87.1008L87.1477 23.5611H87.1712C87.3001 23.4426 87.4408 23.3407 87.5932 23.2556C87.7456 23.1704 87.9195 23.1278 88.1149 23.1278C88.4236 23.1278 88.6483 23.2222 88.789 23.4111C88.9297 23.6 89 23.8667 89 24.2111V25.9222H88.3259V24.2944C88.3259 24.0685 88.2907 23.9093 88.2204 23.8167C88.1501 23.7241 88.0348 23.6778 87.8746 23.6778C87.7495 23.6778 87.6382 23.7074 87.5405 23.7667C87.4467 23.8222 87.3392 23.9056 87.2181 24.0167V25.9222H86.544Z" fill="#212121"/>
</g>
<defs>
<clipPath id="clip0_10873_13449">
<rect width="223" height="145" fill="white"/>
</clipPath>
</defs>
</svg>
