<svg width="20" height="20" viewBox="0 0 20 20" fill="none" xmlns="http://www.w3.org/2000/svg">
<path d="M13.8238 2.25C13.8277 1.66016 13.5738 1.17578 13.191 1.04297C13.1168 1.01953 13.0347 0.996094 12.9644 0.996094C12.941 0.996094 12.9214 1 12.898 1.00391C12.5113 1.08594 12.1246 1.17969 11.7496 1.27344C11.5933 1.3125 11.4371 1.35156 11.2808 1.38672C11.0894 1.43359 10.898 1.48047 10.7066 1.52734C10.5152 1.57422 10.3238 1.62109 10.1324 1.66797L8.3277 2.10156C8.05817 2.16797 7.78863 2.23047 7.5191 2.29297C7.24957 2.35547 6.98004 2.41797 6.71051 2.48438C6.09332 2.62891 5.46832 2.78516 4.93707 2.91406C4.56598 3.00391 4.16363 3.09766 3.7691 3.1875C2.98004 3.375 1.98004 3.73438 1.26129 4.85547C0.562072 5.94531 0.27301 7.19141 0.401916 8.55469C0.546447 10.0859 1.13629 11.2812 2.15582 12.0977C2.5191 12.3828 2.94488 12.5781 3.42145 12.6719C3.5191 12.6914 3.61676 12.7109 3.71832 12.7305C3.86285 12.7617 4.01129 12.7891 4.15973 12.8164C4.3316 12.8438 4.39801 12.9961 4.4527 13.1211L4.4566 13.1289C4.81598 13.957 5.17535 14.7969 5.52692 15.6133C5.87848 16.4297 6.23785 17.2695 6.59723 18.0977C6.60895 18.1289 6.62457 18.1602 6.63629 18.1914C6.74567 18.4453 6.84723 18.6875 7.03473 18.8438C7.18707 18.9688 7.36285 19.0234 7.53863 19.0078C7.72613 18.9883 7.90973 18.8828 8.04645 18.707C8.34332 18.3398 8.41363 17.7656 8.21832 17.3086C7.96442 16.7188 7.71051 16.1289 7.4566 15.5391C7.2027 14.9492 6.94879 14.3594 6.69488 13.7695C6.67535 13.7266 6.66754 13.6758 6.65582 13.6211C6.65192 13.5977 6.64801 13.5703 6.6402 13.543L6.60895 13.3945L6.75738 13.4258C6.82379 13.4414 6.88238 13.4531 6.94098 13.4648C7.05035 13.4883 7.15192 13.5117 7.24957 13.5352C7.60504 13.6211 7.96051 13.707 8.31598 13.793C8.67145 13.8789 9.02692 13.9648 9.38238 14.0508C9.67145 14.1211 9.96832 14.1875 10.2535 14.2539C10.5386 14.3203 10.8355 14.3867 11.1285 14.457C11.3082 14.5 11.4918 14.543 11.6675 14.582C12.023 14.6641 12.3902 14.75 12.7496 14.8438C12.9683 14.9023 13.1988 14.8516 13.3941 14.7031C13.6675 14.4922 13.8277 14.1289 13.8277 13.6992C13.8277 13.3906 13.8277 13.082 13.8277 12.7734C13.8277 12.4648 13.8277 12.1562 13.8277 11.8477C13.8277 11.0469 13.8277 10.25 13.8277 9.44922C13.8199 7.09766 13.8199 4.65625 13.8238 2.25ZM12.3277 11.9258C12.3277 12.1133 12.3277 12.3086 12.1714 12.4297C12.105 12.4805 12.023 12.5078 11.9332 12.5078C11.855 12.5078 11.7808 12.4883 11.7183 12.4727C11.5738 12.4375 11.4293 12.4023 11.2886 12.3672H11.2808C11.1441 12.332 11.0035 12.2969 10.8668 12.2656C10.5933 12.1992 10.3199 12.1367 10.0464 12.0703L10.023 12.0664C9.74176 12 9.46051 11.9336 9.17926 11.8672C8.6441 11.7344 8.0152 11.582 7.40582 11.4375C7.1402 11.375 6.87848 11.3125 6.61676 11.25L6.5777 11.2422C6.31988 11.1797 6.06207 11.1211 5.80426 11.0586C4.86676 10.832 3.10547 10.25 2.5 9.5C1.80469 8.63672 1.89453 7.45703 2 7C2.42578 5.19922 5.05817 4.95703 6.54645 4.64453C6.73785 4.60547 6.91754 4.56641 7.08551 4.52734C7.5777 4.41406 8.0777 4.29297 8.56207 4.17578C8.8316 4.10938 9.09723 4.04688 9.36676 3.98438C9.57379 3.93359 9.78473 3.88672 9.99176 3.83594H9.99957C10.1793 3.79297 10.3589 3.75391 10.5347 3.71094C10.6871 3.67578 10.8433 3.63672 10.9957 3.59766C11.2496 3.53516 11.5113 3.46875 11.7769 3.41016C11.8589 3.39062 12.023 3.35547 12.1675 3.46875C12.316 3.58594 12.316 3.76562 12.316 3.89844C12.316 5.12891 12.316 6.39844 12.3238 7.65625H12.3277V11.9258Z" fill="#5F22E2"/>
<path d="M16.0239 11.0505C16.0981 11.0661 16.1918 11.0739 16.2817 11.0778C16.3325 11.0817 16.3793 11.0817 16.4301 11.0856C17.809 10.9489 18.7543 10.3005 19.3247 9.10515C19.6723 8.37468 19.727 7.58953 19.4887 6.78093C19.2231 5.86687 18.645 5.17546 17.7778 4.72625C17.395 4.52703 16.9575 4.40593 16.4418 4.36296C16.0668 4.33171 15.8286 4.46062 15.7036 4.7575C15.6293 4.93328 15.6332 5.11687 15.7075 5.28093C15.7817 5.44109 15.9145 5.55828 16.0825 5.60906C16.1762 5.6364 16.2817 5.65203 16.4106 5.66375C17.5082 5.74578 18.3442 6.67156 18.3168 7.77703C18.2934 8.66375 17.6332 9.49578 16.7739 9.71453C16.6176 9.7575 16.4457 9.78093 16.2192 9.79656C15.9028 9.81609 15.6372 10.0466 15.5981 10.3356C15.559 10.6559 15.7387 10.9606 16.0239 11.0505Z" fill="#5F22E2"/>
<path d="M15.7305 6.96875C15.3125 6.96875 14.9727 7.30859 14.9727 7.72656C14.9727 7.92578 15.0508 8.11328 15.1992 8.25781C15.3438 8.40234 15.5352 8.48047 15.7305 8.48047C15.7344 8.48047 15.7344 8.48047 15.7383 8.48047C16.1445 8.47656 16.4922 8.12891 16.4922 7.72266C16.4922 7.52344 16.418 7.33203 16.2773 7.19141C16.1328 7.04688 15.9375 6.96875 15.7305 6.96875Z" fill="#5F22E2"/>
</svg>
