<svg width="22" height="22" viewBox="0 0 22 22" fill="none" xmlns="http://www.w3.org/2000/svg">
<path d="M19 8.5L20.1967 7.58643" stroke="black" stroke-width="1.2" stroke-linecap="round"/>
<path d="M20 10.6L20.9999 10.6183M19 13L20.0697 13.6505M13.5 15L17.1944 18.6304M7 14.5L4.80542 17.3252M6.5 8.5L3.70605 6.80306M11 6.80306L12.5644 3.63037M12.3953 8.69061L16.6447 6.5621M12.3953 12.5661L16.6447 14.6344M7.70183 9.20868V12.0681C7.70183 12.6204 8.14954 13.0681 8.70183 13.0681H11.3953C11.9476 13.0681 12.3953 12.6204 12.3953 12.0681V9.20868C12.3953 8.6564 11.9476 8.20868 11.3953 8.20868H8.70183C8.14954 8.20868 7.70183 8.6564 7.70183 9.20868Z" stroke="black" stroke-width="1.2" stroke-linecap="round"/>
<path d="M17 8.5C17 8.5 18.7377 9.15283 18.7377 10.5986C18.7377 11.5424 17.5074 13 17 13" stroke="black" stroke-width="1.2"/>
<path d="M17 6V15" stroke="black" stroke-width="1.2" stroke-linecap="round"/>
<ellipse cx="13.0931" cy="2.3253" rx="1.39535" ry="1.3253" stroke="black" stroke-width="1.2" stroke-linecap="round"/>
<ellipse cx="2.39535" cy="6.02013" rx="1.39535" ry="1.3253" stroke="black" stroke-width="1.2" stroke-linecap="round"/>
<ellipse cx="3.50961" cy="18.3092" rx="1.39535" ry="1.3253" stroke="black" stroke-width="1.2" stroke-linecap="round"/>
<ellipse cx="18.2516" cy="19.6749" rx="1.39535" ry="1.3253" stroke="black" stroke-width="1.2" stroke-linecap="round"/>
<path d="M9.45652 13.1685L9.15743 15.3559C9.09198 15.8345 9.46398 16.2608 9.94705 16.2608V16.2608C10.3537 16.2608 10.6951 15.9547 10.7393 15.5505L10.8307 14.7146L10.9999 13.1685" stroke="black" stroke-width="1.2" stroke-linecap="round"/>
</svg>
