<svg width="20" height="20" viewBox="0 0 20 20" fill="none" xmlns="http://www.w3.org/2000/svg">
<path fill-rule="evenodd" clip-rule="evenodd" d="M9.97668 16.9737C7.27751 16.9737 4.97168 16.5654 4.97168 14.9304C4.97168 13.2954 7.26251 11.8721 9.97668 11.8721C12.6758 11.8721 14.9817 13.2821 14.9817 14.9162C14.9817 16.5504 12.6908 16.9737 9.97668 16.9737Z" stroke="#5F22E2" stroke-width="1.5" stroke-linecap="round" stroke-linejoin="round"/>
<path fill-rule="evenodd" clip-rule="evenodd" d="M9.9769 9.54083C11.7486 9.54083 13.1852 8.105 13.1852 6.33333C13.1852 4.56167 11.7486 3.125 9.9769 3.125C8.20523 3.125 6.76857 4.56167 6.76857 6.33333C6.76357 8.09833 8.18857 9.535 9.9544 9.54083H9.9769Z" stroke="#5F22E2" stroke-width="1.5" stroke-linecap="round" stroke-linejoin="round"/>
<path d="M15.3014 8.65953C16.3323 8.3837 17.0923 7.4437 17.0923 6.32453C17.0923 5.15703 16.2648 4.18203 15.1631 3.95703" stroke="#5F22E2" stroke-width="1.5" stroke-linecap="round" stroke-linejoin="round"/>
<path d="M15.7861 11.2871C17.2478 11.2871 18.4961 12.2779 18.4961 13.1629C18.4961 13.6838 18.0653 14.2513 17.412 14.4046" stroke="#5F22E2" stroke-width="1.5" stroke-linecap="round" stroke-linejoin="round"/>
<path d="M4.65299 8.65953C3.62133 8.3837 2.86133 7.4437 2.86133 6.32453C2.86133 5.15703 3.68966 4.18203 4.79049 3.95703" stroke="#5F22E2" stroke-width="1.5" stroke-linecap="round" stroke-linejoin="round"/>
<path d="M4.16801 11.2871C2.70634 11.2871 1.45801 12.2779 1.45801 13.1629C1.45801 13.6838 1.88884 14.2513 2.54301 14.4046" stroke="#5F22E2" stroke-width="1.5" stroke-linecap="round" stroke-linejoin="round"/>
</svg>
