<svg width="20" height="20" viewBox="0 0 20 20" fill="none" xmlns="http://www.w3.org/2000/svg">
<path d="M0.265918 9.8946C0.250293 9.12116 0.3792 8.2696 0.633106 7.44538C1.21904 5.55866 2.30107 4.0196 3.89482 2.84772C4.53545 2.37506 5.23076 2.00006 5.97295 1.71881C7.09795 1.29303 8.26592 1.09772 9.46904 1.1485C10.2972 1.18366 11.1058 1.32819 11.8948 1.59381C13.7425 2.21491 15.2308 3.32428 16.3597 4.90631C16.7972 5.5196 17.1448 6.17975 17.4026 6.89069C17.4495 7.01959 17.4886 7.15241 17.5511 7.27741C17.5784 7.336 17.6409 7.3985 17.6995 7.41413C18.2894 7.55866 18.7737 7.86334 19.1487 8.336C19.6995 9.02741 19.8636 9.80866 19.6448 10.6641C19.4261 11.5274 18.8831 12.1251 18.0706 12.461C17.4729 12.711 16.8558 12.7266 16.2347 12.5118C15.5159 12.2657 14.9925 11.7969 14.6722 11.1173C14.3909 10.5157 14.3401 9.88678 14.5354 9.24616C14.7308 8.59772 15.1175 8.09772 15.6917 7.73835C15.7894 7.67975 15.7854 7.61335 15.7464 7.50788C15.3597 6.47663 14.7659 5.586 13.9651 4.8321C13.3206 4.22663 12.5823 3.76178 11.7581 3.42584C10.637 2.96881 9.46904 2.82819 8.27373 2.961C7.47295 3.05085 6.71123 3.29303 5.98857 3.65631C4.90654 4.19928 4.01982 4.96881 3.32061 5.9571C2.93779 6.49616 2.64482 7.0821 2.42607 7.7071C2.1292 8.56647 1.98857 9.44928 2.03154 10.3555C2.06279 11.0391 2.1917 11.7071 2.41826 12.3555C2.92607 13.8087 3.8167 14.9727 5.07451 15.8555C5.61357 16.2344 6.20342 16.5274 6.82842 16.7383C7.70732 17.0352 8.60967 17.1719 9.53545 17.1055C11.1487 16.9923 12.5706 16.4102 13.7933 15.3477C14.262 14.9415 14.8597 15.0196 15.18 15.5313C15.3909 15.8712 15.3245 16.3477 15.0042 16.6251C14.387 17.1719 13.7073 17.6212 12.9651 17.9766C12.137 18.3751 11.2698 18.6368 10.3597 18.7657C9.48076 18.8868 8.60186 18.8985 7.73076 18.7305C7.22295 18.6329 6.71123 18.5196 6.21904 18.3594C5.50029 18.129 4.82842 17.7813 4.19951 17.3594C3.42607 16.8399 2.74639 16.2188 2.16826 15.4883C1.55889 14.7149 1.09014 13.8712 0.762012 12.9415C0.429981 11.9883 0.258106 11.004 0.265918 9.8946ZM17.9651 9.99225C17.9651 9.50788 17.555 9.10553 17.0706 9.10944C16.594 9.11335 16.1995 9.51178 16.1995 9.99616C16.1995 10.4883 16.5979 10.8868 17.0823 10.8868C17.5667 10.8829 17.969 10.4766 17.9651 9.99225Z" fill="#845ADF"/>
<path d="M6.95374 10.8869C6.50062 10.8869 6.0514 10.8908 5.59827 10.8869C5.29359 10.883 5.03187 10.7697 4.85218 10.5119C4.64905 10.2228 4.62562 9.91032 4.78577 9.59782C4.95374 9.2736 5.2389 9.11735 5.59827 9.11344C6.45765 9.10563 7.31312 9.10954 8.17249 9.11344C8.4264 9.11344 8.65296 9.05094 8.84046 8.86735C9.03577 8.67985 9.1139 8.44938 9.1139 8.18375C9.10999 7.33219 9.10999 6.47672 9.1139 5.62516C9.1139 5.2775 9.25452 5.00407 9.5514 4.81266C10.0162 4.51188 10.7076 4.78141 10.8405 5.32047C10.8717 5.44157 10.8873 5.56657 10.8873 5.68766C10.8912 6.50407 10.8951 7.32047 10.8873 8.13688C10.8795 9.26969 10.3756 10.1134 9.3639 10.633C9.01624 10.8127 8.63343 10.8869 8.2428 10.8908C7.81312 10.8908 7.38343 10.8869 6.95374 10.8869Z" fill="#845ADF"/>
</svg>
