<svg width="20" height="20" viewBox="0 0 20 20" fill="none" xmlns="http://www.w3.org/2000/svg">
<path fill-rule="evenodd" clip-rule="evenodd" d="M17.5002 5.5615C17.5002 7.252 16.1292 8.623 14.4387 8.623C12.7482 8.623 11.3779 7.252 11.3779 5.5615C11.3779 3.871 12.7482 2.5 14.4387 2.5C16.1292 2.5 17.5002 3.871 17.5002 5.5615Z" stroke="#4b14c4" stroke-width="1.5" stroke-linecap="round" stroke-linejoin="round"/>
<path fill-rule="evenodd" clip-rule="evenodd" d="M8.62225 5.5615C8.62225 7.252 7.252 8.623 5.56075 8.623C3.871 8.623 2.5 7.252 2.5 5.5615C2.5 3.871 3.871 2.5 5.56075 2.5C7.252 2.5 8.62225 3.871 8.62225 5.5615Z" stroke="#4b14c4" stroke-width="1.5" stroke-linecap="round" stroke-linejoin="round"/>
<path fill-rule="evenodd" clip-rule="evenodd" d="M17.5002 14.3847C17.5002 16.0752 16.1292 17.4455 14.4387 17.4455C12.7482 17.4455 11.3779 16.0752 11.3779 14.3847C11.3779 12.6942 12.7482 11.3232 14.4387 11.3232C16.1292 11.3232 17.5002 12.6942 17.5002 14.3847Z" stroke="#4b14c4" stroke-width="1.5" stroke-linecap="round" stroke-linejoin="round"/>
<path fill-rule="evenodd" clip-rule="evenodd" d="M8.62225 14.3847C8.62225 16.0752 7.252 17.4455 5.56075 17.4455C3.871 17.4455 2.5 16.0752 2.5 14.3847C2.5 12.6942 3.871 11.3232 5.56075 11.3232C7.252 11.3232 8.62225 12.6942 8.62225 14.3847Z" stroke="#4b14c4" stroke-width="1.5" stroke-linecap="round" stroke-linejoin="round"/>
</svg>
