<svg width="20" height="20" viewBox="0 0 20 20" fill="none" xmlns="http://www.w3.org/2000/svg">
<path d="M18.5117 11.1606C18.4804 11.5238 18.4531 11.8871 18.414 12.2504C18.4023 12.3637 18.4375 12.434 18.5195 12.4965C19.0039 12.852 19.3515 13.309 19.5742 13.8676C19.8007 14.4379 19.8398 15.0199 19.7226 15.6059C19.5742 16.3559 19.1836 16.9691 18.5703 17.4379C17.9922 17.8754 17.3359 18.0981 16.6172 18.0707C15.5664 18.0238 14.7265 17.5707 14.1328 16.6879C13.6445 15.9613 13.5117 15.1606 13.6875 14.3168C13.8359 13.6215 14.1992 13.0434 14.7539 12.5941C15.3359 12.1254 16 11.8988 16.7461 11.9066C16.8632 11.9066 16.914 11.8559 16.9218 11.7426C16.9726 11.0981 16.9453 10.4574 16.8203 9.82071C16.6953 9.18399 16.4882 8.57462 16.1992 7.99259C15.7226 7.03555 15.0547 6.23868 14.2109 5.58634C13.8125 5.27774 13.3828 5.02383 12.9297 4.80899C12.8281 4.76212 12.7656 4.79727 12.7226 4.88321C12.5117 5.28555 12.2226 5.61759 11.8672 5.89102C11.5156 6.16055 11.1211 6.33633 10.6914 6.4418C10.3593 6.51993 10.0234 6.54727 9.68746 6.50821C8.82809 6.41055 8.11715 6.02383 7.582 5.34024C7.47653 5.20743 7.39059 5.05508 7.29293 4.91055C7.24996 4.84415 7.19918 4.8129 7.11325 4.85196C6.0859 5.29727 5.23043 5.97305 4.53512 6.84415C4.13278 7.34805 3.80856 7.90274 3.57418 8.5004C3.37106 9.01602 3.22262 9.54727 3.14059 10.0981C3.05856 10.6449 3.05075 11.1957 3.0859 11.7426C3.09762 11.9106 3.12496 11.9262 3.29293 11.9301C3.78903 11.934 4.25778 12.0551 4.70309 12.2777C5.21481 12.5356 5.61715 12.9106 5.91793 13.391C6.23434 13.8949 6.39059 14.4496 6.37887 15.0473C6.37106 15.4574 6.29684 15.852 6.13668 16.2309C6.082 16.3559 6.0195 16.477 5.94918 16.5941C5.89059 16.6918 5.92184 16.7582 5.99996 16.8051C6.35153 17.016 6.69528 17.2348 7.05856 17.4184C7.32809 17.559 7.61715 17.6645 7.90231 17.7621C8.16403 17.8481 8.43356 17.9184 8.707 17.9691C9.55465 18.1293 10.4101 18.1371 11.2578 17.9691C11.7695 17.8676 12.2929 17.7152 12.7617 17.4809C13.0547 17.3363 13.3476 17.1879 13.6406 17.0434C13.6875 17.0199 14.332 16.6918 14.3554 16.7465C14.4648 16.9731 14.7187 17.0941 14.8242 17.3207C14.8945 17.477 15.3203 17.6137 15.3906 17.7738C15.4257 17.852 13.6015 18.809 13.5195 18.8481C12.9843 19.0863 12.4297 19.2816 11.8593 19.4184C11.0898 19.5981 10.3047 19.6684 9.51559 19.6215C8.90231 19.5863 8.30075 19.4887 7.71481 19.3168C6.86325 19.0746 6.06246 18.7113 5.32809 18.2074C5.16012 18.0902 4.98825 17.977 4.832 17.8481C4.74215 17.7738 4.66012 17.7777 4.56637 17.8207C3.94137 18.1098 3.29684 18.1684 2.62887 18.0199C1.87106 17.852 1.26168 17.4535 0.808558 16.8324C0.331995 16.1957 0.144495 15.4691 0.238245 14.6645C0.328089 13.9027 0.664026 13.2699 1.21871 12.7504C1.30465 12.6684 1.3984 12.5863 1.49606 12.5238C1.58981 12.4652 1.61325 12.391 1.59762 12.2895C1.50387 11.7152 1.49606 11.1371 1.53903 10.559C1.57418 10.0551 1.63668 9.55118 1.78512 9.0629C1.91793 8.6293 2.04293 8.19571 2.2109 7.77384C2.3984 7.30118 2.65231 6.85977 2.93746 6.43399C3.28121 5.92227 3.67184 5.45352 4.11715 5.02774C4.5234 4.63712 4.96871 4.29727 5.44528 4.0004C5.87496 3.73087 6.32418 3.5043 6.79684 3.32462C6.88278 3.29337 6.92965 3.23477 6.94137 3.13712C7.05075 2.17227 7.50778 1.40665 8.31246 0.867585C9.01168 0.398835 9.78903 0.250397 10.625 0.418366C11.3984 0.574616 12.0078 0.973054 12.4804 1.59024C12.7422 1.93399 12.9336 2.3168 13.0156 2.74649C13.039 2.86368 13.0547 2.98477 13.0898 3.09805C13.1093 3.15274 13.1601 3.21915 13.2109 3.23868C13.8945 3.52774 14.5429 3.88712 15.1328 4.34024C15.6875 4.76212 16.1836 5.24649 16.6211 5.78555C16.9375 6.17618 17.2304 6.58243 17.4492 7.03555C17.6367 7.41446 17.8242 7.79727 17.9765 8.1918C18.1093 8.53555 18.2109 8.89102 18.289 9.2504C18.4179 9.88321 18.5078 10.516 18.5117 11.1606ZM9.98825 1.90274C9.16403 1.89493 8.42965 2.60977 8.4609 3.49649C8.48825 4.30508 9.17184 4.98087 9.98825 4.98477C10.8476 4.99258 11.5781 4.26993 11.5468 3.3793C11.5195 2.59415 10.8476 1.8793 9.98825 1.90274ZM16.6953 16.5356C17.5586 16.5199 18.2343 15.8598 18.2422 15.0043C18.25 14.1371 17.5703 13.4574 16.7148 13.4496C15.8515 13.4379 15.1523 14.1332 15.1601 14.9887C15.1679 15.8676 15.8398 16.5043 16.6953 16.5356ZM3.28512 16.5668C4.10934 16.5941 4.83981 15.8949 4.83981 15.0316C4.83981 14.1606 4.15231 13.4965 3.30856 13.4809C2.46481 13.4652 1.75387 14.1723 1.75387 15.0199C1.74996 15.8715 2.457 16.5785 3.28512 16.5668Z" fill="#4b14c4"/>
</svg>
