<svg width="20" height="20" viewBox="0 0 20 20" fill="none" xmlns="http://www.w3.org/2000/svg">
<path fill-rule="evenodd" clip-rule="evenodd" d="M7.96518 17.8802C4.90518 17.8802 2.29102 17.4177 2.29102 15.5643C2.29102 13.711 4.88852 12.041 7.96518 12.041C11.0252 12.041 13.6385 13.6952 13.6385 15.5477C13.6385 17.4002 11.0418 17.8802 7.96518 17.8802Z" stroke="#5F22E2" stroke-width="1.5" stroke-linecap="round" stroke-linejoin="round"/>
<path fill-rule="evenodd" clip-rule="evenodd" d="M7.96482 9.39833C9.97315 9.39833 11.6015 7.77 11.6015 5.76167C11.6015 3.75333 9.97315 2.125 7.96482 2.125C5.95648 2.125 4.32815 3.75333 4.32815 5.76167C4.32065 7.76333 5.93815 9.39167 7.93898 9.39833H7.96482Z" stroke="#5F22E2" stroke-width="1.5" stroke-linecap="round" stroke-linejoin="round"/>
<path d="M14.0006 8.39919C15.1697 8.08669 16.0314 7.02086 16.0314 5.75253C16.0322 4.42919 15.0931 3.32419 13.8447 3.06836" stroke="#5F22E2" stroke-width="1.5" stroke-linecap="round" stroke-linejoin="round"/>
<path d="M14.5508 11.3779C16.2074 11.3779 17.6224 12.5013 17.6224 13.5038C17.6224 14.0946 17.1349 14.7013 16.3933 14.8754" stroke="#5F22E2" stroke-width="1.5" stroke-linecap="round" stroke-linejoin="round"/>
</svg>
