<svg width="20" height="20" viewBox="0 0 20 20" fill="none" xmlns="http://www.w3.org/2000/svg">
<g id="Iconly/Curved/Profile">
<g id="Profile">
<path id="Stroke 1" fill-rule="evenodd" clip-rule="evenodd" d="M9.87041 18.0516C6.7939 18.0516 4.16663 17.5729 4.16663 15.6555C4.16663 13.7382 6.77723 11.9683 9.87041 11.9683C12.9469 11.9683 15.5742 13.7211 15.5742 15.6384C15.5742 17.5549 12.9636 18.0516 9.87041 18.0516Z" stroke="#666666" stroke-width="1.5" stroke-linecap="round" stroke-linejoin="round"/>
<path id="Stroke 3" fill-rule="evenodd" clip-rule="evenodd" d="M9.86433 9.31136C11.8833 9.31136 13.5196 7.675 13.5196 5.65606C13.5196 3.63712 11.8833 2 9.86433 2C7.84539 2 6.20827 3.63712 6.20827 5.65606C6.20146 7.66818 7.82646 9.30455 9.83858 9.31136C9.84767 9.31136 9.856 9.31136 9.86433 9.31136Z" stroke="#666666" stroke-width="1.5" stroke-linecap="round" stroke-linejoin="round"/>
</g>
</g>
</svg>
