<svg width="20" height="20" viewBox="0 0 20 20" fill="none" xmlns="http://www.w3.org/2000/svg">
<path d="M13.8243 2.25C13.8282 1.66016 13.5743 1.17578 13.1915 1.04297C13.1172 1.01953 13.0352 0.996094 12.9649 0.996094C12.9415 0.996094 12.9219 1 12.8985 1.00391C12.5118 1.08594 12.1251 1.17969 11.7501 1.27344C11.5938 1.3125 11.4376 1.35156 11.2813 1.38672C11.0899 1.43359 10.8985 1.48047 10.7071 1.52734C10.5157 1.57422 10.3243 1.62109 10.1329 1.66797L8.32819 2.10156C8.05865 2.16797 7.78912 2.23047 7.51959 2.29297C7.25006 2.35547 6.98053 2.41797 6.711 2.48438C6.09381 2.62891 5.46881 2.78516 4.93756 2.91406C4.56647 3.00391 4.16412 3.09766 3.76959 3.1875C2.98053 3.375 1.98053 3.73438 1.26178 4.85547C0.562561 5.94531 0.273498 7.19141 0.402404 8.55469C0.546936 10.0859 1.13678 11.2812 2.15631 12.0977C2.51959 12.3828 2.94537 12.5781 3.42194 12.6719C3.51959 12.6914 3.61725 12.7109 3.71881 12.7305C3.86334 12.7617 4.01178 12.7891 4.16022 12.8164C4.33209 12.8438 4.3985 12.9961 4.45319 13.1211L4.45709 13.1289C4.81647 13.957 5.17584 14.7969 5.5274 15.6133C5.87897 16.4297 6.23834 17.2695 6.59772 18.0977C6.60944 18.1289 6.62506 18.1602 6.63678 18.1914C6.74615 18.4453 6.84772 18.6875 7.03522 18.8438C7.18756 18.9688 7.36334 19.0234 7.53912 19.0078C7.72662 18.9883 7.91022 18.8828 8.04694 18.707C8.34381 18.3398 8.41412 17.7656 8.21881 17.3086C7.9649 16.7188 7.711 16.1289 7.45709 15.5391C7.20319 14.9492 6.94928 14.3594 6.69537 13.7695C6.67584 13.7266 6.66803 13.6758 6.65631 13.6211C6.6524 13.5977 6.6485 13.5703 6.64069 13.543L6.60944 13.3945L6.75787 13.4258C6.82428 13.4414 6.88287 13.4531 6.94147 13.4648C7.05084 13.4883 7.1524 13.5117 7.25006 13.5352C7.60553 13.6211 7.961 13.707 8.31647 13.793C8.67194 13.8789 9.0274 13.9648 9.38287 14.0508C9.67194 14.1211 9.96881 14.1875 10.254 14.2539C10.5391 14.3203 10.836 14.3867 11.129 14.457C11.3087 14.5 11.4922 14.543 11.668 14.582C12.0235 14.6641 12.3907 14.75 12.7501 14.8438C12.9688 14.9023 13.1993 14.8516 13.3946 14.7031C13.668 14.4922 13.8282 14.1289 13.8282 13.6992C13.8282 13.3906 13.8282 13.082 13.8282 12.7734C13.8282 12.4648 13.8282 12.1562 13.8282 11.8477C13.8282 11.0469 13.8282 10.25 13.8282 9.44922C13.8204 7.09766 13.8204 4.65625 13.8243 2.25ZM12.3282 11.9258C12.3282 12.1133 12.3282 12.3086 12.1719 12.4297C12.1055 12.4805 12.0235 12.5078 11.9337 12.5078C11.8555 12.5078 11.7813 12.4883 11.7188 12.4727C11.5743 12.4375 11.4297 12.4023 11.2891 12.3672H11.2813C11.1446 12.332 11.004 12.2969 10.8672 12.2656C10.5938 12.1992 10.3204 12.1367 10.0469 12.0703L10.0235 12.0664C9.74225 12 9.461 11.9336 9.17975 11.8672C8.64459 11.7344 8.01569 11.582 7.40631 11.4375C7.14069 11.375 6.87897 11.3125 6.61725 11.25L6.57819 11.2422C6.32037 11.1797 6.06256 11.1211 5.80475 11.0586C4.86725 10.832 3.60596 10.25 3.00049 9.5C2.30518 8.63672 2.39502 7.45703 2.50049 7C2.92627 5.19922 5.05865 4.95703 6.54694 4.64453C6.73834 4.60547 6.91803 4.56641 7.086 4.52734C7.57819 4.41406 8.07819 4.29297 8.56256 4.17578C8.83209 4.10938 9.09772 4.04688 9.36725 3.98438C9.57428 3.93359 9.78522 3.88672 9.99225 3.83594H10.0001C10.1797 3.79297 10.3594 3.75391 10.5352 3.71094C10.6876 3.67578 10.8438 3.63672 10.9962 3.59766C11.2501 3.53516 11.5118 3.46875 11.7774 3.41016C11.8594 3.39062 12.0235 3.35547 12.168 3.46875C12.3165 3.58594 12.3165 3.76562 12.3165 3.89844C12.3165 5.12891 12.3165 6.39844 12.3243 7.65625H12.3282V11.9258Z" fill="#666666"/>
<path d="M16.0234 11.051C16.0976 11.0666 16.1914 11.0744 16.2812 11.0783C16.332 11.0822 16.3789 11.0822 16.4296 11.0861C17.8085 10.9494 18.7539 10.301 19.3242 9.10564C19.6718 8.37517 19.7265 7.59002 19.4882 6.78142C19.2226 5.86736 18.6445 5.17595 17.7773 4.72673C17.3945 4.52752 16.957 4.40642 16.4414 4.36345C16.0664 4.3322 15.8281 4.46111 15.7031 4.75798C15.6289 4.93377 15.6328 5.11736 15.707 5.28142C15.7812 5.44158 15.914 5.55877 16.082 5.60955C16.1757 5.63689 16.2812 5.65252 16.4101 5.66423C17.5078 5.74627 18.3437 6.67205 18.3164 7.77752C18.2929 8.66423 17.6328 9.49626 16.7734 9.71501C16.6171 9.75798 16.4453 9.78142 16.2187 9.79705C15.9023 9.81658 15.6367 10.047 15.5976 10.3361C15.5585 10.6564 15.7382 10.9611 16.0234 11.051Z" fill="#666666"/>
<path d="M15.7305 6.96875C15.3125 6.96875 14.9727 7.30859 14.9727 7.72656C14.9727 7.92578 15.0508 8.11328 15.1992 8.25781C15.3438 8.40234 15.5352 8.48047 15.7305 8.48047C15.7344 8.48047 15.7344 8.48047 15.7383 8.48047C16.1445 8.47656 16.4922 8.12891 16.4922 7.72266C16.4922 7.52344 16.418 7.33203 16.2773 7.19141C16.1328 7.04688 15.9375 6.96875 15.7305 6.96875Z" fill="#666666"/>
</svg>
