<svg width="20" height="20" viewBox="0 0 20 20" fill="none" xmlns="http://www.w3.org/2000/svg">
<g id="Iconly/Curved/3 User">
<g id="3 User">
<path id="Stroke 1" fill-rule="evenodd" clip-rule="evenodd" d="M9.97705 16.9732C7.27788 16.9732 4.97205 16.5649 4.97205 14.9299C4.97205 13.2949 7.26288 11.8716 9.97705 11.8716C12.6762 11.8716 14.982 13.2816 14.982 14.9157C14.982 16.5499 12.6912 16.9732 9.97705 16.9732Z" stroke="#666666" stroke-width="1.5" stroke-linecap="round" stroke-linejoin="round"/>
<path id="Stroke 3" fill-rule="evenodd" clip-rule="evenodd" d="M9.97702 9.54034C11.7487 9.54034 13.1854 8.10451 13.1854 6.33284C13.1854 4.56118 11.7487 3.12451 9.97702 3.12451C8.20536 3.12451 6.76869 4.56118 6.76869 6.33284C6.76369 8.09784 8.18869 9.53451 9.95452 9.54034H9.97702Z" stroke="#666666" stroke-width="1.5" stroke-linecap="round" stroke-linejoin="round"/>
<path id="Stroke 5" d="M15.3018 8.65953C16.3326 8.3837 17.0926 7.4437 17.0926 6.32453C17.0926 5.15703 16.2651 4.18203 15.1635 3.95703" stroke="#666666" stroke-width="1.5" stroke-linecap="round" stroke-linejoin="round"/>
<path id="Stroke 7" d="M15.786 11.2866C17.2477 11.2866 18.496 12.2775 18.496 13.1625C18.496 13.6833 18.0652 14.2508 17.4118 14.4041" stroke="#666666" stroke-width="1.5" stroke-linecap="round" stroke-linejoin="round"/>
<path id="Stroke 9" d="M4.65312 8.65953C3.62145 8.3837 2.86145 7.4437 2.86145 6.32453C2.86145 5.15703 3.68978 4.18203 4.79062 3.95703" stroke="#666666" stroke-width="1.5" stroke-linecap="round" stroke-linejoin="round"/>
<path id="Stroke 11" d="M4.16813 11.2866C2.70646 11.2866 1.45813 12.2775 1.45813 13.1625C1.45813 13.6833 1.88896 14.2508 2.54313 14.4041" stroke="#666666" stroke-width="1.5" stroke-linecap="round" stroke-linejoin="round"/>
</g>
</g>
</svg>
