<svg width="20" height="20" viewBox="0 0 20 20" fill="none" xmlns="http://www.w3.org/2000/svg">
<path d="M0.265674 9.8946C0.250049 9.12116 0.378956 8.2696 0.632862 7.44538C1.2188 5.55866 2.30083 4.0196 3.89458 2.84772C4.53521 2.37506 5.23052 2.00006 5.97271 1.71881C7.09771 1.29303 8.26567 1.09772 9.4688 1.1485C10.2969 1.18366 11.1055 1.32819 11.8946 1.59381C13.7422 2.21491 15.2305 3.32428 16.3594 4.90631C16.7969 5.5196 17.1446 6.17975 17.4024 6.89069C17.4493 7.01959 17.4883 7.15241 17.5508 7.27741C17.5782 7.336 17.6407 7.3985 17.6993 7.41413C18.2891 7.55866 18.7735 7.86334 19.1485 8.336C19.6993 9.02741 19.8633 9.80866 19.6446 10.6641C19.4258 11.5274 18.8829 12.1251 18.0704 12.461C17.4727 12.711 16.8555 12.7266 16.2344 12.5118C15.5157 12.2657 14.9922 11.7969 14.6719 11.1173C14.3907 10.5157 14.3399 9.88678 14.5352 9.24616C14.7305 8.59772 15.1172 8.09772 15.6915 7.73835C15.7891 7.67975 15.7852 7.61335 15.7461 7.50788C15.3594 6.47663 14.7657 5.586 13.9649 4.8321C13.3204 4.22663 12.5821 3.76178 11.7579 3.42584C10.6368 2.96881 9.4688 2.82819 8.27349 2.961C7.47271 3.05085 6.71099 3.29303 5.98833 3.65631C4.9063 4.19928 4.01958 4.96881 3.32036 5.9571C2.93755 6.49616 2.64458 7.0821 2.42583 7.7071C2.12896 8.56647 1.98833 9.44928 2.0313 10.3555C2.06255 11.0391 2.19146 11.7071 2.41802 12.3555C2.92583 13.8087 3.81646 14.9727 5.07427 15.8555C5.61333 16.2344 6.20317 16.5274 6.82817 16.7383C7.70708 17.0352 8.60942 17.1719 9.53521 17.1055C11.1485 16.9923 12.5704 16.4102 13.793 15.3477C14.2618 14.9415 14.8594 15.0196 15.1797 15.5313C15.3907 15.8712 15.3243 16.3477 15.004 16.6251C14.3868 17.1719 13.7071 17.6212 12.9649 17.9766C12.1368 18.3751 11.2696 18.6368 10.3594 18.7657C9.48052 18.8868 8.60161 18.8985 7.73052 18.7305C7.22271 18.6329 6.71099 18.5196 6.2188 18.3594C5.50005 18.129 4.82817 17.7813 4.19927 17.3594C3.42583 16.8399 2.74614 16.2188 2.16802 15.4883C1.55864 14.7149 1.08989 13.8712 0.761768 12.9415C0.429737 11.9883 0.257862 11.004 0.265674 9.8946ZM17.9649 9.99225C17.9649 9.50788 17.5547 9.10553 17.0704 9.10944C16.5938 9.11335 16.1993 9.51178 16.1993 9.99616C16.1993 10.4883 16.5977 10.8868 17.0821 10.8868C17.5665 10.8829 17.9688 10.4766 17.9649 9.99225Z" fill="#666666"/>
<path d="M6.95313 10.8869C6.50001 10.8869 6.05079 10.8908 5.59766 10.8869C5.29298 10.883 5.03126 10.7697 4.85157 10.5119C4.64844 10.2228 4.62501 9.91032 4.78516 9.59782C4.95313 9.2736 5.23829 9.11735 5.59766 9.11344C6.45704 9.10563 7.31251 9.10954 8.17188 9.11344C8.42579 9.11344 8.65235 9.05094 8.83985 8.86735C9.03516 8.67985 9.11329 8.44938 9.11329 8.18375C9.10938 7.33219 9.10938 6.47672 9.11329 5.62516C9.11329 5.2775 9.25391 5.00407 9.55079 4.81266C10.0156 4.51188 10.707 4.78141 10.8399 5.32047C10.8711 5.44157 10.8867 5.56657 10.8867 5.68766C10.8906 6.50407 10.8945 7.32047 10.8867 8.13688C10.8789 9.26969 10.375 10.1134 9.36329 10.633C9.01563 10.8127 8.63282 10.8869 8.24219 10.8908C7.81251 10.8908 7.38282 10.8869 6.95313 10.8869Z" fill="#666666"/>
</svg>
