<svg width="20" height="20" viewBox="0 0 20 20" fill="none" xmlns="http://www.w3.org/2000/svg">
<path d="M18.5117 11.1601C18.4804 11.5233 18.4531 11.8866 18.414 12.2499C18.4023 12.3632 18.4375 12.4335 18.5195 12.496C19.0039 12.8515 19.3515 13.3085 19.5742 13.8671C19.8007 14.4374 19.8398 15.0194 19.7226 15.6054C19.5742 16.3554 19.1836 16.9687 18.5703 17.4374C17.9922 17.8749 17.3359 18.0976 16.6172 18.0702C15.5664 18.0233 14.7265 17.5702 14.1328 16.6874C13.6445 15.9608 13.5117 15.1601 13.6875 14.3163C13.8359 13.621 14.1992 13.0429 14.7539 12.5937C15.3359 12.1249 16 11.8983 16.7461 11.9062C16.8632 11.9062 16.914 11.8554 16.9218 11.7421C16.9726 11.0976 16.9453 10.4569 16.8203 9.82022C16.6953 9.1835 16.4882 8.57413 16.1992 7.9921C15.7226 7.03507 15.0547 6.23819 14.2109 5.58585C13.8125 5.27725 13.3828 5.02335 12.9297 4.8085C12.8281 4.76163 12.7656 4.79678 12.7226 4.88272C12.5117 5.28507 12.2226 5.6171 11.8672 5.89053C11.5156 6.16007 11.1211 6.33585 10.6914 6.44132C10.3593 6.51944 10.0234 6.54678 9.68746 6.50772C8.82809 6.41007 8.11715 6.02335 7.582 5.33975C7.47653 5.20694 7.39059 5.0546 7.29293 4.91007C7.24996 4.84366 7.19918 4.81241 7.11325 4.85147C6.0859 5.29678 5.23043 5.97257 4.53512 6.84366C4.13278 7.34757 3.80856 7.90225 3.57418 8.49991C3.37106 9.01553 3.22262 9.54678 3.14059 10.0976C3.05856 10.6444 3.05075 11.1952 3.0859 11.7421C3.09762 11.9101 3.12496 11.9257 3.29293 11.9296C3.78903 11.9335 4.25778 12.0546 4.70309 12.2773C5.21481 12.5351 5.61715 12.9101 5.91793 13.3905C6.23434 13.8944 6.39059 14.4491 6.37887 15.0468C6.37106 15.4569 6.29684 15.8515 6.13668 16.2304C6.082 16.3554 6.0195 16.4765 5.94918 16.5937C5.89059 16.6913 5.92184 16.7577 5.99996 16.8046C6.35153 17.0155 6.69528 17.2343 7.05856 17.4179C7.32809 17.5585 7.61715 17.664 7.90231 17.7616C8.16403 17.8476 8.43356 17.9179 8.707 17.9687C9.55465 18.1288 10.4101 18.1366 11.2578 17.9687C11.7695 17.8671 12.2929 17.7148 12.7617 17.4804C13.0547 17.3358 13.3476 17.1874 13.6406 17.0429C13.6875 17.0194 14.332 16.6913 14.3554 16.746C14.4648 16.9726 14.7187 17.0937 14.8242 17.3202C14.8945 17.4765 15.3203 17.6132 15.3906 17.7733C15.4257 17.8515 13.6015 18.8085 13.5195 18.8476C12.9843 19.0858 12.4297 19.2812 11.8593 19.4179C11.0898 19.5976 10.3047 19.6679 9.51559 19.621C8.90231 19.5858 8.30075 19.4882 7.71481 19.3163C6.86325 19.0741 6.06246 18.7108 5.32809 18.2069C5.16012 18.0898 4.98825 17.9765 4.832 17.8476C4.74215 17.7733 4.66012 17.7773 4.56637 17.8202C3.94137 18.1093 3.29684 18.1679 2.62887 18.0194C1.87106 17.8515 1.26168 17.453 0.808558 16.8319C0.331995 16.1952 0.144495 15.4687 0.238245 14.664C0.328089 13.9023 0.664026 13.2694 1.21871 12.7499C1.30465 12.6679 1.3984 12.5858 1.49606 12.5233C1.58981 12.4648 1.61325 12.3905 1.59762 12.289C1.50387 11.7148 1.49606 11.1366 1.53903 10.5585C1.57418 10.0546 1.63668 9.55069 1.78512 9.06241C1.91793 8.62882 2.04293 8.19522 2.2109 7.77335C2.3984 7.30069 2.65231 6.85928 2.93746 6.4335C3.28121 5.92178 3.67184 5.45303 4.11715 5.02725C4.5234 4.63663 4.96871 4.29678 5.44528 3.99991C5.87496 3.73038 6.32418 3.50382 6.79684 3.32413C6.88278 3.29288 6.92965 3.23428 6.94137 3.13663C7.05075 2.17178 7.50778 1.40616 8.31246 0.867097C9.01168 0.398347 9.78903 0.249909 10.625 0.417878C11.3984 0.574128 12.0078 0.972565 12.4804 1.58975C12.7422 1.9335 12.9336 2.31632 13.0156 2.746C13.039 2.86319 13.0547 2.98428 13.0898 3.09757C13.1093 3.15225 13.1601 3.21866 13.2109 3.23819C13.8945 3.52725 14.5429 3.88663 15.1328 4.33975C15.6875 4.76163 16.1836 5.246 16.6211 5.78507C16.9375 6.17569 17.2304 6.58194 17.4492 7.03507C17.6367 7.41397 17.8242 7.79678 17.9765 8.19132C18.1093 8.53507 18.2109 8.89053 18.289 9.24991C18.4179 9.88272 18.5078 10.5155 18.5117 11.1601ZM9.98825 1.90225C9.16403 1.89444 8.42965 2.60928 8.4609 3.496C8.48825 4.3046 9.17184 4.98038 9.98825 4.98428C10.8476 4.9921 11.5781 4.26944 11.5468 3.37882C11.5195 2.59366 10.8476 1.87882 9.98825 1.90225ZM16.6953 16.5351C17.5586 16.5194 18.2343 15.8593 18.2422 15.0038C18.25 14.1366 17.5703 13.4569 16.7148 13.4491C15.8515 13.4374 15.1523 14.1327 15.1601 14.9882C15.1679 15.8671 15.8398 16.5038 16.6953 16.5351ZM3.28512 16.5663C4.10934 16.5937 4.83981 15.8944 4.83981 15.0312C4.83981 14.1601 4.15231 13.496 3.30856 13.4804C2.46481 13.4648 1.75387 14.1718 1.75387 15.0194C1.74996 15.871 2.457 16.578 3.28512 16.5663Z" fill="#666666"/>
</svg>
