<svg width="18" height="18" viewBox="0 0 18 18" fill="none" xmlns="http://www.w3.org/2000/svg">
<path fill-rule="evenodd" clip-rule="evenodd" d="M6.96543 16.8802C3.90543 16.8802 1.29126 16.4177 1.29126 14.5643C1.29126 12.711 3.88876 11.041 6.96543 11.041C10.0254 11.041 12.6388 12.6952 12.6388 14.5477C12.6388 16.4002 10.0421 16.8802 6.96543 16.8802Z" stroke="#666666" stroke-width="1.5" stroke-linecap="round" stroke-linejoin="round"/>
<path fill-rule="evenodd" clip-rule="evenodd" d="M6.96543 8.39784C8.97376 8.39784 10.6021 6.76951 10.6021 4.76118C10.6021 2.75284 8.97376 1.12451 6.96543 1.12451C4.95709 1.12451 3.32876 2.75284 3.32876 4.76118C3.32126 6.76284 4.93876 8.39118 6.93959 8.39784H6.96543Z" stroke="#666666" stroke-width="1.5" stroke-linecap="round" stroke-linejoin="round"/>
<path d="M13.001 7.3987C14.1702 7.0862 15.0319 6.02037 15.0319 4.75204C15.0327 3.4287 14.0935 2.3237 12.8452 2.06787" stroke="#666666" stroke-width="1.5" stroke-linecap="round" stroke-linejoin="round"/>
<path d="M13.5507 10.3779C15.2073 10.3779 16.6223 11.5013 16.6223 12.5038C16.6223 13.0946 16.1348 13.7013 15.3932 13.8754" stroke="#666666" stroke-width="1.5" stroke-linecap="round" stroke-linejoin="round"/>
</svg>
