<svg width="12" height="12" viewBox="0 0 12 12" fill="none" xmlns="http://www.w3.org/2000/svg">
<path d="M7.75272 5.60055L5.69022 7.66305C5.49996 7.85331 5.2419 7.9602 4.97283 7.9602C4.70375 7.9602 4.4457 7.85331 4.25544 7.66305C4.06517 7.47278 3.95828 7.21473 3.95828 6.94566C3.95828 6.67658 4.06517 6.41853 4.25544 6.22826L6.49729 3.98641C6.6162 3.8675 6.77748 3.80069 6.94566 3.80069C7.11383 3.80069 7.27511 3.8675 7.39403 3.98641C7.51294 4.10533 7.57975 4.26661 7.57975 4.43478C7.57975 4.60296 7.51294 4.76424 7.39403 4.88315L5.51087 6.76631C5.46331 6.81387 5.39879 6.8406 5.33152 6.8406C5.26426 6.8406 5.19974 6.81387 5.15218 6.76631C5.10461 6.71874 5.07789 6.65423 5.07789 6.58696C5.07789 6.51969 5.10461 6.45518 5.15218 6.40761L6.85598 4.70381L6.58696 4.43478L4.88315 6.13859C4.76424 6.2575 4.69743 6.41879 4.69743 6.58696C4.69743 6.75513 4.76424 6.91641 4.88315 7.03533C5.00207 7.15424 5.16335 7.22105 5.33152 7.22105C5.4997 7.22105 5.66098 7.15424 5.77989 7.03533L7.66305 5.15218C7.85331 4.96191 7.9602 4.70386 7.9602 4.43478C7.9602 4.16571 7.85331 3.90766 7.66305 3.71739C7.47278 3.52713 7.21473 3.42024 6.94566 3.42024C6.67658 3.42024 6.41853 3.52713 6.22826 3.71739L3.98641 5.95924C3.7248 6.22086 3.57783 6.57568 3.57783 6.94566C3.57783 7.31563 3.7248 7.67046 3.98641 7.93207C4.24803 8.19368 4.60285 8.34066 4.97283 8.34066C5.3428 8.34066 5.69763 8.19368 5.95924 7.93207L8.02174 5.86957L7.75272 5.60055Z" fill="black"/>
</svg>
