<svg width="20" height="20" viewBox="0 0 20 20" fill="none" xmlns="http://www.w3.org/2000/svg">
<g filter="url(#filter0_d_5445_10544)">
<circle cx="10" cy="9" r="8" fill="white"/>
</g>
<path d="M7 12L9.2823 8.8642L7.17225 6H8.44976L9.38277 7.32099C9.48804 7.47737 9.59809 7.64198 9.71292 7.81481C9.83732 7.97942 9.95694 8.14815 10.0718 8.32099H10.1292C10.2344 8.14815 10.3397 7.97942 10.445 7.81481C10.5502 7.64198 10.6555 7.47737 10.7608 7.32099L11.6077 6H12.8421L10.7321 8.97531L13 12H11.7225L10.7033 10.6049C10.5789 10.4239 10.4498 10.2428 10.3158 10.0617C10.1914 9.88066 10.067 9.7037 9.94258 9.53086H9.88517C9.76077 9.7037 9.64115 9.88066 9.52632 10.0617C9.41148 10.2346 9.29665 10.4156 9.18182 10.6049L8.23445 12H7Z" fill="#212121"/>
<defs>
<filter id="filter0_d_5445_10544" x="0" y="0" width="20" height="20" filterUnits="userSpaceOnUse" color-interpolation-filters="sRGB">
<feFlood flood-opacity="0" result="BackgroundImageFix"/>
<feColorMatrix in="SourceAlpha" type="matrix" values="0 0 0 0 0 0 0 0 0 0 0 0 0 0 0 0 0 0 127 0" result="hardAlpha"/>
<feOffset dy="1"/>
<feGaussianBlur stdDeviation="1"/>
<feComposite in2="hardAlpha" operator="out"/>
<feColorMatrix type="matrix" values="0 0 0 0 0 0 0 0 0 0 0 0 0 0 0 0 0 0 0.25 0"/>
<feBlend mode="normal" in2="BackgroundImageFix" result="effect1_dropShadow_5445_10544"/>
<feBlend mode="normal" in="SourceGraphic" in2="effect1_dropShadow_5445_10544" result="shape"/>
</filter>
</defs>
</svg>
