<svg width="127" height="128" viewBox="0 0 127 128" fill="none" xmlns="http://www.w3.org/2000/svg">
<path d="M5.78364 56.5835C6.24565 49.7914 8.18282 21.3028 29.6345 7.60072C54.1844 -8.08014 91.38 3.85194 109.991 27.6098C121.332 42.0855 129.954 66.2882 120.556 86.8373C104.576 121.779 44.3219 129.036 19.2295 103.645C3.65488 87.8852 5.3272 63.292 5.78364 56.5835Z" fill="#EBEDFF"/>
<path d="M111.546 110.924C111.464 110.924 111.383 110.92 111.301 110.911L57.3722 104.88C56.7944 104.815 56.2754 104.528 55.9103 104.071C55.5451 103.615 55.3797 103.045 55.4444 102.467L63.383 31.4786C63.4477 30.9009 63.7348 30.3819 64.1917 30.0167C64.6486 29.6516 65.2182 29.4861 65.7959 29.5508L119.725 35.5814C120.303 35.6461 120.822 35.9332 121.187 36.3901C121.552 36.847 121.717 37.417 121.653 37.9943L113.714 108.983C113.649 109.561 113.362 110.08 112.905 110.445C112.513 110.758 112.038 110.924 111.546 110.924ZM65.552 30.063C65.1787 30.063 64.8179 30.1894 64.5196 30.4273C64.1724 30.7046 63.9543 31.0984 63.9054 31.5365L55.9668 102.525C55.918 102.963 56.0436 103.396 56.3208 103.743C56.5981 104.09 56.992 104.308 57.43 104.357L111.359 110.387C111.797 110.437 112.229 110.311 112.577 110.033C112.924 109.756 113.142 109.362 113.191 108.924L121.129 37.9356C121.178 37.4976 121.053 37.0651 120.775 36.718C120.498 36.3708 120.104 36.1527 119.666 36.1038L65.7372 30.0733C65.675 30.0664 65.6133 30.063 65.552 30.063Z" fill="#444444"/>
<path d="M104.691 112.988L52.4589 98.2719C51.4419 97.9856 50.8445 96.9189 51.1308 95.9023L70.5017 27.1479C70.788 26.1309 71.8547 25.5334 72.8713 25.8197L125.103 40.5354C126.12 40.8217 126.718 41.8884 126.431 42.905L107.06 111.659C106.774 112.676 105.707 113.274 104.691 112.988Z" fill="#462682"/>
<path d="M108.021 49.6896L82.6629 42.5452C81.9107 42.3335 81.4684 41.5444 81.6806 40.7923C81.8923 40.0401 82.6813 39.5978 83.4335 39.81L108.791 46.9544C109.543 47.1661 109.986 47.9551 109.774 48.7073C109.562 49.4595 108.773 49.9017 108.021 49.6896Z" fill="#B3CEF6"/>
<path d="M113.073 59.6973L73.1292 48.4436C72.377 48.2319 71.9348 47.4429 72.1469 46.6907C72.3586 45.9386 73.1476 45.4963 73.8998 45.7084L113.843 56.9621C114.596 57.1742 115.038 57.9628 114.826 58.715C114.614 59.4671 113.825 59.9094 113.073 59.6973Z" fill="#B3CEF6"/>
<path d="M111.299 65.9951L71.3558 54.7415C70.6036 54.5297 70.1613 53.7407 70.3735 52.9886C70.5852 52.2364 71.3742 51.7941 72.1264 52.0063L112.07 63.2599C112.822 63.4716 113.264 64.2606 113.052 65.0128C112.841 65.765 112.052 66.2073 111.299 65.9951Z" fill="#B3CEF6"/>
<path d="M109.524 72.292L69.5809 61.0383C68.8287 60.8266 68.3864 60.0376 68.5986 59.2854C68.8103 58.5333 69.5993 58.091 70.3514 58.3031L110.295 69.5568C111.047 69.7685 111.49 70.5575 111.277 71.3097C111.066 72.0618 110.277 72.5041 109.524 72.292Z" fill="#B3CEF6"/>
<path d="M107.751 78.5889L67.8069 67.3352C67.0548 67.1235 66.6125 66.3345 66.8246 65.5823C67.0364 64.8302 67.8254 64.3879 68.5775 64.6L108.521 75.8537C109.273 76.0654 109.716 76.8544 109.503 77.6066C109.292 78.3587 108.503 78.801 107.751 78.5889Z" fill="#B3CEF6"/>
<path d="M105.977 84.8857L66.033 73.6321C65.2809 73.4204 64.8386 72.6314 65.0507 71.8792C65.2624 71.127 66.0514 70.6848 66.8036 70.8969L106.747 82.1505C107.499 82.3623 107.942 83.1513 107.73 83.9034C107.518 84.6556 106.729 85.0979 105.977 84.8857Z" fill="#B3CEF6"/>
<path d="M104.202 91.1846L64.2586 79.9309C63.5064 79.7192 63.0641 78.9302 63.2763 78.178C63.488 77.4259 64.277 76.9836 65.0292 77.1957L104.973 88.4494C105.725 88.6615 106.167 89.4501 105.955 90.2023C105.743 90.9544 104.954 91.3967 104.202 91.1846Z" fill="#B3CEF6"/>
<path d="M102.428 97.4805L62.4842 86.2268C61.732 86.0151 61.2897 85.2261 61.5019 84.4739C61.7136 83.7218 62.5026 83.2795 63.2548 83.4916L103.198 94.7453C103.951 94.957 104.393 95.746 104.181 96.4982C103.969 97.2503 103.18 97.6926 102.428 97.4805Z" fill="#B3CEF6"/>
<path d="M100.654 103.778L60.7107 92.5247C59.9586 92.313 59.5163 91.5239 59.7284 90.7718C59.9406 90.0196 60.7292 89.5773 61.4813 89.7895L101.425 101.043C102.177 101.255 102.619 102.044 102.407 102.796C102.196 103.548 101.407 103.99 100.654 103.778Z" fill="#B3CEF6"/>
<path d="M30.7974 96.6977H30.7893C30.7096 96.6977 30.6393 96.6947 30.5737 96.6892C30.5638 96.6883 30.5544 96.687 30.5445 96.6862L30.5347 96.6849C30.4751 96.6789 30.4134 96.6707 30.3517 96.66L30.3388 96.6579C30.3225 96.6553 30.3063 96.6523 30.29 96.6493C30.2244 96.6365 30.1584 96.621 30.0941 96.603C30.0757 96.5979 30.0573 96.5923 30.0388 96.5867L30.0268 96.5829C29.975 96.567 29.9235 96.5494 29.8734 96.531L29.8691 96.5293C29.846 96.5207 29.8224 96.5117 29.7997 96.5023C29.7478 96.4809 29.6964 96.4577 29.642 96.4312C29.6158 96.4183 29.5897 96.4054 29.564 96.3917C29.5031 96.3596 29.4512 96.3296 29.4037 96.3C29.3801 96.2854 29.3574 96.27 29.3347 96.2542L29.3141 96.24C29.2798 96.2169 29.2464 96.1933 29.2134 96.1689C29.1864 96.1487 29.1602 96.1282 29.1345 96.1067C29.0994 96.0784 29.0634 96.0476 29.0248 96.012L29.0102 95.9987C28.9952 95.985 28.9798 95.9717 28.9652 95.9571C28.9082 95.9023 28.8572 95.8483 28.8088 95.793C28.8011 95.784 28.7947 95.7759 28.7882 95.7682L28.7839 95.7626C28.7428 95.7137 28.7017 95.661 28.6627 95.607C28.6489 95.5877 28.6361 95.5689 28.6232 95.55L28.6202 95.5457C28.5885 95.4986 28.5572 95.4493 28.5277 95.3987L28.5195 95.3846C28.5101 95.3687 28.5011 95.3533 28.4921 95.337C28.4492 95.259 28.4141 95.1879 28.3841 95.1193L28.2212 94.7451L0.216975 30.3922C0.184403 30.3176 0.15526 30.24 0.127402 30.1548C0.121402 30.1368 0.116259 30.1183 0.111545 30.0999C0.109402 30.0926 0.107687 30.0853 0.105545 30.078C0.0914014 30.0296 0.0751154 29.9722 0.062258 29.9135C0.0571151 29.8899 0.0528293 29.8663 0.0485435 29.8428L0.0446863 29.8226C0.0335432 29.7635 0.0258288 29.715 0.0202572 29.6696C0.0164 29.6379 0.0134 29.6062 0.0103999 29.5745C0.00611411 29.5239 0.00311405 29.4733 0.00139973 29.4249C0.000542576 29.3936 -0.000314583 29.3615 0.000113996 29.3297C0.000113996 29.2843 0.00225689 29.2355 0.00568553 29.1806L0.00654269 29.1643C0.00825701 29.1382 0.00954275 29.1125 0.0121142 29.0867C0.0172572 29.034 0.0249716 28.9835 0.0318289 28.9397L0.0352575 28.9153C0.0386862 28.8926 0.0421148 28.8703 0.0464006 28.8476C0.0554008 28.8009 0.0665438 28.758 0.0768297 28.7169L0.0798298 28.7057C0.111545 28.5802 0.147974 28.4666 0.191689 28.359C0.196832 28.3466 0.202404 28.3342 0.207975 28.3217C0.209689 28.3179 0.211404 28.314 0.213118 28.3102C0.244404 28.2369 0.274833 28.173 0.305691 28.1147C0.314691 28.0976 0.324549 28.0809 0.333977 28.0641L0.345121 28.0449C0.380693 27.9827 0.411979 27.9313 0.444122 27.8833C0.459551 27.8601 0.476266 27.837 0.49298 27.8139L0.497695 27.8074C0.534124 27.7569 0.569696 27.7106 0.606983 27.6664C0.628412 27.6407 0.649841 27.6159 0.672127 27.591C0.708556 27.5503 0.747985 27.5091 0.792986 27.4654L0.798986 27.4594C0.821701 27.4376 0.843987 27.4157 0.867559 27.3947C0.916417 27.351 0.966132 27.3111 1.00428 27.2811L1.02399 27.2657C1.04371 27.2498 1.06342 27.234 1.08442 27.2194C1.13928 27.1796 1.19457 27.1448 1.24557 27.1136C1.25199 27.1097 1.25885 27.105 1.26614 27.1007C1.28414 27.0891 1.30257 27.0771 1.32142 27.0664C1.40843 27.0167 1.492 26.9747 1.57686 26.9378L52.0922 4.95514C52.1762 4.91871 52.2641 4.88614 52.3605 4.85614C52.3807 4.84971 52.4017 4.84457 52.4222 4.83943C52.4304 4.83728 52.4385 4.83557 52.4467 4.833C52.502 4.818 52.5658 4.80085 52.6327 4.78757C52.6588 4.78242 52.6845 4.77857 52.7107 4.77471L52.7355 4.77085C52.7895 4.76228 52.8474 4.75414 52.9083 4.74857C52.9391 4.746 52.97 4.74428 53.0008 4.743H53.0137C53.0763 4.73957 53.1315 4.73871 53.1843 4.73957C53.219 4.74042 53.2541 4.74171 53.2888 4.74342C53.3433 4.74642 53.399 4.75157 53.4594 4.75885L53.465 4.75971C53.4963 4.76357 53.5271 4.76742 53.558 4.77257C53.6116 4.78114 53.6677 4.79271 53.7346 4.80814L53.7564 4.81328C53.7783 4.818 53.7997 4.82314 53.8216 4.82871C53.8811 4.845 53.9437 4.86471 54.0174 4.89086C54.0221 4.89257 54.0273 4.89428 54.0324 4.896C54.047 4.90071 54.0616 4.90543 54.0761 4.911C54.1863 4.953 54.2964 5.00486 54.4126 5.06914L54.4267 5.07686C54.4601 5.09529 54.4953 5.11457 54.5313 5.13686C54.5506 5.14886 54.5686 5.16129 54.5866 5.17372L54.6067 5.18743C54.6461 5.21358 54.6886 5.24315 54.7319 5.27572C54.7524 5.29158 54.7721 5.30743 54.7919 5.32372L54.8017 5.33186C54.8454 5.36744 54.884 5.40044 54.9183 5.43258C54.9406 5.45315 54.962 5.47372 54.9834 5.49472C55.0199 5.53072 55.0559 5.56844 55.0906 5.60701C55.1112 5.62973 55.1313 5.65287 55.151 5.67644C55.1819 5.7133 55.2127 5.75273 55.2483 5.80116L55.2603 5.81744C55.2744 5.8363 55.2882 5.85516 55.3014 5.87445C55.3349 5.92287 55.3649 5.97216 55.3923 6.01845C55.3962 6.02488 55.4004 6.03131 55.4043 6.03773C55.4146 6.05402 55.4244 6.07031 55.4339 6.08702C55.4776 6.16631 55.5149 6.24088 55.5466 6.3146L83.7133 71.043C83.7433 71.1115 83.7703 71.184 83.799 71.2701C83.8046 71.2877 83.8097 71.3044 83.8148 71.3211L83.82 71.3382C83.8367 71.394 83.8517 71.4505 83.8646 71.5067L83.8676 71.5191C83.8723 71.5388 83.8766 71.559 83.8808 71.5791C83.8937 71.6438 83.904 71.7094 83.9121 71.7745L83.913 71.7814C83.9147 71.7913 83.916 71.8015 83.9173 71.8114C83.925 71.8851 83.9297 71.9593 83.931 72.039C83.931 72.0583 83.931 72.0793 83.931 72.0998V72.1204C83.9297 72.1731 83.928 72.2198 83.925 72.2644C83.9228 72.2978 83.9198 72.3317 83.9164 72.3651C83.9121 72.405 83.9061 72.4453 83.9001 72.4851C83.88 72.6176 83.85 72.7478 83.811 72.8726C83.8063 72.8876 83.8011 72.9021 83.7964 72.9163L83.7904 72.9339C83.7655 73.0067 83.7381 73.0779 83.7081 73.146C83.6978 73.1691 83.6876 73.1927 83.6764 73.2163C83.6443 73.284 83.6087 73.3509 83.5676 73.4212L83.5594 73.4353C83.5521 73.4482 83.5453 73.461 83.5371 73.4734C83.4818 73.5626 83.427 73.6419 83.3687 73.716C83.3631 73.7233 83.3567 73.7306 83.3503 73.7374C83.2975 73.803 83.2393 73.8686 83.1767 73.932C83.1613 73.9479 83.1445 73.9633 83.1278 73.9792L83.1111 73.995C83.0601 74.0434 83.0087 74.0889 82.9573 74.13C82.9307 74.1514 82.9037 74.1725 82.8763 74.193C82.824 74.232 82.7678 74.2702 82.704 74.3105L82.6834 74.3237C82.6641 74.3362 82.6448 74.3486 82.6251 74.3602C82.5287 74.4163 82.44 74.4613 82.3534 74.499L31.838 96.4813C31.7707 96.5105 31.6974 96.5383 31.6134 96.5662L31.6066 96.5683C31.5929 96.573 31.5791 96.5773 31.5654 96.5816C31.4917 96.6047 31.4171 96.6245 31.3451 96.6399C31.3357 96.642 31.3258 96.6437 31.316 96.6454L31.304 96.6476C31.2337 96.6617 31.1656 96.6724 31.1 96.6802L31.0918 96.6814C31.0828 96.6827 31.0734 96.684 31.064 96.6849C30.9946 96.6922 30.923 96.6964 30.8446 96.6982C30.8287 96.6982 30.812 96.6986 30.7957 96.6986L30.7974 96.6977ZM53.1448 5.26458C53.1123 5.26458 53.078 5.26543 53.0398 5.26715H53.0265C53.003 5.26886 52.979 5.27015 52.9554 5.27229C52.9091 5.27658 52.8615 5.28343 52.817 5.29029L52.7883 5.29458C52.7707 5.29715 52.7531 5.29972 52.7355 5.30315C52.6863 5.31301 52.6331 5.32715 52.5873 5.33958C52.5753 5.34301 52.5628 5.34601 52.5504 5.34901C52.5397 5.35158 52.529 5.35415 52.5182 5.35758C52.4398 5.38201 52.3695 5.40815 52.3027 5.43687L1.78686 27.4196C1.71958 27.4487 1.65272 27.4826 1.582 27.5229C1.57214 27.5284 1.56272 27.5349 1.55286 27.5413C1.54257 27.5481 1.53229 27.5546 1.522 27.561C1.47871 27.5876 1.43371 27.6159 1.393 27.6454C1.37928 27.6553 1.366 27.666 1.35271 27.6767L1.32914 27.6951C1.29571 27.7213 1.25671 27.7526 1.22028 27.7856C1.20185 27.8019 1.18428 27.8194 1.16671 27.8366L1.16071 27.8426C1.12428 27.8781 1.09256 27.9107 1.06385 27.9429C1.04585 27.9626 1.0287 27.9827 1.01199 28.0033C0.982847 28.0384 0.954132 28.0753 0.924989 28.116L0.920274 28.1229C0.907417 28.1404 0.89456 28.1584 0.882559 28.1764C0.857273 28.2142 0.831987 28.2553 0.803272 28.3059L0.789129 28.3303C0.783129 28.341 0.7767 28.3513 0.771129 28.362C0.747128 28.407 0.723128 28.458 0.697413 28.5176C0.693556 28.5266 0.68927 28.536 0.684984 28.545C0.68327 28.5489 0.681127 28.5527 0.679841 28.5566C0.645555 28.6414 0.616411 28.7323 0.590697 28.8343L0.587697 28.8463C0.578696 28.8823 0.570125 28.9162 0.563696 28.9479C0.561125 28.9616 0.558982 28.9762 0.556839 28.9912L0.552124 29.022C0.546553 29.0585 0.540124 29.1005 0.535838 29.1395C0.534124 29.1583 0.532838 29.1772 0.531553 29.1965L0.530267 29.2149C0.527267 29.2599 0.525981 29.2989 0.525553 29.3336C0.525553 29.3585 0.525553 29.3842 0.526838 29.4095C0.528124 29.4485 0.530267 29.4887 0.534124 29.529C0.536267 29.5543 0.538838 29.5796 0.541838 29.6053C0.546124 29.64 0.552553 29.6786 0.561553 29.727L0.565839 29.7502C0.568839 29.7669 0.571839 29.7836 0.575696 29.7999C0.585554 29.8436 0.598411 29.889 0.610411 29.931C0.613411 29.9413 0.616411 29.952 0.619411 29.9632C0.621983 29.973 0.624554 29.9829 0.627983 29.9928C0.650698 30.0622 0.673841 30.1243 0.699556 30.1835L28.8662 94.9114C28.8894 94.965 28.9181 95.022 28.9528 95.0859C28.9592 95.097 28.9657 95.1081 28.9717 95.1189L28.9815 95.1351C29.0051 95.1754 29.0299 95.2153 29.0557 95.253L29.0587 95.2577C29.0685 95.2727 29.0788 95.2873 29.0891 95.3019C29.1199 95.3447 29.1525 95.3867 29.186 95.4261C29.192 95.433 29.1971 95.4394 29.2018 95.4459L29.2061 95.4514C29.2425 95.4934 29.2832 95.5363 29.3295 95.5809C29.3394 95.5903 29.3497 95.5993 29.3595 95.6083L29.3775 95.6242C29.4088 95.6524 29.4375 95.6773 29.465 95.6996C29.486 95.7167 29.507 95.7334 29.528 95.7493C29.5541 95.769 29.5811 95.7874 29.6085 95.8063L29.6317 95.8222C29.648 95.8333 29.6638 95.8444 29.6805 95.8547C29.7178 95.8779 29.7598 95.9019 29.8091 95.928C29.8292 95.9387 29.8503 95.949 29.8717 95.9597C29.9158 95.9811 29.957 95.9996 29.9977 96.0163C30.0157 96.0236 30.0345 96.0309 30.0534 96.0377C30.0971 96.054 30.1383 96.0682 30.1798 96.0806L30.1927 96.0844C30.2064 96.0887 30.2201 96.093 30.2343 96.0969C30.2853 96.111 30.338 96.1234 30.3911 96.1337C30.4027 96.1359 30.4134 96.1376 30.4245 96.1397L30.44 96.1423C30.4905 96.1509 30.5398 96.1577 30.587 96.1624C30.5943 96.1633 30.6011 96.1642 30.608 96.165L30.6183 96.1663C30.6688 96.1706 30.725 96.1727 30.7897 96.1727C30.8051 96.1727 30.8201 96.1727 30.8351 96.1727C30.899 96.1714 30.956 96.168 31.0104 96.1624L31.0387 96.1586C31.0914 96.1522 31.1458 96.1436 31.2016 96.1324L31.2346 96.126C31.2916 96.1136 31.3507 96.0982 31.4107 96.0793C31.4214 96.0759 31.4313 96.0724 31.4416 96.0694L31.4489 96.0669C31.5187 96.0437 31.5761 96.0223 31.6293 95.9992L82.1447 74.0169C82.2124 73.9873 82.2835 73.9509 82.362 73.9054C82.3744 73.8982 82.3864 73.8904 82.3988 73.8823L82.4245 73.8656C82.4768 73.8326 82.5218 73.8022 82.5625 73.7717C82.5844 73.7554 82.6054 73.7387 82.6268 73.7216C82.668 73.6882 82.7083 73.653 82.7494 73.6136L82.7695 73.5947C82.7803 73.5849 82.791 73.575 82.8012 73.5643C82.8527 73.512 82.9003 73.4589 82.9427 73.4057C82.9487 73.3984 82.9534 73.3929 82.9577 73.3882C83.0027 73.3303 83.046 73.2681 83.0893 73.1979C83.0923 73.1927 83.0953 73.1871 83.0987 73.1816C83.1034 73.173 83.1081 73.1644 83.1133 73.1559C83.1467 73.0993 83.175 73.0457 83.2003 72.9921C83.2093 72.9733 83.2174 72.9549 83.2255 72.936C83.2495 72.8811 83.2718 72.8246 83.2915 72.7667L83.2988 72.7453C83.3023 72.7359 83.3053 72.7269 83.3083 72.717C83.3391 72.6176 83.3635 72.5134 83.3798 72.4067C83.3845 72.3746 83.3897 72.3428 83.3931 72.3107C83.3961 72.2837 83.3983 72.2571 83.4 72.2301C83.4025 72.195 83.4038 72.1577 83.4043 72.1153V72.0908C83.4051 72.0776 83.4051 72.0643 83.4051 72.051C83.4038 71.9858 83.4004 71.9271 83.3944 71.8697L83.3935 71.8641C83.3923 71.856 83.391 71.8478 83.3901 71.8397C83.3837 71.7878 83.3755 71.7351 83.3653 71.6833C83.3623 71.6683 83.3588 71.6537 83.3554 71.6387L83.3524 71.6254C83.3421 71.5808 83.3301 71.5358 83.3168 71.4917L83.3108 71.472C83.3074 71.46 83.304 71.448 83.3001 71.4364C83.277 71.3661 83.2551 71.3083 83.2315 71.2547L55.0653 6.5246C55.04 6.46631 55.0104 6.40674 54.9744 6.34203C54.9693 6.33303 54.9637 6.32445 54.9586 6.31545C54.953 6.30603 54.947 6.29703 54.9414 6.2876C54.9149 6.24302 54.8926 6.20659 54.869 6.17231C54.8596 6.15817 54.8497 6.14531 54.8399 6.13202L54.8261 6.11316C54.797 6.07373 54.7726 6.04202 54.749 6.01416C54.7331 5.9953 54.7169 5.97688 54.7001 5.95845C54.6723 5.92759 54.644 5.89759 54.6153 5.8693C54.5981 5.85259 54.5806 5.83544 54.5626 5.81873C54.536 5.79387 54.506 5.76859 54.4696 5.73859L54.458 5.72916C54.4434 5.71716 54.4284 5.70473 54.4134 5.69316C54.3821 5.66916 54.347 5.64558 54.314 5.6233L54.2879 5.60573C54.2763 5.59801 54.2651 5.58987 54.2536 5.58258C54.2283 5.56715 54.2013 5.55215 54.1743 5.53758L54.1588 5.52901C54.0641 5.47672 53.9763 5.43515 53.8888 5.40172C53.8828 5.39958 53.8773 5.39787 53.8717 5.39572C53.8618 5.39229 53.852 5.38929 53.8421 5.38586C53.7817 5.36444 53.732 5.34858 53.6853 5.33615C53.6711 5.33229 53.657 5.32929 53.6428 5.32629L53.6158 5.32029C53.5606 5.30743 53.5156 5.29843 53.4744 5.29158C53.4504 5.28772 53.4256 5.28472 53.4011 5.28172L53.3956 5.28086C53.3471 5.27486 53.3025 5.27101 53.2593 5.26843C53.231 5.26672 53.2031 5.26586 53.1753 5.26501C53.1654 5.26501 53.1551 5.26501 53.1448 5.26501V5.26458Z" fill="#444444"/>
<g style="mix-blend-mode:multiply" opacity="0.2">
<path d="M79.1185 81.3122C79.1318 81.2929 79.1442 81.2736 79.1566 81.2539C79.1935 81.1964 79.2278 81.1377 79.2595 81.0777C79.2685 81.0602 79.2784 81.0434 79.2869 81.0254C79.3401 80.9187 79.3846 80.8077 79.4211 80.6933C79.4322 80.6586 79.4429 80.6239 79.4528 80.5887C79.4605 80.5596 79.4678 80.5304 79.4746 80.5009C79.4845 80.4589 79.4926 80.4164 79.4999 80.3736C79.5042 80.3496 79.5089 80.3256 79.5124 80.3011C79.5218 80.2343 79.5286 80.1666 79.5325 80.0984C79.5329 80.0873 79.5325 80.0757 79.5329 80.0646C79.5351 80.0054 79.5351 79.9458 79.5329 79.8858C79.5321 79.864 79.5304 79.8417 79.5291 79.8198C79.5257 79.768 79.5201 79.7161 79.5132 79.6638C79.5102 79.6428 79.5081 79.6214 79.5042 79.6004C79.4927 79.5288 79.4785 79.4573 79.4601 79.3857L79.3581 78.9923L62.0036 11.8878L61.785 11.0431C61.7657 10.9685 61.7426 10.8957 61.7165 10.825C61.7083 10.8023 61.6985 10.7808 61.6895 10.7585C61.6706 10.7105 61.6509 10.6634 61.629 10.6171C61.617 10.5922 61.6042 10.5687 61.5917 10.5447C61.5699 10.5027 61.5472 10.4607 61.5232 10.4204C61.509 10.3968 61.494 10.3737 61.479 10.3505C61.4537 10.3115 61.4272 10.2734 61.3997 10.2357C61.3834 10.2138 61.3672 10.192 61.3504 10.171C61.3217 10.1345 61.2913 10.099 61.2604 10.0647C61.2429 10.045 61.2253 10.0248 61.2069 10.0055C61.1752 9.97209 61.1417 9.94038 61.1079 9.90952C61.0882 9.89109 61.0689 9.87181 61.0483 9.85423C61.017 9.82723 60.9844 9.80238 60.9519 9.77709C60.8636 9.70809 60.7719 9.64423 60.6746 9.58852C60.6583 9.57909 60.6416 9.57137 60.6249 9.56237C60.5709 9.5328 60.516 9.50451 60.4599 9.47966C60.4354 9.46851 60.4106 9.45951 60.3857 9.44923C60.3356 9.42908 60.2854 9.40937 60.234 9.39265C60.2057 9.38323 60.177 9.37508 60.1483 9.36694C60.099 9.3528 60.0493 9.33994 59.9987 9.3288C59.9683 9.32194 59.9374 9.31594 59.9066 9.31037C59.8564 9.30137 59.8059 9.29451 59.7548 9.28894C59.7231 9.28551 59.6918 9.28208 59.6601 9.27951C59.6078 9.27608 59.5556 9.27522 59.5028 9.2748C59.472 9.2748 59.4411 9.27394 59.4098 9.2748C59.3528 9.27694 59.2954 9.28294 59.238 9.28937C59.211 9.29237 59.1844 9.29365 59.1574 9.29751C59.0734 9.30994 58.989 9.32622 58.9045 9.34765L5.56954 23.1411C5.48511 23.1629 5.40368 23.1895 5.32397 23.2195C5.29868 23.2289 5.27511 23.2409 5.25025 23.2512C5.19668 23.2735 5.14353 23.2966 5.0921 23.3223C5.06468 23.3361 5.03896 23.3515 5.01239 23.3665C4.96567 23.3926 4.91982 23.4192 4.87524 23.4479C4.8491 23.4646 4.82424 23.4826 4.79896 23.5006C4.7561 23.5311 4.7141 23.5624 4.67381 23.5949C4.65067 23.6138 4.62752 23.6331 4.60524 23.6528C4.56495 23.6884 4.52638 23.7248 4.48866 23.7629C4.46895 23.7826 4.44924 23.8024 4.43038 23.8229C4.39181 23.8645 4.35538 23.9078 4.3198 23.9524C4.3048 23.9712 4.28895 23.9896 4.27437 24.0089C4.23537 24.0608 4.19937 24.1148 4.16466 24.1696C4.15609 24.1829 4.14666 24.1958 4.13851 24.2095C4.08194 24.3034 4.03308 24.4019 3.9898 24.5031C3.97265 24.5429 3.95551 24.5824 3.94051 24.6235C3.93065 24.6501 3.92294 24.6771 3.91437 24.7041C3.90065 24.7461 3.88737 24.7881 3.87622 24.8309C3.86894 24.8584 3.86294 24.8862 3.85694 24.9141C3.84708 24.9574 3.83808 25.0007 3.83079 25.0448C3.82608 25.0731 3.82222 25.1014 3.81879 25.1301C3.81322 25.1747 3.80894 25.2192 3.80551 25.2642C3.80337 25.2925 3.80165 25.3212 3.80079 25.35C3.79908 25.3962 3.79994 25.4425 3.80079 25.4897C3.80165 25.5175 3.80165 25.545 3.80337 25.5728C3.80637 25.6234 3.81237 25.674 3.81879 25.725C3.82179 25.749 3.82351 25.773 3.82737 25.797C3.83937 25.8715 3.85394 25.9465 3.87322 26.0211L4.09223 26.8671L21.4458 93.9681L21.5483 94.3633C21.5667 94.4348 21.5894 94.5038 21.6138 94.572C21.6211 94.5921 21.6293 94.6123 21.637 94.632C21.6558 94.6808 21.6764 94.7288 21.6987 94.776C21.7081 94.7961 21.7171 94.8163 21.7274 94.836C21.7544 94.8895 21.7831 94.9414 21.8136 94.992C21.8196 95.0018 21.8247 95.0121 21.8307 95.0216C21.8667 95.0794 21.9057 95.1351 21.9464 95.1891C21.961 95.2088 21.9769 95.2273 21.9918 95.2461C22.0193 95.28 22.0467 95.313 22.0759 95.3456C22.096 95.3679 22.1161 95.3901 22.1371 95.4116C22.1629 95.4381 22.1894 95.4634 22.2164 95.4887C22.2404 95.5114 22.264 95.5346 22.2889 95.556C22.3304 95.592 22.3737 95.6263 22.4174 95.6593C22.4389 95.6751 22.4603 95.6906 22.4817 95.706C22.5237 95.7356 22.5666 95.7639 22.6103 95.7904C22.6313 95.8033 22.6523 95.8153 22.6737 95.8273C22.7157 95.8509 22.7586 95.8736 22.8019 95.8946C22.8212 95.904 22.8404 95.9134 22.8597 95.9224C22.9146 95.9473 22.9703 95.9704 23.0273 95.991C23.0449 95.9974 23.0629 96.003 23.0804 96.009C23.1327 96.027 23.1854 96.0429 23.2394 96.057C23.251 96.06 23.2622 96.0634 23.2737 96.0664C23.3363 96.0819 23.3997 96.0939 23.4636 96.1041C23.4803 96.1067 23.4974 96.1093 23.5146 96.1119C23.5797 96.1209 23.6449 96.1277 23.7109 96.1311C23.722 96.1316 23.7327 96.1316 23.7439 96.132C23.8052 96.1346 23.8665 96.1341 23.9282 96.132C23.941 96.1316 23.9539 96.1316 23.9667 96.1307C24.0345 96.1269 24.1026 96.1196 24.1707 96.1097C24.1853 96.1076 24.2003 96.105 24.2149 96.1024C24.2856 96.0909 24.3563 96.0771 24.4266 96.0587L77.7629 82.2649C77.8525 82.2417 77.939 82.2126 78.0235 82.18C78.05 82.1697 78.0749 82.1577 78.1011 82.147C78.1589 82.1222 78.2155 82.096 78.2708 82.0669C78.2982 82.0527 78.3248 82.0377 78.3513 82.0223C78.4049 81.9915 78.4563 81.9585 78.5069 81.9237C78.5292 81.9083 78.5523 81.8937 78.5738 81.8774C78.6381 81.8299 78.6998 81.7797 78.7585 81.7262C78.7636 81.7215 78.7692 81.7176 78.7744 81.7124C78.8395 81.652 78.9004 81.5882 78.9582 81.5213C78.9702 81.5076 78.9809 81.4926 78.9925 81.4784C79.0366 81.4249 79.0786 81.3692 79.1181 81.3122H79.1185Z" fill="#3A7EC1"/>
</g>
<path d="M62.0845 9.05927L79.7592 77.4018C79.8839 77.884 79.8505 78.3687 79.6902 78.8037C79.4326 79.5083 78.8446 80.0788 78.0633 80.281L24.727 94.0749C23.9461 94.2767 23.155 94.0633 22.5879 93.5717C22.2369 93.2691 21.9725 92.8611 21.8482 92.379L4.17317 24.0364C4.0296 23.4818 4.09517 22.9225 4.32146 22.4421C4.61032 21.8267 5.16062 21.3406 5.86906 21.1572L59.2053 7.36381C59.9138 7.18081 60.6308 7.33895 61.1798 7.73625C61.6123 8.04611 61.941 8.50512 62.0841 9.0597L62.0845 9.05927Z" fill="#E5A755"/>
<path d="M62.0844 9.05942L62.303 9.90415L59.6685 18.105L35.2485 24.7446L10.6699 30.7768L4.39208 24.8821L4.17308 24.0361C3.84607 22.7714 4.60594 21.4839 5.86896 21.1574L59.2052 7.36396C60.4683 7.03738 61.7574 7.79511 62.0844 9.05985V9.05942Z" fill="#D89444"/>
<path d="M79.6574 77.0082L79.7594 77.4017C80.086 78.6647 79.3265 79.9539 78.0635 80.2809L24.7272 94.0747C23.4642 94.4013 22.175 93.6418 21.848 92.3788L21.7456 91.9837L23.5748 86.6217C23.7269 86.1738 24.1229 85.807 24.5837 85.6895L74.1214 72.878C74.5817 72.7589 75.1059 72.8862 75.4573 73.2037L79.657 77.0082H79.6574Z" fill="#D89444"/>
<path d="M79.6891 78.8033C79.4316 79.5079 78.8435 80.0784 78.0622 80.2807L24.726 94.0745C23.9451 94.2764 23.1539 94.0629 22.5869 93.5713L23.7004 86.6566C23.7758 86.1873 24.1221 85.8068 24.5824 85.6876L74.1202 72.8761C74.5805 72.7569 75.0678 72.9219 75.3626 73.2952L79.6887 78.8033H79.6891Z" fill="#F9C067"/>
<path d="M61.1806 7.73582L59.7063 17.96C59.6656 18.2502 59.4535 18.485 59.1714 18.5579L11.3274 30.9314C11.0437 31.0047 10.7458 30.9014 10.5684 30.6682L4.32227 22.4425C4.61113 21.8271 5.16142 21.3411 5.86987 21.1576L59.2062 7.36381C59.9146 7.18081 60.6316 7.33895 61.1806 7.73625V7.73582Z" fill="#F9C067"/>
<path d="M38.1611 40.4942C37.1642 40.4942 36.2522 39.823 35.9912 38.8142L31.2845 20.615C31.1354 20.0377 31.2207 19.4346 31.5254 18.9178C31.8301 18.4009 32.3157 18.0336 32.8934 17.8845L33.9825 17.6029C35.1786 17.2935 36.4039 18.0152 36.7134 19.2114L41.42 37.4106C41.5692 37.9879 41.4839 38.5909 41.1792 39.1077C40.8744 39.6246 40.3889 39.9919 39.8111 40.141L38.7221 40.4226C38.5348 40.471 38.3467 40.4942 38.1615 40.4942H38.1611ZM34.543 18.1712C34.4106 18.1712 34.2765 18.1879 34.1423 18.2222L33.0533 18.5038C32.6414 18.6105 32.2947 18.8728 32.077 19.2422C31.8593 19.6121 31.798 20.0424 31.9047 20.4542L36.6114 38.6534C36.8325 39.508 37.7072 40.0232 38.5618 39.8025L39.6508 39.5209C40.0627 39.4142 40.4094 39.1523 40.6271 38.7824C40.8449 38.4126 40.9062 37.9823 40.7994 37.5704L36.0928 19.3712C35.9063 18.6508 35.2549 18.1712 34.5426 18.1712H34.543Z" fill="#444444"/>
<path d="M36.3271 22.5742C37.5493 21.3521 37.5493 19.3706 36.3271 18.1484C35.105 16.9263 33.1235 16.9263 31.9014 18.1484C30.6792 19.3706 30.6792 21.3521 31.9014 22.5742C33.1235 23.7964 35.105 23.7963 36.3271 22.5742Z" fill="white"/>
<path d="M38.7105 41.2609C40.4389 41.2609 41.84 39.8598 41.84 38.1314C41.84 36.4031 40.4389 35.002 38.7105 35.002C36.9822 35.002 35.5811 36.4031 35.5811 38.1314C35.5811 39.8598 36.9822 41.2609 38.7105 41.2609Z" fill="white"/>
<g style="mix-blend-mode:multiply" opacity="0.2">
<path d="M45.9681 119.995C50.333 115.63 50.333 108.553 45.9681 104.189C41.6033 99.8237 34.5264 99.8237 30.1616 104.189C25.7967 108.553 25.7967 115.63 30.1616 119.995C34.5264 124.36 41.6033 124.36 45.9681 119.995Z" fill="#3A7EC1"/>
</g>
<path d="M37.2448 121.837C43.4176 121.837 48.4217 116.833 48.4217 110.66C48.4217 104.487 43.4176 99.4834 37.2448 99.4834C31.072 99.4834 26.0679 104.487 26.0679 110.66C26.0679 116.833 31.072 121.837 37.2448 121.837Z" fill="#ADC804"/>
<path d="M36.5055 115.776V105.857H38.7557V115.776H36.5055ZM32.6714 111.942V109.691H42.5898V111.942H32.6714Z" fill="white"/>
<g style="mix-blend-mode:multiply" opacity="0.25">
<path d="M101.237 28.1289L57.4216 23.562C55.7056 23.3833 54.1691 24.6291 53.9904 26.3456L46.8305 95.0422C46.6518 96.7582 47.8977 98.2947 49.6142 98.4734L102.894 104.026C104.61 104.205 106.146 102.959 106.325 101.243L112.499 42.011L101.237 28.1289H101.237Z" fill="#3A7EC1"/>
</g>
<path d="M99.5226 26.8096L55.7072 22.2426C53.9911 22.0639 52.4547 23.3098 52.276 25.0263L45.1157 93.7228C44.937 95.4389 46.1829 96.9753 47.8993 97.1541L101.179 102.707C102.895 102.886 104.432 101.64 104.61 99.9235L110.784 40.6917L99.5226 26.8096Z" fill="white"/>
<path d="M98.5361 36.2739C98.3574 37.9899 99.6033 39.5264 101.319 39.7051L110.784 40.6917L99.5223 26.8096L98.5357 36.2739H98.5361Z" fill="#EDEDED"/>
<path d="M100.83 39.6143L110.618 42.2839L110.783 40.6913L100.83 39.6143Z" fill="#CECECE"/>
<path d="M94.164 41.575L67.3696 38.7824C66.6471 38.7069 66.1178 38.0542 66.1932 37.332C66.2686 36.6095 66.9213 36.0802 67.6435 36.1556L94.4379 38.9482C95.1605 39.0237 95.6897 39.6764 95.6143 40.3985C95.5389 41.1211 94.8862 41.6504 94.164 41.575Z" fill="#BB0070"/>
<path d="M101.985 51.4029L57.6895 46.7863C56.9669 46.7108 56.4376 46.0581 56.513 45.336C56.5884 44.6134 57.2412 44.0841 57.9633 44.1595L102.259 48.7762C102.981 48.8516 103.511 49.5043 103.435 50.2265C103.36 50.9491 102.707 51.4784 101.985 51.4029Z" fill="#E4ECF9"/>
<path d="M101.289 58.0894L56.9932 53.4728C56.2706 53.3974 55.7413 52.7446 55.8167 52.0225C55.8922 51.2999 56.5449 50.7706 57.267 50.846L101.562 55.4627C102.285 55.5381 102.814 56.1908 102.739 56.913C102.663 57.6356 102.011 58.1649 101.289 58.0894Z" fill="#E4ECF9"/>
<path d="M100.592 64.7769L56.2964 60.1603C55.5738 60.0849 55.0445 59.4321 55.12 58.71C55.1954 57.9874 55.8481 57.4581 56.5703 57.5335L100.866 62.1502C101.588 62.2256 102.118 62.8783 102.042 63.6005C101.967 64.3231 101.314 64.8524 100.592 64.7769Z" fill="#E4ECF9"/>
<path d="M99.8946 71.4635L55.5991 66.8468C54.8766 66.7714 54.3473 66.1187 54.4227 65.3965C54.4981 64.6739 55.1508 64.1446 55.873 64.2201L100.168 68.8367C100.891 68.9121 101.42 69.5649 101.345 70.287C101.269 71.0096 100.617 71.5389 99.8946 71.4635Z" fill="#E4ECF9"/>
<path d="M99.1978 78.15L54.9024 73.5333C54.1798 73.4579 53.6505 72.8052 53.7259 72.083C53.8013 71.3604 54.4541 70.8311 55.1762 70.9066L99.4716 75.5232C100.194 75.5987 100.724 76.2514 100.648 76.9735C100.573 77.6961 99.9199 78.2254 99.1978 78.15Z" fill="#E4ECF9"/>
<path d="M98.501 84.8375L54.2056 80.2208C53.483 80.1454 52.9537 79.4927 53.0291 78.7705C53.1046 78.0479 53.7573 77.5186 54.4794 77.5941L98.7749 82.2107C99.4974 82.2862 100.027 82.9389 99.9513 83.661C99.8759 84.3836 99.2232 84.9129 98.501 84.8375Z" fill="#E4ECF9"/>
<path d="M83.6566 92.3945C83.645 92.1807 83.4196 92.0504 83.2422 92.1953C83.006 92.3877 82.7613 92.5775 82.4879 92.7147C82.3559 92.7674 82.2243 92.8197 82.0927 92.8724C81.8304 93.0104 81.6843 92.9011 81.6539 92.5441C81.8917 92.3268 81.5694 91.9711 81.3221 92.173C81.0166 92.4224 80.6116 92.7601 80.1795 92.7065C80.054 92.6911 79.9164 92.6354 79.781 92.5715C79.868 92.5034 79.9511 92.4301 80.0283 92.3393C80.0891 92.2677 80.0707 92.1665 80.0424 92.0885C79.9631 91.8691 79.8538 91.7238 79.769 91.5717C80.7967 90.5457 81.6804 89.2183 82.0902 87.9227C82.1694 87.672 81.8814 87.5147 81.6882 87.6579C80.783 88.3286 79.9601 89.1746 79.4257 90.1758C79.2367 90.5294 79.0777 90.9138 79.1437 91.324C79.1505 91.366 79.1655 91.4054 79.1767 91.4461C78.9251 91.6797 78.6688 91.8991 78.4082 92.0855C78.0435 92.3465 77.6608 92.5625 77.2309 92.6967C76.9245 92.7923 76.4642 92.9418 76.2533 92.6427C76.9485 92.2527 77.5104 91.7007 77.2112 91.0124C76.7612 89.9774 75.6859 91.5387 75.6298 92.4108C75.2916 92.5685 74.9346 92.6821 74.572 92.7708C74.2617 92.8467 74.365 93.334 74.6774 93.2577C74.9273 93.1968 75.3302 93.073 75.7459 92.8934C76.3356 93.9327 78.2008 92.8694 78.8295 92.3967C79.0168 92.2557 79.2024 92.101 79.385 91.9377C79.5281 92.1931 79.5371 92.1502 79.181 92.3911C79.0022 92.512 79.0048 92.7614 79.2148 92.8488C79.6027 93.0104 80.0017 93.2573 80.4328 93.208C80.5657 93.1926 80.6947 93.1497 80.8203 93.0953C80.8314 93.1626 80.8627 93.2264 80.9206 93.2641C81.6037 93.7116 82.4699 93.3408 83.1282 92.8981C83.0146 93.6747 82.5856 94.4367 81.9907 94.9257C81.0504 95.6989 79.8431 95.5107 78.74 95.2943C78.4297 95.2334 78.2677 95.7049 78.5809 95.7662C79.784 96.0019 81.0706 96.2025 82.1334 95.4422C83.063 94.7774 83.7175 93.5419 83.6562 92.395L83.6566 92.3945ZM76.4428 91.4889C76.8285 91.1907 76.5653 91.7564 76.4303 91.8948C76.3463 91.9814 76.2452 92.0551 76.141 92.1237C76.1518 91.96 76.3335 91.573 76.4423 91.4889H76.4428ZM79.6854 90.7887C79.7788 90.4021 80.1161 89.9748 80.3536 89.6564C80.6201 89.2985 80.9197 88.9766 81.242 88.677C80.8473 89.4905 80.2901 90.2855 79.6554 90.9674C79.6627 90.9112 79.67 90.8551 79.6858 90.7891L79.6854 90.7887Z" fill="#E4ECF9"/>
<path d="M92.8032 97.8235C90.2056 97.4112 88.4274 94.9623 88.8397 92.3647C89.252 89.7671 91.7009 87.9889 94.2985 88.4012C96.8961 88.8135 98.6743 91.2624 98.262 93.86C97.8497 96.4576 95.4008 98.2358 92.8032 97.8235ZM94.1369 89.4199C92.1007 89.0968 90.1816 90.4905 89.8584 92.5263C89.5353 94.5625 90.929 96.4816 92.9647 96.8048C95.0009 97.1279 96.9201 95.7342 97.2433 93.6984C97.5664 91.6623 96.1727 89.7431 94.1369 89.4199Z" fill="#E4ECF9"/>
<path d="M100.499 89.7528L100.466 89.758C100.069 89.8218 99.6954 89.9174 99.3341 90.0301L98.7962 90.205L98.2802 90.4098C97.5966 90.6888 96.9439 91.0103 96.3238 91.3771C95.6852 91.7183 95.101 92.134 94.519 92.5536C94.1942 92.7906 93.8809 93.0435 93.5736 93.3045C93.3987 93.1437 93.2187 92.9873 93.0306 92.836C92.7798 92.6162 92.4961 92.4207 92.2197 92.2197C91.9321 92.0269 91.639 91.8379 91.3115 91.6737L91.2815 91.6587C91.2601 91.648 91.2335 91.6489 91.2121 91.6634C91.1808 91.6849 91.1727 91.7277 91.1941 91.759C91.9278 92.833 92.6847 93.8903 93.442 94.9476C93.4836 95.0038 93.5633 95.0171 93.6194 94.9759C94.7894 94.1462 95.9539 93.3083 97.1034 92.4503L98.8344 91.1727C99.4147 90.751 99.9787 90.3074 100.552 89.8758C100.571 89.8608 100.583 89.836 100.578 89.8098C100.572 89.7721 100.537 89.7468 100.499 89.7528H100.499Z" fill="#BB0070"/>
<path d="M79.5335 11.9225C82.0934 11.9225 84.1686 9.84732 84.1686 7.28743C84.1686 4.72754 82.0934 2.65234 79.5335 2.65234C76.9736 2.65234 74.8984 4.72754 74.8984 7.28743C74.8984 9.84732 76.9736 11.9225 79.5335 11.9225Z" fill="#BB0070"/>
<path d="M93.0737 123.358C94.1177 122.314 94.1177 120.621 93.0737 119.577C92.0296 118.533 90.3368 118.533 89.2928 119.577C88.2487 120.621 88.2487 122.314 89.2928 123.358C90.3368 124.402 92.0296 124.402 93.0737 123.358Z" fill="#BB0070"/>
</svg>
