<svg width="139" height="129" viewBox="0 0 139 129" fill="none" xmlns="http://www.w3.org/2000/svg">
<rect width="139" height="129" rx="10" fill="#F1ECFB"/>
<path d="M70.1562 103.531C69.4531 103.531 68.75 103.531 68.0469 103.531C67.9062 103.484 67.7812 103.422 67.6406 103.39C64.1875 102.718 61.6094 100.125 60.9687 96.6716C60.7812 95.6404 60.5469 94.6091 60.4219 93.5622C60.3594 92.9997 60.0937 92.8122 59.5937 92.7341C52.625 91.5153 45.6562 90.2966 38.6875 89.0778C35.0156 88.4372 32.6406 86.3435 31.6406 82.7341C31.5625 82.4528 31.4844 82.156 31.4219 81.8747C31.4219 81.1716 31.4219 80.4685 31.4219 79.7653C31.4531 79.7028 31.5156 79.6403 31.5312 79.5778C33.2656 69.781 35.0469 59.9997 36.6719 50.2028C37.2969 46.4372 39.0156 43.781 42.6875 42.3903C46.7656 40.8435 50.7812 39.1091 54.8281 37.5153C56.9687 36.6716 59.1562 35.9528 61.3125 35.1403C61.5 35.0622 61.6719 34.7653 61.7187 34.5466C62.0937 32.6091 62.4062 30.656 62.7812 28.7028C62.875 28.2028 63.0781 27.6872 63.3906 27.281C64 26.4841 65.0781 26.2966 65.9844 26.7028C66.9687 27.156 67.4687 28.1403 67.2656 29.3278C66.9219 31.3591 66.5469 33.3747 66.2031 35.3903C66.1719 35.5778 66.2031 35.8747 66.3281 35.9685C66.9844 36.4528 67.6875 36.8903 68.4219 37.3903C68.7344 37.1091 69.0625 36.7966 69.4062 36.5153C70.1875 35.8903 70.9531 35.2341 71.7812 34.6716C72.1406 34.4216 72.2188 34.2341 72.1406 33.8435C71.8594 32.3122 71.5938 30.781 71.3438 29.2497C71.125 27.8747 71.8906 26.7341 73.1719 26.5153C74.3906 26.3122 75.5 27.1247 75.7656 28.4685C76.0469 29.9216 76.3125 31.3747 76.5312 32.8278C76.625 33.3903 76.7656 33.7185 77.4375 33.7497C77.9531 33.781 78.4687 33.9841 78.9531 34.1716C84.7344 36.5153 90.5312 38.8435 96.2969 41.2497C99.0156 42.3747 100.672 44.4685 101.234 47.3591C101.687 49.7497 102.094 52.1403 102.516 54.531C104.156 63.781 105.781 73.031 107.406 82.281C107.797 84.4528 108.203 86.6091 108.594 88.781C108.594 89.4841 108.594 90.1872 108.594 90.8904C108.547 90.9997 108.484 91.1091 108.453 91.2185C107.672 94.7653 105.531 96.9997 101.969 97.8435C101.109 98.0466 100.25 98.1716 99.375 98.3278C91.7656 99.6716 84.1719 101 76.5625 102.343C74.4219 102.718 72.2969 103.125 70.1562 103.531ZM60.75 40.0153C60.5469 40.0778 60.4219 40.1091 60.3125 40.156C54.7812 42.3903 49.2344 44.6091 43.7031 46.8435C42.3594 47.3903 41.5938 48.406 41.3438 49.8278C39.5781 59.8747 37.7969 69.906 36.0312 79.9529C35.6094 82.3279 36.9063 84.1716 39.2813 84.5778C43.6563 85.3435 48.0312 86.1091 52.4062 86.8747C58.2187 87.906 64.0156 88.9372 69.8281 89.9529C72.5 90.4216 74.2344 89.1247 74.6719 86.4372C74.9375 84.8747 75.2188 83.3278 75.5 81.781C76.9688 73.4372 78.4531 65.1091 79.9219 56.7653C80.2031 55.1716 79.7656 53.8747 78.5469 52.781C74.3125 48.9685 70.0938 45.1403 65.875 41.3122C65.6875 41.1403 65.4687 40.9841 65.2187 40.7653C65.0469 41.7497 64.9062 42.6091 64.7187 43.4685C64.4375 44.7966 63.3438 45.531 62.0469 45.2966C60.8438 45.0778 60.0937 43.9372 60.2969 42.656C60.4375 41.7966 60.5937 40.9528 60.75 40.0153ZM71.7031 40.4841C72.1875 40.9216 72.5625 41.281 72.9531 41.6247C75.875 44.2653 78.7969 46.906 81.7187 49.5622C84.0312 51.6716 84.9531 54.2966 84.4063 57.3747C82.6875 67.2653 80.9062 77.156 79.1875 87.0466C78.4844 91.031 76.1719 93.6403 72.5625 94.4372C70.8437 94.8278 69.1719 94.4372 67.4844 94.1403C66.6875 93.9997 65.875 93.8747 65.0156 93.7341C65.1719 94.5778 65.2812 95.2966 65.4375 95.9997C65.9062 98.1091 67.7656 99.3278 69.8906 98.9528C74.3125 98.1716 78.7344 97.406 83.1563 96.6247C89.0781 95.5778 95.0156 94.5466 100.937 93.4685C103.062 93.0935 104.375 91.1716 104 89.0935C101.609 75.531 99.2187 61.9685 96.8125 48.406C96.5625 46.9685 95.7813 45.9216 94.4063 45.3591C88.7031 43.031 82.9844 40.7028 77.2812 38.3747C76.0312 37.8591 74.7969 37.9841 73.7031 38.7653C73.0313 39.2653 72.4219 39.8591 71.7031 40.4841Z" fill="#845ADF"/>
<path d="M54.1718 78.9684C52.1874 78.5622 50.5312 77.609 49.0937 76.2653C48.2968 75.5153 48.1718 74.6247 48.7655 73.9528C49.3905 73.2497 50.2499 73.2653 51.0937 74.0153C52.1249 74.9528 53.2343 75.734 54.7187 75.9684C55.1405 73.5778 55.5624 71.2184 55.9843 68.859C56.1562 67.8903 56.2812 66.9215 56.4999 65.9684C56.5937 65.5309 56.453 65.3434 56.1405 65.109C55.3437 64.4997 54.5468 63.8903 53.8124 63.2184C52.2343 61.7965 51.7968 59.984 52.0936 57.9528C52.5624 54.8434 55.1093 52.4684 58.2499 52.1872C58.7499 52.1403 59.0312 52.0153 59.0624 51.4528C59.0937 50.984 59.203 50.5153 59.328 50.0465C59.5312 49.2653 60.3124 48.7965 61.0624 48.9528C61.8593 49.1247 62.3593 49.8122 62.2655 50.609C62.1874 51.2028 62.078 51.7809 61.9687 52.4372C63.4999 52.9215 64.7343 53.7653 65.7812 54.9215C66.4999 55.7028 66.5468 56.5465 65.8905 57.1872C65.2499 57.8122 64.3905 57.734 63.6249 57.0309C62.9843 56.4528 62.2968 55.9215 61.4687 55.234C61.2343 56.5153 61.0312 57.5309 60.8593 58.5622C60.578 60.1872 60.3124 61.8278 59.9999 63.4372C59.9218 63.8278 59.9999 64.0465 60.3437 64.2184C60.703 64.3903 61.0312 64.6247 61.3905 64.8278C67.0937 68.0465 66.1405 74.7809 61.9218 77.8278C60.6874 78.7184 59.328 79.2497 57.8124 79.3278C57.3124 79.359 57.1093 79.5465 57.0624 80.0309C56.9999 80.5778 56.9062 81.1247 56.7655 81.6559C56.5468 82.4684 55.828 82.8903 55.0468 82.7497C54.3124 82.609 53.7968 81.9528 53.8593 81.1559C53.9062 80.4684 54.0468 79.7809 54.1718 78.9684ZM59.3124 67.2653C58.7812 70.2653 58.2655 73.2497 57.7343 76.2653C59.9374 76.1872 62.0155 74.1403 62.2968 71.859C62.5624 69.7965 61.3124 67.859 59.3124 67.2653ZM57.1718 62.0778C57.578 59.7653 57.9687 57.5153 58.3749 55.2497C56.9062 55.2809 55.5624 56.4997 55.1249 58.0934C54.6874 59.7184 55.328 60.984 57.1718 62.0778Z" fill="#845ADF"/>
</svg>
