<svg width="60" height="60" viewBox="0 0 60 60" fill="none" xmlns="http://www.w3.org/2000/svg">
<path d="M60 20C60 8.9543 51.0457 0 40 0H20C8.9543 0 0 8.95431 0 20V40C0 51.0457 8.95431 60 20 60H40C51.0457 60 60 51.0457 60 40V20Z" fill="#1877F2"/>
<path d="M45 30C45 21.75 38.25 15 30 15C21.75 15 15 21.75 15 30C15 37.5 20.4375 43.6875 27.5625 44.8125V34.3125H23.8125V30H27.5625V26.625C27.5625 22.875 29.8125 20.8125 33.1875 20.8125C34.875 20.8125 36.5625 21.1875 36.5625 21.1875V24.9375H34.6875C32.8125 24.9375 32.25 26.0625 32.25 27.1875V30H36.375L35.625 34.3125H32.0625V45C39.5625 43.875 45 37.5 45 30Z" fill="white"/>
</svg>
