<svg width="17" height="17" viewBox="0 0 17 17" fill="none" xmlns="http://www.w3.org/2000/svg">
<path d="M4.28402 8.03906H1.44379C1.17751 8.03906 1 8.20666 1 8.45805V15.5808C1 15.8322 1.17751 15.9998 1.44379 15.9998H4.28402C4.5503 15.9998 4.72781 15.8322 4.72781 15.5808V8.45805C4.72781 8.20666 4.5503 8.03906 4.28402 8.03906Z" stroke="#212121" stroke-miterlimit="10" stroke-linecap="round" stroke-linejoin="round"/>
<path d="M15.645 10.8046C15.645 10.3018 15.3787 9.88281 14.9349 9.71521C15.5562 9.63141 16 9.12864 16 8.54206C16 7.87168 15.4674 7.3689 14.7574 7.3689H10.2307C10.2307 7.3689 11.0296 6.11194 11.2959 4.3522C11.5621 2.59245 11.1183 1.1679 9.87573 1.00031C9.87573 1.00031 8.18933 0.916511 8.54436 3.51422C8.54436 3.51422 6.50294 6.19572 4.72779 8.37445V14.4917C4.72779 14.4917 4.63904 15.7486 5.9704 15.7486H6.05915H14.1361C14.6686 15.7486 15.1124 15.3296 15.1124 14.8268C15.1124 14.3241 14.6686 13.9051 14.1361 13.9051H14.3136C14.8461 13.9051 15.2899 13.4861 15.2899 12.9833C15.2899 12.4805 14.8461 12.0615 14.3136 12.0615C15.0237 11.9777 15.645 11.3911 15.645 10.8046Z" stroke="#212121" stroke-miterlimit="10" stroke-linecap="round" stroke-linejoin="round"/>
</svg>
