<svg width="30" height="25" viewBox="0 0 30 25" fill="none" xmlns="http://www.w3.org/2000/svg">
<rect width="30" height="25" rx="5" fill="#F2F1F9"/>
<path d="M21.2902 6.72136C20.9568 6.37911 20.4632 6.2516 20.003 6.38582L9.27198 9.50639C8.78645 9.64128 8.4423 10.0285 8.3496 10.5204C8.25489 11.021 8.5857 11.6566 9.01787 11.9223L12.3732 13.9846C12.7174 14.196 13.1616 14.143 13.4464 13.8557L17.2886 9.98958C17.482 9.78825 17.8021 9.78825 17.9955 9.98958C18.189 10.1842 18.189 10.4996 17.9955 10.7009L14.1466 14.5678C13.8612 14.8543 13.8078 15.3006 14.0179 15.6469L16.0681 19.0359C16.3082 19.4385 16.7217 19.6667 17.1752 19.6667C17.2286 19.6667 17.2886 19.6667 17.3419 19.66C17.8622 19.5929 18.2757 19.2372 18.4291 18.7339L21.6104 8.01657C21.7504 7.56023 21.6237 7.06362 21.2902 6.72136" fill="#6C757D"/>
</svg>
