<svg width="127" height="127" viewBox="0 0 127 127" fill="none" xmlns="http://www.w3.org/2000/svg">
<g filter="url(#filter0_d_2962_1335)">
<path d="M117 59.5C117 89.0472 93.0472 113 63.5 113C33.9528 113 10 89.0472 10 59.5C10 29.9528 33.9528 6 63.5 6C93.0472 6 117 29.9528 117 59.5Z" fill="white"/>
</g>
<path fill-rule="evenodd" clip-rule="evenodd" d="M95.8901 75.0154C94.5584 77.2385 92.995 79.3075 91.2279 81.1919L93.3796 90.1971L96.065 100.207L86.7606 95.1231L78.9213 90.1971C76.2227 91.3776 73.5427 91.8178 70.5483 92.3391C70.6135 92.0155 70.6455 91.691 70.6455 91.3664C70.6455 91.0419 70.6114 90.694 70.5442 90.3664C70.5246 90.2701 70.5018 90.1737 70.478 90.0794C73.5582 89.5175 76.4968 88.548 79.2296 87.2396L83.8649 90.0226L92.3508 95.1231L90.0781 85.6169L88.8363 80.4221C90.9084 78.342 92.7044 76.0012 94.1799 73.4565C94.6504 74.0722 95.2304 74.6016 95.8901 75.0154Z" fill="#E0E0E0"/>
<path fill-rule="evenodd" clip-rule="evenodd" d="M95.2988 74.3567C93.967 76.5798 92.4037 78.6488 90.6366 80.5332L92.7883 89.5384L95.0569 99.0445L86.5731 93.9441L78.5163 89.1033C75.8176 90.2838 72.9514 91.1591 69.957 91.6804C70.0222 91.3568 70.0542 91.0323 70.0542 90.7078C70.0542 90.3832 70.0201 90.0353 69.9529 89.7077C69.9332 89.6114 69.9105 89.515 69.8867 89.4207C72.9669 88.8589 75.9055 87.8893 78.6383 86.5809L83.2736 89.3639L91.7595 94.4644L89.4868 84.9582L88.245 79.7634C90.3171 77.6833 92.1131 75.3425 93.5886 72.7979C94.0591 73.4135 94.6402 73.9429 95.2998 74.3567" fill="#ACC837"/>
<mask id="path-4-inside-1_2962_1335" fill="white">
<path fill-rule="evenodd" clip-rule="evenodd" d="M28.2248 44.9963H28.4357C33.2096 30.4719 47.1001 19.9565 63.4917 19.9565C79.8834 19.9565 93.7791 30.4719 98.5478 44.9963H98.7763C101.123 44.9963 103.044 46.8787 103.044 49.184V69.0057C103.044 71.311 101.122 73.1934 98.7763 73.1934C96.4302 73.1934 94.5039 71.311 94.5039 69.0057V45.047C89.9037 32.6108 77.7534 23.7274 63.4907 23.7274C49.228 23.7274 37.1056 32.5946 32.4941 45.0085V69.0047C32.4941 69.6102 32.3607 70.1801 32.125 70.7014C36.4553 79.6163 44.6175 86.3973 54.522 88.9896C55.5777 87.4217 58.0427 86.3233 60.9099 86.3233C64.7418 86.3233 67.85 88.2848 67.85 90.7067C67.85 93.1286 64.7418 95.0871 60.9099 95.0871C57.078 95.0871 54.1818 93.2534 53.9781 90.9491C43.8038 88.2827 35.3655 81.447 30.6857 72.4236C29.9867 72.9063 29.1378 73.1913 28.2248 73.1913C25.8756 73.1913 23.9565 71.309 23.9565 69.0037V49.182C23.9565 46.8767 25.8756 44.9943 28.2248 44.9943"/>
</mask>
<path fill-rule="evenodd" clip-rule="evenodd" d="M28.2248 44.9963H28.4357C33.2096 30.4719 47.1001 19.9565 63.4917 19.9565C79.8834 19.9565 93.7791 30.4719 98.5478 44.9963H98.7763C101.123 44.9963 103.044 46.8787 103.044 49.184V69.0057C103.044 71.311 101.122 73.1934 98.7763 73.1934C96.4302 73.1934 94.5039 71.311 94.5039 69.0057V45.047C89.9037 32.6108 77.7534 23.7274 63.4907 23.7274C49.228 23.7274 37.1056 32.5946 32.4941 45.0085V69.0047C32.4941 69.6102 32.3607 70.1801 32.125 70.7014C36.4553 79.6163 44.6175 86.3973 54.522 88.9896C55.5777 87.4217 58.0427 86.3233 60.9099 86.3233C64.7418 86.3233 67.85 88.2848 67.85 90.7067C67.85 93.1286 64.7418 95.0871 60.9099 95.0871C57.078 95.0871 54.1818 93.2534 53.9781 90.9491C43.8038 88.2827 35.3655 81.447 30.6857 72.4236C29.9867 72.9063 29.1378 73.1913 28.2248 73.1913C25.8756 73.1913 23.9565 71.309 23.9565 69.0037V49.182C23.9565 46.8767 25.8756 44.9943 28.2248 44.9943" fill="#202730"/>
<path d="M28.4357 44.9963V45.4963H28.7977L28.9107 45.1525L28.4357 44.9963ZM98.5478 44.9963L98.0727 45.1523L98.1857 45.4963H98.5478V44.9963ZM94.5039 45.047H95.0039V44.9575L94.9728 44.8736L94.5039 45.047ZM32.4941 45.0085L32.0254 44.8344L31.9941 44.9186V45.0085H32.4941ZM32.125 70.7014L31.6694 70.4954L31.5728 70.709L31.6752 70.9199L32.125 70.7014ZM54.522 88.9896L54.3954 89.4734L54.7386 89.5632L54.9367 89.2689L54.522 88.9896ZM53.9781 90.9491L54.4762 90.9051L54.4452 90.5546L54.1049 90.4654L53.9781 90.9491ZM30.6857 72.4236L31.1295 72.1934L30.8683 71.6897L30.4015 72.0122L30.6857 72.4236ZM28.2248 45.4963H28.4357V44.4963H28.2248V45.4963ZM28.9107 45.1525C33.6176 30.8319 47.3174 20.4565 63.4917 20.4565V19.4565C46.8828 19.4565 32.8016 30.1118 27.9607 44.8402L28.9107 45.1525ZM63.4917 20.4565C79.6662 20.4565 93.371 30.832 98.0727 45.1523L99.0228 44.8404C94.1871 30.1117 80.1006 19.4565 63.4917 19.4565V20.4565ZM98.5478 45.4963H98.7763V44.4963H98.5478V45.4963ZM98.7763 45.4963C100.856 45.4963 102.544 47.1638 102.544 49.184H103.544C103.544 46.5936 101.39 44.4963 98.7763 44.4963V45.4963ZM102.544 49.184V69.0057H103.544V49.184H102.544ZM102.544 69.0057C102.544 71.0258 100.855 72.6934 98.7763 72.6934V73.6934C101.389 73.6934 103.544 71.5962 103.544 69.0057H102.544ZM98.7763 72.6934C96.6964 72.6934 95.0039 71.025 95.0039 69.0057H94.0039C94.0039 71.597 96.164 73.6934 98.7763 73.6934V72.6934ZM95.0039 69.0057V45.047H94.0039V69.0057H95.0039ZM94.9728 44.8736C90.3007 32.2429 77.9645 23.2274 63.4907 23.2274V24.2274C77.5423 24.2274 89.5067 32.9788 94.0349 45.2205L94.9728 44.8736ZM63.4907 23.2274C49.0169 23.2274 36.709 32.2266 32.0254 44.8344L32.9628 45.1826C37.5023 32.9626 49.4391 24.2274 63.4907 24.2274V23.2274ZM31.9941 45.0085V69.0047H32.9941V45.0085H31.9941ZM31.9941 69.0047C31.9941 69.5352 31.8775 70.0352 31.6694 70.4954L32.5806 70.9075C32.8439 70.3251 32.9941 69.6851 32.9941 69.0047H31.9941ZM31.6752 70.9199C36.0694 79.9663 44.3498 86.8441 54.3954 89.4734L54.6486 88.5059C44.8852 85.9505 36.8411 79.2663 32.5747 70.483L31.6752 70.9199ZM54.9367 89.2689C55.8659 87.8889 58.138 86.8233 60.9099 86.8233V85.8233C57.9473 85.8233 55.2895 86.9544 54.1072 88.7104L54.9367 89.2689ZM60.9099 86.8233C62.7462 86.8233 64.3855 87.2943 65.55 88.0295C66.7208 88.7688 67.35 89.7278 67.35 90.7067H68.35C68.35 89.2637 67.4251 88.0309 66.0839 87.184C64.7363 86.3331 62.9055 85.8233 60.9099 85.8233V86.8233ZM67.35 90.7067C67.35 91.6855 66.7209 92.6437 65.5501 93.3822C64.3857 94.1168 62.7464 94.5871 60.9099 94.5871V95.5871C62.9054 95.5871 64.7361 95.0781 66.0837 94.228C67.425 93.3819 68.35 92.1499 68.35 90.7067H67.35ZM60.9099 94.5871C59.0691 94.5871 57.4804 94.1459 56.3431 93.4549C55.2017 92.7614 54.5597 91.8494 54.4762 90.9051L53.4801 90.9931C53.6003 92.353 54.5082 93.5101 55.8238 94.3095C57.1435 95.1114 58.9188 95.5871 60.9099 95.5871V94.5871ZM54.1049 90.4654C44.0673 87.8349 35.7442 81.0912 31.1295 72.1934L30.2418 72.6538C34.9867 81.8027 43.5402 88.7306 53.8514 91.4328L54.1049 90.4654ZM30.4015 72.0122C29.7828 72.4395 29.0323 72.6913 28.2248 72.6913V73.6913C29.2433 73.6913 30.1907 73.3731 30.9698 72.835L30.4015 72.0122ZM28.2248 72.6913C26.1427 72.6913 24.4565 71.0238 24.4565 69.0037H23.4565C23.4565 71.5941 25.6085 73.6913 28.2248 73.6913V72.6913ZM24.4565 69.0037V49.182H23.4565V69.0037H24.4565ZM24.4565 49.182C24.4565 47.1618 26.1427 45.4943 28.2248 45.4943V44.4943C25.6085 44.4943 23.4565 46.5916 23.4565 49.182H24.4565Z" fill="#020303" mask="url(#path-4-inside-1_2962_1335)"/>
<path d="M96.2261 32.7655C96.3111 32.2041 96.3961 31.6427 96.4811 31.0813C96.5662 30.707 96.6512 30.3327 96.7192 29.9584C96.7872 29.6181 96.8892 29.2609 97.2972 29.2609C97.7392 29.2609 97.8752 29.6351 97.9262 30.0094C98.0792 30.8771 98.2833 31.7448 98.3683 32.6294C98.4533 33.5141 98.9463 33.8714 99.7623 33.9735C100.612 34.0926 101.462 34.2287 102.295 34.3988C102.652 34.4668 103.044 34.5519 103.044 35.0283C103.044 35.5387 102.601 35.5046 102.261 35.5727C101.768 35.6748 101.258 35.6067 100.799 35.8109C100.442 36.2702 99.9153 36.1681 99.4393 36.2702C98.7253 36.5084 98.8273 37.2059 98.6233 37.7504C98.5043 38.2437 98.5723 38.7711 98.3853 39.2475C98.3343 39.4687 98.2833 39.6728 98.2493 39.894C98.1812 40.4044 97.9602 40.8127 97.4162 40.8808C96.8042 40.9658 96.5152 40.5235 96.3791 40.0131C96.1411 39.1624 95.9881 38.3118 95.9031 37.4271C95.9881 36.7806 95.6141 36.4744 95.0701 36.3043C94.39 36.1001 93.693 35.947 92.979 36.0831C92.7579 36.0661 92.5369 35.998 92.3329 35.947C91.8569 35.8279 91.4319 35.5897 91.4149 35.0283C91.3809 34.4158 91.8399 34.1436 92.3329 34.0245C92.7749 33.9054 93.234 33.8033 93.71 33.7863C94.152 33.7693 94.594 33.7353 95.0191 33.6162C95.5291 33.4631 95.8351 33.0378 96.2261 32.7655Z" fill="#ADC804"/>
<path d="M52.0303 11.8307C52.1153 11.2693 52.2003 10.7079 52.2853 10.1464C52.3704 9.77216 52.4554 9.39787 52.5234 9.02358C52.5914 8.68332 52.6934 8.32605 53.1014 8.32605C53.5434 8.32605 53.6794 8.70034 53.7304 9.07462C53.8834 9.94229 54.0875 10.81 54.1725 11.6946C54.2575 12.5793 54.7505 12.9366 55.5665 13.0387C56.4166 13.1577 57.2666 13.2938 58.0997 13.464C58.4567 13.532 58.8477 13.6171 58.8477 14.0935C58.8477 14.6039 58.4057 14.5698 58.0657 14.6379C57.5726 14.74 57.0626 14.6719 56.6036 14.8761C56.2466 15.3354 55.7195 15.2333 55.2435 15.3354C54.5295 15.5736 54.6315 16.2711 54.4275 16.8155C54.3085 17.3089 54.3765 17.8363 54.1895 18.3127C54.1385 18.5339 54.0875 18.738 54.0535 18.9592C53.9854 19.4696 53.7644 19.8779 53.2204 19.9459C52.6084 20.031 52.3194 19.5887 52.1833 19.0783C51.9453 18.2276 51.7923 17.377 51.7073 16.4923C51.7923 15.8458 51.4183 15.5396 50.8743 15.3694C50.1942 15.1653 49.4972 15.0122 48.7832 15.1483C48.5621 15.1313 48.3411 15.0632 48.1371 15.0122C47.6611 14.8931 47.2361 14.6549 47.2191 14.0935C47.1851 13.481 47.6441 13.2088 48.1371 13.0897C48.5791 12.9706 49.0382 12.8685 49.5142 12.8515C49.9562 12.8345 50.3982 12.8005 50.8233 12.6814C51.3333 12.5283 51.6393 12.1029 52.0303 11.8307Z" fill="#5B4398"/>
<path d="M23.1546 39.0428C23.2226 38.5936 23.2906 38.1445 23.3586 37.6953C23.4267 37.3959 23.4947 37.0965 23.5491 36.797C23.6035 36.5248 23.6851 36.239 24.0115 36.239C24.3651 36.239 24.4739 36.5384 24.5147 36.8379C24.6371 37.532 24.8003 38.2261 24.8683 38.9339C24.9363 39.6416 25.3308 39.9274 25.9836 40.0091C26.6636 40.1044 27.3437 40.2133 28.0101 40.3494C28.2957 40.4038 28.6085 40.4719 28.6085 40.8529C28.6085 41.2613 28.2549 41.234 27.9829 41.2885C27.5885 41.3701 27.1805 41.3157 26.8132 41.479C26.5276 41.8465 26.106 41.7648 25.7252 41.8465C25.154 42.037 25.2356 42.5951 25.0723 43.0306C24.9771 43.4253 25.0315 43.8472 24.8819 44.2283C24.8411 44.4053 24.8003 44.5686 24.7731 44.7455C24.7187 45.1538 24.5419 45.4805 24.1067 45.5349C23.6171 45.603 23.3859 45.2491 23.277 44.8408C23.0866 44.1603 22.9642 43.4798 22.8962 42.772C22.9642 42.2548 22.665 42.0098 22.2298 41.8737C21.6858 41.7104 21.1281 41.5879 20.5569 41.6968C20.3801 41.6832 20.2033 41.6287 20.0401 41.5879C19.6592 41.4926 19.3192 41.3021 19.3056 40.8529C19.2784 40.363 19.6456 40.1452 20.0401 40.0499C20.3937 39.9547 20.7609 39.873 21.1417 39.8594C21.4953 39.8458 21.849 39.8186 22.189 39.7233C22.597 39.6008 22.8418 39.2605 23.1546 39.0428Z" fill="#5B4398"/>
<path d="M53.0071 98.594C52.8423 99.0884 52.4098 99.2119 51.936 99.2737C50.0411 99.5003 50.0411 99.5003 49.7528 101.395C49.7322 101.56 49.691 101.725 49.6704 101.89C49.6086 102.26 49.5056 102.672 49.0525 102.672C48.62 102.672 48.3728 102.301 48.3522 101.931C48.3522 100.056 47.3842 99.2325 45.5717 99.2119C45.2421 99.2119 44.9126 98.9648 44.892 98.5735C44.8714 98.1203 45.2215 97.8732 45.5923 97.8526C47.4254 97.8114 48.3934 97.0081 48.1874 95.072C48.1462 94.7219 48.414 94.4335 48.8053 94.3923C49.2173 94.3717 49.4026 94.6807 49.5056 94.9896C49.6086 95.2986 49.7116 95.6487 49.691 95.9783C49.691 97.1935 50.3913 97.626 51.4829 97.6878C51.8536 97.7084 52.2038 97.8114 52.5539 97.935C52.8217 98.0173 53.0071 98.2233 53.0071 98.594Z" fill="#ACC837"/>
<path d="M76.2683 105.572C76.1035 106.067 75.671 106.19 75.1973 106.252C73.3024 106.479 73.3024 106.479 73.014 108.373C72.9934 108.538 72.9522 108.703 72.9316 108.868C72.8698 109.239 72.7669 109.65 72.3137 109.65C71.8812 109.65 71.634 109.28 71.6134 108.909C71.6134 107.035 70.6454 106.211 68.8329 106.19C68.5034 106.19 68.1738 105.943 68.1532 105.552C68.1326 105.099 68.4828 104.851 68.8535 104.831C70.6866 104.79 71.6546 103.986 71.4487 102.05C71.4075 101.7 71.6752 101.412 72.0666 101.371C72.4785 101.35 72.6639 101.659 72.7669 101.968C72.8698 102.277 72.9728 102.627 72.9522 102.957C72.9522 104.172 73.6525 104.604 74.7441 104.666C75.1149 104.687 75.465 104.79 75.8152 104.913C76.0829 104.996 76.2683 105.202 76.2683 105.572Z" fill="#C11D85"/>
<path d="M27.4458 50.1956L27.4458 68.8043" stroke="#9FAEB5" stroke-width="0.8" stroke-linecap="round"/>
<path d="M98.3911 50.1956L98.3911 68.8043" stroke="#9FAEB5" stroke-width="0.8" stroke-linecap="round"/>
<path d="M54.7364 78.5804C66.4611 83.3935 79.8342 77.4577 84.6061 65.3224C89.3781 53.1872 83.7417 39.4478 72.017 34.6347C60.2923 29.8216 46.9192 35.7574 42.1473 47.8927C37.3754 60.0279 43.0117 73.7673 54.7364 78.5804Z" fill="#059df5"/>
<path d="M54.1798 79.9449C42.9775 75.3462 36.6429 62.6896 39.8602 50.3092C41.5469 43.8161 45.5806 38.3662 51.2143 34.9647C56.8494 31.5626 63.4113 30.6152 69.6934 32.2973C75.9734 33.9784 81.2236 38.0893 84.4712 43.8702C87.7203 49.6505 88.5798 56.4107 86.8931 62.9038C85.2064 69.3968 81.1726 74.8467 75.539 78.2482C69.9038 81.6504 63.342 82.5977 57.0598 80.9157C56.0694 80.6501 55.1077 80.3245 54.1802 79.9438L54.1798 79.9449ZM42.6203 51.0493C39.546 62.88 46.3549 74.9977 57.8006 78.0631C69.2452 81.128 81.0578 73.9967 84.131 62.1655C87.2053 50.3347 80.3966 38.2132 68.9507 35.1516C57.5061 32.0867 45.6935 39.218 42.6203 51.0493Z" fill="#5B4398"/>
<g opacity="0.2">
<path d="M75.8059 76.3437C71.07 78.6907 65.5482 79.3926 60.0942 77.9331C47.8692 74.6588 40.6207 61.7601 43.9039 49.1222C45.4314 43.2426 48.9751 38.4649 53.5528 35.3558C51.729 36.2664 50.0225 37.421 48.4815 38.7897C50.9553 36.5885 53.8548 34.9341 56.9846 33.9643C53.2407 37.041 50.3813 41.3359 49.0484 46.4611C45.7641 59.0986 53.0137 71.9977 65.2387 75.2721C69.4403 76.3976 73.684 76.2389 77.5761 75.0338C76.7095 75.7459 75.7911 76.3846 74.838 76.9607C75.1643 76.763 75.4873 76.5575 75.8044 76.3444L75.8059 76.3437Z" fill="#5B4398"/>
</g>
<g opacity="0.4">
<path d="M84.1329 62.1667C85.2978 57.684 85.0413 53.1622 83.6546 49.106C81.7474 43.528 77.6988 38.8347 72.2479 36.3411C71.9988 36.2271 71.7489 36.1154 71.4937 36.0106C70.6759 35.6749 69.8269 35.3865 68.9526 35.1529C63.4089 33.6682 57.616 34.5044 52.6425 37.5071C52.1878 37.7813 51.7489 38.0763 51.3176 38.381C56.1261 35.7178 61.63 35.0229 66.9105 36.436C67.7848 36.6696 68.6338 36.958 69.4515 37.2937C70.5419 37.7413 71.5764 38.2796 72.5559 38.8906C73.0584 40.6504 74.1204 42.6294 75.6659 44.4728C77.3217 46.4462 79.2089 47.8828 80.9179 48.6079C82.8928 53.0962 83.4294 58.3008 82.0915 63.4514C80.7378 68.6581 77.672 73.0994 73.3946 76.1216C73.6351 75.9879 73.8751 75.8554 74.1118 75.7123C79.0842 72.7092 82.644 67.9002 84.1336 62.1683L84.1329 62.1667Z" fill="white"/>
</g>
<g clip-path="url(#clip0_2962_1335)">
<path d="M50.8442 59.7671L66.6468 43.6211C66.9009 43.3615 67.2351 43.2319 67.5692 43.2319C67.9032 43.2319 68.2374 43.3617 68.4915 43.6211L70.3066 45.4757C70.4403 45.612 70.5414 45.7774 70.5744 45.9786C70.6101 46.1952 70.5641 46.4198 70.3941 46.644C70.059 47.0858 69.9119 47.627 69.9452 48.1579C69.9784 48.6882 70.1931 49.2063 70.5814 49.6033C70.9745 50.0049 71.4796 50.2227 71.9933 50.2564C72.5155 50.2904 73.0458 50.1366 73.4778 49.7947C73.6974 49.621 73.917 49.574 74.129 49.6105C74.3259 49.6444 74.4878 49.7477 74.6212 49.884L76.4364 51.7386C76.6902 51.9982 76.8175 52.3397 76.8175 52.6808C76.8175 53.0219 76.6907 53.3638 76.4366 53.6234L60.6342 69.7691C60.3802 70.0287 60.0457 70.1583 59.7119 70.1583C59.3781 70.1583 59.0436 70.0283 58.7896 69.7689L56.9744 67.9143C56.841 67.778 56.7398 67.6126 56.7067 67.4114C56.671 67.1948 56.7167 66.9704 56.887 66.746C57.2216 66.3047 57.3724 65.7628 57.3388 65.2292C57.3059 64.7044 57.0929 64.1885 56.6996 63.7867C56.3111 63.3899 55.8038 63.1706 55.285 63.1367C54.7654 63.1028 54.2355 63.2532 53.8033 63.5953C53.5836 63.7695 53.364 63.8162 53.1521 63.7797C52.9551 63.7459 52.7933 63.6425 52.6598 63.5062L50.8447 61.6516C50.5904 61.3922 50.4634 61.0507 50.4634 60.7096C50.4634 60.3684 50.5904 60.0264 50.8442 59.7671ZM69.3512 54.5518L70.3019 55.523L69.6431 56.1962L68.6923 55.225L69.3512 54.5518ZM67.8298 52.9974L68.7806 53.9688L68.1217 54.642L67.1712 53.6706L67.83 52.9974L67.8298 52.9974ZM66.3085 51.443L67.2593 52.4144L66.6004 53.0876L65.6496 52.1162L66.3085 51.443ZM64.7872 49.8888L65.738 50.8603L65.0791 51.5335L64.1283 50.562L64.787 49.8888L64.7872 49.8888ZM63.3086 48.3782L64.2169 49.3061L63.558 49.9793L62.6498 49.0514L51.5033 60.4402C51.4313 60.5141 51.3951 60.6115 51.3951 60.7094C51.3951 60.8073 51.4313 60.905 51.5033 60.9786L53.2894 62.8035C53.8984 62.3431 54.6298 62.1412 55.3441 62.1878C56.0825 62.2361 56.8049 62.5485 57.3583 63.114C57.9177 63.6856 58.221 64.4204 58.2678 65.1691C58.3138 65.9024 58.1119 66.6505 57.6624 67.2711L59.4482 69.096C59.5205 69.1698 59.6159 69.2065 59.7117 69.2065C59.8075 69.2065 59.9031 69.1696 59.9752 69.0962L71.1218 57.7073L70.2136 56.7793L70.8725 56.1062L71.7807 57.0341L75.7775 52.9504C75.8496 52.8766 75.8855 52.7791 75.8855 52.681C75.8855 52.5829 75.8496 52.4855 75.7773 52.4118L73.9915 50.5872C73.3839 51.0464 72.6517 51.2527 71.934 51.2059C71.2012 51.1579 70.4818 50.848 69.9223 50.2767C69.3689 49.7112 69.0633 48.9731 69.0158 48.2187C68.9703 47.4887 69.1679 46.7419 69.6185 46.1191L67.8324 44.2943C67.7603 44.2206 67.6647 44.1839 67.5689 44.1839C67.4731 44.1839 67.3775 44.2208 67.3055 44.2943L63.3086 48.378L63.3086 48.3782Z" fill="white"/>
</g>
<defs>
<filter id="filter0_d_2962_1335" x="0" y="0" width="127" height="127" filterUnits="userSpaceOnUse" color-interpolation-filters="sRGB">
<feFlood flood-opacity="0" result="BackgroundImageFix"/>
<feColorMatrix in="SourceAlpha" type="matrix" values="0 0 0 0 0 0 0 0 0 0 0 0 0 0 0 0 0 0 127 0" result="hardAlpha"/>
<feOffset dy="4"/>
<feGaussianBlur stdDeviation="5"/>
<feComposite in2="hardAlpha" operator="out"/>
<feColorMatrix type="matrix" values="0 0 0 0 0 0 0 0 0 0 0 0 0 0 0 0 0 0 0.25 0"/>
<feBlend mode="normal" in2="BackgroundImageFix" result="effect1_dropShadow_2962_1335"/>
<feBlend mode="normal" in="SourceGraphic" in2="effect1_dropShadow_2962_1335" result="shape"/>
</filter>
<clipPath id="clip0_2962_1335">
<rect width="26.4919" height="26.7906" fill="white" transform="translate(50.4634 43.2319) scale(0.994781 1.00508)"/>
</clipPath>
</defs>
</svg>
