<svg width="35" height="35" viewBox="0 0 35 35" fill="none" xmlns="http://www.w3.org/2000/svg">
<circle cx="17.5" cy="17.5" r="17.5" fill="#BB0070"/>
<g clip-path="url(#clip0_5135_2540)">
<path d="M20.0592 11.8C20.0624 11.3281 19.8592 10.9406 19.553 10.8344C19.4936 10.8156 19.428 10.7969 19.3717 10.7969C19.353 10.7969 19.3374 10.8 19.3186 10.8031C19.0092 10.8688 18.6999 10.9437 18.3999 11.0187C18.2749 11.05 18.1499 11.0813 18.0249 11.1094C17.8717 11.1469 17.7186 11.1844 17.5655 11.2219C17.4124 11.2594 17.2592 11.2969 17.1061 11.3344L15.6624 11.6813C15.4467 11.7344 15.2311 11.7844 15.0155 11.8344C14.7999 11.8844 14.5842 11.9344 14.3686 11.9875C13.8749 12.1031 13.3749 12.2281 12.9499 12.3313C12.653 12.4031 12.3311 12.4781 12.0155 12.55C11.3842 12.7 10.5842 12.9875 10.0092 13.8844C9.44985 14.7563 9.2186 15.7531 9.32173 16.8438C9.43735 18.0687 9.90923 19.025 10.7249 19.6781C11.0155 19.9062 11.3561 20.0625 11.7374 20.1375C11.8155 20.1531 11.8936 20.1687 11.9749 20.1844C12.0905 20.2094 12.2092 20.2312 12.328 20.2531C12.4655 20.275 12.5186 20.3969 12.5624 20.4969L12.5655 20.5031C12.853 21.1656 13.1405 21.8375 13.4217 22.4906C13.703 23.1438 13.9905 23.8156 14.278 24.4781C14.2874 24.5031 14.2999 24.5281 14.3092 24.5531C14.3967 24.7563 14.478 24.95 14.628 25.075C14.7499 25.175 14.8905 25.2188 15.0311 25.2063C15.1811 25.1906 15.328 25.1062 15.4374 24.9656C15.6749 24.6719 15.7311 24.2125 15.5749 23.8469C15.3717 23.375 15.1686 22.9031 14.9655 22.4313C14.7624 21.9594 14.5592 21.4875 14.3561 21.0156C14.3405 20.9812 14.3342 20.9406 14.3249 20.8969C14.3217 20.8781 14.3186 20.8562 14.3124 20.8344L14.2874 20.7156L14.4061 20.7406C14.4592 20.7531 14.5061 20.7625 14.553 20.7719C14.6405 20.7906 14.7217 20.8094 14.7999 20.8281C15.0842 20.8969 15.3686 20.9656 15.653 21.0344C15.9374 21.1031 16.2217 21.1719 16.5061 21.2406C16.7374 21.2969 16.9749 21.35 17.203 21.4031C17.4311 21.4563 17.6686 21.5094 17.903 21.5656C18.0467 21.6 18.1936 21.6344 18.3342 21.6656C18.6186 21.7312 18.9124 21.8 19.1999 21.875C19.3749 21.9219 19.5592 21.8813 19.7155 21.7625C19.9342 21.5938 20.0624 21.3031 20.0624 20.9594C20.0624 20.7125 20.0624 20.4656 20.0624 20.2188C20.0624 19.9719 20.0624 19.725 20.0624 19.4781C20.0624 18.8375 20.0624 18.2 20.0624 17.5594C20.0561 15.6781 20.0561 13.725 20.0592 11.8ZM18.8624 19.5406C18.8624 19.6906 18.8624 19.8469 18.7374 19.9438C18.6842 19.9844 18.6186 20.0063 18.5467 20.0063C18.4842 20.0063 18.4249 19.9906 18.3749 19.9781C18.2592 19.95 18.1436 19.9219 18.0311 19.8938H18.0249C17.9155 19.8656 17.803 19.8375 17.6936 19.8125C17.4749 19.7594 17.2561 19.7094 17.0374 19.6562L17.0186 19.6531C16.7936 19.6 16.5686 19.5469 16.3436 19.4938C15.9155 19.3875 15.4124 19.2656 14.9249 19.15C14.7124 19.1 14.503 19.05 14.2936 19L14.2624 18.9938C14.0561 18.9438 13.8499 18.8969 13.6436 18.8469C12.8936 18.6656 11.8846 18.2 11.4002 17.6C10.8439 16.9094 10.9158 15.9656 11.0002 15.6C11.3408 14.1594 13.0467 13.9656 14.2374 13.7156C14.3905 13.6844 14.5342 13.6531 14.6686 13.6219C15.0624 13.5312 15.4624 13.4344 15.8499 13.3406C16.0655 13.2875 16.278 13.2375 16.4936 13.1875C16.6592 13.1469 16.828 13.1094 16.9936 13.0688H16.9999C17.1436 13.0344 17.2874 13.0031 17.428 12.9688C17.5499 12.9406 17.6749 12.9094 17.7967 12.8781C17.9999 12.8281 18.2092 12.775 18.4217 12.7281C18.4874 12.7125 18.6186 12.6844 18.7342 12.775C18.853 12.8688 18.853 13.0125 18.853 13.1188C18.853 14.1031 18.853 15.1188 18.8592 16.125H18.8624V19.5406Z" fill="white"/>
<path d="M21.8185 18.8405C21.8779 18.853 21.9529 18.8592 22.0248 18.8623C22.0654 18.8655 22.1029 18.8655 22.1435 18.8686C23.2466 18.7592 24.0029 18.2405 24.4591 17.2842C24.7373 16.6998 24.781 16.0717 24.5904 15.4248C24.3779 14.6936 23.9154 14.1405 23.2216 13.7811C22.9154 13.6217 22.5654 13.5248 22.1529 13.4905C21.8529 13.4655 21.6623 13.5686 21.5623 13.8061C21.5029 13.9467 21.506 14.0936 21.5654 14.2248C21.6248 14.353 21.731 14.4467 21.8654 14.4873C21.9404 14.5092 22.0248 14.5217 22.1279 14.5311C23.006 14.5967 23.6748 15.3373 23.6529 16.2217C23.6341 16.9311 23.106 17.5967 22.4185 17.7717C22.2935 17.8061 22.156 17.8248 21.9748 17.8373C21.7216 17.853 21.5091 18.0373 21.4779 18.2686C21.4466 18.5248 21.5904 18.7686 21.8185 18.8405Z" fill="white"/>
<path d="M21.5843 15.5752C21.2499 15.5752 20.978 15.8471 20.978 16.1814C20.978 16.3408 21.0405 16.4908 21.1593 16.6064C21.2749 16.7221 21.428 16.7846 21.5843 16.7846C21.5874 16.7846 21.5874 16.7846 21.5905 16.7846C21.9155 16.7814 22.1937 16.5033 22.1937 16.1783C22.1937 16.0189 22.1343 15.8658 22.0218 15.7533C21.9062 15.6377 21.7499 15.5752 21.5843 15.5752Z" fill="white"/>
</g>
<defs>
<clipPath id="clip0_5135_2540">
<rect width="16" height="16" fill="white" transform="translate(9 10)"/>
</clipPath>
</defs>
</svg>
