<svg width="35" height="35" viewBox="0 0 35 35" fill="none" xmlns="http://www.w3.org/2000/svg">
<circle cx="17.5" cy="17.5" r="17.5" fill="#BB0070"/>
<path d="M17.0002 11.8335C12.3755 11.8335 10.8335 13.3755 10.8335 18.0002C10.8335 22.6248 12.3755 24.1668 17.0002 24.1668C21.6248 24.1668 23.1668 22.6248 23.1668 18.0002" stroke="white" stroke-width="1.5" stroke-linecap="round" stroke-linejoin="round"/>
<path fill-rule="evenodd" clip-rule="evenodd" d="M22.0191 12.8691V12.8691C21.3571 12.2831 20.3457 12.3444 19.7597 13.0064C19.7597 13.0064 16.8471 16.2964 15.8371 17.4384C14.8257 18.5798 15.5671 20.1564 15.5671 20.1564C15.5671 20.1564 17.2364 20.6851 18.2324 19.5598C19.2291 18.4344 22.1564 15.1284 22.1564 15.1284C22.7424 14.4664 22.6804 13.4551 22.0191 12.8691Z" stroke="white" stroke-width="1.5" stroke-linecap="round" stroke-linejoin="round"/>
<path d="M19.006 13.8672L21.4026 15.9892" stroke="white" stroke-width="1.5" stroke-linecap="round" stroke-linejoin="round"/>
</svg>
