<svg width="35" height="35" viewBox="0 0 35 35" fill="none" xmlns="http://www.w3.org/2000/svg">
<circle cx="17.5" cy="17.5" r="17.5" fill="#BB0070"/>
<path fill-rule="evenodd" clip-rule="evenodd" d="M23.0003 14.4492C23.0003 15.8016 21.9035 16.8984 20.5511 16.8984C19.1987 16.8984 18.1025 15.8016 18.1025 14.4492C18.1025 13.0968 19.1987 12 20.5511 12C21.9035 12 23.0003 13.0968 23.0003 14.4492Z" stroke="white" stroke-width="1.5" stroke-linecap="round" stroke-linejoin="round"/>
<path fill-rule="evenodd" clip-rule="evenodd" d="M15.8978 14.4492C15.8978 15.8016 14.8016 16.8984 13.4486 16.8984C12.0968 16.8984 11 15.8016 11 14.4492C11 13.0968 12.0968 12 13.4486 12C14.8016 12 15.8978 13.0968 15.8978 14.4492Z" stroke="white" stroke-width="1.5" stroke-linecap="round" stroke-linejoin="round"/>
<path fill-rule="evenodd" clip-rule="evenodd" d="M23.0003 21.5078C23.0003 22.8602 21.9035 23.9564 20.5511 23.9564C19.1987 23.9564 18.1025 22.8602 18.1025 21.5078C18.1025 20.1554 19.1987 19.0586 20.5511 19.0586C21.9035 19.0586 23.0003 20.1554 23.0003 21.5078Z" stroke="white" stroke-width="1.5" stroke-linecap="round" stroke-linejoin="round"/>
<path fill-rule="evenodd" clip-rule="evenodd" d="M15.8978 21.5078C15.8978 22.8602 14.8016 23.9564 13.4486 23.9564C12.0968 23.9564 11 22.8602 11 21.5078C11 20.1554 12.0968 19.0586 13.4486 19.0586C14.8016 19.0586 15.8978 20.1554 15.8978 21.5078Z" stroke="white" stroke-width="1.5" stroke-linecap="round" stroke-linejoin="round"/>
</svg>
